G04 #@! TF.GenerationSoftware,KiCad,Pcbnew,(5.1.5-0-10_14)*
G04 #@! TF.CreationDate,2020-06-04T16:49:04+02:00*
G04 #@! TF.ProjectId,yuv-rgb-converter,7975762d-7267-4622-9d63-6f6e76657274,rev?*
G04 #@! TF.SameCoordinates,Original*
G04 #@! TF.FileFunction,Paste,Top*
G04 #@! TF.FilePolarity,Positive*
%FSLAX46Y46*%
G04 Gerber Fmt 4.6, Leading zero omitted, Abs format (unit mm)*
G04 Created by KiCad (PCBNEW (5.1.5-0-10_14)) date 2020-06-04 16:49:04*
%MOMM*%
%LPD*%
G04 APERTURE LIST*
%ADD10C,0.100000*%
G04 APERTURE END LIST*
D10*
G36*
X139964305Y-88455204D02*
G01*
X139988573Y-88458804D01*
X140012372Y-88464765D01*
X140035471Y-88473030D01*
X140057650Y-88483520D01*
X140078693Y-88496132D01*
X140098399Y-88510747D01*
X140116577Y-88527223D01*
X140133053Y-88545401D01*
X140147668Y-88565107D01*
X140160280Y-88586150D01*
X140170770Y-88608329D01*
X140179035Y-88631428D01*
X140184996Y-88655227D01*
X140188596Y-88679495D01*
X140189800Y-88703999D01*
X140189800Y-89604001D01*
X140188596Y-89628505D01*
X140184996Y-89652773D01*
X140179035Y-89676572D01*
X140170770Y-89699671D01*
X140160280Y-89721850D01*
X140147668Y-89742893D01*
X140133053Y-89762599D01*
X140116577Y-89780777D01*
X140098399Y-89797253D01*
X140078693Y-89811868D01*
X140057650Y-89824480D01*
X140035471Y-89834970D01*
X140012372Y-89843235D01*
X139988573Y-89849196D01*
X139964305Y-89852796D01*
X139939801Y-89854000D01*
X139289799Y-89854000D01*
X139265295Y-89852796D01*
X139241027Y-89849196D01*
X139217228Y-89843235D01*
X139194129Y-89834970D01*
X139171950Y-89824480D01*
X139150907Y-89811868D01*
X139131201Y-89797253D01*
X139113023Y-89780777D01*
X139096547Y-89762599D01*
X139081932Y-89742893D01*
X139069320Y-89721850D01*
X139058830Y-89699671D01*
X139050565Y-89676572D01*
X139044604Y-89652773D01*
X139041004Y-89628505D01*
X139039800Y-89604001D01*
X139039800Y-88703999D01*
X139041004Y-88679495D01*
X139044604Y-88655227D01*
X139050565Y-88631428D01*
X139058830Y-88608329D01*
X139069320Y-88586150D01*
X139081932Y-88565107D01*
X139096547Y-88545401D01*
X139113023Y-88527223D01*
X139131201Y-88510747D01*
X139150907Y-88496132D01*
X139171950Y-88483520D01*
X139194129Y-88473030D01*
X139217228Y-88464765D01*
X139241027Y-88458804D01*
X139265295Y-88455204D01*
X139289799Y-88454000D01*
X139939801Y-88454000D01*
X139964305Y-88455204D01*
G37*
G36*
X142014305Y-88455204D02*
G01*
X142038573Y-88458804D01*
X142062372Y-88464765D01*
X142085471Y-88473030D01*
X142107650Y-88483520D01*
X142128693Y-88496132D01*
X142148399Y-88510747D01*
X142166577Y-88527223D01*
X142183053Y-88545401D01*
X142197668Y-88565107D01*
X142210280Y-88586150D01*
X142220770Y-88608329D01*
X142229035Y-88631428D01*
X142234996Y-88655227D01*
X142238596Y-88679495D01*
X142239800Y-88703999D01*
X142239800Y-89604001D01*
X142238596Y-89628505D01*
X142234996Y-89652773D01*
X142229035Y-89676572D01*
X142220770Y-89699671D01*
X142210280Y-89721850D01*
X142197668Y-89742893D01*
X142183053Y-89762599D01*
X142166577Y-89780777D01*
X142148399Y-89797253D01*
X142128693Y-89811868D01*
X142107650Y-89824480D01*
X142085471Y-89834970D01*
X142062372Y-89843235D01*
X142038573Y-89849196D01*
X142014305Y-89852796D01*
X141989801Y-89854000D01*
X141339799Y-89854000D01*
X141315295Y-89852796D01*
X141291027Y-89849196D01*
X141267228Y-89843235D01*
X141244129Y-89834970D01*
X141221950Y-89824480D01*
X141200907Y-89811868D01*
X141181201Y-89797253D01*
X141163023Y-89780777D01*
X141146547Y-89762599D01*
X141131932Y-89742893D01*
X141119320Y-89721850D01*
X141108830Y-89699671D01*
X141100565Y-89676572D01*
X141094604Y-89652773D01*
X141091004Y-89628505D01*
X141089800Y-89604001D01*
X141089800Y-88703999D01*
X141091004Y-88679495D01*
X141094604Y-88655227D01*
X141100565Y-88631428D01*
X141108830Y-88608329D01*
X141119320Y-88586150D01*
X141131932Y-88565107D01*
X141146547Y-88545401D01*
X141163023Y-88527223D01*
X141181201Y-88510747D01*
X141200907Y-88496132D01*
X141221950Y-88483520D01*
X141244129Y-88473030D01*
X141267228Y-88464765D01*
X141291027Y-88458804D01*
X141315295Y-88455204D01*
X141339799Y-88454000D01*
X141989801Y-88454000D01*
X142014305Y-88455204D01*
G37*
G36*
X144409305Y-86423204D02*
G01*
X144433573Y-86426804D01*
X144457372Y-86432765D01*
X144480471Y-86441030D01*
X144502650Y-86451520D01*
X144523693Y-86464132D01*
X144543399Y-86478747D01*
X144561577Y-86495223D01*
X144578053Y-86513401D01*
X144592668Y-86533107D01*
X144605280Y-86554150D01*
X144615770Y-86576329D01*
X144624035Y-86599428D01*
X144629996Y-86623227D01*
X144633596Y-86647495D01*
X144634800Y-86671999D01*
X144634800Y-87572001D01*
X144633596Y-87596505D01*
X144629996Y-87620773D01*
X144624035Y-87644572D01*
X144615770Y-87667671D01*
X144605280Y-87689850D01*
X144592668Y-87710893D01*
X144578053Y-87730599D01*
X144561577Y-87748777D01*
X144543399Y-87765253D01*
X144523693Y-87779868D01*
X144502650Y-87792480D01*
X144480471Y-87802970D01*
X144457372Y-87811235D01*
X144433573Y-87817196D01*
X144409305Y-87820796D01*
X144384801Y-87822000D01*
X143734799Y-87822000D01*
X143710295Y-87820796D01*
X143686027Y-87817196D01*
X143662228Y-87811235D01*
X143639129Y-87802970D01*
X143616950Y-87792480D01*
X143595907Y-87779868D01*
X143576201Y-87765253D01*
X143558023Y-87748777D01*
X143541547Y-87730599D01*
X143526932Y-87710893D01*
X143514320Y-87689850D01*
X143503830Y-87667671D01*
X143495565Y-87644572D01*
X143489604Y-87620773D01*
X143486004Y-87596505D01*
X143484800Y-87572001D01*
X143484800Y-86671999D01*
X143486004Y-86647495D01*
X143489604Y-86623227D01*
X143495565Y-86599428D01*
X143503830Y-86576329D01*
X143514320Y-86554150D01*
X143526932Y-86533107D01*
X143541547Y-86513401D01*
X143558023Y-86495223D01*
X143576201Y-86478747D01*
X143595907Y-86464132D01*
X143616950Y-86451520D01*
X143639129Y-86441030D01*
X143662228Y-86432765D01*
X143686027Y-86426804D01*
X143710295Y-86423204D01*
X143734799Y-86422000D01*
X144384801Y-86422000D01*
X144409305Y-86423204D01*
G37*
G36*
X146459305Y-86423204D02*
G01*
X146483573Y-86426804D01*
X146507372Y-86432765D01*
X146530471Y-86441030D01*
X146552650Y-86451520D01*
X146573693Y-86464132D01*
X146593399Y-86478747D01*
X146611577Y-86495223D01*
X146628053Y-86513401D01*
X146642668Y-86533107D01*
X146655280Y-86554150D01*
X146665770Y-86576329D01*
X146674035Y-86599428D01*
X146679996Y-86623227D01*
X146683596Y-86647495D01*
X146684800Y-86671999D01*
X146684800Y-87572001D01*
X146683596Y-87596505D01*
X146679996Y-87620773D01*
X146674035Y-87644572D01*
X146665770Y-87667671D01*
X146655280Y-87689850D01*
X146642668Y-87710893D01*
X146628053Y-87730599D01*
X146611577Y-87748777D01*
X146593399Y-87765253D01*
X146573693Y-87779868D01*
X146552650Y-87792480D01*
X146530471Y-87802970D01*
X146507372Y-87811235D01*
X146483573Y-87817196D01*
X146459305Y-87820796D01*
X146434801Y-87822000D01*
X145784799Y-87822000D01*
X145760295Y-87820796D01*
X145736027Y-87817196D01*
X145712228Y-87811235D01*
X145689129Y-87802970D01*
X145666950Y-87792480D01*
X145645907Y-87779868D01*
X145626201Y-87765253D01*
X145608023Y-87748777D01*
X145591547Y-87730599D01*
X145576932Y-87710893D01*
X145564320Y-87689850D01*
X145553830Y-87667671D01*
X145545565Y-87644572D01*
X145539604Y-87620773D01*
X145536004Y-87596505D01*
X145534800Y-87572001D01*
X145534800Y-86671999D01*
X145536004Y-86647495D01*
X145539604Y-86623227D01*
X145545565Y-86599428D01*
X145553830Y-86576329D01*
X145564320Y-86554150D01*
X145576932Y-86533107D01*
X145591547Y-86513401D01*
X145608023Y-86495223D01*
X145626201Y-86478747D01*
X145645907Y-86464132D01*
X145666950Y-86451520D01*
X145689129Y-86441030D01*
X145712228Y-86432765D01*
X145736027Y-86426804D01*
X145760295Y-86423204D01*
X145784799Y-86422000D01*
X146434801Y-86422000D01*
X146459305Y-86423204D01*
G37*
G36*
X140040505Y-83375204D02*
G01*
X140064773Y-83378804D01*
X140088572Y-83384765D01*
X140111671Y-83393030D01*
X140133850Y-83403520D01*
X140154893Y-83416132D01*
X140174599Y-83430747D01*
X140192777Y-83447223D01*
X140209253Y-83465401D01*
X140223868Y-83485107D01*
X140236480Y-83506150D01*
X140246970Y-83528329D01*
X140255235Y-83551428D01*
X140261196Y-83575227D01*
X140264796Y-83599495D01*
X140266000Y-83623999D01*
X140266000Y-84524001D01*
X140264796Y-84548505D01*
X140261196Y-84572773D01*
X140255235Y-84596572D01*
X140246970Y-84619671D01*
X140236480Y-84641850D01*
X140223868Y-84662893D01*
X140209253Y-84682599D01*
X140192777Y-84700777D01*
X140174599Y-84717253D01*
X140154893Y-84731868D01*
X140133850Y-84744480D01*
X140111671Y-84754970D01*
X140088572Y-84763235D01*
X140064773Y-84769196D01*
X140040505Y-84772796D01*
X140016001Y-84774000D01*
X139365999Y-84774000D01*
X139341495Y-84772796D01*
X139317227Y-84769196D01*
X139293428Y-84763235D01*
X139270329Y-84754970D01*
X139248150Y-84744480D01*
X139227107Y-84731868D01*
X139207401Y-84717253D01*
X139189223Y-84700777D01*
X139172747Y-84682599D01*
X139158132Y-84662893D01*
X139145520Y-84641850D01*
X139135030Y-84619671D01*
X139126765Y-84596572D01*
X139120804Y-84572773D01*
X139117204Y-84548505D01*
X139116000Y-84524001D01*
X139116000Y-83623999D01*
X139117204Y-83599495D01*
X139120804Y-83575227D01*
X139126765Y-83551428D01*
X139135030Y-83528329D01*
X139145520Y-83506150D01*
X139158132Y-83485107D01*
X139172747Y-83465401D01*
X139189223Y-83447223D01*
X139207401Y-83430747D01*
X139227107Y-83416132D01*
X139248150Y-83403520D01*
X139270329Y-83393030D01*
X139293428Y-83384765D01*
X139317227Y-83378804D01*
X139341495Y-83375204D01*
X139365999Y-83374000D01*
X140016001Y-83374000D01*
X140040505Y-83375204D01*
G37*
G36*
X142090505Y-83375204D02*
G01*
X142114773Y-83378804D01*
X142138572Y-83384765D01*
X142161671Y-83393030D01*
X142183850Y-83403520D01*
X142204893Y-83416132D01*
X142224599Y-83430747D01*
X142242777Y-83447223D01*
X142259253Y-83465401D01*
X142273868Y-83485107D01*
X142286480Y-83506150D01*
X142296970Y-83528329D01*
X142305235Y-83551428D01*
X142311196Y-83575227D01*
X142314796Y-83599495D01*
X142316000Y-83623999D01*
X142316000Y-84524001D01*
X142314796Y-84548505D01*
X142311196Y-84572773D01*
X142305235Y-84596572D01*
X142296970Y-84619671D01*
X142286480Y-84641850D01*
X142273868Y-84662893D01*
X142259253Y-84682599D01*
X142242777Y-84700777D01*
X142224599Y-84717253D01*
X142204893Y-84731868D01*
X142183850Y-84744480D01*
X142161671Y-84754970D01*
X142138572Y-84763235D01*
X142114773Y-84769196D01*
X142090505Y-84772796D01*
X142066001Y-84774000D01*
X141415999Y-84774000D01*
X141391495Y-84772796D01*
X141367227Y-84769196D01*
X141343428Y-84763235D01*
X141320329Y-84754970D01*
X141298150Y-84744480D01*
X141277107Y-84731868D01*
X141257401Y-84717253D01*
X141239223Y-84700777D01*
X141222747Y-84682599D01*
X141208132Y-84662893D01*
X141195520Y-84641850D01*
X141185030Y-84619671D01*
X141176765Y-84596572D01*
X141170804Y-84572773D01*
X141167204Y-84548505D01*
X141166000Y-84524001D01*
X141166000Y-83623999D01*
X141167204Y-83599495D01*
X141170804Y-83575227D01*
X141176765Y-83551428D01*
X141185030Y-83528329D01*
X141195520Y-83506150D01*
X141208132Y-83485107D01*
X141222747Y-83465401D01*
X141239223Y-83447223D01*
X141257401Y-83430747D01*
X141277107Y-83416132D01*
X141298150Y-83403520D01*
X141320329Y-83393030D01*
X141343428Y-83384765D01*
X141367227Y-83378804D01*
X141391495Y-83375204D01*
X141415999Y-83374000D01*
X142066001Y-83374000D01*
X142090505Y-83375204D01*
G37*
G36*
X146270505Y-102820604D02*
G01*
X146294773Y-102824204D01*
X146318572Y-102830165D01*
X146341671Y-102838430D01*
X146363850Y-102848920D01*
X146384893Y-102861532D01*
X146404599Y-102876147D01*
X146422777Y-102892623D01*
X146439253Y-102910801D01*
X146453868Y-102930507D01*
X146466480Y-102951550D01*
X146476970Y-102973729D01*
X146485235Y-102996828D01*
X146491196Y-103020627D01*
X146494796Y-103044895D01*
X146496000Y-103069399D01*
X146496000Y-103719401D01*
X146494796Y-103743905D01*
X146491196Y-103768173D01*
X146485235Y-103791972D01*
X146476970Y-103815071D01*
X146466480Y-103837250D01*
X146453868Y-103858293D01*
X146439253Y-103877999D01*
X146422777Y-103896177D01*
X146404599Y-103912653D01*
X146384893Y-103927268D01*
X146363850Y-103939880D01*
X146341671Y-103950370D01*
X146318572Y-103958635D01*
X146294773Y-103964596D01*
X146270505Y-103968196D01*
X146246001Y-103969400D01*
X145345999Y-103969400D01*
X145321495Y-103968196D01*
X145297227Y-103964596D01*
X145273428Y-103958635D01*
X145250329Y-103950370D01*
X145228150Y-103939880D01*
X145207107Y-103927268D01*
X145187401Y-103912653D01*
X145169223Y-103896177D01*
X145152747Y-103877999D01*
X145138132Y-103858293D01*
X145125520Y-103837250D01*
X145115030Y-103815071D01*
X145106765Y-103791972D01*
X145100804Y-103768173D01*
X145097204Y-103743905D01*
X145096000Y-103719401D01*
X145096000Y-103069399D01*
X145097204Y-103044895D01*
X145100804Y-103020627D01*
X145106765Y-102996828D01*
X145115030Y-102973729D01*
X145125520Y-102951550D01*
X145138132Y-102930507D01*
X145152747Y-102910801D01*
X145169223Y-102892623D01*
X145187401Y-102876147D01*
X145207107Y-102861532D01*
X145228150Y-102848920D01*
X145250329Y-102838430D01*
X145273428Y-102830165D01*
X145297227Y-102824204D01*
X145321495Y-102820604D01*
X145345999Y-102819400D01*
X146246001Y-102819400D01*
X146270505Y-102820604D01*
G37*
G36*
X146270505Y-104870604D02*
G01*
X146294773Y-104874204D01*
X146318572Y-104880165D01*
X146341671Y-104888430D01*
X146363850Y-104898920D01*
X146384893Y-104911532D01*
X146404599Y-104926147D01*
X146422777Y-104942623D01*
X146439253Y-104960801D01*
X146453868Y-104980507D01*
X146466480Y-105001550D01*
X146476970Y-105023729D01*
X146485235Y-105046828D01*
X146491196Y-105070627D01*
X146494796Y-105094895D01*
X146496000Y-105119399D01*
X146496000Y-105769401D01*
X146494796Y-105793905D01*
X146491196Y-105818173D01*
X146485235Y-105841972D01*
X146476970Y-105865071D01*
X146466480Y-105887250D01*
X146453868Y-105908293D01*
X146439253Y-105927999D01*
X146422777Y-105946177D01*
X146404599Y-105962653D01*
X146384893Y-105977268D01*
X146363850Y-105989880D01*
X146341671Y-106000370D01*
X146318572Y-106008635D01*
X146294773Y-106014596D01*
X146270505Y-106018196D01*
X146246001Y-106019400D01*
X145345999Y-106019400D01*
X145321495Y-106018196D01*
X145297227Y-106014596D01*
X145273428Y-106008635D01*
X145250329Y-106000370D01*
X145228150Y-105989880D01*
X145207107Y-105977268D01*
X145187401Y-105962653D01*
X145169223Y-105946177D01*
X145152747Y-105927999D01*
X145138132Y-105908293D01*
X145125520Y-105887250D01*
X145115030Y-105865071D01*
X145106765Y-105841972D01*
X145100804Y-105818173D01*
X145097204Y-105793905D01*
X145096000Y-105769401D01*
X145096000Y-105119399D01*
X145097204Y-105094895D01*
X145100804Y-105070627D01*
X145106765Y-105046828D01*
X145115030Y-105023729D01*
X145125520Y-105001550D01*
X145138132Y-104980507D01*
X145152747Y-104960801D01*
X145169223Y-104942623D01*
X145187401Y-104926147D01*
X145207107Y-104911532D01*
X145228150Y-104898920D01*
X145250329Y-104888430D01*
X145273428Y-104880165D01*
X145297227Y-104874204D01*
X145321495Y-104870604D01*
X145345999Y-104869400D01*
X146246001Y-104869400D01*
X146270505Y-104870604D01*
G37*
G36*
X143723505Y-92290604D02*
G01*
X143747773Y-92294204D01*
X143771572Y-92300165D01*
X143794671Y-92308430D01*
X143816850Y-92318920D01*
X143837893Y-92331532D01*
X143857599Y-92346147D01*
X143875777Y-92362623D01*
X143892253Y-92380801D01*
X143906868Y-92400507D01*
X143919480Y-92421550D01*
X143929970Y-92443729D01*
X143938235Y-92466828D01*
X143944196Y-92490627D01*
X143947796Y-92514895D01*
X143949000Y-92539399D01*
X143949000Y-93439401D01*
X143947796Y-93463905D01*
X143944196Y-93488173D01*
X143938235Y-93511972D01*
X143929970Y-93535071D01*
X143919480Y-93557250D01*
X143906868Y-93578293D01*
X143892253Y-93597999D01*
X143875777Y-93616177D01*
X143857599Y-93632653D01*
X143837893Y-93647268D01*
X143816850Y-93659880D01*
X143794671Y-93670370D01*
X143771572Y-93678635D01*
X143747773Y-93684596D01*
X143723505Y-93688196D01*
X143699001Y-93689400D01*
X143048999Y-93689400D01*
X143024495Y-93688196D01*
X143000227Y-93684596D01*
X142976428Y-93678635D01*
X142953329Y-93670370D01*
X142931150Y-93659880D01*
X142910107Y-93647268D01*
X142890401Y-93632653D01*
X142872223Y-93616177D01*
X142855747Y-93597999D01*
X142841132Y-93578293D01*
X142828520Y-93557250D01*
X142818030Y-93535071D01*
X142809765Y-93511972D01*
X142803804Y-93488173D01*
X142800204Y-93463905D01*
X142799000Y-93439401D01*
X142799000Y-92539399D01*
X142800204Y-92514895D01*
X142803804Y-92490627D01*
X142809765Y-92466828D01*
X142818030Y-92443729D01*
X142828520Y-92421550D01*
X142841132Y-92400507D01*
X142855747Y-92380801D01*
X142872223Y-92362623D01*
X142890401Y-92346147D01*
X142910107Y-92331532D01*
X142931150Y-92318920D01*
X142953329Y-92308430D01*
X142976428Y-92300165D01*
X143000227Y-92294204D01*
X143024495Y-92290604D01*
X143048999Y-92289400D01*
X143699001Y-92289400D01*
X143723505Y-92290604D01*
G37*
G36*
X145773505Y-92290604D02*
G01*
X145797773Y-92294204D01*
X145821572Y-92300165D01*
X145844671Y-92308430D01*
X145866850Y-92318920D01*
X145887893Y-92331532D01*
X145907599Y-92346147D01*
X145925777Y-92362623D01*
X145942253Y-92380801D01*
X145956868Y-92400507D01*
X145969480Y-92421550D01*
X145979970Y-92443729D01*
X145988235Y-92466828D01*
X145994196Y-92490627D01*
X145997796Y-92514895D01*
X145999000Y-92539399D01*
X145999000Y-93439401D01*
X145997796Y-93463905D01*
X145994196Y-93488173D01*
X145988235Y-93511972D01*
X145979970Y-93535071D01*
X145969480Y-93557250D01*
X145956868Y-93578293D01*
X145942253Y-93597999D01*
X145925777Y-93616177D01*
X145907599Y-93632653D01*
X145887893Y-93647268D01*
X145866850Y-93659880D01*
X145844671Y-93670370D01*
X145821572Y-93678635D01*
X145797773Y-93684596D01*
X145773505Y-93688196D01*
X145749001Y-93689400D01*
X145098999Y-93689400D01*
X145074495Y-93688196D01*
X145050227Y-93684596D01*
X145026428Y-93678635D01*
X145003329Y-93670370D01*
X144981150Y-93659880D01*
X144960107Y-93647268D01*
X144940401Y-93632653D01*
X144922223Y-93616177D01*
X144905747Y-93597999D01*
X144891132Y-93578293D01*
X144878520Y-93557250D01*
X144868030Y-93535071D01*
X144859765Y-93511972D01*
X144853804Y-93488173D01*
X144850204Y-93463905D01*
X144849000Y-93439401D01*
X144849000Y-92539399D01*
X144850204Y-92514895D01*
X144853804Y-92490627D01*
X144859765Y-92466828D01*
X144868030Y-92443729D01*
X144878520Y-92421550D01*
X144891132Y-92400507D01*
X144905747Y-92380801D01*
X144922223Y-92362623D01*
X144940401Y-92346147D01*
X144960107Y-92331532D01*
X144981150Y-92318920D01*
X145003329Y-92308430D01*
X145026428Y-92300165D01*
X145050227Y-92294204D01*
X145074495Y-92290604D01*
X145098999Y-92289400D01*
X145749001Y-92289400D01*
X145773505Y-92290604D01*
G37*
G36*
X138414905Y-93916204D02*
G01*
X138439173Y-93919804D01*
X138462972Y-93925765D01*
X138486071Y-93934030D01*
X138508250Y-93944520D01*
X138529293Y-93957132D01*
X138548999Y-93971747D01*
X138567177Y-93988223D01*
X138583653Y-94006401D01*
X138598268Y-94026107D01*
X138610880Y-94047150D01*
X138621370Y-94069329D01*
X138629635Y-94092428D01*
X138635596Y-94116227D01*
X138639196Y-94140495D01*
X138640400Y-94164999D01*
X138640400Y-95065001D01*
X138639196Y-95089505D01*
X138635596Y-95113773D01*
X138629635Y-95137572D01*
X138621370Y-95160671D01*
X138610880Y-95182850D01*
X138598268Y-95203893D01*
X138583653Y-95223599D01*
X138567177Y-95241777D01*
X138548999Y-95258253D01*
X138529293Y-95272868D01*
X138508250Y-95285480D01*
X138486071Y-95295970D01*
X138462972Y-95304235D01*
X138439173Y-95310196D01*
X138414905Y-95313796D01*
X138390401Y-95315000D01*
X137740399Y-95315000D01*
X137715895Y-95313796D01*
X137691627Y-95310196D01*
X137667828Y-95304235D01*
X137644729Y-95295970D01*
X137622550Y-95285480D01*
X137601507Y-95272868D01*
X137581801Y-95258253D01*
X137563623Y-95241777D01*
X137547147Y-95223599D01*
X137532532Y-95203893D01*
X137519920Y-95182850D01*
X137509430Y-95160671D01*
X137501165Y-95137572D01*
X137495204Y-95113773D01*
X137491604Y-95089505D01*
X137490400Y-95065001D01*
X137490400Y-94164999D01*
X137491604Y-94140495D01*
X137495204Y-94116227D01*
X137501165Y-94092428D01*
X137509430Y-94069329D01*
X137519920Y-94047150D01*
X137532532Y-94026107D01*
X137547147Y-94006401D01*
X137563623Y-93988223D01*
X137581801Y-93971747D01*
X137601507Y-93957132D01*
X137622550Y-93944520D01*
X137644729Y-93934030D01*
X137667828Y-93925765D01*
X137691627Y-93919804D01*
X137715895Y-93916204D01*
X137740399Y-93915000D01*
X138390401Y-93915000D01*
X138414905Y-93916204D01*
G37*
G36*
X140464905Y-93916204D02*
G01*
X140489173Y-93919804D01*
X140512972Y-93925765D01*
X140536071Y-93934030D01*
X140558250Y-93944520D01*
X140579293Y-93957132D01*
X140598999Y-93971747D01*
X140617177Y-93988223D01*
X140633653Y-94006401D01*
X140648268Y-94026107D01*
X140660880Y-94047150D01*
X140671370Y-94069329D01*
X140679635Y-94092428D01*
X140685596Y-94116227D01*
X140689196Y-94140495D01*
X140690400Y-94164999D01*
X140690400Y-95065001D01*
X140689196Y-95089505D01*
X140685596Y-95113773D01*
X140679635Y-95137572D01*
X140671370Y-95160671D01*
X140660880Y-95182850D01*
X140648268Y-95203893D01*
X140633653Y-95223599D01*
X140617177Y-95241777D01*
X140598999Y-95258253D01*
X140579293Y-95272868D01*
X140558250Y-95285480D01*
X140536071Y-95295970D01*
X140512972Y-95304235D01*
X140489173Y-95310196D01*
X140464905Y-95313796D01*
X140440401Y-95315000D01*
X139790399Y-95315000D01*
X139765895Y-95313796D01*
X139741627Y-95310196D01*
X139717828Y-95304235D01*
X139694729Y-95295970D01*
X139672550Y-95285480D01*
X139651507Y-95272868D01*
X139631801Y-95258253D01*
X139613623Y-95241777D01*
X139597147Y-95223599D01*
X139582532Y-95203893D01*
X139569920Y-95182850D01*
X139559430Y-95160671D01*
X139551165Y-95137572D01*
X139545204Y-95113773D01*
X139541604Y-95089505D01*
X139540400Y-95065001D01*
X139540400Y-94164999D01*
X139541604Y-94140495D01*
X139545204Y-94116227D01*
X139551165Y-94092428D01*
X139559430Y-94069329D01*
X139569920Y-94047150D01*
X139582532Y-94026107D01*
X139597147Y-94006401D01*
X139613623Y-93988223D01*
X139631801Y-93971747D01*
X139651507Y-93957132D01*
X139672550Y-93944520D01*
X139694729Y-93934030D01*
X139717828Y-93925765D01*
X139741627Y-93919804D01*
X139765895Y-93916204D01*
X139790399Y-93915000D01*
X140440401Y-93915000D01*
X140464905Y-93916204D01*
G37*
G36*
X133004705Y-82943404D02*
G01*
X133028973Y-82947004D01*
X133052772Y-82952965D01*
X133075871Y-82961230D01*
X133098050Y-82971720D01*
X133119093Y-82984332D01*
X133138799Y-82998947D01*
X133156977Y-83015423D01*
X133173453Y-83033601D01*
X133188068Y-83053307D01*
X133200680Y-83074350D01*
X133211170Y-83096529D01*
X133219435Y-83119628D01*
X133225396Y-83143427D01*
X133228996Y-83167695D01*
X133230200Y-83192199D01*
X133230200Y-84092201D01*
X133228996Y-84116705D01*
X133225396Y-84140973D01*
X133219435Y-84164772D01*
X133211170Y-84187871D01*
X133200680Y-84210050D01*
X133188068Y-84231093D01*
X133173453Y-84250799D01*
X133156977Y-84268977D01*
X133138799Y-84285453D01*
X133119093Y-84300068D01*
X133098050Y-84312680D01*
X133075871Y-84323170D01*
X133052772Y-84331435D01*
X133028973Y-84337396D01*
X133004705Y-84340996D01*
X132980201Y-84342200D01*
X132330199Y-84342200D01*
X132305695Y-84340996D01*
X132281427Y-84337396D01*
X132257628Y-84331435D01*
X132234529Y-84323170D01*
X132212350Y-84312680D01*
X132191307Y-84300068D01*
X132171601Y-84285453D01*
X132153423Y-84268977D01*
X132136947Y-84250799D01*
X132122332Y-84231093D01*
X132109720Y-84210050D01*
X132099230Y-84187871D01*
X132090965Y-84164772D01*
X132085004Y-84140973D01*
X132081404Y-84116705D01*
X132080200Y-84092201D01*
X132080200Y-83192199D01*
X132081404Y-83167695D01*
X132085004Y-83143427D01*
X132090965Y-83119628D01*
X132099230Y-83096529D01*
X132109720Y-83074350D01*
X132122332Y-83053307D01*
X132136947Y-83033601D01*
X132153423Y-83015423D01*
X132171601Y-82998947D01*
X132191307Y-82984332D01*
X132212350Y-82971720D01*
X132234529Y-82961230D01*
X132257628Y-82952965D01*
X132281427Y-82947004D01*
X132305695Y-82943404D01*
X132330199Y-82942200D01*
X132980201Y-82942200D01*
X133004705Y-82943404D01*
G37*
G36*
X135054705Y-82943404D02*
G01*
X135078973Y-82947004D01*
X135102772Y-82952965D01*
X135125871Y-82961230D01*
X135148050Y-82971720D01*
X135169093Y-82984332D01*
X135188799Y-82998947D01*
X135206977Y-83015423D01*
X135223453Y-83033601D01*
X135238068Y-83053307D01*
X135250680Y-83074350D01*
X135261170Y-83096529D01*
X135269435Y-83119628D01*
X135275396Y-83143427D01*
X135278996Y-83167695D01*
X135280200Y-83192199D01*
X135280200Y-84092201D01*
X135278996Y-84116705D01*
X135275396Y-84140973D01*
X135269435Y-84164772D01*
X135261170Y-84187871D01*
X135250680Y-84210050D01*
X135238068Y-84231093D01*
X135223453Y-84250799D01*
X135206977Y-84268977D01*
X135188799Y-84285453D01*
X135169093Y-84300068D01*
X135148050Y-84312680D01*
X135125871Y-84323170D01*
X135102772Y-84331435D01*
X135078973Y-84337396D01*
X135054705Y-84340996D01*
X135030201Y-84342200D01*
X134380199Y-84342200D01*
X134355695Y-84340996D01*
X134331427Y-84337396D01*
X134307628Y-84331435D01*
X134284529Y-84323170D01*
X134262350Y-84312680D01*
X134241307Y-84300068D01*
X134221601Y-84285453D01*
X134203423Y-84268977D01*
X134186947Y-84250799D01*
X134172332Y-84231093D01*
X134159720Y-84210050D01*
X134149230Y-84187871D01*
X134140965Y-84164772D01*
X134135004Y-84140973D01*
X134131404Y-84116705D01*
X134130200Y-84092201D01*
X134130200Y-83192199D01*
X134131404Y-83167695D01*
X134135004Y-83143427D01*
X134140965Y-83119628D01*
X134149230Y-83096529D01*
X134159720Y-83074350D01*
X134172332Y-83053307D01*
X134186947Y-83033601D01*
X134203423Y-83015423D01*
X134221601Y-82998947D01*
X134241307Y-82984332D01*
X134262350Y-82971720D01*
X134284529Y-82961230D01*
X134307628Y-82952965D01*
X134331427Y-82947004D01*
X134355695Y-82943404D01*
X134380199Y-82942200D01*
X135030201Y-82942200D01*
X135054705Y-82943404D01*
G37*
G36*
X133004705Y-71945204D02*
G01*
X133028973Y-71948804D01*
X133052772Y-71954765D01*
X133075871Y-71963030D01*
X133098050Y-71973520D01*
X133119093Y-71986132D01*
X133138799Y-72000747D01*
X133156977Y-72017223D01*
X133173453Y-72035401D01*
X133188068Y-72055107D01*
X133200680Y-72076150D01*
X133211170Y-72098329D01*
X133219435Y-72121428D01*
X133225396Y-72145227D01*
X133228996Y-72169495D01*
X133230200Y-72193999D01*
X133230200Y-73094001D01*
X133228996Y-73118505D01*
X133225396Y-73142773D01*
X133219435Y-73166572D01*
X133211170Y-73189671D01*
X133200680Y-73211850D01*
X133188068Y-73232893D01*
X133173453Y-73252599D01*
X133156977Y-73270777D01*
X133138799Y-73287253D01*
X133119093Y-73301868D01*
X133098050Y-73314480D01*
X133075871Y-73324970D01*
X133052772Y-73333235D01*
X133028973Y-73339196D01*
X133004705Y-73342796D01*
X132980201Y-73344000D01*
X132330199Y-73344000D01*
X132305695Y-73342796D01*
X132281427Y-73339196D01*
X132257628Y-73333235D01*
X132234529Y-73324970D01*
X132212350Y-73314480D01*
X132191307Y-73301868D01*
X132171601Y-73287253D01*
X132153423Y-73270777D01*
X132136947Y-73252599D01*
X132122332Y-73232893D01*
X132109720Y-73211850D01*
X132099230Y-73189671D01*
X132090965Y-73166572D01*
X132085004Y-73142773D01*
X132081404Y-73118505D01*
X132080200Y-73094001D01*
X132080200Y-72193999D01*
X132081404Y-72169495D01*
X132085004Y-72145227D01*
X132090965Y-72121428D01*
X132099230Y-72098329D01*
X132109720Y-72076150D01*
X132122332Y-72055107D01*
X132136947Y-72035401D01*
X132153423Y-72017223D01*
X132171601Y-72000747D01*
X132191307Y-71986132D01*
X132212350Y-71973520D01*
X132234529Y-71963030D01*
X132257628Y-71954765D01*
X132281427Y-71948804D01*
X132305695Y-71945204D01*
X132330199Y-71944000D01*
X132980201Y-71944000D01*
X133004705Y-71945204D01*
G37*
G36*
X135054705Y-71945204D02*
G01*
X135078973Y-71948804D01*
X135102772Y-71954765D01*
X135125871Y-71963030D01*
X135148050Y-71973520D01*
X135169093Y-71986132D01*
X135188799Y-72000747D01*
X135206977Y-72017223D01*
X135223453Y-72035401D01*
X135238068Y-72055107D01*
X135250680Y-72076150D01*
X135261170Y-72098329D01*
X135269435Y-72121428D01*
X135275396Y-72145227D01*
X135278996Y-72169495D01*
X135280200Y-72193999D01*
X135280200Y-73094001D01*
X135278996Y-73118505D01*
X135275396Y-73142773D01*
X135269435Y-73166572D01*
X135261170Y-73189671D01*
X135250680Y-73211850D01*
X135238068Y-73232893D01*
X135223453Y-73252599D01*
X135206977Y-73270777D01*
X135188799Y-73287253D01*
X135169093Y-73301868D01*
X135148050Y-73314480D01*
X135125871Y-73324970D01*
X135102772Y-73333235D01*
X135078973Y-73339196D01*
X135054705Y-73342796D01*
X135030201Y-73344000D01*
X134380199Y-73344000D01*
X134355695Y-73342796D01*
X134331427Y-73339196D01*
X134307628Y-73333235D01*
X134284529Y-73324970D01*
X134262350Y-73314480D01*
X134241307Y-73301868D01*
X134221601Y-73287253D01*
X134203423Y-73270777D01*
X134186947Y-73252599D01*
X134172332Y-73232893D01*
X134159720Y-73211850D01*
X134149230Y-73189671D01*
X134140965Y-73166572D01*
X134135004Y-73142773D01*
X134131404Y-73118505D01*
X134130200Y-73094001D01*
X134130200Y-72193999D01*
X134131404Y-72169495D01*
X134135004Y-72145227D01*
X134140965Y-72121428D01*
X134149230Y-72098329D01*
X134159720Y-72076150D01*
X134172332Y-72055107D01*
X134186947Y-72035401D01*
X134203423Y-72017223D01*
X134221601Y-72000747D01*
X134241307Y-71986132D01*
X134262350Y-71973520D01*
X134284529Y-71963030D01*
X134307628Y-71954765D01*
X134331427Y-71948804D01*
X134355695Y-71945204D01*
X134380199Y-71944000D01*
X135030201Y-71944000D01*
X135054705Y-71945204D01*
G37*
G36*
X133258705Y-93890804D02*
G01*
X133282973Y-93894404D01*
X133306772Y-93900365D01*
X133329871Y-93908630D01*
X133352050Y-93919120D01*
X133373093Y-93931732D01*
X133392799Y-93946347D01*
X133410977Y-93962823D01*
X133427453Y-93981001D01*
X133442068Y-94000707D01*
X133454680Y-94021750D01*
X133465170Y-94043929D01*
X133473435Y-94067028D01*
X133479396Y-94090827D01*
X133482996Y-94115095D01*
X133484200Y-94139599D01*
X133484200Y-95039601D01*
X133482996Y-95064105D01*
X133479396Y-95088373D01*
X133473435Y-95112172D01*
X133465170Y-95135271D01*
X133454680Y-95157450D01*
X133442068Y-95178493D01*
X133427453Y-95198199D01*
X133410977Y-95216377D01*
X133392799Y-95232853D01*
X133373093Y-95247468D01*
X133352050Y-95260080D01*
X133329871Y-95270570D01*
X133306772Y-95278835D01*
X133282973Y-95284796D01*
X133258705Y-95288396D01*
X133234201Y-95289600D01*
X132584199Y-95289600D01*
X132559695Y-95288396D01*
X132535427Y-95284796D01*
X132511628Y-95278835D01*
X132488529Y-95270570D01*
X132466350Y-95260080D01*
X132445307Y-95247468D01*
X132425601Y-95232853D01*
X132407423Y-95216377D01*
X132390947Y-95198199D01*
X132376332Y-95178493D01*
X132363720Y-95157450D01*
X132353230Y-95135271D01*
X132344965Y-95112172D01*
X132339004Y-95088373D01*
X132335404Y-95064105D01*
X132334200Y-95039601D01*
X132334200Y-94139599D01*
X132335404Y-94115095D01*
X132339004Y-94090827D01*
X132344965Y-94067028D01*
X132353230Y-94043929D01*
X132363720Y-94021750D01*
X132376332Y-94000707D01*
X132390947Y-93981001D01*
X132407423Y-93962823D01*
X132425601Y-93946347D01*
X132445307Y-93931732D01*
X132466350Y-93919120D01*
X132488529Y-93908630D01*
X132511628Y-93900365D01*
X132535427Y-93894404D01*
X132559695Y-93890804D01*
X132584199Y-93889600D01*
X133234201Y-93889600D01*
X133258705Y-93890804D01*
G37*
G36*
X135308705Y-93890804D02*
G01*
X135332973Y-93894404D01*
X135356772Y-93900365D01*
X135379871Y-93908630D01*
X135402050Y-93919120D01*
X135423093Y-93931732D01*
X135442799Y-93946347D01*
X135460977Y-93962823D01*
X135477453Y-93981001D01*
X135492068Y-94000707D01*
X135504680Y-94021750D01*
X135515170Y-94043929D01*
X135523435Y-94067028D01*
X135529396Y-94090827D01*
X135532996Y-94115095D01*
X135534200Y-94139599D01*
X135534200Y-95039601D01*
X135532996Y-95064105D01*
X135529396Y-95088373D01*
X135523435Y-95112172D01*
X135515170Y-95135271D01*
X135504680Y-95157450D01*
X135492068Y-95178493D01*
X135477453Y-95198199D01*
X135460977Y-95216377D01*
X135442799Y-95232853D01*
X135423093Y-95247468D01*
X135402050Y-95260080D01*
X135379871Y-95270570D01*
X135356772Y-95278835D01*
X135332973Y-95284796D01*
X135308705Y-95288396D01*
X135284201Y-95289600D01*
X134634199Y-95289600D01*
X134609695Y-95288396D01*
X134585427Y-95284796D01*
X134561628Y-95278835D01*
X134538529Y-95270570D01*
X134516350Y-95260080D01*
X134495307Y-95247468D01*
X134475601Y-95232853D01*
X134457423Y-95216377D01*
X134440947Y-95198199D01*
X134426332Y-95178493D01*
X134413720Y-95157450D01*
X134403230Y-95135271D01*
X134394965Y-95112172D01*
X134389004Y-95088373D01*
X134385404Y-95064105D01*
X134384200Y-95039601D01*
X134384200Y-94139599D01*
X134385404Y-94115095D01*
X134389004Y-94090827D01*
X134394965Y-94067028D01*
X134403230Y-94043929D01*
X134413720Y-94021750D01*
X134426332Y-94000707D01*
X134440947Y-93981001D01*
X134457423Y-93962823D01*
X134475601Y-93946347D01*
X134495307Y-93931732D01*
X134516350Y-93919120D01*
X134538529Y-93908630D01*
X134561628Y-93900365D01*
X134585427Y-93894404D01*
X134609695Y-93890804D01*
X134634199Y-93889600D01*
X135284201Y-93889600D01*
X135308705Y-93890804D01*
G37*
G36*
X120221105Y-82689404D02*
G01*
X120245373Y-82693004D01*
X120269172Y-82698965D01*
X120292271Y-82707230D01*
X120314450Y-82717720D01*
X120335493Y-82730332D01*
X120355199Y-82744947D01*
X120373377Y-82761423D01*
X120389853Y-82779601D01*
X120404468Y-82799307D01*
X120417080Y-82820350D01*
X120427570Y-82842529D01*
X120435835Y-82865628D01*
X120441796Y-82889427D01*
X120445396Y-82913695D01*
X120446600Y-82938199D01*
X120446600Y-83838201D01*
X120445396Y-83862705D01*
X120441796Y-83886973D01*
X120435835Y-83910772D01*
X120427570Y-83933871D01*
X120417080Y-83956050D01*
X120404468Y-83977093D01*
X120389853Y-83996799D01*
X120373377Y-84014977D01*
X120355199Y-84031453D01*
X120335493Y-84046068D01*
X120314450Y-84058680D01*
X120292271Y-84069170D01*
X120269172Y-84077435D01*
X120245373Y-84083396D01*
X120221105Y-84086996D01*
X120196601Y-84088200D01*
X119546599Y-84088200D01*
X119522095Y-84086996D01*
X119497827Y-84083396D01*
X119474028Y-84077435D01*
X119450929Y-84069170D01*
X119428750Y-84058680D01*
X119407707Y-84046068D01*
X119388001Y-84031453D01*
X119369823Y-84014977D01*
X119353347Y-83996799D01*
X119338732Y-83977093D01*
X119326120Y-83956050D01*
X119315630Y-83933871D01*
X119307365Y-83910772D01*
X119301404Y-83886973D01*
X119297804Y-83862705D01*
X119296600Y-83838201D01*
X119296600Y-82938199D01*
X119297804Y-82913695D01*
X119301404Y-82889427D01*
X119307365Y-82865628D01*
X119315630Y-82842529D01*
X119326120Y-82820350D01*
X119338732Y-82799307D01*
X119353347Y-82779601D01*
X119369823Y-82761423D01*
X119388001Y-82744947D01*
X119407707Y-82730332D01*
X119428750Y-82717720D01*
X119450929Y-82707230D01*
X119474028Y-82698965D01*
X119497827Y-82693004D01*
X119522095Y-82689404D01*
X119546599Y-82688200D01*
X120196601Y-82688200D01*
X120221105Y-82689404D01*
G37*
G36*
X118171105Y-82689404D02*
G01*
X118195373Y-82693004D01*
X118219172Y-82698965D01*
X118242271Y-82707230D01*
X118264450Y-82717720D01*
X118285493Y-82730332D01*
X118305199Y-82744947D01*
X118323377Y-82761423D01*
X118339853Y-82779601D01*
X118354468Y-82799307D01*
X118367080Y-82820350D01*
X118377570Y-82842529D01*
X118385835Y-82865628D01*
X118391796Y-82889427D01*
X118395396Y-82913695D01*
X118396600Y-82938199D01*
X118396600Y-83838201D01*
X118395396Y-83862705D01*
X118391796Y-83886973D01*
X118385835Y-83910772D01*
X118377570Y-83933871D01*
X118367080Y-83956050D01*
X118354468Y-83977093D01*
X118339853Y-83996799D01*
X118323377Y-84014977D01*
X118305199Y-84031453D01*
X118285493Y-84046068D01*
X118264450Y-84058680D01*
X118242271Y-84069170D01*
X118219172Y-84077435D01*
X118195373Y-84083396D01*
X118171105Y-84086996D01*
X118146601Y-84088200D01*
X117496599Y-84088200D01*
X117472095Y-84086996D01*
X117447827Y-84083396D01*
X117424028Y-84077435D01*
X117400929Y-84069170D01*
X117378750Y-84058680D01*
X117357707Y-84046068D01*
X117338001Y-84031453D01*
X117319823Y-84014977D01*
X117303347Y-83996799D01*
X117288732Y-83977093D01*
X117276120Y-83956050D01*
X117265630Y-83933871D01*
X117257365Y-83910772D01*
X117251404Y-83886973D01*
X117247804Y-83862705D01*
X117246600Y-83838201D01*
X117246600Y-82938199D01*
X117247804Y-82913695D01*
X117251404Y-82889427D01*
X117257365Y-82865628D01*
X117265630Y-82842529D01*
X117276120Y-82820350D01*
X117288732Y-82799307D01*
X117303347Y-82779601D01*
X117319823Y-82761423D01*
X117338001Y-82744947D01*
X117357707Y-82730332D01*
X117378750Y-82717720D01*
X117400929Y-82707230D01*
X117424028Y-82698965D01*
X117447827Y-82693004D01*
X117472095Y-82689404D01*
X117496599Y-82688200D01*
X118146601Y-82688200D01*
X118171105Y-82689404D01*
G37*
G36*
X120076105Y-95262404D02*
G01*
X120100373Y-95266004D01*
X120124172Y-95271965D01*
X120147271Y-95280230D01*
X120169450Y-95290720D01*
X120190493Y-95303332D01*
X120210199Y-95317947D01*
X120228377Y-95334423D01*
X120244853Y-95352601D01*
X120259468Y-95372307D01*
X120272080Y-95393350D01*
X120282570Y-95415529D01*
X120290835Y-95438628D01*
X120296796Y-95462427D01*
X120300396Y-95486695D01*
X120301600Y-95511199D01*
X120301600Y-96411201D01*
X120300396Y-96435705D01*
X120296796Y-96459973D01*
X120290835Y-96483772D01*
X120282570Y-96506871D01*
X120272080Y-96529050D01*
X120259468Y-96550093D01*
X120244853Y-96569799D01*
X120228377Y-96587977D01*
X120210199Y-96604453D01*
X120190493Y-96619068D01*
X120169450Y-96631680D01*
X120147271Y-96642170D01*
X120124172Y-96650435D01*
X120100373Y-96656396D01*
X120076105Y-96659996D01*
X120051601Y-96661200D01*
X119401599Y-96661200D01*
X119377095Y-96659996D01*
X119352827Y-96656396D01*
X119329028Y-96650435D01*
X119305929Y-96642170D01*
X119283750Y-96631680D01*
X119262707Y-96619068D01*
X119243001Y-96604453D01*
X119224823Y-96587977D01*
X119208347Y-96569799D01*
X119193732Y-96550093D01*
X119181120Y-96529050D01*
X119170630Y-96506871D01*
X119162365Y-96483772D01*
X119156404Y-96459973D01*
X119152804Y-96435705D01*
X119151600Y-96411201D01*
X119151600Y-95511199D01*
X119152804Y-95486695D01*
X119156404Y-95462427D01*
X119162365Y-95438628D01*
X119170630Y-95415529D01*
X119181120Y-95393350D01*
X119193732Y-95372307D01*
X119208347Y-95352601D01*
X119224823Y-95334423D01*
X119243001Y-95317947D01*
X119262707Y-95303332D01*
X119283750Y-95290720D01*
X119305929Y-95280230D01*
X119329028Y-95271965D01*
X119352827Y-95266004D01*
X119377095Y-95262404D01*
X119401599Y-95261200D01*
X120051601Y-95261200D01*
X120076105Y-95262404D01*
G37*
G36*
X122126105Y-95262404D02*
G01*
X122150373Y-95266004D01*
X122174172Y-95271965D01*
X122197271Y-95280230D01*
X122219450Y-95290720D01*
X122240493Y-95303332D01*
X122260199Y-95317947D01*
X122278377Y-95334423D01*
X122294853Y-95352601D01*
X122309468Y-95372307D01*
X122322080Y-95393350D01*
X122332570Y-95415529D01*
X122340835Y-95438628D01*
X122346796Y-95462427D01*
X122350396Y-95486695D01*
X122351600Y-95511199D01*
X122351600Y-96411201D01*
X122350396Y-96435705D01*
X122346796Y-96459973D01*
X122340835Y-96483772D01*
X122332570Y-96506871D01*
X122322080Y-96529050D01*
X122309468Y-96550093D01*
X122294853Y-96569799D01*
X122278377Y-96587977D01*
X122260199Y-96604453D01*
X122240493Y-96619068D01*
X122219450Y-96631680D01*
X122197271Y-96642170D01*
X122174172Y-96650435D01*
X122150373Y-96656396D01*
X122126105Y-96659996D01*
X122101601Y-96661200D01*
X121451599Y-96661200D01*
X121427095Y-96659996D01*
X121402827Y-96656396D01*
X121379028Y-96650435D01*
X121355929Y-96642170D01*
X121333750Y-96631680D01*
X121312707Y-96619068D01*
X121293001Y-96604453D01*
X121274823Y-96587977D01*
X121258347Y-96569799D01*
X121243732Y-96550093D01*
X121231120Y-96529050D01*
X121220630Y-96506871D01*
X121212365Y-96483772D01*
X121206404Y-96459973D01*
X121202804Y-96435705D01*
X121201600Y-96411201D01*
X121201600Y-95511199D01*
X121202804Y-95486695D01*
X121206404Y-95462427D01*
X121212365Y-95438628D01*
X121220630Y-95415529D01*
X121231120Y-95393350D01*
X121243732Y-95372307D01*
X121258347Y-95352601D01*
X121274823Y-95334423D01*
X121293001Y-95317947D01*
X121312707Y-95303332D01*
X121333750Y-95290720D01*
X121355929Y-95280230D01*
X121379028Y-95271965D01*
X121402827Y-95266004D01*
X121427095Y-95262404D01*
X121451599Y-95261200D01*
X122101601Y-95261200D01*
X122126105Y-95262404D01*
G37*
G36*
X113319705Y-98843804D02*
G01*
X113343973Y-98847404D01*
X113367772Y-98853365D01*
X113390871Y-98861630D01*
X113413050Y-98872120D01*
X113434093Y-98884732D01*
X113453799Y-98899347D01*
X113471977Y-98915823D01*
X113488453Y-98934001D01*
X113503068Y-98953707D01*
X113515680Y-98974750D01*
X113526170Y-98996929D01*
X113534435Y-99020028D01*
X113540396Y-99043827D01*
X113543996Y-99068095D01*
X113545200Y-99092599D01*
X113545200Y-99992601D01*
X113543996Y-100017105D01*
X113540396Y-100041373D01*
X113534435Y-100065172D01*
X113526170Y-100088271D01*
X113515680Y-100110450D01*
X113503068Y-100131493D01*
X113488453Y-100151199D01*
X113471977Y-100169377D01*
X113453799Y-100185853D01*
X113434093Y-100200468D01*
X113413050Y-100213080D01*
X113390871Y-100223570D01*
X113367772Y-100231835D01*
X113343973Y-100237796D01*
X113319705Y-100241396D01*
X113295201Y-100242600D01*
X112645199Y-100242600D01*
X112620695Y-100241396D01*
X112596427Y-100237796D01*
X112572628Y-100231835D01*
X112549529Y-100223570D01*
X112527350Y-100213080D01*
X112506307Y-100200468D01*
X112486601Y-100185853D01*
X112468423Y-100169377D01*
X112451947Y-100151199D01*
X112437332Y-100131493D01*
X112424720Y-100110450D01*
X112414230Y-100088271D01*
X112405965Y-100065172D01*
X112400004Y-100041373D01*
X112396404Y-100017105D01*
X112395200Y-99992601D01*
X112395200Y-99092599D01*
X112396404Y-99068095D01*
X112400004Y-99043827D01*
X112405965Y-99020028D01*
X112414230Y-98996929D01*
X112424720Y-98974750D01*
X112437332Y-98953707D01*
X112451947Y-98934001D01*
X112468423Y-98915823D01*
X112486601Y-98899347D01*
X112506307Y-98884732D01*
X112527350Y-98872120D01*
X112549529Y-98861630D01*
X112572628Y-98853365D01*
X112596427Y-98847404D01*
X112620695Y-98843804D01*
X112645199Y-98842600D01*
X113295201Y-98842600D01*
X113319705Y-98843804D01*
G37*
G36*
X115369705Y-98843804D02*
G01*
X115393973Y-98847404D01*
X115417772Y-98853365D01*
X115440871Y-98861630D01*
X115463050Y-98872120D01*
X115484093Y-98884732D01*
X115503799Y-98899347D01*
X115521977Y-98915823D01*
X115538453Y-98934001D01*
X115553068Y-98953707D01*
X115565680Y-98974750D01*
X115576170Y-98996929D01*
X115584435Y-99020028D01*
X115590396Y-99043827D01*
X115593996Y-99068095D01*
X115595200Y-99092599D01*
X115595200Y-99992601D01*
X115593996Y-100017105D01*
X115590396Y-100041373D01*
X115584435Y-100065172D01*
X115576170Y-100088271D01*
X115565680Y-100110450D01*
X115553068Y-100131493D01*
X115538453Y-100151199D01*
X115521977Y-100169377D01*
X115503799Y-100185853D01*
X115484093Y-100200468D01*
X115463050Y-100213080D01*
X115440871Y-100223570D01*
X115417772Y-100231835D01*
X115393973Y-100237796D01*
X115369705Y-100241396D01*
X115345201Y-100242600D01*
X114695199Y-100242600D01*
X114670695Y-100241396D01*
X114646427Y-100237796D01*
X114622628Y-100231835D01*
X114599529Y-100223570D01*
X114577350Y-100213080D01*
X114556307Y-100200468D01*
X114536601Y-100185853D01*
X114518423Y-100169377D01*
X114501947Y-100151199D01*
X114487332Y-100131493D01*
X114474720Y-100110450D01*
X114464230Y-100088271D01*
X114455965Y-100065172D01*
X114450004Y-100041373D01*
X114446404Y-100017105D01*
X114445200Y-99992601D01*
X114445200Y-99092599D01*
X114446404Y-99068095D01*
X114450004Y-99043827D01*
X114455965Y-99020028D01*
X114464230Y-98996929D01*
X114474720Y-98974750D01*
X114487332Y-98953707D01*
X114501947Y-98934001D01*
X114518423Y-98915823D01*
X114536601Y-98899347D01*
X114556307Y-98884732D01*
X114577350Y-98872120D01*
X114599529Y-98861630D01*
X114622628Y-98853365D01*
X114646427Y-98847404D01*
X114670695Y-98843804D01*
X114695199Y-98842600D01*
X115345201Y-98842600D01*
X115369705Y-98843804D01*
G37*
G36*
X110119305Y-86931204D02*
G01*
X110143573Y-86934804D01*
X110167372Y-86940765D01*
X110190471Y-86949030D01*
X110212650Y-86959520D01*
X110233693Y-86972132D01*
X110253399Y-86986747D01*
X110271577Y-87003223D01*
X110288053Y-87021401D01*
X110302668Y-87041107D01*
X110315280Y-87062150D01*
X110325770Y-87084329D01*
X110334035Y-87107428D01*
X110339996Y-87131227D01*
X110343596Y-87155495D01*
X110344800Y-87179999D01*
X110344800Y-88080001D01*
X110343596Y-88104505D01*
X110339996Y-88128773D01*
X110334035Y-88152572D01*
X110325770Y-88175671D01*
X110315280Y-88197850D01*
X110302668Y-88218893D01*
X110288053Y-88238599D01*
X110271577Y-88256777D01*
X110253399Y-88273253D01*
X110233693Y-88287868D01*
X110212650Y-88300480D01*
X110190471Y-88310970D01*
X110167372Y-88319235D01*
X110143573Y-88325196D01*
X110119305Y-88328796D01*
X110094801Y-88330000D01*
X109444799Y-88330000D01*
X109420295Y-88328796D01*
X109396027Y-88325196D01*
X109372228Y-88319235D01*
X109349129Y-88310970D01*
X109326950Y-88300480D01*
X109305907Y-88287868D01*
X109286201Y-88273253D01*
X109268023Y-88256777D01*
X109251547Y-88238599D01*
X109236932Y-88218893D01*
X109224320Y-88197850D01*
X109213830Y-88175671D01*
X109205565Y-88152572D01*
X109199604Y-88128773D01*
X109196004Y-88104505D01*
X109194800Y-88080001D01*
X109194800Y-87179999D01*
X109196004Y-87155495D01*
X109199604Y-87131227D01*
X109205565Y-87107428D01*
X109213830Y-87084329D01*
X109224320Y-87062150D01*
X109236932Y-87041107D01*
X109251547Y-87021401D01*
X109268023Y-87003223D01*
X109286201Y-86986747D01*
X109305907Y-86972132D01*
X109326950Y-86959520D01*
X109349129Y-86949030D01*
X109372228Y-86940765D01*
X109396027Y-86934804D01*
X109420295Y-86931204D01*
X109444799Y-86930000D01*
X110094801Y-86930000D01*
X110119305Y-86931204D01*
G37*
G36*
X112169305Y-86931204D02*
G01*
X112193573Y-86934804D01*
X112217372Y-86940765D01*
X112240471Y-86949030D01*
X112262650Y-86959520D01*
X112283693Y-86972132D01*
X112303399Y-86986747D01*
X112321577Y-87003223D01*
X112338053Y-87021401D01*
X112352668Y-87041107D01*
X112365280Y-87062150D01*
X112375770Y-87084329D01*
X112384035Y-87107428D01*
X112389996Y-87131227D01*
X112393596Y-87155495D01*
X112394800Y-87179999D01*
X112394800Y-88080001D01*
X112393596Y-88104505D01*
X112389996Y-88128773D01*
X112384035Y-88152572D01*
X112375770Y-88175671D01*
X112365280Y-88197850D01*
X112352668Y-88218893D01*
X112338053Y-88238599D01*
X112321577Y-88256777D01*
X112303399Y-88273253D01*
X112283693Y-88287868D01*
X112262650Y-88300480D01*
X112240471Y-88310970D01*
X112217372Y-88319235D01*
X112193573Y-88325196D01*
X112169305Y-88328796D01*
X112144801Y-88330000D01*
X111494799Y-88330000D01*
X111470295Y-88328796D01*
X111446027Y-88325196D01*
X111422228Y-88319235D01*
X111399129Y-88310970D01*
X111376950Y-88300480D01*
X111355907Y-88287868D01*
X111336201Y-88273253D01*
X111318023Y-88256777D01*
X111301547Y-88238599D01*
X111286932Y-88218893D01*
X111274320Y-88197850D01*
X111263830Y-88175671D01*
X111255565Y-88152572D01*
X111249604Y-88128773D01*
X111246004Y-88104505D01*
X111244800Y-88080001D01*
X111244800Y-87179999D01*
X111246004Y-87155495D01*
X111249604Y-87131227D01*
X111255565Y-87107428D01*
X111263830Y-87084329D01*
X111274320Y-87062150D01*
X111286932Y-87041107D01*
X111301547Y-87021401D01*
X111318023Y-87003223D01*
X111336201Y-86986747D01*
X111355907Y-86972132D01*
X111376950Y-86959520D01*
X111399129Y-86949030D01*
X111422228Y-86940765D01*
X111446027Y-86934804D01*
X111470295Y-86931204D01*
X111494799Y-86930000D01*
X112144801Y-86930000D01*
X112169305Y-86931204D01*
G37*
G36*
X112913305Y-64401404D02*
G01*
X112937573Y-64405004D01*
X112961372Y-64410965D01*
X112984471Y-64419230D01*
X113006650Y-64429720D01*
X113027693Y-64442332D01*
X113047399Y-64456947D01*
X113065577Y-64473423D01*
X113082053Y-64491601D01*
X113096668Y-64511307D01*
X113109280Y-64532350D01*
X113119770Y-64554529D01*
X113128035Y-64577628D01*
X113133996Y-64601427D01*
X113137596Y-64625695D01*
X113138800Y-64650199D01*
X113138800Y-65550201D01*
X113137596Y-65574705D01*
X113133996Y-65598973D01*
X113128035Y-65622772D01*
X113119770Y-65645871D01*
X113109280Y-65668050D01*
X113096668Y-65689093D01*
X113082053Y-65708799D01*
X113065577Y-65726977D01*
X113047399Y-65743453D01*
X113027693Y-65758068D01*
X113006650Y-65770680D01*
X112984471Y-65781170D01*
X112961372Y-65789435D01*
X112937573Y-65795396D01*
X112913305Y-65798996D01*
X112888801Y-65800200D01*
X112238799Y-65800200D01*
X112214295Y-65798996D01*
X112190027Y-65795396D01*
X112166228Y-65789435D01*
X112143129Y-65781170D01*
X112120950Y-65770680D01*
X112099907Y-65758068D01*
X112080201Y-65743453D01*
X112062023Y-65726977D01*
X112045547Y-65708799D01*
X112030932Y-65689093D01*
X112018320Y-65668050D01*
X112007830Y-65645871D01*
X111999565Y-65622772D01*
X111993604Y-65598973D01*
X111990004Y-65574705D01*
X111988800Y-65550201D01*
X111988800Y-64650199D01*
X111990004Y-64625695D01*
X111993604Y-64601427D01*
X111999565Y-64577628D01*
X112007830Y-64554529D01*
X112018320Y-64532350D01*
X112030932Y-64511307D01*
X112045547Y-64491601D01*
X112062023Y-64473423D01*
X112080201Y-64456947D01*
X112099907Y-64442332D01*
X112120950Y-64429720D01*
X112143129Y-64419230D01*
X112166228Y-64410965D01*
X112190027Y-64405004D01*
X112214295Y-64401404D01*
X112238799Y-64400200D01*
X112888801Y-64400200D01*
X112913305Y-64401404D01*
G37*
G36*
X114963305Y-64401404D02*
G01*
X114987573Y-64405004D01*
X115011372Y-64410965D01*
X115034471Y-64419230D01*
X115056650Y-64429720D01*
X115077693Y-64442332D01*
X115097399Y-64456947D01*
X115115577Y-64473423D01*
X115132053Y-64491601D01*
X115146668Y-64511307D01*
X115159280Y-64532350D01*
X115169770Y-64554529D01*
X115178035Y-64577628D01*
X115183996Y-64601427D01*
X115187596Y-64625695D01*
X115188800Y-64650199D01*
X115188800Y-65550201D01*
X115187596Y-65574705D01*
X115183996Y-65598973D01*
X115178035Y-65622772D01*
X115169770Y-65645871D01*
X115159280Y-65668050D01*
X115146668Y-65689093D01*
X115132053Y-65708799D01*
X115115577Y-65726977D01*
X115097399Y-65743453D01*
X115077693Y-65758068D01*
X115056650Y-65770680D01*
X115034471Y-65781170D01*
X115011372Y-65789435D01*
X114987573Y-65795396D01*
X114963305Y-65798996D01*
X114938801Y-65800200D01*
X114288799Y-65800200D01*
X114264295Y-65798996D01*
X114240027Y-65795396D01*
X114216228Y-65789435D01*
X114193129Y-65781170D01*
X114170950Y-65770680D01*
X114149907Y-65758068D01*
X114130201Y-65743453D01*
X114112023Y-65726977D01*
X114095547Y-65708799D01*
X114080932Y-65689093D01*
X114068320Y-65668050D01*
X114057830Y-65645871D01*
X114049565Y-65622772D01*
X114043604Y-65598973D01*
X114040004Y-65574705D01*
X114038800Y-65550201D01*
X114038800Y-64650199D01*
X114040004Y-64625695D01*
X114043604Y-64601427D01*
X114049565Y-64577628D01*
X114057830Y-64554529D01*
X114068320Y-64532350D01*
X114080932Y-64511307D01*
X114095547Y-64491601D01*
X114112023Y-64473423D01*
X114130201Y-64456947D01*
X114149907Y-64442332D01*
X114170950Y-64429720D01*
X114193129Y-64419230D01*
X114216228Y-64410965D01*
X114240027Y-64405004D01*
X114264295Y-64401404D01*
X114288799Y-64400200D01*
X114938801Y-64400200D01*
X114963305Y-64401404D01*
G37*
G36*
X107782505Y-74078804D02*
G01*
X107806773Y-74082404D01*
X107830572Y-74088365D01*
X107853671Y-74096630D01*
X107875850Y-74107120D01*
X107896893Y-74119732D01*
X107916599Y-74134347D01*
X107934777Y-74150823D01*
X107951253Y-74169001D01*
X107965868Y-74188707D01*
X107978480Y-74209750D01*
X107988970Y-74231929D01*
X107997235Y-74255028D01*
X108003196Y-74278827D01*
X108006796Y-74303095D01*
X108008000Y-74327599D01*
X108008000Y-75227601D01*
X108006796Y-75252105D01*
X108003196Y-75276373D01*
X107997235Y-75300172D01*
X107988970Y-75323271D01*
X107978480Y-75345450D01*
X107965868Y-75366493D01*
X107951253Y-75386199D01*
X107934777Y-75404377D01*
X107916599Y-75420853D01*
X107896893Y-75435468D01*
X107875850Y-75448080D01*
X107853671Y-75458570D01*
X107830572Y-75466835D01*
X107806773Y-75472796D01*
X107782505Y-75476396D01*
X107758001Y-75477600D01*
X107107999Y-75477600D01*
X107083495Y-75476396D01*
X107059227Y-75472796D01*
X107035428Y-75466835D01*
X107012329Y-75458570D01*
X106990150Y-75448080D01*
X106969107Y-75435468D01*
X106949401Y-75420853D01*
X106931223Y-75404377D01*
X106914747Y-75386199D01*
X106900132Y-75366493D01*
X106887520Y-75345450D01*
X106877030Y-75323271D01*
X106868765Y-75300172D01*
X106862804Y-75276373D01*
X106859204Y-75252105D01*
X106858000Y-75227601D01*
X106858000Y-74327599D01*
X106859204Y-74303095D01*
X106862804Y-74278827D01*
X106868765Y-74255028D01*
X106877030Y-74231929D01*
X106887520Y-74209750D01*
X106900132Y-74188707D01*
X106914747Y-74169001D01*
X106931223Y-74150823D01*
X106949401Y-74134347D01*
X106969107Y-74119732D01*
X106990150Y-74107120D01*
X107012329Y-74096630D01*
X107035428Y-74088365D01*
X107059227Y-74082404D01*
X107083495Y-74078804D01*
X107107999Y-74077600D01*
X107758001Y-74077600D01*
X107782505Y-74078804D01*
G37*
G36*
X109832505Y-74078804D02*
G01*
X109856773Y-74082404D01*
X109880572Y-74088365D01*
X109903671Y-74096630D01*
X109925850Y-74107120D01*
X109946893Y-74119732D01*
X109966599Y-74134347D01*
X109984777Y-74150823D01*
X110001253Y-74169001D01*
X110015868Y-74188707D01*
X110028480Y-74209750D01*
X110038970Y-74231929D01*
X110047235Y-74255028D01*
X110053196Y-74278827D01*
X110056796Y-74303095D01*
X110058000Y-74327599D01*
X110058000Y-75227601D01*
X110056796Y-75252105D01*
X110053196Y-75276373D01*
X110047235Y-75300172D01*
X110038970Y-75323271D01*
X110028480Y-75345450D01*
X110015868Y-75366493D01*
X110001253Y-75386199D01*
X109984777Y-75404377D01*
X109966599Y-75420853D01*
X109946893Y-75435468D01*
X109925850Y-75448080D01*
X109903671Y-75458570D01*
X109880572Y-75466835D01*
X109856773Y-75472796D01*
X109832505Y-75476396D01*
X109808001Y-75477600D01*
X109157999Y-75477600D01*
X109133495Y-75476396D01*
X109109227Y-75472796D01*
X109085428Y-75466835D01*
X109062329Y-75458570D01*
X109040150Y-75448080D01*
X109019107Y-75435468D01*
X108999401Y-75420853D01*
X108981223Y-75404377D01*
X108964747Y-75386199D01*
X108950132Y-75366493D01*
X108937520Y-75345450D01*
X108927030Y-75323271D01*
X108918765Y-75300172D01*
X108912804Y-75276373D01*
X108909204Y-75252105D01*
X108908000Y-75227601D01*
X108908000Y-74327599D01*
X108909204Y-74303095D01*
X108912804Y-74278827D01*
X108918765Y-74255028D01*
X108927030Y-74231929D01*
X108937520Y-74209750D01*
X108950132Y-74188707D01*
X108964747Y-74169001D01*
X108981223Y-74150823D01*
X108999401Y-74134347D01*
X109019107Y-74119732D01*
X109040150Y-74107120D01*
X109062329Y-74096630D01*
X109085428Y-74088365D01*
X109109227Y-74082404D01*
X109133495Y-74078804D01*
X109157999Y-74077600D01*
X109808001Y-74077600D01*
X109832505Y-74078804D01*
G37*
G36*
X107934905Y-64350604D02*
G01*
X107959173Y-64354204D01*
X107982972Y-64360165D01*
X108006071Y-64368430D01*
X108028250Y-64378920D01*
X108049293Y-64391532D01*
X108068999Y-64406147D01*
X108087177Y-64422623D01*
X108103653Y-64440801D01*
X108118268Y-64460507D01*
X108130880Y-64481550D01*
X108141370Y-64503729D01*
X108149635Y-64526828D01*
X108155596Y-64550627D01*
X108159196Y-64574895D01*
X108160400Y-64599399D01*
X108160400Y-65499401D01*
X108159196Y-65523905D01*
X108155596Y-65548173D01*
X108149635Y-65571972D01*
X108141370Y-65595071D01*
X108130880Y-65617250D01*
X108118268Y-65638293D01*
X108103653Y-65657999D01*
X108087177Y-65676177D01*
X108068999Y-65692653D01*
X108049293Y-65707268D01*
X108028250Y-65719880D01*
X108006071Y-65730370D01*
X107982972Y-65738635D01*
X107959173Y-65744596D01*
X107934905Y-65748196D01*
X107910401Y-65749400D01*
X107260399Y-65749400D01*
X107235895Y-65748196D01*
X107211627Y-65744596D01*
X107187828Y-65738635D01*
X107164729Y-65730370D01*
X107142550Y-65719880D01*
X107121507Y-65707268D01*
X107101801Y-65692653D01*
X107083623Y-65676177D01*
X107067147Y-65657999D01*
X107052532Y-65638293D01*
X107039920Y-65617250D01*
X107029430Y-65595071D01*
X107021165Y-65571972D01*
X107015204Y-65548173D01*
X107011604Y-65523905D01*
X107010400Y-65499401D01*
X107010400Y-64599399D01*
X107011604Y-64574895D01*
X107015204Y-64550627D01*
X107021165Y-64526828D01*
X107029430Y-64503729D01*
X107039920Y-64481550D01*
X107052532Y-64460507D01*
X107067147Y-64440801D01*
X107083623Y-64422623D01*
X107101801Y-64406147D01*
X107121507Y-64391532D01*
X107142550Y-64378920D01*
X107164729Y-64368430D01*
X107187828Y-64360165D01*
X107211627Y-64354204D01*
X107235895Y-64350604D01*
X107260399Y-64349400D01*
X107910401Y-64349400D01*
X107934905Y-64350604D01*
G37*
G36*
X109984905Y-64350604D02*
G01*
X110009173Y-64354204D01*
X110032972Y-64360165D01*
X110056071Y-64368430D01*
X110078250Y-64378920D01*
X110099293Y-64391532D01*
X110118999Y-64406147D01*
X110137177Y-64422623D01*
X110153653Y-64440801D01*
X110168268Y-64460507D01*
X110180880Y-64481550D01*
X110191370Y-64503729D01*
X110199635Y-64526828D01*
X110205596Y-64550627D01*
X110209196Y-64574895D01*
X110210400Y-64599399D01*
X110210400Y-65499401D01*
X110209196Y-65523905D01*
X110205596Y-65548173D01*
X110199635Y-65571972D01*
X110191370Y-65595071D01*
X110180880Y-65617250D01*
X110168268Y-65638293D01*
X110153653Y-65657999D01*
X110137177Y-65676177D01*
X110118999Y-65692653D01*
X110099293Y-65707268D01*
X110078250Y-65719880D01*
X110056071Y-65730370D01*
X110032972Y-65738635D01*
X110009173Y-65744596D01*
X109984905Y-65748196D01*
X109960401Y-65749400D01*
X109310399Y-65749400D01*
X109285895Y-65748196D01*
X109261627Y-65744596D01*
X109237828Y-65738635D01*
X109214729Y-65730370D01*
X109192550Y-65719880D01*
X109171507Y-65707268D01*
X109151801Y-65692653D01*
X109133623Y-65676177D01*
X109117147Y-65657999D01*
X109102532Y-65638293D01*
X109089920Y-65617250D01*
X109079430Y-65595071D01*
X109071165Y-65571972D01*
X109065204Y-65548173D01*
X109061604Y-65523905D01*
X109060400Y-65499401D01*
X109060400Y-64599399D01*
X109061604Y-64574895D01*
X109065204Y-64550627D01*
X109071165Y-64526828D01*
X109079430Y-64503729D01*
X109089920Y-64481550D01*
X109102532Y-64460507D01*
X109117147Y-64440801D01*
X109133623Y-64422623D01*
X109151801Y-64406147D01*
X109171507Y-64391532D01*
X109192550Y-64378920D01*
X109214729Y-64368430D01*
X109237828Y-64360165D01*
X109261627Y-64354204D01*
X109285895Y-64350604D01*
X109310399Y-64349400D01*
X109960401Y-64349400D01*
X109984905Y-64350604D01*
G37*
G36*
X107833305Y-69100404D02*
G01*
X107857573Y-69104004D01*
X107881372Y-69109965D01*
X107904471Y-69118230D01*
X107926650Y-69128720D01*
X107947693Y-69141332D01*
X107967399Y-69155947D01*
X107985577Y-69172423D01*
X108002053Y-69190601D01*
X108016668Y-69210307D01*
X108029280Y-69231350D01*
X108039770Y-69253529D01*
X108048035Y-69276628D01*
X108053996Y-69300427D01*
X108057596Y-69324695D01*
X108058800Y-69349199D01*
X108058800Y-70249201D01*
X108057596Y-70273705D01*
X108053996Y-70297973D01*
X108048035Y-70321772D01*
X108039770Y-70344871D01*
X108029280Y-70367050D01*
X108016668Y-70388093D01*
X108002053Y-70407799D01*
X107985577Y-70425977D01*
X107967399Y-70442453D01*
X107947693Y-70457068D01*
X107926650Y-70469680D01*
X107904471Y-70480170D01*
X107881372Y-70488435D01*
X107857573Y-70494396D01*
X107833305Y-70497996D01*
X107808801Y-70499200D01*
X107158799Y-70499200D01*
X107134295Y-70497996D01*
X107110027Y-70494396D01*
X107086228Y-70488435D01*
X107063129Y-70480170D01*
X107040950Y-70469680D01*
X107019907Y-70457068D01*
X107000201Y-70442453D01*
X106982023Y-70425977D01*
X106965547Y-70407799D01*
X106950932Y-70388093D01*
X106938320Y-70367050D01*
X106927830Y-70344871D01*
X106919565Y-70321772D01*
X106913604Y-70297973D01*
X106910004Y-70273705D01*
X106908800Y-70249201D01*
X106908800Y-69349199D01*
X106910004Y-69324695D01*
X106913604Y-69300427D01*
X106919565Y-69276628D01*
X106927830Y-69253529D01*
X106938320Y-69231350D01*
X106950932Y-69210307D01*
X106965547Y-69190601D01*
X106982023Y-69172423D01*
X107000201Y-69155947D01*
X107019907Y-69141332D01*
X107040950Y-69128720D01*
X107063129Y-69118230D01*
X107086228Y-69109965D01*
X107110027Y-69104004D01*
X107134295Y-69100404D01*
X107158799Y-69099200D01*
X107808801Y-69099200D01*
X107833305Y-69100404D01*
G37*
G36*
X109883305Y-69100404D02*
G01*
X109907573Y-69104004D01*
X109931372Y-69109965D01*
X109954471Y-69118230D01*
X109976650Y-69128720D01*
X109997693Y-69141332D01*
X110017399Y-69155947D01*
X110035577Y-69172423D01*
X110052053Y-69190601D01*
X110066668Y-69210307D01*
X110079280Y-69231350D01*
X110089770Y-69253529D01*
X110098035Y-69276628D01*
X110103996Y-69300427D01*
X110107596Y-69324695D01*
X110108800Y-69349199D01*
X110108800Y-70249201D01*
X110107596Y-70273705D01*
X110103996Y-70297973D01*
X110098035Y-70321772D01*
X110089770Y-70344871D01*
X110079280Y-70367050D01*
X110066668Y-70388093D01*
X110052053Y-70407799D01*
X110035577Y-70425977D01*
X110017399Y-70442453D01*
X109997693Y-70457068D01*
X109976650Y-70469680D01*
X109954471Y-70480170D01*
X109931372Y-70488435D01*
X109907573Y-70494396D01*
X109883305Y-70497996D01*
X109858801Y-70499200D01*
X109208799Y-70499200D01*
X109184295Y-70497996D01*
X109160027Y-70494396D01*
X109136228Y-70488435D01*
X109113129Y-70480170D01*
X109090950Y-70469680D01*
X109069907Y-70457068D01*
X109050201Y-70442453D01*
X109032023Y-70425977D01*
X109015547Y-70407799D01*
X109000932Y-70388093D01*
X108988320Y-70367050D01*
X108977830Y-70344871D01*
X108969565Y-70321772D01*
X108963604Y-70297973D01*
X108960004Y-70273705D01*
X108958800Y-70249201D01*
X108958800Y-69349199D01*
X108960004Y-69324695D01*
X108963604Y-69300427D01*
X108969565Y-69276628D01*
X108977830Y-69253529D01*
X108988320Y-69231350D01*
X109000932Y-69210307D01*
X109015547Y-69190601D01*
X109032023Y-69172423D01*
X109050201Y-69155947D01*
X109069907Y-69141332D01*
X109090950Y-69128720D01*
X109113129Y-69118230D01*
X109136228Y-69109965D01*
X109160027Y-69104004D01*
X109184295Y-69100404D01*
X109208799Y-69099200D01*
X109858801Y-69099200D01*
X109883305Y-69100404D01*
G37*
G36*
X107833305Y-78854004D02*
G01*
X107857573Y-78857604D01*
X107881372Y-78863565D01*
X107904471Y-78871830D01*
X107926650Y-78882320D01*
X107947693Y-78894932D01*
X107967399Y-78909547D01*
X107985577Y-78926023D01*
X108002053Y-78944201D01*
X108016668Y-78963907D01*
X108029280Y-78984950D01*
X108039770Y-79007129D01*
X108048035Y-79030228D01*
X108053996Y-79054027D01*
X108057596Y-79078295D01*
X108058800Y-79102799D01*
X108058800Y-80002801D01*
X108057596Y-80027305D01*
X108053996Y-80051573D01*
X108048035Y-80075372D01*
X108039770Y-80098471D01*
X108029280Y-80120650D01*
X108016668Y-80141693D01*
X108002053Y-80161399D01*
X107985577Y-80179577D01*
X107967399Y-80196053D01*
X107947693Y-80210668D01*
X107926650Y-80223280D01*
X107904471Y-80233770D01*
X107881372Y-80242035D01*
X107857573Y-80247996D01*
X107833305Y-80251596D01*
X107808801Y-80252800D01*
X107158799Y-80252800D01*
X107134295Y-80251596D01*
X107110027Y-80247996D01*
X107086228Y-80242035D01*
X107063129Y-80233770D01*
X107040950Y-80223280D01*
X107019907Y-80210668D01*
X107000201Y-80196053D01*
X106982023Y-80179577D01*
X106965547Y-80161399D01*
X106950932Y-80141693D01*
X106938320Y-80120650D01*
X106927830Y-80098471D01*
X106919565Y-80075372D01*
X106913604Y-80051573D01*
X106910004Y-80027305D01*
X106908800Y-80002801D01*
X106908800Y-79102799D01*
X106910004Y-79078295D01*
X106913604Y-79054027D01*
X106919565Y-79030228D01*
X106927830Y-79007129D01*
X106938320Y-78984950D01*
X106950932Y-78963907D01*
X106965547Y-78944201D01*
X106982023Y-78926023D01*
X107000201Y-78909547D01*
X107019907Y-78894932D01*
X107040950Y-78882320D01*
X107063129Y-78871830D01*
X107086228Y-78863565D01*
X107110027Y-78857604D01*
X107134295Y-78854004D01*
X107158799Y-78852800D01*
X107808801Y-78852800D01*
X107833305Y-78854004D01*
G37*
G36*
X109883305Y-78854004D02*
G01*
X109907573Y-78857604D01*
X109931372Y-78863565D01*
X109954471Y-78871830D01*
X109976650Y-78882320D01*
X109997693Y-78894932D01*
X110017399Y-78909547D01*
X110035577Y-78926023D01*
X110052053Y-78944201D01*
X110066668Y-78963907D01*
X110079280Y-78984950D01*
X110089770Y-79007129D01*
X110098035Y-79030228D01*
X110103996Y-79054027D01*
X110107596Y-79078295D01*
X110108800Y-79102799D01*
X110108800Y-80002801D01*
X110107596Y-80027305D01*
X110103996Y-80051573D01*
X110098035Y-80075372D01*
X110089770Y-80098471D01*
X110079280Y-80120650D01*
X110066668Y-80141693D01*
X110052053Y-80161399D01*
X110035577Y-80179577D01*
X110017399Y-80196053D01*
X109997693Y-80210668D01*
X109976650Y-80223280D01*
X109954471Y-80233770D01*
X109931372Y-80242035D01*
X109907573Y-80247996D01*
X109883305Y-80251596D01*
X109858801Y-80252800D01*
X109208799Y-80252800D01*
X109184295Y-80251596D01*
X109160027Y-80247996D01*
X109136228Y-80242035D01*
X109113129Y-80233770D01*
X109090950Y-80223280D01*
X109069907Y-80210668D01*
X109050201Y-80196053D01*
X109032023Y-80179577D01*
X109015547Y-80161399D01*
X109000932Y-80141693D01*
X108988320Y-80120650D01*
X108977830Y-80098471D01*
X108969565Y-80075372D01*
X108963604Y-80051573D01*
X108960004Y-80027305D01*
X108958800Y-80002801D01*
X108958800Y-79102799D01*
X108960004Y-79078295D01*
X108963604Y-79054027D01*
X108969565Y-79030228D01*
X108977830Y-79007129D01*
X108988320Y-78984950D01*
X109000932Y-78963907D01*
X109015547Y-78944201D01*
X109032023Y-78926023D01*
X109050201Y-78909547D01*
X109069907Y-78894932D01*
X109090950Y-78882320D01*
X109113129Y-78871830D01*
X109136228Y-78863565D01*
X109160027Y-78857604D01*
X109184295Y-78854004D01*
X109208799Y-78852800D01*
X109858801Y-78852800D01*
X109883305Y-78854004D01*
G37*
G36*
X95844505Y-79006404D02*
G01*
X95868773Y-79010004D01*
X95892572Y-79015965D01*
X95915671Y-79024230D01*
X95937850Y-79034720D01*
X95958893Y-79047332D01*
X95978599Y-79061947D01*
X95996777Y-79078423D01*
X96013253Y-79096601D01*
X96027868Y-79116307D01*
X96040480Y-79137350D01*
X96050970Y-79159529D01*
X96059235Y-79182628D01*
X96065196Y-79206427D01*
X96068796Y-79230695D01*
X96070000Y-79255199D01*
X96070000Y-80155201D01*
X96068796Y-80179705D01*
X96065196Y-80203973D01*
X96059235Y-80227772D01*
X96050970Y-80250871D01*
X96040480Y-80273050D01*
X96027868Y-80294093D01*
X96013253Y-80313799D01*
X95996777Y-80331977D01*
X95978599Y-80348453D01*
X95958893Y-80363068D01*
X95937850Y-80375680D01*
X95915671Y-80386170D01*
X95892572Y-80394435D01*
X95868773Y-80400396D01*
X95844505Y-80403996D01*
X95820001Y-80405200D01*
X95169999Y-80405200D01*
X95145495Y-80403996D01*
X95121227Y-80400396D01*
X95097428Y-80394435D01*
X95074329Y-80386170D01*
X95052150Y-80375680D01*
X95031107Y-80363068D01*
X95011401Y-80348453D01*
X94993223Y-80331977D01*
X94976747Y-80313799D01*
X94962132Y-80294093D01*
X94949520Y-80273050D01*
X94939030Y-80250871D01*
X94930765Y-80227772D01*
X94924804Y-80203973D01*
X94921204Y-80179705D01*
X94920000Y-80155201D01*
X94920000Y-79255199D01*
X94921204Y-79230695D01*
X94924804Y-79206427D01*
X94930765Y-79182628D01*
X94939030Y-79159529D01*
X94949520Y-79137350D01*
X94962132Y-79116307D01*
X94976747Y-79096601D01*
X94993223Y-79078423D01*
X95011401Y-79061947D01*
X95031107Y-79047332D01*
X95052150Y-79034720D01*
X95074329Y-79024230D01*
X95097428Y-79015965D01*
X95121227Y-79010004D01*
X95145495Y-79006404D01*
X95169999Y-79005200D01*
X95820001Y-79005200D01*
X95844505Y-79006404D01*
G37*
G36*
X97894505Y-79006404D02*
G01*
X97918773Y-79010004D01*
X97942572Y-79015965D01*
X97965671Y-79024230D01*
X97987850Y-79034720D01*
X98008893Y-79047332D01*
X98028599Y-79061947D01*
X98046777Y-79078423D01*
X98063253Y-79096601D01*
X98077868Y-79116307D01*
X98090480Y-79137350D01*
X98100970Y-79159529D01*
X98109235Y-79182628D01*
X98115196Y-79206427D01*
X98118796Y-79230695D01*
X98120000Y-79255199D01*
X98120000Y-80155201D01*
X98118796Y-80179705D01*
X98115196Y-80203973D01*
X98109235Y-80227772D01*
X98100970Y-80250871D01*
X98090480Y-80273050D01*
X98077868Y-80294093D01*
X98063253Y-80313799D01*
X98046777Y-80331977D01*
X98028599Y-80348453D01*
X98008893Y-80363068D01*
X97987850Y-80375680D01*
X97965671Y-80386170D01*
X97942572Y-80394435D01*
X97918773Y-80400396D01*
X97894505Y-80403996D01*
X97870001Y-80405200D01*
X97219999Y-80405200D01*
X97195495Y-80403996D01*
X97171227Y-80400396D01*
X97147428Y-80394435D01*
X97124329Y-80386170D01*
X97102150Y-80375680D01*
X97081107Y-80363068D01*
X97061401Y-80348453D01*
X97043223Y-80331977D01*
X97026747Y-80313799D01*
X97012132Y-80294093D01*
X96999520Y-80273050D01*
X96989030Y-80250871D01*
X96980765Y-80227772D01*
X96974804Y-80203973D01*
X96971204Y-80179705D01*
X96970000Y-80155201D01*
X96970000Y-79255199D01*
X96971204Y-79230695D01*
X96974804Y-79206427D01*
X96980765Y-79182628D01*
X96989030Y-79159529D01*
X96999520Y-79137350D01*
X97012132Y-79116307D01*
X97026747Y-79096601D01*
X97043223Y-79078423D01*
X97061401Y-79061947D01*
X97081107Y-79047332D01*
X97102150Y-79034720D01*
X97124329Y-79024230D01*
X97147428Y-79015965D01*
X97171227Y-79010004D01*
X97195495Y-79006404D01*
X97219999Y-79005200D01*
X97870001Y-79005200D01*
X97894505Y-79006404D01*
G37*
G36*
X101584905Y-70548204D02*
G01*
X101609173Y-70551804D01*
X101632972Y-70557765D01*
X101656071Y-70566030D01*
X101678250Y-70576520D01*
X101699293Y-70589132D01*
X101718999Y-70603747D01*
X101737177Y-70620223D01*
X101753653Y-70638401D01*
X101768268Y-70658107D01*
X101780880Y-70679150D01*
X101791370Y-70701329D01*
X101799635Y-70724428D01*
X101805596Y-70748227D01*
X101809196Y-70772495D01*
X101810400Y-70796999D01*
X101810400Y-71697001D01*
X101809196Y-71721505D01*
X101805596Y-71745773D01*
X101799635Y-71769572D01*
X101791370Y-71792671D01*
X101780880Y-71814850D01*
X101768268Y-71835893D01*
X101753653Y-71855599D01*
X101737177Y-71873777D01*
X101718999Y-71890253D01*
X101699293Y-71904868D01*
X101678250Y-71917480D01*
X101656071Y-71927970D01*
X101632972Y-71936235D01*
X101609173Y-71942196D01*
X101584905Y-71945796D01*
X101560401Y-71947000D01*
X100910399Y-71947000D01*
X100885895Y-71945796D01*
X100861627Y-71942196D01*
X100837828Y-71936235D01*
X100814729Y-71927970D01*
X100792550Y-71917480D01*
X100771507Y-71904868D01*
X100751801Y-71890253D01*
X100733623Y-71873777D01*
X100717147Y-71855599D01*
X100702532Y-71835893D01*
X100689920Y-71814850D01*
X100679430Y-71792671D01*
X100671165Y-71769572D01*
X100665204Y-71745773D01*
X100661604Y-71721505D01*
X100660400Y-71697001D01*
X100660400Y-70796999D01*
X100661604Y-70772495D01*
X100665204Y-70748227D01*
X100671165Y-70724428D01*
X100679430Y-70701329D01*
X100689920Y-70679150D01*
X100702532Y-70658107D01*
X100717147Y-70638401D01*
X100733623Y-70620223D01*
X100751801Y-70603747D01*
X100771507Y-70589132D01*
X100792550Y-70576520D01*
X100814729Y-70566030D01*
X100837828Y-70557765D01*
X100861627Y-70551804D01*
X100885895Y-70548204D01*
X100910399Y-70547000D01*
X101560401Y-70547000D01*
X101584905Y-70548204D01*
G37*
G36*
X103634905Y-70548204D02*
G01*
X103659173Y-70551804D01*
X103682972Y-70557765D01*
X103706071Y-70566030D01*
X103728250Y-70576520D01*
X103749293Y-70589132D01*
X103768999Y-70603747D01*
X103787177Y-70620223D01*
X103803653Y-70638401D01*
X103818268Y-70658107D01*
X103830880Y-70679150D01*
X103841370Y-70701329D01*
X103849635Y-70724428D01*
X103855596Y-70748227D01*
X103859196Y-70772495D01*
X103860400Y-70796999D01*
X103860400Y-71697001D01*
X103859196Y-71721505D01*
X103855596Y-71745773D01*
X103849635Y-71769572D01*
X103841370Y-71792671D01*
X103830880Y-71814850D01*
X103818268Y-71835893D01*
X103803653Y-71855599D01*
X103787177Y-71873777D01*
X103768999Y-71890253D01*
X103749293Y-71904868D01*
X103728250Y-71917480D01*
X103706071Y-71927970D01*
X103682972Y-71936235D01*
X103659173Y-71942196D01*
X103634905Y-71945796D01*
X103610401Y-71947000D01*
X102960399Y-71947000D01*
X102935895Y-71945796D01*
X102911627Y-71942196D01*
X102887828Y-71936235D01*
X102864729Y-71927970D01*
X102842550Y-71917480D01*
X102821507Y-71904868D01*
X102801801Y-71890253D01*
X102783623Y-71873777D01*
X102767147Y-71855599D01*
X102752532Y-71835893D01*
X102739920Y-71814850D01*
X102729430Y-71792671D01*
X102721165Y-71769572D01*
X102715204Y-71745773D01*
X102711604Y-71721505D01*
X102710400Y-71697001D01*
X102710400Y-70796999D01*
X102711604Y-70772495D01*
X102715204Y-70748227D01*
X102721165Y-70724428D01*
X102729430Y-70701329D01*
X102739920Y-70679150D01*
X102752532Y-70658107D01*
X102767147Y-70638401D01*
X102783623Y-70620223D01*
X102801801Y-70603747D01*
X102821507Y-70589132D01*
X102842550Y-70576520D01*
X102864729Y-70566030D01*
X102887828Y-70557765D01*
X102911627Y-70551804D01*
X102935895Y-70548204D01*
X102960399Y-70547000D01*
X103610401Y-70547000D01*
X103634905Y-70548204D01*
G37*
G36*
X95819105Y-64350604D02*
G01*
X95843373Y-64354204D01*
X95867172Y-64360165D01*
X95890271Y-64368430D01*
X95912450Y-64378920D01*
X95933493Y-64391532D01*
X95953199Y-64406147D01*
X95971377Y-64422623D01*
X95987853Y-64440801D01*
X96002468Y-64460507D01*
X96015080Y-64481550D01*
X96025570Y-64503729D01*
X96033835Y-64526828D01*
X96039796Y-64550627D01*
X96043396Y-64574895D01*
X96044600Y-64599399D01*
X96044600Y-65499401D01*
X96043396Y-65523905D01*
X96039796Y-65548173D01*
X96033835Y-65571972D01*
X96025570Y-65595071D01*
X96015080Y-65617250D01*
X96002468Y-65638293D01*
X95987853Y-65657999D01*
X95971377Y-65676177D01*
X95953199Y-65692653D01*
X95933493Y-65707268D01*
X95912450Y-65719880D01*
X95890271Y-65730370D01*
X95867172Y-65738635D01*
X95843373Y-65744596D01*
X95819105Y-65748196D01*
X95794601Y-65749400D01*
X95144599Y-65749400D01*
X95120095Y-65748196D01*
X95095827Y-65744596D01*
X95072028Y-65738635D01*
X95048929Y-65730370D01*
X95026750Y-65719880D01*
X95005707Y-65707268D01*
X94986001Y-65692653D01*
X94967823Y-65676177D01*
X94951347Y-65657999D01*
X94936732Y-65638293D01*
X94924120Y-65617250D01*
X94913630Y-65595071D01*
X94905365Y-65571972D01*
X94899404Y-65548173D01*
X94895804Y-65523905D01*
X94894600Y-65499401D01*
X94894600Y-64599399D01*
X94895804Y-64574895D01*
X94899404Y-64550627D01*
X94905365Y-64526828D01*
X94913630Y-64503729D01*
X94924120Y-64481550D01*
X94936732Y-64460507D01*
X94951347Y-64440801D01*
X94967823Y-64422623D01*
X94986001Y-64406147D01*
X95005707Y-64391532D01*
X95026750Y-64378920D01*
X95048929Y-64368430D01*
X95072028Y-64360165D01*
X95095827Y-64354204D01*
X95120095Y-64350604D01*
X95144599Y-64349400D01*
X95794601Y-64349400D01*
X95819105Y-64350604D01*
G37*
G36*
X97869105Y-64350604D02*
G01*
X97893373Y-64354204D01*
X97917172Y-64360165D01*
X97940271Y-64368430D01*
X97962450Y-64378920D01*
X97983493Y-64391532D01*
X98003199Y-64406147D01*
X98021377Y-64422623D01*
X98037853Y-64440801D01*
X98052468Y-64460507D01*
X98065080Y-64481550D01*
X98075570Y-64503729D01*
X98083835Y-64526828D01*
X98089796Y-64550627D01*
X98093396Y-64574895D01*
X98094600Y-64599399D01*
X98094600Y-65499401D01*
X98093396Y-65523905D01*
X98089796Y-65548173D01*
X98083835Y-65571972D01*
X98075570Y-65595071D01*
X98065080Y-65617250D01*
X98052468Y-65638293D01*
X98037853Y-65657999D01*
X98021377Y-65676177D01*
X98003199Y-65692653D01*
X97983493Y-65707268D01*
X97962450Y-65719880D01*
X97940271Y-65730370D01*
X97917172Y-65738635D01*
X97893373Y-65744596D01*
X97869105Y-65748196D01*
X97844601Y-65749400D01*
X97194599Y-65749400D01*
X97170095Y-65748196D01*
X97145827Y-65744596D01*
X97122028Y-65738635D01*
X97098929Y-65730370D01*
X97076750Y-65719880D01*
X97055707Y-65707268D01*
X97036001Y-65692653D01*
X97017823Y-65676177D01*
X97001347Y-65657999D01*
X96986732Y-65638293D01*
X96974120Y-65617250D01*
X96963630Y-65595071D01*
X96955365Y-65571972D01*
X96949404Y-65548173D01*
X96945804Y-65523905D01*
X96944600Y-65499401D01*
X96944600Y-64599399D01*
X96945804Y-64574895D01*
X96949404Y-64550627D01*
X96955365Y-64526828D01*
X96963630Y-64503729D01*
X96974120Y-64481550D01*
X96986732Y-64460507D01*
X97001347Y-64440801D01*
X97017823Y-64422623D01*
X97036001Y-64406147D01*
X97055707Y-64391532D01*
X97076750Y-64378920D01*
X97098929Y-64368430D01*
X97122028Y-64360165D01*
X97145827Y-64354204D01*
X97170095Y-64350604D01*
X97194599Y-64349400D01*
X97844601Y-64349400D01*
X97869105Y-64350604D01*
G37*
G36*
X95819105Y-95872004D02*
G01*
X95843373Y-95875604D01*
X95867172Y-95881565D01*
X95890271Y-95889830D01*
X95912450Y-95900320D01*
X95933493Y-95912932D01*
X95953199Y-95927547D01*
X95971377Y-95944023D01*
X95987853Y-95962201D01*
X96002468Y-95981907D01*
X96015080Y-96002950D01*
X96025570Y-96025129D01*
X96033835Y-96048228D01*
X96039796Y-96072027D01*
X96043396Y-96096295D01*
X96044600Y-96120799D01*
X96044600Y-97020801D01*
X96043396Y-97045305D01*
X96039796Y-97069573D01*
X96033835Y-97093372D01*
X96025570Y-97116471D01*
X96015080Y-97138650D01*
X96002468Y-97159693D01*
X95987853Y-97179399D01*
X95971377Y-97197577D01*
X95953199Y-97214053D01*
X95933493Y-97228668D01*
X95912450Y-97241280D01*
X95890271Y-97251770D01*
X95867172Y-97260035D01*
X95843373Y-97265996D01*
X95819105Y-97269596D01*
X95794601Y-97270800D01*
X95144599Y-97270800D01*
X95120095Y-97269596D01*
X95095827Y-97265996D01*
X95072028Y-97260035D01*
X95048929Y-97251770D01*
X95026750Y-97241280D01*
X95005707Y-97228668D01*
X94986001Y-97214053D01*
X94967823Y-97197577D01*
X94951347Y-97179399D01*
X94936732Y-97159693D01*
X94924120Y-97138650D01*
X94913630Y-97116471D01*
X94905365Y-97093372D01*
X94899404Y-97069573D01*
X94895804Y-97045305D01*
X94894600Y-97020801D01*
X94894600Y-96120799D01*
X94895804Y-96096295D01*
X94899404Y-96072027D01*
X94905365Y-96048228D01*
X94913630Y-96025129D01*
X94924120Y-96002950D01*
X94936732Y-95981907D01*
X94951347Y-95962201D01*
X94967823Y-95944023D01*
X94986001Y-95927547D01*
X95005707Y-95912932D01*
X95026750Y-95900320D01*
X95048929Y-95889830D01*
X95072028Y-95881565D01*
X95095827Y-95875604D01*
X95120095Y-95872004D01*
X95144599Y-95870800D01*
X95794601Y-95870800D01*
X95819105Y-95872004D01*
G37*
G36*
X97869105Y-95872004D02*
G01*
X97893373Y-95875604D01*
X97917172Y-95881565D01*
X97940271Y-95889830D01*
X97962450Y-95900320D01*
X97983493Y-95912932D01*
X98003199Y-95927547D01*
X98021377Y-95944023D01*
X98037853Y-95962201D01*
X98052468Y-95981907D01*
X98065080Y-96002950D01*
X98075570Y-96025129D01*
X98083835Y-96048228D01*
X98089796Y-96072027D01*
X98093396Y-96096295D01*
X98094600Y-96120799D01*
X98094600Y-97020801D01*
X98093396Y-97045305D01*
X98089796Y-97069573D01*
X98083835Y-97093372D01*
X98075570Y-97116471D01*
X98065080Y-97138650D01*
X98052468Y-97159693D01*
X98037853Y-97179399D01*
X98021377Y-97197577D01*
X98003199Y-97214053D01*
X97983493Y-97228668D01*
X97962450Y-97241280D01*
X97940271Y-97251770D01*
X97917172Y-97260035D01*
X97893373Y-97265996D01*
X97869105Y-97269596D01*
X97844601Y-97270800D01*
X97194599Y-97270800D01*
X97170095Y-97269596D01*
X97145827Y-97265996D01*
X97122028Y-97260035D01*
X97098929Y-97251770D01*
X97076750Y-97241280D01*
X97055707Y-97228668D01*
X97036001Y-97214053D01*
X97017823Y-97197577D01*
X97001347Y-97179399D01*
X96986732Y-97159693D01*
X96974120Y-97138650D01*
X96963630Y-97116471D01*
X96955365Y-97093372D01*
X96949404Y-97069573D01*
X96945804Y-97045305D01*
X96944600Y-97020801D01*
X96944600Y-96120799D01*
X96945804Y-96096295D01*
X96949404Y-96072027D01*
X96955365Y-96048228D01*
X96963630Y-96025129D01*
X96974120Y-96002950D01*
X96986732Y-95981907D01*
X97001347Y-95962201D01*
X97017823Y-95944023D01*
X97036001Y-95927547D01*
X97055707Y-95912932D01*
X97076750Y-95900320D01*
X97098929Y-95889830D01*
X97122028Y-95881565D01*
X97145827Y-95875604D01*
X97170095Y-95872004D01*
X97194599Y-95870800D01*
X97844601Y-95870800D01*
X97869105Y-95872004D01*
G37*
G36*
X95819105Y-84111804D02*
G01*
X95843373Y-84115404D01*
X95867172Y-84121365D01*
X95890271Y-84129630D01*
X95912450Y-84140120D01*
X95933493Y-84152732D01*
X95953199Y-84167347D01*
X95971377Y-84183823D01*
X95987853Y-84202001D01*
X96002468Y-84221707D01*
X96015080Y-84242750D01*
X96025570Y-84264929D01*
X96033835Y-84288028D01*
X96039796Y-84311827D01*
X96043396Y-84336095D01*
X96044600Y-84360599D01*
X96044600Y-85260601D01*
X96043396Y-85285105D01*
X96039796Y-85309373D01*
X96033835Y-85333172D01*
X96025570Y-85356271D01*
X96015080Y-85378450D01*
X96002468Y-85399493D01*
X95987853Y-85419199D01*
X95971377Y-85437377D01*
X95953199Y-85453853D01*
X95933493Y-85468468D01*
X95912450Y-85481080D01*
X95890271Y-85491570D01*
X95867172Y-85499835D01*
X95843373Y-85505796D01*
X95819105Y-85509396D01*
X95794601Y-85510600D01*
X95144599Y-85510600D01*
X95120095Y-85509396D01*
X95095827Y-85505796D01*
X95072028Y-85499835D01*
X95048929Y-85491570D01*
X95026750Y-85481080D01*
X95005707Y-85468468D01*
X94986001Y-85453853D01*
X94967823Y-85437377D01*
X94951347Y-85419199D01*
X94936732Y-85399493D01*
X94924120Y-85378450D01*
X94913630Y-85356271D01*
X94905365Y-85333172D01*
X94899404Y-85309373D01*
X94895804Y-85285105D01*
X94894600Y-85260601D01*
X94894600Y-84360599D01*
X94895804Y-84336095D01*
X94899404Y-84311827D01*
X94905365Y-84288028D01*
X94913630Y-84264929D01*
X94924120Y-84242750D01*
X94936732Y-84221707D01*
X94951347Y-84202001D01*
X94967823Y-84183823D01*
X94986001Y-84167347D01*
X95005707Y-84152732D01*
X95026750Y-84140120D01*
X95048929Y-84129630D01*
X95072028Y-84121365D01*
X95095827Y-84115404D01*
X95120095Y-84111804D01*
X95144599Y-84110600D01*
X95794601Y-84110600D01*
X95819105Y-84111804D01*
G37*
G36*
X97869105Y-84111804D02*
G01*
X97893373Y-84115404D01*
X97917172Y-84121365D01*
X97940271Y-84129630D01*
X97962450Y-84140120D01*
X97983493Y-84152732D01*
X98003199Y-84167347D01*
X98021377Y-84183823D01*
X98037853Y-84202001D01*
X98052468Y-84221707D01*
X98065080Y-84242750D01*
X98075570Y-84264929D01*
X98083835Y-84288028D01*
X98089796Y-84311827D01*
X98093396Y-84336095D01*
X98094600Y-84360599D01*
X98094600Y-85260601D01*
X98093396Y-85285105D01*
X98089796Y-85309373D01*
X98083835Y-85333172D01*
X98075570Y-85356271D01*
X98065080Y-85378450D01*
X98052468Y-85399493D01*
X98037853Y-85419199D01*
X98021377Y-85437377D01*
X98003199Y-85453853D01*
X97983493Y-85468468D01*
X97962450Y-85481080D01*
X97940271Y-85491570D01*
X97917172Y-85499835D01*
X97893373Y-85505796D01*
X97869105Y-85509396D01*
X97844601Y-85510600D01*
X97194599Y-85510600D01*
X97170095Y-85509396D01*
X97145827Y-85505796D01*
X97122028Y-85499835D01*
X97098929Y-85491570D01*
X97076750Y-85481080D01*
X97055707Y-85468468D01*
X97036001Y-85453853D01*
X97017823Y-85437377D01*
X97001347Y-85419199D01*
X96986732Y-85399493D01*
X96974120Y-85378450D01*
X96963630Y-85356271D01*
X96955365Y-85333172D01*
X96949404Y-85309373D01*
X96945804Y-85285105D01*
X96944600Y-85260601D01*
X96944600Y-84360599D01*
X96945804Y-84336095D01*
X96949404Y-84311827D01*
X96955365Y-84288028D01*
X96963630Y-84264929D01*
X96974120Y-84242750D01*
X96986732Y-84221707D01*
X97001347Y-84202001D01*
X97017823Y-84183823D01*
X97036001Y-84167347D01*
X97055707Y-84152732D01*
X97076750Y-84140120D01*
X97098929Y-84129630D01*
X97122028Y-84121365D01*
X97145827Y-84115404D01*
X97170095Y-84111804D01*
X97194599Y-84110600D01*
X97844601Y-84110600D01*
X97869105Y-84111804D01*
G37*
G36*
X95895305Y-74053404D02*
G01*
X95919573Y-74057004D01*
X95943372Y-74062965D01*
X95966471Y-74071230D01*
X95988650Y-74081720D01*
X96009693Y-74094332D01*
X96029399Y-74108947D01*
X96047577Y-74125423D01*
X96064053Y-74143601D01*
X96078668Y-74163307D01*
X96091280Y-74184350D01*
X96101770Y-74206529D01*
X96110035Y-74229628D01*
X96115996Y-74253427D01*
X96119596Y-74277695D01*
X96120800Y-74302199D01*
X96120800Y-75202201D01*
X96119596Y-75226705D01*
X96115996Y-75250973D01*
X96110035Y-75274772D01*
X96101770Y-75297871D01*
X96091280Y-75320050D01*
X96078668Y-75341093D01*
X96064053Y-75360799D01*
X96047577Y-75378977D01*
X96029399Y-75395453D01*
X96009693Y-75410068D01*
X95988650Y-75422680D01*
X95966471Y-75433170D01*
X95943372Y-75441435D01*
X95919573Y-75447396D01*
X95895305Y-75450996D01*
X95870801Y-75452200D01*
X95220799Y-75452200D01*
X95196295Y-75450996D01*
X95172027Y-75447396D01*
X95148228Y-75441435D01*
X95125129Y-75433170D01*
X95102950Y-75422680D01*
X95081907Y-75410068D01*
X95062201Y-75395453D01*
X95044023Y-75378977D01*
X95027547Y-75360799D01*
X95012932Y-75341093D01*
X95000320Y-75320050D01*
X94989830Y-75297871D01*
X94981565Y-75274772D01*
X94975604Y-75250973D01*
X94972004Y-75226705D01*
X94970800Y-75202201D01*
X94970800Y-74302199D01*
X94972004Y-74277695D01*
X94975604Y-74253427D01*
X94981565Y-74229628D01*
X94989830Y-74206529D01*
X95000320Y-74184350D01*
X95012932Y-74163307D01*
X95027547Y-74143601D01*
X95044023Y-74125423D01*
X95062201Y-74108947D01*
X95081907Y-74094332D01*
X95102950Y-74081720D01*
X95125129Y-74071230D01*
X95148228Y-74062965D01*
X95172027Y-74057004D01*
X95196295Y-74053404D01*
X95220799Y-74052200D01*
X95870801Y-74052200D01*
X95895305Y-74053404D01*
G37*
G36*
X97945305Y-74053404D02*
G01*
X97969573Y-74057004D01*
X97993372Y-74062965D01*
X98016471Y-74071230D01*
X98038650Y-74081720D01*
X98059693Y-74094332D01*
X98079399Y-74108947D01*
X98097577Y-74125423D01*
X98114053Y-74143601D01*
X98128668Y-74163307D01*
X98141280Y-74184350D01*
X98151770Y-74206529D01*
X98160035Y-74229628D01*
X98165996Y-74253427D01*
X98169596Y-74277695D01*
X98170800Y-74302199D01*
X98170800Y-75202201D01*
X98169596Y-75226705D01*
X98165996Y-75250973D01*
X98160035Y-75274772D01*
X98151770Y-75297871D01*
X98141280Y-75320050D01*
X98128668Y-75341093D01*
X98114053Y-75360799D01*
X98097577Y-75378977D01*
X98079399Y-75395453D01*
X98059693Y-75410068D01*
X98038650Y-75422680D01*
X98016471Y-75433170D01*
X97993372Y-75441435D01*
X97969573Y-75447396D01*
X97945305Y-75450996D01*
X97920801Y-75452200D01*
X97270799Y-75452200D01*
X97246295Y-75450996D01*
X97222027Y-75447396D01*
X97198228Y-75441435D01*
X97175129Y-75433170D01*
X97152950Y-75422680D01*
X97131907Y-75410068D01*
X97112201Y-75395453D01*
X97094023Y-75378977D01*
X97077547Y-75360799D01*
X97062932Y-75341093D01*
X97050320Y-75320050D01*
X97039830Y-75297871D01*
X97031565Y-75274772D01*
X97025604Y-75250973D01*
X97022004Y-75226705D01*
X97020800Y-75202201D01*
X97020800Y-74302199D01*
X97022004Y-74277695D01*
X97025604Y-74253427D01*
X97031565Y-74229628D01*
X97039830Y-74206529D01*
X97050320Y-74184350D01*
X97062932Y-74163307D01*
X97077547Y-74143601D01*
X97094023Y-74125423D01*
X97112201Y-74108947D01*
X97131907Y-74094332D01*
X97152950Y-74081720D01*
X97175129Y-74071230D01*
X97198228Y-74062965D01*
X97222027Y-74057004D01*
X97246295Y-74053404D01*
X97270799Y-74052200D01*
X97920801Y-74052200D01*
X97945305Y-74053404D01*
G37*
G36*
X95819105Y-69125804D02*
G01*
X95843373Y-69129404D01*
X95867172Y-69135365D01*
X95890271Y-69143630D01*
X95912450Y-69154120D01*
X95933493Y-69166732D01*
X95953199Y-69181347D01*
X95971377Y-69197823D01*
X95987853Y-69216001D01*
X96002468Y-69235707D01*
X96015080Y-69256750D01*
X96025570Y-69278929D01*
X96033835Y-69302028D01*
X96039796Y-69325827D01*
X96043396Y-69350095D01*
X96044600Y-69374599D01*
X96044600Y-70274601D01*
X96043396Y-70299105D01*
X96039796Y-70323373D01*
X96033835Y-70347172D01*
X96025570Y-70370271D01*
X96015080Y-70392450D01*
X96002468Y-70413493D01*
X95987853Y-70433199D01*
X95971377Y-70451377D01*
X95953199Y-70467853D01*
X95933493Y-70482468D01*
X95912450Y-70495080D01*
X95890271Y-70505570D01*
X95867172Y-70513835D01*
X95843373Y-70519796D01*
X95819105Y-70523396D01*
X95794601Y-70524600D01*
X95144599Y-70524600D01*
X95120095Y-70523396D01*
X95095827Y-70519796D01*
X95072028Y-70513835D01*
X95048929Y-70505570D01*
X95026750Y-70495080D01*
X95005707Y-70482468D01*
X94986001Y-70467853D01*
X94967823Y-70451377D01*
X94951347Y-70433199D01*
X94936732Y-70413493D01*
X94924120Y-70392450D01*
X94913630Y-70370271D01*
X94905365Y-70347172D01*
X94899404Y-70323373D01*
X94895804Y-70299105D01*
X94894600Y-70274601D01*
X94894600Y-69374599D01*
X94895804Y-69350095D01*
X94899404Y-69325827D01*
X94905365Y-69302028D01*
X94913630Y-69278929D01*
X94924120Y-69256750D01*
X94936732Y-69235707D01*
X94951347Y-69216001D01*
X94967823Y-69197823D01*
X94986001Y-69181347D01*
X95005707Y-69166732D01*
X95026750Y-69154120D01*
X95048929Y-69143630D01*
X95072028Y-69135365D01*
X95095827Y-69129404D01*
X95120095Y-69125804D01*
X95144599Y-69124600D01*
X95794601Y-69124600D01*
X95819105Y-69125804D01*
G37*
G36*
X97869105Y-69125804D02*
G01*
X97893373Y-69129404D01*
X97917172Y-69135365D01*
X97940271Y-69143630D01*
X97962450Y-69154120D01*
X97983493Y-69166732D01*
X98003199Y-69181347D01*
X98021377Y-69197823D01*
X98037853Y-69216001D01*
X98052468Y-69235707D01*
X98065080Y-69256750D01*
X98075570Y-69278929D01*
X98083835Y-69302028D01*
X98089796Y-69325827D01*
X98093396Y-69350095D01*
X98094600Y-69374599D01*
X98094600Y-70274601D01*
X98093396Y-70299105D01*
X98089796Y-70323373D01*
X98083835Y-70347172D01*
X98075570Y-70370271D01*
X98065080Y-70392450D01*
X98052468Y-70413493D01*
X98037853Y-70433199D01*
X98021377Y-70451377D01*
X98003199Y-70467853D01*
X97983493Y-70482468D01*
X97962450Y-70495080D01*
X97940271Y-70505570D01*
X97917172Y-70513835D01*
X97893373Y-70519796D01*
X97869105Y-70523396D01*
X97844601Y-70524600D01*
X97194599Y-70524600D01*
X97170095Y-70523396D01*
X97145827Y-70519796D01*
X97122028Y-70513835D01*
X97098929Y-70505570D01*
X97076750Y-70495080D01*
X97055707Y-70482468D01*
X97036001Y-70467853D01*
X97017823Y-70451377D01*
X97001347Y-70433199D01*
X96986732Y-70413493D01*
X96974120Y-70392450D01*
X96963630Y-70370271D01*
X96955365Y-70347172D01*
X96949404Y-70323373D01*
X96945804Y-70299105D01*
X96944600Y-70274601D01*
X96944600Y-69374599D01*
X96945804Y-69350095D01*
X96949404Y-69325827D01*
X96955365Y-69302028D01*
X96963630Y-69278929D01*
X96974120Y-69256750D01*
X96986732Y-69235707D01*
X97001347Y-69216001D01*
X97017823Y-69197823D01*
X97036001Y-69181347D01*
X97055707Y-69166732D01*
X97076750Y-69154120D01*
X97098929Y-69143630D01*
X97122028Y-69135365D01*
X97145827Y-69129404D01*
X97170095Y-69125804D01*
X97194599Y-69124600D01*
X97844601Y-69124600D01*
X97869105Y-69125804D01*
G37*
G36*
X144416305Y-111559804D02*
G01*
X144440573Y-111563404D01*
X144464372Y-111569365D01*
X144487471Y-111577630D01*
X144509650Y-111588120D01*
X144530693Y-111600732D01*
X144550399Y-111615347D01*
X144568577Y-111631823D01*
X144585053Y-111650001D01*
X144599668Y-111669707D01*
X144612280Y-111690750D01*
X144622770Y-111712929D01*
X144631035Y-111736028D01*
X144636996Y-111759827D01*
X144640596Y-111784095D01*
X144641800Y-111808599D01*
X144641800Y-112458601D01*
X144640596Y-112483105D01*
X144636996Y-112507373D01*
X144631035Y-112531172D01*
X144622770Y-112554271D01*
X144612280Y-112576450D01*
X144599668Y-112597493D01*
X144585053Y-112617199D01*
X144568577Y-112635377D01*
X144550399Y-112651853D01*
X144530693Y-112666468D01*
X144509650Y-112679080D01*
X144487471Y-112689570D01*
X144464372Y-112697835D01*
X144440573Y-112703796D01*
X144416305Y-112707396D01*
X144391801Y-112708600D01*
X143491799Y-112708600D01*
X143467295Y-112707396D01*
X143443027Y-112703796D01*
X143419228Y-112697835D01*
X143396129Y-112689570D01*
X143373950Y-112679080D01*
X143352907Y-112666468D01*
X143333201Y-112651853D01*
X143315023Y-112635377D01*
X143298547Y-112617199D01*
X143283932Y-112597493D01*
X143271320Y-112576450D01*
X143260830Y-112554271D01*
X143252565Y-112531172D01*
X143246604Y-112507373D01*
X143243004Y-112483105D01*
X143241800Y-112458601D01*
X143241800Y-111808599D01*
X143243004Y-111784095D01*
X143246604Y-111759827D01*
X143252565Y-111736028D01*
X143260830Y-111712929D01*
X143271320Y-111690750D01*
X143283932Y-111669707D01*
X143298547Y-111650001D01*
X143315023Y-111631823D01*
X143333201Y-111615347D01*
X143352907Y-111600732D01*
X143373950Y-111588120D01*
X143396129Y-111577630D01*
X143419228Y-111569365D01*
X143443027Y-111563404D01*
X143467295Y-111559804D01*
X143491799Y-111558600D01*
X144391801Y-111558600D01*
X144416305Y-111559804D01*
G37*
G36*
X144416305Y-109509804D02*
G01*
X144440573Y-109513404D01*
X144464372Y-109519365D01*
X144487471Y-109527630D01*
X144509650Y-109538120D01*
X144530693Y-109550732D01*
X144550399Y-109565347D01*
X144568577Y-109581823D01*
X144585053Y-109600001D01*
X144599668Y-109619707D01*
X144612280Y-109640750D01*
X144622770Y-109662929D01*
X144631035Y-109686028D01*
X144636996Y-109709827D01*
X144640596Y-109734095D01*
X144641800Y-109758599D01*
X144641800Y-110408601D01*
X144640596Y-110433105D01*
X144636996Y-110457373D01*
X144631035Y-110481172D01*
X144622770Y-110504271D01*
X144612280Y-110526450D01*
X144599668Y-110547493D01*
X144585053Y-110567199D01*
X144568577Y-110585377D01*
X144550399Y-110601853D01*
X144530693Y-110616468D01*
X144509650Y-110629080D01*
X144487471Y-110639570D01*
X144464372Y-110647835D01*
X144440573Y-110653796D01*
X144416305Y-110657396D01*
X144391801Y-110658600D01*
X143491799Y-110658600D01*
X143467295Y-110657396D01*
X143443027Y-110653796D01*
X143419228Y-110647835D01*
X143396129Y-110639570D01*
X143373950Y-110629080D01*
X143352907Y-110616468D01*
X143333201Y-110601853D01*
X143315023Y-110585377D01*
X143298547Y-110567199D01*
X143283932Y-110547493D01*
X143271320Y-110526450D01*
X143260830Y-110504271D01*
X143252565Y-110481172D01*
X143246604Y-110457373D01*
X143243004Y-110433105D01*
X143241800Y-110408601D01*
X143241800Y-109758599D01*
X143243004Y-109734095D01*
X143246604Y-109709827D01*
X143252565Y-109686028D01*
X143260830Y-109662929D01*
X143271320Y-109640750D01*
X143283932Y-109619707D01*
X143298547Y-109600001D01*
X143315023Y-109581823D01*
X143333201Y-109565347D01*
X143352907Y-109550732D01*
X143373950Y-109538120D01*
X143396129Y-109527630D01*
X143419228Y-109519365D01*
X143443027Y-109513404D01*
X143467295Y-109509804D01*
X143491799Y-109508600D01*
X144391801Y-109508600D01*
X144416305Y-109509804D01*
G37*
G36*
X119016305Y-111813804D02*
G01*
X119040573Y-111817404D01*
X119064372Y-111823365D01*
X119087471Y-111831630D01*
X119109650Y-111842120D01*
X119130693Y-111854732D01*
X119150399Y-111869347D01*
X119168577Y-111885823D01*
X119185053Y-111904001D01*
X119199668Y-111923707D01*
X119212280Y-111944750D01*
X119222770Y-111966929D01*
X119231035Y-111990028D01*
X119236996Y-112013827D01*
X119240596Y-112038095D01*
X119241800Y-112062599D01*
X119241800Y-112712601D01*
X119240596Y-112737105D01*
X119236996Y-112761373D01*
X119231035Y-112785172D01*
X119222770Y-112808271D01*
X119212280Y-112830450D01*
X119199668Y-112851493D01*
X119185053Y-112871199D01*
X119168577Y-112889377D01*
X119150399Y-112905853D01*
X119130693Y-112920468D01*
X119109650Y-112933080D01*
X119087471Y-112943570D01*
X119064372Y-112951835D01*
X119040573Y-112957796D01*
X119016305Y-112961396D01*
X118991801Y-112962600D01*
X118091799Y-112962600D01*
X118067295Y-112961396D01*
X118043027Y-112957796D01*
X118019228Y-112951835D01*
X117996129Y-112943570D01*
X117973950Y-112933080D01*
X117952907Y-112920468D01*
X117933201Y-112905853D01*
X117915023Y-112889377D01*
X117898547Y-112871199D01*
X117883932Y-112851493D01*
X117871320Y-112830450D01*
X117860830Y-112808271D01*
X117852565Y-112785172D01*
X117846604Y-112761373D01*
X117843004Y-112737105D01*
X117841800Y-112712601D01*
X117841800Y-112062599D01*
X117843004Y-112038095D01*
X117846604Y-112013827D01*
X117852565Y-111990028D01*
X117860830Y-111966929D01*
X117871320Y-111944750D01*
X117883932Y-111923707D01*
X117898547Y-111904001D01*
X117915023Y-111885823D01*
X117933201Y-111869347D01*
X117952907Y-111854732D01*
X117973950Y-111842120D01*
X117996129Y-111831630D01*
X118019228Y-111823365D01*
X118043027Y-111817404D01*
X118067295Y-111813804D01*
X118091799Y-111812600D01*
X118991801Y-111812600D01*
X119016305Y-111813804D01*
G37*
G36*
X119016305Y-109763804D02*
G01*
X119040573Y-109767404D01*
X119064372Y-109773365D01*
X119087471Y-109781630D01*
X119109650Y-109792120D01*
X119130693Y-109804732D01*
X119150399Y-109819347D01*
X119168577Y-109835823D01*
X119185053Y-109854001D01*
X119199668Y-109873707D01*
X119212280Y-109894750D01*
X119222770Y-109916929D01*
X119231035Y-109940028D01*
X119236996Y-109963827D01*
X119240596Y-109988095D01*
X119241800Y-110012599D01*
X119241800Y-110662601D01*
X119240596Y-110687105D01*
X119236996Y-110711373D01*
X119231035Y-110735172D01*
X119222770Y-110758271D01*
X119212280Y-110780450D01*
X119199668Y-110801493D01*
X119185053Y-110821199D01*
X119168577Y-110839377D01*
X119150399Y-110855853D01*
X119130693Y-110870468D01*
X119109650Y-110883080D01*
X119087471Y-110893570D01*
X119064372Y-110901835D01*
X119040573Y-110907796D01*
X119016305Y-110911396D01*
X118991801Y-110912600D01*
X118091799Y-110912600D01*
X118067295Y-110911396D01*
X118043027Y-110907796D01*
X118019228Y-110901835D01*
X117996129Y-110893570D01*
X117973950Y-110883080D01*
X117952907Y-110870468D01*
X117933201Y-110855853D01*
X117915023Y-110839377D01*
X117898547Y-110821199D01*
X117883932Y-110801493D01*
X117871320Y-110780450D01*
X117860830Y-110758271D01*
X117852565Y-110735172D01*
X117846604Y-110711373D01*
X117843004Y-110687105D01*
X117841800Y-110662601D01*
X117841800Y-110012599D01*
X117843004Y-109988095D01*
X117846604Y-109963827D01*
X117852565Y-109940028D01*
X117860830Y-109916929D01*
X117871320Y-109894750D01*
X117883932Y-109873707D01*
X117898547Y-109854001D01*
X117915023Y-109835823D01*
X117933201Y-109819347D01*
X117952907Y-109804732D01*
X117973950Y-109792120D01*
X117996129Y-109781630D01*
X118019228Y-109773365D01*
X118043027Y-109767404D01*
X118067295Y-109763804D01*
X118091799Y-109762600D01*
X118991801Y-109762600D01*
X119016305Y-109763804D01*
G37*
G36*
X138618105Y-71869004D02*
G01*
X138642373Y-71872604D01*
X138666172Y-71878565D01*
X138689271Y-71886830D01*
X138711450Y-71897320D01*
X138732493Y-71909932D01*
X138752199Y-71924547D01*
X138770377Y-71941023D01*
X138786853Y-71959201D01*
X138801468Y-71978907D01*
X138814080Y-71999950D01*
X138824570Y-72022129D01*
X138832835Y-72045228D01*
X138838796Y-72069027D01*
X138842396Y-72093295D01*
X138843600Y-72117799D01*
X138843600Y-73017801D01*
X138842396Y-73042305D01*
X138838796Y-73066573D01*
X138832835Y-73090372D01*
X138824570Y-73113471D01*
X138814080Y-73135650D01*
X138801468Y-73156693D01*
X138786853Y-73176399D01*
X138770377Y-73194577D01*
X138752199Y-73211053D01*
X138732493Y-73225668D01*
X138711450Y-73238280D01*
X138689271Y-73248770D01*
X138666172Y-73257035D01*
X138642373Y-73262996D01*
X138618105Y-73266596D01*
X138593601Y-73267800D01*
X137943599Y-73267800D01*
X137919095Y-73266596D01*
X137894827Y-73262996D01*
X137871028Y-73257035D01*
X137847929Y-73248770D01*
X137825750Y-73238280D01*
X137804707Y-73225668D01*
X137785001Y-73211053D01*
X137766823Y-73194577D01*
X137750347Y-73176399D01*
X137735732Y-73156693D01*
X137723120Y-73135650D01*
X137712630Y-73113471D01*
X137704365Y-73090372D01*
X137698404Y-73066573D01*
X137694804Y-73042305D01*
X137693600Y-73017801D01*
X137693600Y-72117799D01*
X137694804Y-72093295D01*
X137698404Y-72069027D01*
X137704365Y-72045228D01*
X137712630Y-72022129D01*
X137723120Y-71999950D01*
X137735732Y-71978907D01*
X137750347Y-71959201D01*
X137766823Y-71941023D01*
X137785001Y-71924547D01*
X137804707Y-71909932D01*
X137825750Y-71897320D01*
X137847929Y-71886830D01*
X137871028Y-71878565D01*
X137894827Y-71872604D01*
X137919095Y-71869004D01*
X137943599Y-71867800D01*
X138593601Y-71867800D01*
X138618105Y-71869004D01*
G37*
G36*
X140668105Y-71869004D02*
G01*
X140692373Y-71872604D01*
X140716172Y-71878565D01*
X140739271Y-71886830D01*
X140761450Y-71897320D01*
X140782493Y-71909932D01*
X140802199Y-71924547D01*
X140820377Y-71941023D01*
X140836853Y-71959201D01*
X140851468Y-71978907D01*
X140864080Y-71999950D01*
X140874570Y-72022129D01*
X140882835Y-72045228D01*
X140888796Y-72069027D01*
X140892396Y-72093295D01*
X140893600Y-72117799D01*
X140893600Y-73017801D01*
X140892396Y-73042305D01*
X140888796Y-73066573D01*
X140882835Y-73090372D01*
X140874570Y-73113471D01*
X140864080Y-73135650D01*
X140851468Y-73156693D01*
X140836853Y-73176399D01*
X140820377Y-73194577D01*
X140802199Y-73211053D01*
X140782493Y-73225668D01*
X140761450Y-73238280D01*
X140739271Y-73248770D01*
X140716172Y-73257035D01*
X140692373Y-73262996D01*
X140668105Y-73266596D01*
X140643601Y-73267800D01*
X139993599Y-73267800D01*
X139969095Y-73266596D01*
X139944827Y-73262996D01*
X139921028Y-73257035D01*
X139897929Y-73248770D01*
X139875750Y-73238280D01*
X139854707Y-73225668D01*
X139835001Y-73211053D01*
X139816823Y-73194577D01*
X139800347Y-73176399D01*
X139785732Y-73156693D01*
X139773120Y-73135650D01*
X139762630Y-73113471D01*
X139754365Y-73090372D01*
X139748404Y-73066573D01*
X139744804Y-73042305D01*
X139743600Y-73017801D01*
X139743600Y-72117799D01*
X139744804Y-72093295D01*
X139748404Y-72069027D01*
X139754365Y-72045228D01*
X139762630Y-72022129D01*
X139773120Y-71999950D01*
X139785732Y-71978907D01*
X139800347Y-71959201D01*
X139816823Y-71941023D01*
X139835001Y-71924547D01*
X139854707Y-71909932D01*
X139875750Y-71897320D01*
X139897929Y-71886830D01*
X139921028Y-71878565D01*
X139944827Y-71872604D01*
X139969095Y-71869004D01*
X139993599Y-71867800D01*
X140643601Y-71867800D01*
X140668105Y-71869004D01*
G37*
G36*
X133207905Y-98970804D02*
G01*
X133232173Y-98974404D01*
X133255972Y-98980365D01*
X133279071Y-98988630D01*
X133301250Y-98999120D01*
X133322293Y-99011732D01*
X133341999Y-99026347D01*
X133360177Y-99042823D01*
X133376653Y-99061001D01*
X133391268Y-99080707D01*
X133403880Y-99101750D01*
X133414370Y-99123929D01*
X133422635Y-99147028D01*
X133428596Y-99170827D01*
X133432196Y-99195095D01*
X133433400Y-99219599D01*
X133433400Y-100119601D01*
X133432196Y-100144105D01*
X133428596Y-100168373D01*
X133422635Y-100192172D01*
X133414370Y-100215271D01*
X133403880Y-100237450D01*
X133391268Y-100258493D01*
X133376653Y-100278199D01*
X133360177Y-100296377D01*
X133341999Y-100312853D01*
X133322293Y-100327468D01*
X133301250Y-100340080D01*
X133279071Y-100350570D01*
X133255972Y-100358835D01*
X133232173Y-100364796D01*
X133207905Y-100368396D01*
X133183401Y-100369600D01*
X132533399Y-100369600D01*
X132508895Y-100368396D01*
X132484627Y-100364796D01*
X132460828Y-100358835D01*
X132437729Y-100350570D01*
X132415550Y-100340080D01*
X132394507Y-100327468D01*
X132374801Y-100312853D01*
X132356623Y-100296377D01*
X132340147Y-100278199D01*
X132325532Y-100258493D01*
X132312920Y-100237450D01*
X132302430Y-100215271D01*
X132294165Y-100192172D01*
X132288204Y-100168373D01*
X132284604Y-100144105D01*
X132283400Y-100119601D01*
X132283400Y-99219599D01*
X132284604Y-99195095D01*
X132288204Y-99170827D01*
X132294165Y-99147028D01*
X132302430Y-99123929D01*
X132312920Y-99101750D01*
X132325532Y-99080707D01*
X132340147Y-99061001D01*
X132356623Y-99042823D01*
X132374801Y-99026347D01*
X132394507Y-99011732D01*
X132415550Y-98999120D01*
X132437729Y-98988630D01*
X132460828Y-98980365D01*
X132484627Y-98974404D01*
X132508895Y-98970804D01*
X132533399Y-98969600D01*
X133183401Y-98969600D01*
X133207905Y-98970804D01*
G37*
G36*
X135257905Y-98970804D02*
G01*
X135282173Y-98974404D01*
X135305972Y-98980365D01*
X135329071Y-98988630D01*
X135351250Y-98999120D01*
X135372293Y-99011732D01*
X135391999Y-99026347D01*
X135410177Y-99042823D01*
X135426653Y-99061001D01*
X135441268Y-99080707D01*
X135453880Y-99101750D01*
X135464370Y-99123929D01*
X135472635Y-99147028D01*
X135478596Y-99170827D01*
X135482196Y-99195095D01*
X135483400Y-99219599D01*
X135483400Y-100119601D01*
X135482196Y-100144105D01*
X135478596Y-100168373D01*
X135472635Y-100192172D01*
X135464370Y-100215271D01*
X135453880Y-100237450D01*
X135441268Y-100258493D01*
X135426653Y-100278199D01*
X135410177Y-100296377D01*
X135391999Y-100312853D01*
X135372293Y-100327468D01*
X135351250Y-100340080D01*
X135329071Y-100350570D01*
X135305972Y-100358835D01*
X135282173Y-100364796D01*
X135257905Y-100368396D01*
X135233401Y-100369600D01*
X134583399Y-100369600D01*
X134558895Y-100368396D01*
X134534627Y-100364796D01*
X134510828Y-100358835D01*
X134487729Y-100350570D01*
X134465550Y-100340080D01*
X134444507Y-100327468D01*
X134424801Y-100312853D01*
X134406623Y-100296377D01*
X134390147Y-100278199D01*
X134375532Y-100258493D01*
X134362920Y-100237450D01*
X134352430Y-100215271D01*
X134344165Y-100192172D01*
X134338204Y-100168373D01*
X134334604Y-100144105D01*
X134333400Y-100119601D01*
X134333400Y-99219599D01*
X134334604Y-99195095D01*
X134338204Y-99170827D01*
X134344165Y-99147028D01*
X134352430Y-99123929D01*
X134362920Y-99101750D01*
X134375532Y-99080707D01*
X134390147Y-99061001D01*
X134406623Y-99042823D01*
X134424801Y-99026347D01*
X134444507Y-99011732D01*
X134465550Y-98999120D01*
X134487729Y-98988630D01*
X134510828Y-98980365D01*
X134534627Y-98974404D01*
X134558895Y-98970804D01*
X134583399Y-98969600D01*
X135233401Y-98969600D01*
X135257905Y-98970804D01*
G37*
G36*
X126502305Y-98970804D02*
G01*
X126526573Y-98974404D01*
X126550372Y-98980365D01*
X126573471Y-98988630D01*
X126595650Y-98999120D01*
X126616693Y-99011732D01*
X126636399Y-99026347D01*
X126654577Y-99042823D01*
X126671053Y-99061001D01*
X126685668Y-99080707D01*
X126698280Y-99101750D01*
X126708770Y-99123929D01*
X126717035Y-99147028D01*
X126722996Y-99170827D01*
X126726596Y-99195095D01*
X126727800Y-99219599D01*
X126727800Y-100119601D01*
X126726596Y-100144105D01*
X126722996Y-100168373D01*
X126717035Y-100192172D01*
X126708770Y-100215271D01*
X126698280Y-100237450D01*
X126685668Y-100258493D01*
X126671053Y-100278199D01*
X126654577Y-100296377D01*
X126636399Y-100312853D01*
X126616693Y-100327468D01*
X126595650Y-100340080D01*
X126573471Y-100350570D01*
X126550372Y-100358835D01*
X126526573Y-100364796D01*
X126502305Y-100368396D01*
X126477801Y-100369600D01*
X125827799Y-100369600D01*
X125803295Y-100368396D01*
X125779027Y-100364796D01*
X125755228Y-100358835D01*
X125732129Y-100350570D01*
X125709950Y-100340080D01*
X125688907Y-100327468D01*
X125669201Y-100312853D01*
X125651023Y-100296377D01*
X125634547Y-100278199D01*
X125619932Y-100258493D01*
X125607320Y-100237450D01*
X125596830Y-100215271D01*
X125588565Y-100192172D01*
X125582604Y-100168373D01*
X125579004Y-100144105D01*
X125577800Y-100119601D01*
X125577800Y-99219599D01*
X125579004Y-99195095D01*
X125582604Y-99170827D01*
X125588565Y-99147028D01*
X125596830Y-99123929D01*
X125607320Y-99101750D01*
X125619932Y-99080707D01*
X125634547Y-99061001D01*
X125651023Y-99042823D01*
X125669201Y-99026347D01*
X125688907Y-99011732D01*
X125709950Y-98999120D01*
X125732129Y-98988630D01*
X125755228Y-98980365D01*
X125779027Y-98974404D01*
X125803295Y-98970804D01*
X125827799Y-98969600D01*
X126477801Y-98969600D01*
X126502305Y-98970804D01*
G37*
G36*
X128552305Y-98970804D02*
G01*
X128576573Y-98974404D01*
X128600372Y-98980365D01*
X128623471Y-98988630D01*
X128645650Y-98999120D01*
X128666693Y-99011732D01*
X128686399Y-99026347D01*
X128704577Y-99042823D01*
X128721053Y-99061001D01*
X128735668Y-99080707D01*
X128748280Y-99101750D01*
X128758770Y-99123929D01*
X128767035Y-99147028D01*
X128772996Y-99170827D01*
X128776596Y-99195095D01*
X128777800Y-99219599D01*
X128777800Y-100119601D01*
X128776596Y-100144105D01*
X128772996Y-100168373D01*
X128767035Y-100192172D01*
X128758770Y-100215271D01*
X128748280Y-100237450D01*
X128735668Y-100258493D01*
X128721053Y-100278199D01*
X128704577Y-100296377D01*
X128686399Y-100312853D01*
X128666693Y-100327468D01*
X128645650Y-100340080D01*
X128623471Y-100350570D01*
X128600372Y-100358835D01*
X128576573Y-100364796D01*
X128552305Y-100368396D01*
X128527801Y-100369600D01*
X127877799Y-100369600D01*
X127853295Y-100368396D01*
X127829027Y-100364796D01*
X127805228Y-100358835D01*
X127782129Y-100350570D01*
X127759950Y-100340080D01*
X127738907Y-100327468D01*
X127719201Y-100312853D01*
X127701023Y-100296377D01*
X127684547Y-100278199D01*
X127669932Y-100258493D01*
X127657320Y-100237450D01*
X127646830Y-100215271D01*
X127638565Y-100192172D01*
X127632604Y-100168373D01*
X127629004Y-100144105D01*
X127627800Y-100119601D01*
X127627800Y-99219599D01*
X127629004Y-99195095D01*
X127632604Y-99170827D01*
X127638565Y-99147028D01*
X127646830Y-99123929D01*
X127657320Y-99101750D01*
X127669932Y-99080707D01*
X127684547Y-99061001D01*
X127701023Y-99042823D01*
X127719201Y-99026347D01*
X127738907Y-99011732D01*
X127759950Y-98999120D01*
X127782129Y-98988630D01*
X127805228Y-98980365D01*
X127829027Y-98974404D01*
X127853295Y-98970804D01*
X127877799Y-98969600D01*
X128527801Y-98969600D01*
X128552305Y-98970804D01*
G37*
G36*
X120322705Y-88404404D02*
G01*
X120346973Y-88408004D01*
X120370772Y-88413965D01*
X120393871Y-88422230D01*
X120416050Y-88432720D01*
X120437093Y-88445332D01*
X120456799Y-88459947D01*
X120474977Y-88476423D01*
X120491453Y-88494601D01*
X120506068Y-88514307D01*
X120518680Y-88535350D01*
X120529170Y-88557529D01*
X120537435Y-88580628D01*
X120543396Y-88604427D01*
X120546996Y-88628695D01*
X120548200Y-88653199D01*
X120548200Y-89553201D01*
X120546996Y-89577705D01*
X120543396Y-89601973D01*
X120537435Y-89625772D01*
X120529170Y-89648871D01*
X120518680Y-89671050D01*
X120506068Y-89692093D01*
X120491453Y-89711799D01*
X120474977Y-89729977D01*
X120456799Y-89746453D01*
X120437093Y-89761068D01*
X120416050Y-89773680D01*
X120393871Y-89784170D01*
X120370772Y-89792435D01*
X120346973Y-89798396D01*
X120322705Y-89801996D01*
X120298201Y-89803200D01*
X119648199Y-89803200D01*
X119623695Y-89801996D01*
X119599427Y-89798396D01*
X119575628Y-89792435D01*
X119552529Y-89784170D01*
X119530350Y-89773680D01*
X119509307Y-89761068D01*
X119489601Y-89746453D01*
X119471423Y-89729977D01*
X119454947Y-89711799D01*
X119440332Y-89692093D01*
X119427720Y-89671050D01*
X119417230Y-89648871D01*
X119408965Y-89625772D01*
X119403004Y-89601973D01*
X119399404Y-89577705D01*
X119398200Y-89553201D01*
X119398200Y-88653199D01*
X119399404Y-88628695D01*
X119403004Y-88604427D01*
X119408965Y-88580628D01*
X119417230Y-88557529D01*
X119427720Y-88535350D01*
X119440332Y-88514307D01*
X119454947Y-88494601D01*
X119471423Y-88476423D01*
X119489601Y-88459947D01*
X119509307Y-88445332D01*
X119530350Y-88432720D01*
X119552529Y-88422230D01*
X119575628Y-88413965D01*
X119599427Y-88408004D01*
X119623695Y-88404404D01*
X119648199Y-88403200D01*
X120298201Y-88403200D01*
X120322705Y-88404404D01*
G37*
G36*
X118272705Y-88404404D02*
G01*
X118296973Y-88408004D01*
X118320772Y-88413965D01*
X118343871Y-88422230D01*
X118366050Y-88432720D01*
X118387093Y-88445332D01*
X118406799Y-88459947D01*
X118424977Y-88476423D01*
X118441453Y-88494601D01*
X118456068Y-88514307D01*
X118468680Y-88535350D01*
X118479170Y-88557529D01*
X118487435Y-88580628D01*
X118493396Y-88604427D01*
X118496996Y-88628695D01*
X118498200Y-88653199D01*
X118498200Y-89553201D01*
X118496996Y-89577705D01*
X118493396Y-89601973D01*
X118487435Y-89625772D01*
X118479170Y-89648871D01*
X118468680Y-89671050D01*
X118456068Y-89692093D01*
X118441453Y-89711799D01*
X118424977Y-89729977D01*
X118406799Y-89746453D01*
X118387093Y-89761068D01*
X118366050Y-89773680D01*
X118343871Y-89784170D01*
X118320772Y-89792435D01*
X118296973Y-89798396D01*
X118272705Y-89801996D01*
X118248201Y-89803200D01*
X117598199Y-89803200D01*
X117573695Y-89801996D01*
X117549427Y-89798396D01*
X117525628Y-89792435D01*
X117502529Y-89784170D01*
X117480350Y-89773680D01*
X117459307Y-89761068D01*
X117439601Y-89746453D01*
X117421423Y-89729977D01*
X117404947Y-89711799D01*
X117390332Y-89692093D01*
X117377720Y-89671050D01*
X117367230Y-89648871D01*
X117358965Y-89625772D01*
X117353004Y-89601973D01*
X117349404Y-89577705D01*
X117348200Y-89553201D01*
X117348200Y-88653199D01*
X117349404Y-88628695D01*
X117353004Y-88604427D01*
X117358965Y-88580628D01*
X117367230Y-88557529D01*
X117377720Y-88535350D01*
X117390332Y-88514307D01*
X117404947Y-88494601D01*
X117421423Y-88476423D01*
X117439601Y-88459947D01*
X117459307Y-88445332D01*
X117480350Y-88432720D01*
X117502529Y-88422230D01*
X117525628Y-88413965D01*
X117549427Y-88408004D01*
X117573695Y-88404404D01*
X117598199Y-88403200D01*
X118248201Y-88403200D01*
X118272705Y-88404404D01*
G37*
G36*
X120195705Y-76999804D02*
G01*
X120219973Y-77003404D01*
X120243772Y-77009365D01*
X120266871Y-77017630D01*
X120289050Y-77028120D01*
X120310093Y-77040732D01*
X120329799Y-77055347D01*
X120347977Y-77071823D01*
X120364453Y-77090001D01*
X120379068Y-77109707D01*
X120391680Y-77130750D01*
X120402170Y-77152929D01*
X120410435Y-77176028D01*
X120416396Y-77199827D01*
X120419996Y-77224095D01*
X120421200Y-77248599D01*
X120421200Y-78148601D01*
X120419996Y-78173105D01*
X120416396Y-78197373D01*
X120410435Y-78221172D01*
X120402170Y-78244271D01*
X120391680Y-78266450D01*
X120379068Y-78287493D01*
X120364453Y-78307199D01*
X120347977Y-78325377D01*
X120329799Y-78341853D01*
X120310093Y-78356468D01*
X120289050Y-78369080D01*
X120266871Y-78379570D01*
X120243772Y-78387835D01*
X120219973Y-78393796D01*
X120195705Y-78397396D01*
X120171201Y-78398600D01*
X119521199Y-78398600D01*
X119496695Y-78397396D01*
X119472427Y-78393796D01*
X119448628Y-78387835D01*
X119425529Y-78379570D01*
X119403350Y-78369080D01*
X119382307Y-78356468D01*
X119362601Y-78341853D01*
X119344423Y-78325377D01*
X119327947Y-78307199D01*
X119313332Y-78287493D01*
X119300720Y-78266450D01*
X119290230Y-78244271D01*
X119281965Y-78221172D01*
X119276004Y-78197373D01*
X119272404Y-78173105D01*
X119271200Y-78148601D01*
X119271200Y-77248599D01*
X119272404Y-77224095D01*
X119276004Y-77199827D01*
X119281965Y-77176028D01*
X119290230Y-77152929D01*
X119300720Y-77130750D01*
X119313332Y-77109707D01*
X119327947Y-77090001D01*
X119344423Y-77071823D01*
X119362601Y-77055347D01*
X119382307Y-77040732D01*
X119403350Y-77028120D01*
X119425529Y-77017630D01*
X119448628Y-77009365D01*
X119472427Y-77003404D01*
X119496695Y-76999804D01*
X119521199Y-76998600D01*
X120171201Y-76998600D01*
X120195705Y-76999804D01*
G37*
G36*
X118145705Y-76999804D02*
G01*
X118169973Y-77003404D01*
X118193772Y-77009365D01*
X118216871Y-77017630D01*
X118239050Y-77028120D01*
X118260093Y-77040732D01*
X118279799Y-77055347D01*
X118297977Y-77071823D01*
X118314453Y-77090001D01*
X118329068Y-77109707D01*
X118341680Y-77130750D01*
X118352170Y-77152929D01*
X118360435Y-77176028D01*
X118366396Y-77199827D01*
X118369996Y-77224095D01*
X118371200Y-77248599D01*
X118371200Y-78148601D01*
X118369996Y-78173105D01*
X118366396Y-78197373D01*
X118360435Y-78221172D01*
X118352170Y-78244271D01*
X118341680Y-78266450D01*
X118329068Y-78287493D01*
X118314453Y-78307199D01*
X118297977Y-78325377D01*
X118279799Y-78341853D01*
X118260093Y-78356468D01*
X118239050Y-78369080D01*
X118216871Y-78379570D01*
X118193772Y-78387835D01*
X118169973Y-78393796D01*
X118145705Y-78397396D01*
X118121201Y-78398600D01*
X117471199Y-78398600D01*
X117446695Y-78397396D01*
X117422427Y-78393796D01*
X117398628Y-78387835D01*
X117375529Y-78379570D01*
X117353350Y-78369080D01*
X117332307Y-78356468D01*
X117312601Y-78341853D01*
X117294423Y-78325377D01*
X117277947Y-78307199D01*
X117263332Y-78287493D01*
X117250720Y-78266450D01*
X117240230Y-78244271D01*
X117231965Y-78221172D01*
X117226004Y-78197373D01*
X117222404Y-78173105D01*
X117221200Y-78148601D01*
X117221200Y-77248599D01*
X117222404Y-77224095D01*
X117226004Y-77199827D01*
X117231965Y-77176028D01*
X117240230Y-77152929D01*
X117250720Y-77130750D01*
X117263332Y-77109707D01*
X117277947Y-77090001D01*
X117294423Y-77071823D01*
X117312601Y-77055347D01*
X117332307Y-77040732D01*
X117353350Y-77028120D01*
X117375529Y-77017630D01*
X117398628Y-77009365D01*
X117422427Y-77003404D01*
X117446695Y-76999804D01*
X117471199Y-76998600D01*
X118121201Y-76998600D01*
X118145705Y-76999804D01*
G37*
G36*
X117612305Y-64401404D02*
G01*
X117636573Y-64405004D01*
X117660372Y-64410965D01*
X117683471Y-64419230D01*
X117705650Y-64429720D01*
X117726693Y-64442332D01*
X117746399Y-64456947D01*
X117764577Y-64473423D01*
X117781053Y-64491601D01*
X117795668Y-64511307D01*
X117808280Y-64532350D01*
X117818770Y-64554529D01*
X117827035Y-64577628D01*
X117832996Y-64601427D01*
X117836596Y-64625695D01*
X117837800Y-64650199D01*
X117837800Y-65550201D01*
X117836596Y-65574705D01*
X117832996Y-65598973D01*
X117827035Y-65622772D01*
X117818770Y-65645871D01*
X117808280Y-65668050D01*
X117795668Y-65689093D01*
X117781053Y-65708799D01*
X117764577Y-65726977D01*
X117746399Y-65743453D01*
X117726693Y-65758068D01*
X117705650Y-65770680D01*
X117683471Y-65781170D01*
X117660372Y-65789435D01*
X117636573Y-65795396D01*
X117612305Y-65798996D01*
X117587801Y-65800200D01*
X116937799Y-65800200D01*
X116913295Y-65798996D01*
X116889027Y-65795396D01*
X116865228Y-65789435D01*
X116842129Y-65781170D01*
X116819950Y-65770680D01*
X116798907Y-65758068D01*
X116779201Y-65743453D01*
X116761023Y-65726977D01*
X116744547Y-65708799D01*
X116729932Y-65689093D01*
X116717320Y-65668050D01*
X116706830Y-65645871D01*
X116698565Y-65622772D01*
X116692604Y-65598973D01*
X116689004Y-65574705D01*
X116687800Y-65550201D01*
X116687800Y-64650199D01*
X116689004Y-64625695D01*
X116692604Y-64601427D01*
X116698565Y-64577628D01*
X116706830Y-64554529D01*
X116717320Y-64532350D01*
X116729932Y-64511307D01*
X116744547Y-64491601D01*
X116761023Y-64473423D01*
X116779201Y-64456947D01*
X116798907Y-64442332D01*
X116819950Y-64429720D01*
X116842129Y-64419230D01*
X116865228Y-64410965D01*
X116889027Y-64405004D01*
X116913295Y-64401404D01*
X116937799Y-64400200D01*
X117587801Y-64400200D01*
X117612305Y-64401404D01*
G37*
G36*
X119662305Y-64401404D02*
G01*
X119686573Y-64405004D01*
X119710372Y-64410965D01*
X119733471Y-64419230D01*
X119755650Y-64429720D01*
X119776693Y-64442332D01*
X119796399Y-64456947D01*
X119814577Y-64473423D01*
X119831053Y-64491601D01*
X119845668Y-64511307D01*
X119858280Y-64532350D01*
X119868770Y-64554529D01*
X119877035Y-64577628D01*
X119882996Y-64601427D01*
X119886596Y-64625695D01*
X119887800Y-64650199D01*
X119887800Y-65550201D01*
X119886596Y-65574705D01*
X119882996Y-65598973D01*
X119877035Y-65622772D01*
X119868770Y-65645871D01*
X119858280Y-65668050D01*
X119845668Y-65689093D01*
X119831053Y-65708799D01*
X119814577Y-65726977D01*
X119796399Y-65743453D01*
X119776693Y-65758068D01*
X119755650Y-65770680D01*
X119733471Y-65781170D01*
X119710372Y-65789435D01*
X119686573Y-65795396D01*
X119662305Y-65798996D01*
X119637801Y-65800200D01*
X118987799Y-65800200D01*
X118963295Y-65798996D01*
X118939027Y-65795396D01*
X118915228Y-65789435D01*
X118892129Y-65781170D01*
X118869950Y-65770680D01*
X118848907Y-65758068D01*
X118829201Y-65743453D01*
X118811023Y-65726977D01*
X118794547Y-65708799D01*
X118779932Y-65689093D01*
X118767320Y-65668050D01*
X118756830Y-65645871D01*
X118748565Y-65622772D01*
X118742604Y-65598973D01*
X118739004Y-65574705D01*
X118737800Y-65550201D01*
X118737800Y-64650199D01*
X118739004Y-64625695D01*
X118742604Y-64601427D01*
X118748565Y-64577628D01*
X118756830Y-64554529D01*
X118767320Y-64532350D01*
X118779932Y-64511307D01*
X118794547Y-64491601D01*
X118811023Y-64473423D01*
X118829201Y-64456947D01*
X118848907Y-64442332D01*
X118869950Y-64429720D01*
X118892129Y-64419230D01*
X118915228Y-64410965D01*
X118939027Y-64405004D01*
X118963295Y-64401404D01*
X118987799Y-64400200D01*
X119637801Y-64400200D01*
X119662305Y-64401404D01*
G37*
G36*
X103947105Y-86880404D02*
G01*
X103971373Y-86884004D01*
X103995172Y-86889965D01*
X104018271Y-86898230D01*
X104040450Y-86908720D01*
X104061493Y-86921332D01*
X104081199Y-86935947D01*
X104099377Y-86952423D01*
X104115853Y-86970601D01*
X104130468Y-86990307D01*
X104143080Y-87011350D01*
X104153570Y-87033529D01*
X104161835Y-87056628D01*
X104167796Y-87080427D01*
X104171396Y-87104695D01*
X104172600Y-87129199D01*
X104172600Y-88029201D01*
X104171396Y-88053705D01*
X104167796Y-88077973D01*
X104161835Y-88101772D01*
X104153570Y-88124871D01*
X104143080Y-88147050D01*
X104130468Y-88168093D01*
X104115853Y-88187799D01*
X104099377Y-88205977D01*
X104081199Y-88222453D01*
X104061493Y-88237068D01*
X104040450Y-88249680D01*
X104018271Y-88260170D01*
X103995172Y-88268435D01*
X103971373Y-88274396D01*
X103947105Y-88277996D01*
X103922601Y-88279200D01*
X103272599Y-88279200D01*
X103248095Y-88277996D01*
X103223827Y-88274396D01*
X103200028Y-88268435D01*
X103176929Y-88260170D01*
X103154750Y-88249680D01*
X103133707Y-88237068D01*
X103114001Y-88222453D01*
X103095823Y-88205977D01*
X103079347Y-88187799D01*
X103064732Y-88168093D01*
X103052120Y-88147050D01*
X103041630Y-88124871D01*
X103033365Y-88101772D01*
X103027404Y-88077973D01*
X103023804Y-88053705D01*
X103022600Y-88029201D01*
X103022600Y-87129199D01*
X103023804Y-87104695D01*
X103027404Y-87080427D01*
X103033365Y-87056628D01*
X103041630Y-87033529D01*
X103052120Y-87011350D01*
X103064732Y-86990307D01*
X103079347Y-86970601D01*
X103095823Y-86952423D01*
X103114001Y-86935947D01*
X103133707Y-86921332D01*
X103154750Y-86908720D01*
X103176929Y-86898230D01*
X103200028Y-86889965D01*
X103223827Y-86884004D01*
X103248095Y-86880404D01*
X103272599Y-86879200D01*
X103922601Y-86879200D01*
X103947105Y-86880404D01*
G37*
G36*
X105997105Y-86880404D02*
G01*
X106021373Y-86884004D01*
X106045172Y-86889965D01*
X106068271Y-86898230D01*
X106090450Y-86908720D01*
X106111493Y-86921332D01*
X106131199Y-86935947D01*
X106149377Y-86952423D01*
X106165853Y-86970601D01*
X106180468Y-86990307D01*
X106193080Y-87011350D01*
X106203570Y-87033529D01*
X106211835Y-87056628D01*
X106217796Y-87080427D01*
X106221396Y-87104695D01*
X106222600Y-87129199D01*
X106222600Y-88029201D01*
X106221396Y-88053705D01*
X106217796Y-88077973D01*
X106211835Y-88101772D01*
X106203570Y-88124871D01*
X106193080Y-88147050D01*
X106180468Y-88168093D01*
X106165853Y-88187799D01*
X106149377Y-88205977D01*
X106131199Y-88222453D01*
X106111493Y-88237068D01*
X106090450Y-88249680D01*
X106068271Y-88260170D01*
X106045172Y-88268435D01*
X106021373Y-88274396D01*
X105997105Y-88277996D01*
X105972601Y-88279200D01*
X105322599Y-88279200D01*
X105298095Y-88277996D01*
X105273827Y-88274396D01*
X105250028Y-88268435D01*
X105226929Y-88260170D01*
X105204750Y-88249680D01*
X105183707Y-88237068D01*
X105164001Y-88222453D01*
X105145823Y-88205977D01*
X105129347Y-88187799D01*
X105114732Y-88168093D01*
X105102120Y-88147050D01*
X105091630Y-88124871D01*
X105083365Y-88101772D01*
X105077404Y-88077973D01*
X105073804Y-88053705D01*
X105072600Y-88029201D01*
X105072600Y-87129199D01*
X105073804Y-87104695D01*
X105077404Y-87080427D01*
X105083365Y-87056628D01*
X105091630Y-87033529D01*
X105102120Y-87011350D01*
X105114732Y-86990307D01*
X105129347Y-86970601D01*
X105145823Y-86952423D01*
X105164001Y-86935947D01*
X105183707Y-86921332D01*
X105204750Y-86908720D01*
X105226929Y-86898230D01*
X105250028Y-86889965D01*
X105273827Y-86884004D01*
X105298095Y-86880404D01*
X105322599Y-86879200D01*
X105972601Y-86879200D01*
X105997105Y-86880404D01*
G37*
M02*
