G04 #@! TF.GenerationSoftware,KiCad,Pcbnew,(5.1.5-0-10_14)*
G04 #@! TF.CreationDate,2020-06-04T16:49:04+02:00*
G04 #@! TF.ProjectId,yuv-rgb-converter,7975762d-7267-4622-9d63-6f6e76657274,rev?*
G04 #@! TF.SameCoordinates,Original*
G04 #@! TF.FileFunction,Legend,Top*
G04 #@! TF.FilePolarity,Positive*
%FSLAX46Y46*%
G04 Gerber Fmt 4.6, Leading zero omitted, Abs format (unit mm)*
G04 Created by KiCad (PCBNEW (5.1.5-0-10_14)) date 2020-06-04 16:49:04*
%MOMM*%
%LPD*%
G04 APERTURE LIST*
%ADD10C,0.150000*%
%ADD11C,0.125000*%
%ADD12C,0.082500*%
%ADD13C,0.062500*%
%ADD14C,0.120000*%
G04 APERTURE END LIST*
D10*
X89368380Y-107616190D02*
X90368380Y-107282857D01*
X89368380Y-106949523D01*
X90320761Y-106235238D02*
X90368380Y-106330476D01*
X90368380Y-106520952D01*
X90320761Y-106616190D01*
X90225523Y-106663809D01*
X89844571Y-106663809D01*
X89749333Y-106616190D01*
X89701714Y-106520952D01*
X89701714Y-106330476D01*
X89749333Y-106235238D01*
X89844571Y-106187619D01*
X89939809Y-106187619D01*
X90035047Y-106663809D01*
X90368380Y-105759047D02*
X89701714Y-105759047D01*
X89892190Y-105759047D02*
X89796952Y-105711428D01*
X89749333Y-105663809D01*
X89701714Y-105568571D01*
X89701714Y-105473333D01*
X90320761Y-105187619D02*
X90368380Y-105092380D01*
X90368380Y-104901904D01*
X90320761Y-104806666D01*
X90225523Y-104759047D01*
X90177904Y-104759047D01*
X90082666Y-104806666D01*
X90035047Y-104901904D01*
X90035047Y-105044761D01*
X89987428Y-105140000D01*
X89892190Y-105187619D01*
X89844571Y-105187619D01*
X89749333Y-105140000D01*
X89701714Y-105044761D01*
X89701714Y-104901904D01*
X89749333Y-104806666D01*
X90368380Y-104330476D02*
X89701714Y-104330476D01*
X89368380Y-104330476D02*
X89416000Y-104378095D01*
X89463619Y-104330476D01*
X89416000Y-104282857D01*
X89368380Y-104330476D01*
X89463619Y-104330476D01*
X90368380Y-103711428D02*
X90320761Y-103806666D01*
X90273142Y-103854285D01*
X90177904Y-103901904D01*
X89892190Y-103901904D01*
X89796952Y-103854285D01*
X89749333Y-103806666D01*
X89701714Y-103711428D01*
X89701714Y-103568571D01*
X89749333Y-103473333D01*
X89796952Y-103425714D01*
X89892190Y-103378095D01*
X90177904Y-103378095D01*
X90273142Y-103425714D01*
X90320761Y-103473333D01*
X90368380Y-103568571D01*
X90368380Y-103711428D01*
X89701714Y-102949523D02*
X90368380Y-102949523D01*
X89796952Y-102949523D02*
X89749333Y-102901904D01*
X89701714Y-102806666D01*
X89701714Y-102663809D01*
X89749333Y-102568571D01*
X89844571Y-102520952D01*
X90368380Y-102520952D01*
X90368380Y-100759047D02*
X90368380Y-101330476D01*
X90368380Y-101044761D02*
X89368380Y-101044761D01*
X89511238Y-101140000D01*
X89606476Y-101235238D01*
X89654095Y-101330476D01*
D11*
X91479714Y-107508476D02*
X92289238Y-107508476D01*
X92384476Y-107532285D01*
X92432095Y-107556095D01*
X92479714Y-107603714D01*
X92479714Y-107675142D01*
X92432095Y-107722761D01*
X92098761Y-107508476D02*
X92146380Y-107556095D01*
X92146380Y-107651333D01*
X92098761Y-107698952D01*
X92051142Y-107722761D01*
X91955904Y-107746571D01*
X91670190Y-107746571D01*
X91574952Y-107722761D01*
X91527333Y-107698952D01*
X91479714Y-107651333D01*
X91479714Y-107556095D01*
X91527333Y-107508476D01*
X92146380Y-107270380D02*
X91479714Y-107270380D01*
X91146380Y-107270380D02*
X91194000Y-107294190D01*
X91241619Y-107270380D01*
X91194000Y-107246571D01*
X91146380Y-107270380D01*
X91241619Y-107270380D01*
X91479714Y-107103714D02*
X91479714Y-106913238D01*
X91146380Y-107032285D02*
X92003523Y-107032285D01*
X92098761Y-107008476D01*
X92146380Y-106960857D01*
X92146380Y-106913238D01*
X91670190Y-106437047D02*
X91622571Y-106460857D01*
X91574952Y-106508476D01*
X91574952Y-106556095D01*
X91622571Y-106603714D01*
X91670190Y-106627523D01*
X91765428Y-106651333D01*
X91860666Y-106651333D01*
X91955904Y-106627523D01*
X92003523Y-106603714D01*
X92051142Y-106556095D01*
X92051142Y-106508476D01*
X92003523Y-106460857D01*
X91955904Y-106437047D01*
X91574952Y-106437047D02*
X91955904Y-106437047D01*
X92003523Y-106413238D01*
X92003523Y-106389428D01*
X91955904Y-106341809D01*
X91860666Y-106318000D01*
X91622571Y-106318000D01*
X91479714Y-106365619D01*
X91384476Y-106437047D01*
X91336857Y-106532285D01*
X91384476Y-106627523D01*
X91479714Y-106698952D01*
X91622571Y-106746571D01*
X91813047Y-106770380D01*
X92003523Y-106746571D01*
X92146380Y-106698952D01*
X92241619Y-106627523D01*
X92289238Y-106532285D01*
X92241619Y-106437047D01*
X92146380Y-106365619D01*
X91479714Y-105889428D02*
X92289238Y-105889428D01*
X92384476Y-105913238D01*
X92432095Y-105937047D01*
X92479714Y-105984666D01*
X92479714Y-106056095D01*
X92432095Y-106103714D01*
X92098761Y-105889428D02*
X92146380Y-105937047D01*
X92146380Y-106032285D01*
X92098761Y-106079904D01*
X92051142Y-106103714D01*
X91955904Y-106127523D01*
X91670190Y-106127523D01*
X91574952Y-106103714D01*
X91527333Y-106079904D01*
X91479714Y-106032285D01*
X91479714Y-105937047D01*
X91527333Y-105889428D01*
X92146380Y-105651333D02*
X91479714Y-105651333D01*
X91146380Y-105651333D02*
X91194000Y-105675142D01*
X91241619Y-105651333D01*
X91194000Y-105627523D01*
X91146380Y-105651333D01*
X91241619Y-105651333D01*
X91479714Y-105484666D02*
X91479714Y-105294190D01*
X91146380Y-105413238D02*
X92003523Y-105413238D01*
X92098761Y-105389428D01*
X92146380Y-105341809D01*
X92146380Y-105294190D01*
X92146380Y-105127523D02*
X91146380Y-105127523D01*
X92146380Y-104913238D02*
X91622571Y-104913238D01*
X91527333Y-104937047D01*
X91479714Y-104984666D01*
X91479714Y-105056095D01*
X91527333Y-105103714D01*
X91574952Y-105127523D01*
X91479714Y-104460857D02*
X92146380Y-104460857D01*
X91479714Y-104675142D02*
X92003523Y-104675142D01*
X92098761Y-104651333D01*
X92146380Y-104603714D01*
X92146380Y-104532285D01*
X92098761Y-104484666D01*
X92051142Y-104460857D01*
X92146380Y-104222761D02*
X91146380Y-104222761D01*
X91527333Y-104222761D02*
X91479714Y-104175142D01*
X91479714Y-104079904D01*
X91527333Y-104032285D01*
X91574952Y-104008476D01*
X91670190Y-103984666D01*
X91955904Y-103984666D01*
X92051142Y-104008476D01*
X92098761Y-104032285D01*
X92146380Y-104079904D01*
X92146380Y-104175142D01*
X92098761Y-104222761D01*
X92051142Y-103770380D02*
X92098761Y-103746571D01*
X92146380Y-103770380D01*
X92098761Y-103794190D01*
X92051142Y-103770380D01*
X92146380Y-103770380D01*
X92098761Y-103318000D02*
X92146380Y-103365619D01*
X92146380Y-103460857D01*
X92098761Y-103508476D01*
X92051142Y-103532285D01*
X91955904Y-103556095D01*
X91670190Y-103556095D01*
X91574952Y-103532285D01*
X91527333Y-103508476D01*
X91479714Y-103460857D01*
X91479714Y-103365619D01*
X91527333Y-103318000D01*
X92146380Y-103032285D02*
X92098761Y-103079904D01*
X92051142Y-103103714D01*
X91955904Y-103127523D01*
X91670190Y-103127523D01*
X91574952Y-103103714D01*
X91527333Y-103079904D01*
X91479714Y-103032285D01*
X91479714Y-102960857D01*
X91527333Y-102913238D01*
X91574952Y-102889428D01*
X91670190Y-102865619D01*
X91955904Y-102865619D01*
X92051142Y-102889428D01*
X92098761Y-102913238D01*
X92146380Y-102960857D01*
X92146380Y-103032285D01*
X92146380Y-102651333D02*
X91479714Y-102651333D01*
X91574952Y-102651333D02*
X91527333Y-102627523D01*
X91479714Y-102579904D01*
X91479714Y-102508476D01*
X91527333Y-102460857D01*
X91622571Y-102437047D01*
X92146380Y-102437047D01*
X91622571Y-102437047D02*
X91527333Y-102413238D01*
X91479714Y-102365619D01*
X91479714Y-102294190D01*
X91527333Y-102246571D01*
X91622571Y-102222761D01*
X92146380Y-102222761D01*
X92051142Y-101984666D02*
X92098761Y-101960857D01*
X92146380Y-101984666D01*
X92098761Y-102008476D01*
X92051142Y-101984666D01*
X92146380Y-101984666D01*
X91527333Y-101984666D02*
X91574952Y-101960857D01*
X91622571Y-101984666D01*
X91574952Y-102008476D01*
X91527333Y-101984666D01*
X91622571Y-101984666D01*
X92146380Y-101746571D02*
X91146380Y-101746571D01*
X92146380Y-101532285D02*
X91622571Y-101532285D01*
X91527333Y-101556095D01*
X91479714Y-101603714D01*
X91479714Y-101675142D01*
X91527333Y-101722761D01*
X91574952Y-101746571D01*
X92146380Y-101079904D02*
X91622571Y-101079904D01*
X91527333Y-101103714D01*
X91479714Y-101151333D01*
X91479714Y-101246571D01*
X91527333Y-101294190D01*
X92098761Y-101079904D02*
X92146380Y-101127523D01*
X92146380Y-101246571D01*
X92098761Y-101294190D01*
X92003523Y-101318000D01*
X91908285Y-101318000D01*
X91813047Y-101294190D01*
X91765428Y-101246571D01*
X91765428Y-101127523D01*
X91717809Y-101079904D01*
X91479714Y-100841809D02*
X92146380Y-100841809D01*
X91574952Y-100841809D02*
X91527333Y-100818000D01*
X91479714Y-100770380D01*
X91479714Y-100698952D01*
X91527333Y-100651333D01*
X91622571Y-100627523D01*
X92146380Y-100627523D01*
X92098761Y-100413238D02*
X92146380Y-100365619D01*
X92146380Y-100270380D01*
X92098761Y-100222761D01*
X92003523Y-100198952D01*
X91955904Y-100198952D01*
X91860666Y-100222761D01*
X91813047Y-100270380D01*
X91813047Y-100341809D01*
X91765428Y-100389428D01*
X91670190Y-100413238D01*
X91622571Y-100413238D01*
X91527333Y-100389428D01*
X91479714Y-100341809D01*
X91479714Y-100270380D01*
X91527333Y-100222761D01*
X92146380Y-99984666D02*
X91146380Y-99984666D01*
X92146380Y-99770380D02*
X91622571Y-99770380D01*
X91527333Y-99794190D01*
X91479714Y-99841809D01*
X91479714Y-99913238D01*
X91527333Y-99960857D01*
X91574952Y-99984666D01*
X91479714Y-99318000D02*
X92146380Y-99318000D01*
X91479714Y-99532285D02*
X92003523Y-99532285D01*
X92098761Y-99508476D01*
X92146380Y-99460857D01*
X92146380Y-99389428D01*
X92098761Y-99341809D01*
X92051142Y-99318000D01*
X92098761Y-98889428D02*
X92146380Y-98937047D01*
X92146380Y-99032285D01*
X92098761Y-99079904D01*
X92003523Y-99103714D01*
X91622571Y-99103714D01*
X91527333Y-99079904D01*
X91479714Y-99032285D01*
X91479714Y-98937047D01*
X91527333Y-98889428D01*
X91622571Y-98865619D01*
X91717809Y-98865619D01*
X91813047Y-99103714D01*
X92146380Y-98651333D02*
X91146380Y-98651333D01*
X91527333Y-98651333D02*
X91479714Y-98603714D01*
X91479714Y-98508476D01*
X91527333Y-98460857D01*
X91574952Y-98437047D01*
X91670190Y-98413238D01*
X91955904Y-98413238D01*
X92051142Y-98437047D01*
X92098761Y-98460857D01*
X92146380Y-98508476D01*
X92146380Y-98603714D01*
X92098761Y-98651333D01*
X91479714Y-98198952D02*
X92146380Y-98198952D01*
X91574952Y-98198952D02*
X91527333Y-98175142D01*
X91479714Y-98127523D01*
X91479714Y-98056095D01*
X91527333Y-98008476D01*
X91622571Y-97984666D01*
X92146380Y-97984666D01*
X92098761Y-97556095D02*
X92146380Y-97603714D01*
X92146380Y-97698952D01*
X92098761Y-97746571D01*
X92003523Y-97770380D01*
X91622571Y-97770380D01*
X91527333Y-97746571D01*
X91479714Y-97698952D01*
X91479714Y-97603714D01*
X91527333Y-97556095D01*
X91622571Y-97532285D01*
X91717809Y-97532285D01*
X91813047Y-97770380D01*
X92146380Y-97318000D02*
X91479714Y-97318000D01*
X91670190Y-97318000D02*
X91574952Y-97294190D01*
X91527333Y-97270380D01*
X91479714Y-97222761D01*
X91479714Y-97175142D01*
X91098761Y-96651333D02*
X92384476Y-97079904D01*
X91479714Y-96532285D02*
X92146380Y-96413238D01*
X91479714Y-96294190D02*
X92146380Y-96413238D01*
X92384476Y-96460857D01*
X92432095Y-96484666D01*
X92479714Y-96532285D01*
X91479714Y-95889428D02*
X92146380Y-95889428D01*
X91479714Y-96103714D02*
X92003523Y-96103714D01*
X92098761Y-96079904D01*
X92146380Y-96032285D01*
X92146380Y-95960857D01*
X92098761Y-95913238D01*
X92051142Y-95889428D01*
X91479714Y-95698952D02*
X92146380Y-95579904D01*
X91479714Y-95460857D01*
X91765428Y-95270380D02*
X91765428Y-94889428D01*
X92098761Y-94437047D02*
X92146380Y-94484666D01*
X92146380Y-94579904D01*
X92098761Y-94627523D01*
X92051142Y-94651333D01*
X91955904Y-94675142D01*
X91670190Y-94675142D01*
X91574952Y-94651333D01*
X91527333Y-94627523D01*
X91479714Y-94579904D01*
X91479714Y-94484666D01*
X91527333Y-94437047D01*
X92146380Y-94151333D02*
X92098761Y-94198952D01*
X92051142Y-94222761D01*
X91955904Y-94246571D01*
X91670190Y-94246571D01*
X91574952Y-94222761D01*
X91527333Y-94198952D01*
X91479714Y-94151333D01*
X91479714Y-94079904D01*
X91527333Y-94032285D01*
X91574952Y-94008476D01*
X91670190Y-93984666D01*
X91955904Y-93984666D01*
X92051142Y-94008476D01*
X92098761Y-94032285D01*
X92146380Y-94079904D01*
X92146380Y-94151333D01*
X91479714Y-93770380D02*
X92146380Y-93770380D01*
X91574952Y-93770380D02*
X91527333Y-93746571D01*
X91479714Y-93698952D01*
X91479714Y-93627523D01*
X91527333Y-93579904D01*
X91622571Y-93556095D01*
X92146380Y-93556095D01*
X91479714Y-93365619D02*
X92146380Y-93246571D01*
X91479714Y-93127523D01*
X92098761Y-92746571D02*
X92146380Y-92794190D01*
X92146380Y-92889428D01*
X92098761Y-92937047D01*
X92003523Y-92960857D01*
X91622571Y-92960857D01*
X91527333Y-92937047D01*
X91479714Y-92889428D01*
X91479714Y-92794190D01*
X91527333Y-92746571D01*
X91622571Y-92722761D01*
X91717809Y-92722761D01*
X91813047Y-92960857D01*
X92146380Y-92508476D02*
X91479714Y-92508476D01*
X91670190Y-92508476D02*
X91574952Y-92484666D01*
X91527333Y-92460857D01*
X91479714Y-92413238D01*
X91479714Y-92365619D01*
X91479714Y-92270380D02*
X91479714Y-92079904D01*
X91146380Y-92198952D02*
X92003523Y-92198952D01*
X92098761Y-92175142D01*
X92146380Y-92127523D01*
X92146380Y-92079904D01*
X92098761Y-91722761D02*
X92146380Y-91770380D01*
X92146380Y-91865619D01*
X92098761Y-91913238D01*
X92003523Y-91937047D01*
X91622571Y-91937047D01*
X91527333Y-91913238D01*
X91479714Y-91865619D01*
X91479714Y-91770380D01*
X91527333Y-91722761D01*
X91622571Y-91698952D01*
X91717809Y-91698952D01*
X91813047Y-91937047D01*
X92146380Y-91484666D02*
X91479714Y-91484666D01*
X91670190Y-91484666D02*
X91574952Y-91460857D01*
X91527333Y-91437047D01*
X91479714Y-91389428D01*
X91479714Y-91341809D01*
D12*
X88221714Y-84399428D02*
X88473142Y-84399428D01*
X88347428Y-84780380D02*
X88347428Y-84018476D01*
X88787428Y-83780380D02*
X88630285Y-83780380D01*
X88614571Y-84256571D01*
X88630285Y-84208952D01*
X88661714Y-84161333D01*
X88740285Y-84161333D01*
X88771714Y-84208952D01*
X88787428Y-84256571D01*
X88803142Y-84351809D01*
X88803142Y-84589904D01*
X88787428Y-84685142D01*
X88771714Y-84732761D01*
X88740285Y-84780380D01*
X88661714Y-84780380D01*
X88630285Y-84732761D01*
X88614571Y-84685142D01*
X88897428Y-83780380D02*
X89007428Y-84780380D01*
X89117428Y-83780380D01*
D10*
X152455523Y-82748380D02*
X152122190Y-82272190D01*
X151884095Y-82748380D02*
X151884095Y-81748380D01*
X152265047Y-81748380D01*
X152360285Y-81796000D01*
X152407904Y-81843619D01*
X152455523Y-81938857D01*
X152455523Y-82081714D01*
X152407904Y-82176952D01*
X152360285Y-82224571D01*
X152265047Y-82272190D01*
X151884095Y-82272190D01*
X152407904Y-79256000D02*
X152312666Y-79208380D01*
X152169809Y-79208380D01*
X152026952Y-79256000D01*
X151931714Y-79351238D01*
X151884095Y-79446476D01*
X151836476Y-79636952D01*
X151836476Y-79779809D01*
X151884095Y-79970285D01*
X151931714Y-80065523D01*
X152026952Y-80160761D01*
X152169809Y-80208380D01*
X152265047Y-80208380D01*
X152407904Y-80160761D01*
X152455523Y-80113142D01*
X152455523Y-79779809D01*
X152265047Y-79779809D01*
X152217428Y-77144571D02*
X152360285Y-77192190D01*
X152407904Y-77239809D01*
X152455523Y-77335047D01*
X152455523Y-77477904D01*
X152407904Y-77573142D01*
X152360285Y-77620761D01*
X152265047Y-77668380D01*
X151884095Y-77668380D01*
X151884095Y-76668380D01*
X152217428Y-76668380D01*
X152312666Y-76716000D01*
X152360285Y-76763619D01*
X152407904Y-76858857D01*
X152407904Y-76954095D01*
X152360285Y-77049333D01*
X152312666Y-77096952D01*
X152217428Y-77144571D01*
X151884095Y-77144571D01*
D13*
X151711476Y-75080761D02*
X151747190Y-75128380D01*
X151806714Y-75128380D01*
X151830523Y-75080761D01*
X151842428Y-75033142D01*
X151854333Y-74937904D01*
X151854333Y-74842666D01*
X151842428Y-74747428D01*
X151830523Y-74699809D01*
X151806714Y-74652190D01*
X151759095Y-74604571D01*
X151735285Y-74556952D01*
X151723380Y-74509333D01*
X151711476Y-74414095D01*
X151711476Y-74318857D01*
X151723380Y-74223619D01*
X151735285Y-74176000D01*
X151759095Y-74128380D01*
X151818619Y-74128380D01*
X151854333Y-74176000D01*
X152009095Y-74652190D02*
X152009095Y-75128380D01*
X151925761Y-74128380D02*
X152009095Y-74652190D01*
X152092428Y-74128380D01*
X152175761Y-75128380D02*
X152175761Y-74128380D01*
X152318619Y-75128380D01*
X152318619Y-74128380D01*
X152580523Y-75033142D02*
X152568619Y-75080761D01*
X152532904Y-75128380D01*
X152509095Y-75128380D01*
X152473380Y-75080761D01*
X152449571Y-74985523D01*
X152437666Y-74890285D01*
X152425761Y-74699809D01*
X152425761Y-74556952D01*
X152437666Y-74366476D01*
X152449571Y-74271238D01*
X152473380Y-74176000D01*
X152509095Y-74128380D01*
X152532904Y-74128380D01*
X152568619Y-74176000D01*
X152580523Y-74223619D01*
D12*
X151894571Y-71636000D02*
X151863142Y-71588380D01*
X151816000Y-71588380D01*
X151768857Y-71636000D01*
X151737428Y-71731238D01*
X151721714Y-71826476D01*
X151706000Y-72016952D01*
X151706000Y-72159809D01*
X151721714Y-72350285D01*
X151737428Y-72445523D01*
X151768857Y-72540761D01*
X151816000Y-72588380D01*
X151847428Y-72588380D01*
X151894571Y-72540761D01*
X151910285Y-72493142D01*
X151910285Y-72159809D01*
X151847428Y-72159809D01*
X152051714Y-72588380D02*
X152051714Y-71588380D01*
X152240285Y-72588380D01*
X152240285Y-71588380D01*
X152397428Y-72588380D02*
X152397428Y-71588380D01*
X152476000Y-71588380D01*
X152523142Y-71636000D01*
X152554571Y-71731238D01*
X152570285Y-71826476D01*
X152586000Y-72016952D01*
X152586000Y-72159809D01*
X152570285Y-72350285D01*
X152554571Y-72445523D01*
X152523142Y-72540761D01*
X152476000Y-72588380D01*
X152397428Y-72588380D01*
X88394571Y-86368000D02*
X88363142Y-86320380D01*
X88316000Y-86320380D01*
X88268857Y-86368000D01*
X88237428Y-86463238D01*
X88221714Y-86558476D01*
X88206000Y-86748952D01*
X88206000Y-86891809D01*
X88221714Y-87082285D01*
X88237428Y-87177523D01*
X88268857Y-87272761D01*
X88316000Y-87320380D01*
X88347428Y-87320380D01*
X88394571Y-87272761D01*
X88410285Y-87225142D01*
X88410285Y-86891809D01*
X88347428Y-86891809D01*
X88551714Y-87320380D02*
X88551714Y-86320380D01*
X88740285Y-87320380D01*
X88740285Y-86320380D01*
X88897428Y-87320380D02*
X88897428Y-86320380D01*
X88976000Y-86320380D01*
X89023142Y-86368000D01*
X89054571Y-86463238D01*
X89070285Y-86558476D01*
X89086000Y-86748952D01*
X89086000Y-86891809D01*
X89070285Y-87082285D01*
X89054571Y-87177523D01*
X89023142Y-87272761D01*
X88976000Y-87320380D01*
X88897428Y-87320380D01*
X88394571Y-76970000D02*
X88363142Y-76922380D01*
X88316000Y-76922380D01*
X88268857Y-76970000D01*
X88237428Y-77065238D01*
X88221714Y-77160476D01*
X88206000Y-77350952D01*
X88206000Y-77493809D01*
X88221714Y-77684285D01*
X88237428Y-77779523D01*
X88268857Y-77874761D01*
X88316000Y-77922380D01*
X88347428Y-77922380D01*
X88394571Y-77874761D01*
X88410285Y-77827142D01*
X88410285Y-77493809D01*
X88347428Y-77493809D01*
X88551714Y-77922380D02*
X88551714Y-76922380D01*
X88740285Y-77922380D01*
X88740285Y-76922380D01*
X88897428Y-77922380D02*
X88897428Y-76922380D01*
X88976000Y-76922380D01*
X89023142Y-76970000D01*
X89054571Y-77065238D01*
X89070285Y-77160476D01*
X89086000Y-77350952D01*
X89086000Y-77493809D01*
X89070285Y-77684285D01*
X89054571Y-77779523D01*
X89023142Y-77874761D01*
X88976000Y-77922380D01*
X88897428Y-77922380D01*
D10*
X88312666Y-74382380D02*
X88646000Y-75382380D01*
X88979333Y-74382380D01*
X88360285Y-71842380D02*
X88360285Y-72651904D01*
X88407904Y-72747142D01*
X88455523Y-72794761D01*
X88550761Y-72842380D01*
X88741238Y-72842380D01*
X88836476Y-72794761D01*
X88884095Y-72747142D01*
X88931714Y-72651904D01*
X88931714Y-71842380D01*
X88217428Y-68935000D02*
X89074571Y-68935000D01*
X88646000Y-69826190D02*
X88646000Y-70302380D01*
X88312666Y-69302380D02*
X88646000Y-69826190D01*
X88979333Y-69302380D01*
D14*
X141013800Y-112836000D02*
X141013800Y-102556000D01*
X122993800Y-112836000D02*
X141013800Y-112836000D01*
X122993800Y-102556000D02*
X122993800Y-112836000D01*
X141013800Y-102556000D02*
X122993800Y-102556000D01*
X140953800Y-110346000D02*
X140953800Y-108696000D01*
X123053800Y-110346000D02*
X140953800Y-110346000D01*
X123053800Y-105046000D02*
X123053800Y-110346000D01*
X140953800Y-105046000D02*
X123053800Y-105046000D01*
X140953800Y-106696000D02*
X140953800Y-105046000D01*
X140953800Y-108696000D02*
G75*
G02X140953800Y-106696000I0J1000000D01*
G01*
X115715400Y-113013800D02*
X115715400Y-102733800D01*
X95155400Y-113013800D02*
X115715400Y-113013800D01*
X95155400Y-102733800D02*
X95155400Y-113013800D01*
X115715400Y-102733800D02*
X95155400Y-102733800D01*
X115655400Y-110523800D02*
X115655400Y-108873800D01*
X95215400Y-110523800D02*
X115655400Y-110523800D01*
X95215400Y-105223800D02*
X95215400Y-110523800D01*
X115655400Y-105223800D02*
X95215400Y-105223800D01*
X115655400Y-106873800D02*
X115655400Y-105223800D01*
X115655400Y-108873800D02*
G75*
G02X115655400Y-106873800I0J1000000D01*
G01*
X125763937Y-85793125D02*
G75*
G02X127305800Y-86149200I56863J-3270075D01*
G01*
X128734187Y-87577998D02*
G75*
G02X128734800Y-90547200I-2913387J-1485202D01*
G01*
X127304768Y-91977029D02*
G75*
G02X122728800Y-90127200I-1483968J2913829D01*
G01*
X122728954Y-87998592D02*
G75*
G02X125820800Y-85793200I3091846J-1064608D01*
G01*
X125687737Y-74845725D02*
G75*
G02X127229600Y-75201800I56863J-3270075D01*
G01*
X128657987Y-76630598D02*
G75*
G02X128658600Y-79599800I-2913387J-1485202D01*
G01*
X127228568Y-81029629D02*
G75*
G02X122652600Y-79179800I-1483968J2913829D01*
G01*
X122652754Y-77051192D02*
G75*
G02X125744600Y-74845800I3091846J-1064608D01*
G01*
X125687737Y-63923725D02*
G75*
G02X127229600Y-64279800I56863J-3270075D01*
G01*
X128657987Y-65708598D02*
G75*
G02X128658600Y-68677800I-2913387J-1485202D01*
G01*
X127228568Y-70107629D02*
G75*
G02X122652600Y-68257800I-1483968J2913829D01*
G01*
X122652754Y-66129192D02*
G75*
G02X125744600Y-63923800I3091846J-1064608D01*
G01*
X105951937Y-91431925D02*
G75*
G02X107493800Y-91788000I56863J-3270075D01*
G01*
X108922187Y-93216798D02*
G75*
G02X108922800Y-96186000I-2913387J-1485202D01*
G01*
X107492768Y-97615829D02*
G75*
G02X102916800Y-95766000I-1483968J2913829D01*
G01*
X102916954Y-93637392D02*
G75*
G02X106008800Y-91432000I3091846J-1064608D01*
G01*
X140901052Y-88444000D02*
X140378548Y-88444000D01*
X140901052Y-89864000D02*
X140378548Y-89864000D01*
X145346052Y-86412000D02*
X144823548Y-86412000D01*
X145346052Y-87832000D02*
X144823548Y-87832000D01*
X140977252Y-83364000D02*
X140454748Y-83364000D01*
X140977252Y-84784000D02*
X140454748Y-84784000D01*
X146506000Y-104680652D02*
X146506000Y-104158148D01*
X145086000Y-104680652D02*
X145086000Y-104158148D01*
X144660252Y-92279400D02*
X144137748Y-92279400D01*
X144660252Y-93699400D02*
X144137748Y-93699400D01*
X139351652Y-93905000D02*
X138829148Y-93905000D01*
X139351652Y-95325000D02*
X138829148Y-95325000D01*
X133941452Y-82932200D02*
X133418948Y-82932200D01*
X133941452Y-84352200D02*
X133418948Y-84352200D01*
X133941452Y-71934000D02*
X133418948Y-71934000D01*
X133941452Y-73354000D02*
X133418948Y-73354000D01*
X134195452Y-93879600D02*
X133672948Y-93879600D01*
X134195452Y-95299600D02*
X133672948Y-95299600D01*
X118585348Y-84098200D02*
X119107852Y-84098200D01*
X118585348Y-82678200D02*
X119107852Y-82678200D01*
X121012852Y-95251200D02*
X120490348Y-95251200D01*
X121012852Y-96671200D02*
X120490348Y-96671200D01*
X114256452Y-98832600D02*
X113733948Y-98832600D01*
X114256452Y-100252600D02*
X113733948Y-100252600D01*
X111056052Y-86920000D02*
X110533548Y-86920000D01*
X111056052Y-88340000D02*
X110533548Y-88340000D01*
X113850052Y-64390200D02*
X113327548Y-64390200D01*
X113850052Y-65810200D02*
X113327548Y-65810200D01*
X108719252Y-74067600D02*
X108196748Y-74067600D01*
X108719252Y-75487600D02*
X108196748Y-75487600D01*
X108871652Y-64339400D02*
X108349148Y-64339400D01*
X108871652Y-65759400D02*
X108349148Y-65759400D01*
X108770052Y-69089200D02*
X108247548Y-69089200D01*
X108770052Y-70509200D02*
X108247548Y-70509200D01*
X108770052Y-78842800D02*
X108247548Y-78842800D01*
X108770052Y-80262800D02*
X108247548Y-80262800D01*
X96781252Y-78995200D02*
X96258748Y-78995200D01*
X96781252Y-80415200D02*
X96258748Y-80415200D01*
X102521652Y-70537000D02*
X101999148Y-70537000D01*
X102521652Y-71957000D02*
X101999148Y-71957000D01*
X96755852Y-64339400D02*
X96233348Y-64339400D01*
X96755852Y-65759400D02*
X96233348Y-65759400D01*
X96755852Y-95860800D02*
X96233348Y-95860800D01*
X96755852Y-97280800D02*
X96233348Y-97280800D01*
X96755852Y-84100600D02*
X96233348Y-84100600D01*
X96755852Y-85520600D02*
X96233348Y-85520600D01*
X96832052Y-74042200D02*
X96309548Y-74042200D01*
X96832052Y-75462200D02*
X96309548Y-75462200D01*
X96755852Y-69114600D02*
X96233348Y-69114600D01*
X96755852Y-70534600D02*
X96233348Y-70534600D01*
X140274522Y-79892678D02*
G75*
G03X144713000Y-78054200I1838478J1838478D01*
G01*
X140274522Y-76215722D02*
G75*
G02X144713000Y-78054200I1838478J-1838478D01*
G01*
X140263000Y-76254200D02*
X140263000Y-79854200D01*
X142154122Y-100720678D02*
G75*
G03X146592600Y-98882200I1838478J1838478D01*
G01*
X142154122Y-97043722D02*
G75*
G02X146592600Y-98882200I1838478J-1838478D01*
G01*
X142142600Y-97082200D02*
X142142600Y-100682200D01*
X131638522Y-90992478D02*
G75*
G03X136077000Y-89154000I1838478J1838478D01*
G01*
X131638522Y-87315522D02*
G75*
G02X136077000Y-89154000I1838478J-1838478D01*
G01*
X131627000Y-87354000D02*
X131627000Y-90954000D01*
X131689322Y-79994278D02*
G75*
G03X136127800Y-78155800I1838478J1838478D01*
G01*
X131689322Y-76317322D02*
G75*
G02X136127800Y-78155800I1838478J-1838478D01*
G01*
X131677800Y-76355800D02*
X131677800Y-79955800D01*
X131689322Y-68792878D02*
G75*
G03X136127800Y-66954400I1838478J1838478D01*
G01*
X131689322Y-65115922D02*
G75*
G02X136127800Y-66954400I1838478J-1838478D01*
G01*
X131677800Y-65154400D02*
X131677800Y-68754400D01*
X111826522Y-95488278D02*
G75*
G03X116265000Y-93649800I1838478J1838478D01*
G01*
X111826522Y-91811322D02*
G75*
G02X116265000Y-93649800I1838478J-1838478D01*
G01*
X111815000Y-91849800D02*
X111815000Y-95449800D01*
X100269522Y-78419478D02*
G75*
G03X104708000Y-76581000I1838478J1838478D01*
G01*
X100269522Y-74742522D02*
G75*
G02X104708000Y-76581000I1838478J-1838478D01*
G01*
X100258000Y-74781000D02*
X100258000Y-78381000D01*
X99990122Y-67624478D02*
G75*
G03X104428600Y-65786000I1838478J1838478D01*
G01*
X99990122Y-63947522D02*
G75*
G02X104428600Y-65786000I1838478J-1838478D01*
G01*
X99978600Y-63986000D02*
X99978600Y-67586000D01*
X95900722Y-92491078D02*
G75*
G03X100339200Y-90652600I1838478J1838478D01*
G01*
X95900722Y-88814122D02*
G75*
G02X100339200Y-90652600I1838478J-1838478D01*
G01*
X95889200Y-88852600D02*
X95889200Y-92452600D01*
X89754400Y-82896400D02*
X91084400Y-82896400D01*
X89754400Y-84226400D02*
X89754400Y-82896400D01*
X89754400Y-85496400D02*
X92414400Y-85496400D01*
X92414400Y-85496400D02*
X92414400Y-88096400D01*
X89754400Y-85496400D02*
X89754400Y-88096400D01*
X89754400Y-88096400D02*
X92414400Y-88096400D01*
X148276000Y-70806000D02*
X149606000Y-70806000D01*
X148276000Y-72136000D02*
X148276000Y-70806000D01*
X148276000Y-73406000D02*
X150936000Y-73406000D01*
X150936000Y-73406000D02*
X150936000Y-83626000D01*
X148276000Y-73406000D02*
X148276000Y-83626000D01*
X148276000Y-83626000D02*
X150936000Y-83626000D01*
X89703600Y-78825400D02*
X92363600Y-78825400D01*
X89703600Y-71145400D02*
X89703600Y-78825400D01*
X92363600Y-71145400D02*
X92363600Y-78825400D01*
X89703600Y-71145400D02*
X92363600Y-71145400D01*
X89703600Y-69875400D02*
X89703600Y-68545400D01*
X89703600Y-68545400D02*
X91033600Y-68545400D01*
X143231800Y-110847348D02*
X143231800Y-111369852D01*
X144651800Y-110847348D02*
X144651800Y-111369852D01*
X117831800Y-111101348D02*
X117831800Y-111623852D01*
X119251800Y-111101348D02*
X119251800Y-111623852D01*
X139554852Y-71857800D02*
X139032348Y-71857800D01*
X139554852Y-73277800D02*
X139032348Y-73277800D01*
X134144652Y-98959600D02*
X133622148Y-98959600D01*
X134144652Y-100379600D02*
X133622148Y-100379600D01*
X127439052Y-98959600D02*
X126916548Y-98959600D01*
X127439052Y-100379600D02*
X126916548Y-100379600D01*
X118686948Y-89813200D02*
X119209452Y-89813200D01*
X118686948Y-88393200D02*
X119209452Y-88393200D01*
X118559948Y-78408600D02*
X119082452Y-78408600D01*
X118559948Y-76988600D02*
X119082452Y-76988600D01*
X118549052Y-64390200D02*
X118026548Y-64390200D01*
X118549052Y-65810200D02*
X118026548Y-65810200D01*
X104883852Y-86869200D02*
X104361348Y-86869200D01*
X104883852Y-88289200D02*
X104361348Y-88289200D01*
D10*
X141406180Y-108457904D02*
X142215704Y-108457904D01*
X142310942Y-108410285D01*
X142358561Y-108362666D01*
X142406180Y-108267428D01*
X142406180Y-108076952D01*
X142358561Y-107981714D01*
X142310942Y-107934095D01*
X142215704Y-107886476D01*
X141406180Y-107886476D01*
X141501419Y-107457904D02*
X141453800Y-107410285D01*
X141406180Y-107315047D01*
X141406180Y-107076952D01*
X141453800Y-106981714D01*
X141501419Y-106934095D01*
X141596657Y-106886476D01*
X141691895Y-106886476D01*
X141834752Y-106934095D01*
X142406180Y-107505523D01*
X142406180Y-106886476D01*
X121839514Y-108934095D02*
X122506180Y-108934095D01*
X121458561Y-109172190D02*
X122172847Y-109410285D01*
X122172847Y-108791238D01*
X121506180Y-108219809D02*
X121506180Y-108124571D01*
X121553800Y-108029333D01*
X121601419Y-107981714D01*
X121696657Y-107934095D01*
X121887133Y-107886476D01*
X122125228Y-107886476D01*
X122315704Y-107934095D01*
X122410942Y-107981714D01*
X122458561Y-108029333D01*
X122506180Y-108124571D01*
X122506180Y-108219809D01*
X122458561Y-108315047D01*
X122410942Y-108362666D01*
X122315704Y-108410285D01*
X122125228Y-108457904D01*
X121887133Y-108457904D01*
X121696657Y-108410285D01*
X121601419Y-108362666D01*
X121553800Y-108315047D01*
X121506180Y-108219809D01*
X121506180Y-107029333D02*
X121506180Y-107219809D01*
X121553800Y-107315047D01*
X121601419Y-107362666D01*
X121744276Y-107457904D01*
X121934752Y-107505523D01*
X122315704Y-107505523D01*
X122410942Y-107457904D01*
X122458561Y-107410285D01*
X122506180Y-107315047D01*
X122506180Y-107124571D01*
X122458561Y-107029333D01*
X122410942Y-106981714D01*
X122315704Y-106934095D01*
X122077609Y-106934095D01*
X121982371Y-106981714D01*
X121934752Y-107029333D01*
X121887133Y-107124571D01*
X121887133Y-107315047D01*
X121934752Y-107410285D01*
X121982371Y-107457904D01*
X122077609Y-107505523D01*
X121506180Y-106076952D02*
X121506180Y-106267428D01*
X121553800Y-106362666D01*
X121601419Y-106410285D01*
X121744276Y-106505523D01*
X121934752Y-106553142D01*
X122315704Y-106553142D01*
X122410942Y-106505523D01*
X122458561Y-106457904D01*
X122506180Y-106362666D01*
X122506180Y-106172190D01*
X122458561Y-106076952D01*
X122410942Y-106029333D01*
X122315704Y-105981714D01*
X122077609Y-105981714D01*
X121982371Y-106029333D01*
X121934752Y-106076952D01*
X121887133Y-106172190D01*
X121887133Y-106362666D01*
X121934752Y-106457904D01*
X121982371Y-106505523D01*
X122077609Y-106553142D01*
X116107780Y-108635704D02*
X116917304Y-108635704D01*
X117012542Y-108588085D01*
X117060161Y-108540466D01*
X117107780Y-108445228D01*
X117107780Y-108254752D01*
X117060161Y-108159514D01*
X117012542Y-108111895D01*
X116917304Y-108064276D01*
X116107780Y-108064276D01*
X117107780Y-107064276D02*
X117107780Y-107635704D01*
X117107780Y-107349990D02*
X116107780Y-107349990D01*
X116250638Y-107445228D01*
X116345876Y-107540466D01*
X116393495Y-107635704D01*
X94001114Y-109111895D02*
X94667780Y-109111895D01*
X93620161Y-109349990D02*
X94334447Y-109588085D01*
X94334447Y-108969038D01*
X93667780Y-108397609D02*
X93667780Y-108302371D01*
X93715400Y-108207133D01*
X93763019Y-108159514D01*
X93858257Y-108111895D01*
X94048733Y-108064276D01*
X94286828Y-108064276D01*
X94477304Y-108111895D01*
X94572542Y-108159514D01*
X94620161Y-108207133D01*
X94667780Y-108302371D01*
X94667780Y-108397609D01*
X94620161Y-108492847D01*
X94572542Y-108540466D01*
X94477304Y-108588085D01*
X94286828Y-108635704D01*
X94048733Y-108635704D01*
X93858257Y-108588085D01*
X93763019Y-108540466D01*
X93715400Y-108492847D01*
X93667780Y-108397609D01*
X93763019Y-107683323D02*
X93715400Y-107635704D01*
X93667780Y-107540466D01*
X93667780Y-107302371D01*
X93715400Y-107207133D01*
X93763019Y-107159514D01*
X93858257Y-107111895D01*
X93953495Y-107111895D01*
X94096352Y-107159514D01*
X94667780Y-107730942D01*
X94667780Y-107111895D01*
X93667780Y-106778561D02*
X93667780Y-106111895D01*
X94667780Y-106540466D01*
X125225561Y-94075580D02*
X124892228Y-93599390D01*
X124654133Y-94075580D02*
X124654133Y-93075580D01*
X125035085Y-93075580D01*
X125130323Y-93123200D01*
X125177942Y-93170819D01*
X125225561Y-93266057D01*
X125225561Y-93408914D01*
X125177942Y-93504152D01*
X125130323Y-93551771D01*
X125035085Y-93599390D01*
X124654133Y-93599390D01*
X125511276Y-93075580D02*
X125844609Y-94075580D01*
X126177942Y-93075580D01*
X126939847Y-93408914D02*
X126939847Y-94075580D01*
X126701752Y-93027961D02*
X126463657Y-93742247D01*
X127082704Y-93742247D01*
X124606514Y-83955580D02*
X124130323Y-83955580D01*
X124082704Y-84431771D01*
X124130323Y-84384152D01*
X124225561Y-84336533D01*
X124463657Y-84336533D01*
X124558895Y-84384152D01*
X124606514Y-84431771D01*
X124654133Y-84527009D01*
X124654133Y-84765104D01*
X124606514Y-84860342D01*
X124558895Y-84907961D01*
X124463657Y-84955580D01*
X124225561Y-84955580D01*
X124130323Y-84907961D01*
X124082704Y-84860342D01*
X125273180Y-83955580D02*
X125368419Y-83955580D01*
X125463657Y-84003200D01*
X125511276Y-84050819D01*
X125558895Y-84146057D01*
X125606514Y-84336533D01*
X125606514Y-84574628D01*
X125558895Y-84765104D01*
X125511276Y-84860342D01*
X125463657Y-84907961D01*
X125368419Y-84955580D01*
X125273180Y-84955580D01*
X125177942Y-84907961D01*
X125130323Y-84860342D01*
X125082704Y-84765104D01*
X125035085Y-84574628D01*
X125035085Y-84336533D01*
X125082704Y-84146057D01*
X125130323Y-84050819D01*
X125177942Y-84003200D01*
X125273180Y-83955580D01*
X126035085Y-84955580D02*
X126035085Y-83955580D01*
X126130323Y-84574628D02*
X126416038Y-84955580D01*
X126416038Y-84288914D02*
X126035085Y-84669866D01*
X126796990Y-84955580D02*
X127035085Y-84955580D01*
X127035085Y-84765104D01*
X126939847Y-84717485D01*
X126844609Y-84622247D01*
X126796990Y-84479390D01*
X126796990Y-84241295D01*
X126844609Y-84098438D01*
X126939847Y-84003200D01*
X127082704Y-83955580D01*
X127273180Y-83955580D01*
X127416038Y-84003200D01*
X127511276Y-84098438D01*
X127558895Y-84241295D01*
X127558895Y-84479390D01*
X127511276Y-84622247D01*
X127416038Y-84717485D01*
X127320800Y-84765104D01*
X127320800Y-84955580D01*
X127558895Y-84955580D01*
X125149361Y-83128180D02*
X124816028Y-82651990D01*
X124577933Y-83128180D02*
X124577933Y-82128180D01*
X124958885Y-82128180D01*
X125054123Y-82175800D01*
X125101742Y-82223419D01*
X125149361Y-82318657D01*
X125149361Y-82461514D01*
X125101742Y-82556752D01*
X125054123Y-82604371D01*
X124958885Y-82651990D01*
X124577933Y-82651990D01*
X125435076Y-82128180D02*
X125768409Y-83128180D01*
X126101742Y-82128180D01*
X126339838Y-82128180D02*
X126958885Y-82128180D01*
X126625552Y-82509133D01*
X126768409Y-82509133D01*
X126863647Y-82556752D01*
X126911266Y-82604371D01*
X126958885Y-82699609D01*
X126958885Y-82937704D01*
X126911266Y-83032942D01*
X126863647Y-83080561D01*
X126768409Y-83128180D01*
X126482695Y-83128180D01*
X126387457Y-83080561D01*
X126339838Y-83032942D01*
X124530314Y-73008180D02*
X124054123Y-73008180D01*
X124006504Y-73484371D01*
X124054123Y-73436752D01*
X124149361Y-73389133D01*
X124387457Y-73389133D01*
X124482695Y-73436752D01*
X124530314Y-73484371D01*
X124577933Y-73579609D01*
X124577933Y-73817704D01*
X124530314Y-73912942D01*
X124482695Y-73960561D01*
X124387457Y-74008180D01*
X124149361Y-74008180D01*
X124054123Y-73960561D01*
X124006504Y-73912942D01*
X125196980Y-73008180D02*
X125292219Y-73008180D01*
X125387457Y-73055800D01*
X125435076Y-73103419D01*
X125482695Y-73198657D01*
X125530314Y-73389133D01*
X125530314Y-73627228D01*
X125482695Y-73817704D01*
X125435076Y-73912942D01*
X125387457Y-73960561D01*
X125292219Y-74008180D01*
X125196980Y-74008180D01*
X125101742Y-73960561D01*
X125054123Y-73912942D01*
X125006504Y-73817704D01*
X124958885Y-73627228D01*
X124958885Y-73389133D01*
X125006504Y-73198657D01*
X125054123Y-73103419D01*
X125101742Y-73055800D01*
X125196980Y-73008180D01*
X125958885Y-74008180D02*
X125958885Y-73008180D01*
X126054123Y-73627228D02*
X126339838Y-74008180D01*
X126339838Y-73341514D02*
X125958885Y-73722466D01*
X126720790Y-74008180D02*
X126958885Y-74008180D01*
X126958885Y-73817704D01*
X126863647Y-73770085D01*
X126768409Y-73674847D01*
X126720790Y-73531990D01*
X126720790Y-73293895D01*
X126768409Y-73151038D01*
X126863647Y-73055800D01*
X127006504Y-73008180D01*
X127196980Y-73008180D01*
X127339838Y-73055800D01*
X127435076Y-73151038D01*
X127482695Y-73293895D01*
X127482695Y-73531990D01*
X127435076Y-73674847D01*
X127339838Y-73770085D01*
X127244600Y-73817704D01*
X127244600Y-74008180D01*
X127482695Y-74008180D01*
X125149361Y-72206180D02*
X124816028Y-71729990D01*
X124577933Y-72206180D02*
X124577933Y-71206180D01*
X124958885Y-71206180D01*
X125054123Y-71253800D01*
X125101742Y-71301419D01*
X125149361Y-71396657D01*
X125149361Y-71539514D01*
X125101742Y-71634752D01*
X125054123Y-71682371D01*
X124958885Y-71729990D01*
X124577933Y-71729990D01*
X125435076Y-71206180D02*
X125768409Y-72206180D01*
X126101742Y-71206180D01*
X126387457Y-71301419D02*
X126435076Y-71253800D01*
X126530314Y-71206180D01*
X126768409Y-71206180D01*
X126863647Y-71253800D01*
X126911266Y-71301419D01*
X126958885Y-71396657D01*
X126958885Y-71491895D01*
X126911266Y-71634752D01*
X126339838Y-72206180D01*
X126958885Y-72206180D01*
X124530314Y-62086180D02*
X124054123Y-62086180D01*
X124006504Y-62562371D01*
X124054123Y-62514752D01*
X124149361Y-62467133D01*
X124387457Y-62467133D01*
X124482695Y-62514752D01*
X124530314Y-62562371D01*
X124577933Y-62657609D01*
X124577933Y-62895704D01*
X124530314Y-62990942D01*
X124482695Y-63038561D01*
X124387457Y-63086180D01*
X124149361Y-63086180D01*
X124054123Y-63038561D01*
X124006504Y-62990942D01*
X125196980Y-62086180D02*
X125292219Y-62086180D01*
X125387457Y-62133800D01*
X125435076Y-62181419D01*
X125482695Y-62276657D01*
X125530314Y-62467133D01*
X125530314Y-62705228D01*
X125482695Y-62895704D01*
X125435076Y-62990942D01*
X125387457Y-63038561D01*
X125292219Y-63086180D01*
X125196980Y-63086180D01*
X125101742Y-63038561D01*
X125054123Y-62990942D01*
X125006504Y-62895704D01*
X124958885Y-62705228D01*
X124958885Y-62467133D01*
X125006504Y-62276657D01*
X125054123Y-62181419D01*
X125101742Y-62133800D01*
X125196980Y-62086180D01*
X125958885Y-63086180D02*
X125958885Y-62086180D01*
X126054123Y-62705228D02*
X126339838Y-63086180D01*
X126339838Y-62419514D02*
X125958885Y-62800466D01*
X126720790Y-63086180D02*
X126958885Y-63086180D01*
X126958885Y-62895704D01*
X126863647Y-62848085D01*
X126768409Y-62752847D01*
X126720790Y-62609990D01*
X126720790Y-62371895D01*
X126768409Y-62229038D01*
X126863647Y-62133800D01*
X127006504Y-62086180D01*
X127196980Y-62086180D01*
X127339838Y-62133800D01*
X127435076Y-62229038D01*
X127482695Y-62371895D01*
X127482695Y-62609990D01*
X127435076Y-62752847D01*
X127339838Y-62848085D01*
X127244600Y-62895704D01*
X127244600Y-63086180D01*
X127482695Y-63086180D01*
X105413561Y-99714380D02*
X105080228Y-99238190D01*
X104842133Y-99714380D02*
X104842133Y-98714380D01*
X105223085Y-98714380D01*
X105318323Y-98762000D01*
X105365942Y-98809619D01*
X105413561Y-98904857D01*
X105413561Y-99047714D01*
X105365942Y-99142952D01*
X105318323Y-99190571D01*
X105223085Y-99238190D01*
X104842133Y-99238190D01*
X105699276Y-98714380D02*
X106032609Y-99714380D01*
X106365942Y-98714380D01*
X107223085Y-99714380D02*
X106651657Y-99714380D01*
X106937371Y-99714380D02*
X106937371Y-98714380D01*
X106842133Y-98857238D01*
X106746895Y-98952476D01*
X106651657Y-99000095D01*
X104794514Y-89594380D02*
X104318323Y-89594380D01*
X104270704Y-90070571D01*
X104318323Y-90022952D01*
X104413561Y-89975333D01*
X104651657Y-89975333D01*
X104746895Y-90022952D01*
X104794514Y-90070571D01*
X104842133Y-90165809D01*
X104842133Y-90403904D01*
X104794514Y-90499142D01*
X104746895Y-90546761D01*
X104651657Y-90594380D01*
X104413561Y-90594380D01*
X104318323Y-90546761D01*
X104270704Y-90499142D01*
X105461180Y-89594380D02*
X105556419Y-89594380D01*
X105651657Y-89642000D01*
X105699276Y-89689619D01*
X105746895Y-89784857D01*
X105794514Y-89975333D01*
X105794514Y-90213428D01*
X105746895Y-90403904D01*
X105699276Y-90499142D01*
X105651657Y-90546761D01*
X105556419Y-90594380D01*
X105461180Y-90594380D01*
X105365942Y-90546761D01*
X105318323Y-90499142D01*
X105270704Y-90403904D01*
X105223085Y-90213428D01*
X105223085Y-89975333D01*
X105270704Y-89784857D01*
X105318323Y-89689619D01*
X105365942Y-89642000D01*
X105461180Y-89594380D01*
X106223085Y-90594380D02*
X106223085Y-89594380D01*
X106318323Y-90213428D02*
X106604038Y-90594380D01*
X106604038Y-89927714D02*
X106223085Y-90308666D01*
X106984990Y-90594380D02*
X107223085Y-90594380D01*
X107223085Y-90403904D01*
X107127847Y-90356285D01*
X107032609Y-90261047D01*
X106984990Y-90118190D01*
X106984990Y-89880095D01*
X107032609Y-89737238D01*
X107127847Y-89642000D01*
X107270704Y-89594380D01*
X107461180Y-89594380D01*
X107604038Y-89642000D01*
X107699276Y-89737238D01*
X107746895Y-89880095D01*
X107746895Y-90118190D01*
X107699276Y-90261047D01*
X107604038Y-90356285D01*
X107508800Y-90403904D01*
X107508800Y-90594380D01*
X107746895Y-90594380D01*
X139996942Y-91256380D02*
X139663609Y-90780190D01*
X139425514Y-91256380D02*
X139425514Y-90256380D01*
X139806466Y-90256380D01*
X139901704Y-90304000D01*
X139949323Y-90351619D01*
X139996942Y-90446857D01*
X139996942Y-90589714D01*
X139949323Y-90684952D01*
X139901704Y-90732571D01*
X139806466Y-90780190D01*
X139425514Y-90780190D01*
X140377895Y-90351619D02*
X140425514Y-90304000D01*
X140520752Y-90256380D01*
X140758847Y-90256380D01*
X140854085Y-90304000D01*
X140901704Y-90351619D01*
X140949323Y-90446857D01*
X140949323Y-90542095D01*
X140901704Y-90684952D01*
X140330276Y-91256380D01*
X140949323Y-91256380D01*
X141854085Y-90256380D02*
X141377895Y-90256380D01*
X141330276Y-90732571D01*
X141377895Y-90684952D01*
X141473133Y-90637333D01*
X141711228Y-90637333D01*
X141806466Y-90684952D01*
X141854085Y-90732571D01*
X141901704Y-90827809D01*
X141901704Y-91065904D01*
X141854085Y-91161142D01*
X141806466Y-91208761D01*
X141711228Y-91256380D01*
X141473133Y-91256380D01*
X141377895Y-91208761D01*
X141330276Y-91161142D01*
X139401704Y-87956380D02*
X138830276Y-87956380D01*
X139115990Y-87956380D02*
X139115990Y-86956380D01*
X139020752Y-87099238D01*
X138925514Y-87194476D01*
X138830276Y-87242095D01*
X140020752Y-86956380D02*
X140115990Y-86956380D01*
X140211228Y-87004000D01*
X140258847Y-87051619D01*
X140306466Y-87146857D01*
X140354085Y-87337333D01*
X140354085Y-87575428D01*
X140306466Y-87765904D01*
X140258847Y-87861142D01*
X140211228Y-87908761D01*
X140115990Y-87956380D01*
X140020752Y-87956380D01*
X139925514Y-87908761D01*
X139877895Y-87861142D01*
X139830276Y-87765904D01*
X139782657Y-87575428D01*
X139782657Y-87337333D01*
X139830276Y-87146857D01*
X139877895Y-87051619D01*
X139925514Y-87004000D01*
X140020752Y-86956380D01*
X140973133Y-86956380D02*
X141068371Y-86956380D01*
X141163609Y-87004000D01*
X141211228Y-87051619D01*
X141258847Y-87146857D01*
X141306466Y-87337333D01*
X141306466Y-87575428D01*
X141258847Y-87765904D01*
X141211228Y-87861142D01*
X141163609Y-87908761D01*
X141068371Y-87956380D01*
X140973133Y-87956380D01*
X140877895Y-87908761D01*
X140830276Y-87861142D01*
X140782657Y-87765904D01*
X140735038Y-87575428D01*
X140735038Y-87337333D01*
X140782657Y-87146857D01*
X140830276Y-87051619D01*
X140877895Y-87004000D01*
X140973133Y-86956380D01*
X141687419Y-87956380D02*
X141925514Y-87956380D01*
X141925514Y-87765904D01*
X141830276Y-87718285D01*
X141735038Y-87623047D01*
X141687419Y-87480190D01*
X141687419Y-87242095D01*
X141735038Y-87099238D01*
X141830276Y-87004000D01*
X141973133Y-86956380D01*
X142163609Y-86956380D01*
X142306466Y-87004000D01*
X142401704Y-87099238D01*
X142449323Y-87242095D01*
X142449323Y-87480190D01*
X142401704Y-87623047D01*
X142306466Y-87718285D01*
X142211228Y-87765904D01*
X142211228Y-87956380D01*
X142449323Y-87956380D01*
X144441942Y-89224380D02*
X144108609Y-88748190D01*
X143870514Y-89224380D02*
X143870514Y-88224380D01*
X144251466Y-88224380D01*
X144346704Y-88272000D01*
X144394323Y-88319619D01*
X144441942Y-88414857D01*
X144441942Y-88557714D01*
X144394323Y-88652952D01*
X144346704Y-88700571D01*
X144251466Y-88748190D01*
X143870514Y-88748190D01*
X144822895Y-88319619D02*
X144870514Y-88272000D01*
X144965752Y-88224380D01*
X145203847Y-88224380D01*
X145299085Y-88272000D01*
X145346704Y-88319619D01*
X145394323Y-88414857D01*
X145394323Y-88510095D01*
X145346704Y-88652952D01*
X144775276Y-89224380D01*
X145394323Y-89224380D01*
X146251466Y-88557714D02*
X146251466Y-89224380D01*
X146013371Y-88176761D02*
X145775276Y-88891047D01*
X146394323Y-88891047D01*
X143918133Y-85924380D02*
X143346704Y-85924380D01*
X143632419Y-85924380D02*
X143632419Y-84924380D01*
X143537180Y-85067238D01*
X143441942Y-85162476D01*
X143346704Y-85210095D01*
X144822895Y-84924380D02*
X144346704Y-84924380D01*
X144299085Y-85400571D01*
X144346704Y-85352952D01*
X144441942Y-85305333D01*
X144680038Y-85305333D01*
X144775276Y-85352952D01*
X144822895Y-85400571D01*
X144870514Y-85495809D01*
X144870514Y-85733904D01*
X144822895Y-85829142D01*
X144775276Y-85876761D01*
X144680038Y-85924380D01*
X144441942Y-85924380D01*
X144346704Y-85876761D01*
X144299085Y-85829142D01*
X145299085Y-85924380D02*
X145299085Y-84924380D01*
X145394323Y-85543428D02*
X145680038Y-85924380D01*
X145680038Y-85257714D02*
X145299085Y-85638666D01*
X146060990Y-85924380D02*
X146299085Y-85924380D01*
X146299085Y-85733904D01*
X146203847Y-85686285D01*
X146108609Y-85591047D01*
X146060990Y-85448190D01*
X146060990Y-85210095D01*
X146108609Y-85067238D01*
X146203847Y-84972000D01*
X146346704Y-84924380D01*
X146537180Y-84924380D01*
X146680038Y-84972000D01*
X146775276Y-85067238D01*
X146822895Y-85210095D01*
X146822895Y-85448190D01*
X146775276Y-85591047D01*
X146680038Y-85686285D01*
X146584800Y-85733904D01*
X146584800Y-85924380D01*
X146822895Y-85924380D01*
X140073142Y-86176380D02*
X139739809Y-85700190D01*
X139501714Y-86176380D02*
X139501714Y-85176380D01*
X139882666Y-85176380D01*
X139977904Y-85224000D01*
X140025523Y-85271619D01*
X140073142Y-85366857D01*
X140073142Y-85509714D01*
X140025523Y-85604952D01*
X139977904Y-85652571D01*
X139882666Y-85700190D01*
X139501714Y-85700190D01*
X140454095Y-85271619D02*
X140501714Y-85224000D01*
X140596952Y-85176380D01*
X140835047Y-85176380D01*
X140930285Y-85224000D01*
X140977904Y-85271619D01*
X141025523Y-85366857D01*
X141025523Y-85462095D01*
X140977904Y-85604952D01*
X140406476Y-86176380D01*
X141025523Y-86176380D01*
X141358857Y-85176380D02*
X141977904Y-85176380D01*
X141644571Y-85557333D01*
X141787428Y-85557333D01*
X141882666Y-85604952D01*
X141930285Y-85652571D01*
X141977904Y-85747809D01*
X141977904Y-85985904D01*
X141930285Y-86081142D01*
X141882666Y-86128761D01*
X141787428Y-86176380D01*
X141501714Y-86176380D01*
X141406476Y-86128761D01*
X141358857Y-86081142D01*
X139216000Y-82209714D02*
X139216000Y-82876380D01*
X138977904Y-81828761D02*
X138739809Y-82543047D01*
X139358857Y-82543047D01*
X139739809Y-82781142D02*
X139787428Y-82828761D01*
X139739809Y-82876380D01*
X139692190Y-82828761D01*
X139739809Y-82781142D01*
X139739809Y-82876380D01*
X140120761Y-81876380D02*
X140787428Y-81876380D01*
X140358857Y-82876380D01*
X141168380Y-82876380D02*
X141168380Y-81876380D01*
X141263619Y-82495428D02*
X141549333Y-82876380D01*
X141549333Y-82209714D02*
X141168380Y-82590666D01*
X141930285Y-82876380D02*
X142168380Y-82876380D01*
X142168380Y-82685904D01*
X142073142Y-82638285D01*
X141977904Y-82543047D01*
X141930285Y-82400190D01*
X141930285Y-82162095D01*
X141977904Y-82019238D01*
X142073142Y-81924000D01*
X142216000Y-81876380D01*
X142406476Y-81876380D01*
X142549333Y-81924000D01*
X142644571Y-82019238D01*
X142692190Y-82162095D01*
X142692190Y-82400190D01*
X142644571Y-82543047D01*
X142549333Y-82638285D01*
X142454095Y-82685904D01*
X142454095Y-82876380D01*
X142692190Y-82876380D01*
X144598380Y-105062257D02*
X144122190Y-105395590D01*
X144598380Y-105633685D02*
X143598380Y-105633685D01*
X143598380Y-105252733D01*
X143646000Y-105157495D01*
X143693619Y-105109876D01*
X143788857Y-105062257D01*
X143931714Y-105062257D01*
X144026952Y-105109876D01*
X144074571Y-105157495D01*
X144122190Y-105252733D01*
X144122190Y-105633685D01*
X143693619Y-104681304D02*
X143646000Y-104633685D01*
X143598380Y-104538447D01*
X143598380Y-104300352D01*
X143646000Y-104205114D01*
X143693619Y-104157495D01*
X143788857Y-104109876D01*
X143884095Y-104109876D01*
X144026952Y-104157495D01*
X144598380Y-104728923D01*
X144598380Y-104109876D01*
X143693619Y-103728923D02*
X143646000Y-103681304D01*
X143598380Y-103586066D01*
X143598380Y-103347971D01*
X143646000Y-103252733D01*
X143693619Y-103205114D01*
X143788857Y-103157495D01*
X143884095Y-103157495D01*
X144026952Y-103205114D01*
X144598380Y-103776542D01*
X144598380Y-103157495D01*
X146898380Y-105228923D02*
X146898380Y-105705114D01*
X147374571Y-105752733D01*
X147326952Y-105705114D01*
X147279333Y-105609876D01*
X147279333Y-105371780D01*
X147326952Y-105276542D01*
X147374571Y-105228923D01*
X147469809Y-105181304D01*
X147707904Y-105181304D01*
X147803142Y-105228923D01*
X147850761Y-105276542D01*
X147898380Y-105371780D01*
X147898380Y-105609876D01*
X147850761Y-105705114D01*
X147803142Y-105752733D01*
X147326952Y-104609876D02*
X147279333Y-104705114D01*
X147231714Y-104752733D01*
X147136476Y-104800352D01*
X147088857Y-104800352D01*
X146993619Y-104752733D01*
X146946000Y-104705114D01*
X146898380Y-104609876D01*
X146898380Y-104419400D01*
X146946000Y-104324161D01*
X146993619Y-104276542D01*
X147088857Y-104228923D01*
X147136476Y-104228923D01*
X147231714Y-104276542D01*
X147279333Y-104324161D01*
X147326952Y-104419400D01*
X147326952Y-104609876D01*
X147374571Y-104705114D01*
X147422190Y-104752733D01*
X147517428Y-104800352D01*
X147707904Y-104800352D01*
X147803142Y-104752733D01*
X147850761Y-104705114D01*
X147898380Y-104609876D01*
X147898380Y-104419400D01*
X147850761Y-104324161D01*
X147803142Y-104276542D01*
X147707904Y-104228923D01*
X147517428Y-104228923D01*
X147422190Y-104276542D01*
X147374571Y-104324161D01*
X147326952Y-104419400D01*
X147898380Y-103847971D02*
X147898380Y-103609876D01*
X147707904Y-103609876D01*
X147660285Y-103705114D01*
X147565047Y-103800352D01*
X147422190Y-103847971D01*
X147184095Y-103847971D01*
X147041238Y-103800352D01*
X146946000Y-103705114D01*
X146898380Y-103562257D01*
X146898380Y-103371780D01*
X146946000Y-103228923D01*
X147041238Y-103133685D01*
X147184095Y-103086066D01*
X147422190Y-103086066D01*
X147565047Y-103133685D01*
X147660285Y-103228923D01*
X147707904Y-103324161D01*
X147898380Y-103324161D01*
X147898380Y-103086066D01*
X143756142Y-95091780D02*
X143422809Y-94615590D01*
X143184714Y-95091780D02*
X143184714Y-94091780D01*
X143565666Y-94091780D01*
X143660904Y-94139400D01*
X143708523Y-94187019D01*
X143756142Y-94282257D01*
X143756142Y-94425114D01*
X143708523Y-94520352D01*
X143660904Y-94567971D01*
X143565666Y-94615590D01*
X143184714Y-94615590D01*
X144137095Y-94187019D02*
X144184714Y-94139400D01*
X144279952Y-94091780D01*
X144518047Y-94091780D01*
X144613285Y-94139400D01*
X144660904Y-94187019D01*
X144708523Y-94282257D01*
X144708523Y-94377495D01*
X144660904Y-94520352D01*
X144089476Y-95091780D01*
X144708523Y-95091780D01*
X145660904Y-95091780D02*
X145089476Y-95091780D01*
X145375190Y-95091780D02*
X145375190Y-94091780D01*
X145279952Y-94234638D01*
X145184714Y-94329876D01*
X145089476Y-94377495D01*
X142422809Y-90887019D02*
X142470428Y-90839400D01*
X142565666Y-90791780D01*
X142803761Y-90791780D01*
X142899000Y-90839400D01*
X142946619Y-90887019D01*
X142994238Y-90982257D01*
X142994238Y-91077495D01*
X142946619Y-91220352D01*
X142375190Y-91791780D01*
X142994238Y-91791780D01*
X143422809Y-91696542D02*
X143470428Y-91744161D01*
X143422809Y-91791780D01*
X143375190Y-91744161D01*
X143422809Y-91696542D01*
X143422809Y-91791780D01*
X143851380Y-90887019D02*
X143899000Y-90839400D01*
X143994238Y-90791780D01*
X144232333Y-90791780D01*
X144327571Y-90839400D01*
X144375190Y-90887019D01*
X144422809Y-90982257D01*
X144422809Y-91077495D01*
X144375190Y-91220352D01*
X143803761Y-91791780D01*
X144422809Y-91791780D01*
X144851380Y-91791780D02*
X144851380Y-90791780D01*
X144946619Y-91410828D02*
X145232333Y-91791780D01*
X145232333Y-91125114D02*
X144851380Y-91506066D01*
X145613285Y-91791780D02*
X145851380Y-91791780D01*
X145851380Y-91601304D01*
X145756142Y-91553685D01*
X145660904Y-91458447D01*
X145613285Y-91315590D01*
X145613285Y-91077495D01*
X145660904Y-90934638D01*
X145756142Y-90839400D01*
X145899000Y-90791780D01*
X146089476Y-90791780D01*
X146232333Y-90839400D01*
X146327571Y-90934638D01*
X146375190Y-91077495D01*
X146375190Y-91315590D01*
X146327571Y-91458447D01*
X146232333Y-91553685D01*
X146137095Y-91601304D01*
X146137095Y-91791780D01*
X146375190Y-91791780D01*
X138447542Y-96717380D02*
X138114209Y-96241190D01*
X137876114Y-96717380D02*
X137876114Y-95717380D01*
X138257066Y-95717380D01*
X138352304Y-95765000D01*
X138399923Y-95812619D01*
X138447542Y-95907857D01*
X138447542Y-96050714D01*
X138399923Y-96145952D01*
X138352304Y-96193571D01*
X138257066Y-96241190D01*
X137876114Y-96241190D01*
X138828495Y-95812619D02*
X138876114Y-95765000D01*
X138971352Y-95717380D01*
X139209447Y-95717380D01*
X139304685Y-95765000D01*
X139352304Y-95812619D01*
X139399923Y-95907857D01*
X139399923Y-96003095D01*
X139352304Y-96145952D01*
X138780876Y-96717380D01*
X139399923Y-96717380D01*
X140018971Y-95717380D02*
X140114209Y-95717380D01*
X140209447Y-95765000D01*
X140257066Y-95812619D01*
X140304685Y-95907857D01*
X140352304Y-96098333D01*
X140352304Y-96336428D01*
X140304685Y-96526904D01*
X140257066Y-96622142D01*
X140209447Y-96669761D01*
X140114209Y-96717380D01*
X140018971Y-96717380D01*
X139923733Y-96669761D01*
X139876114Y-96622142D01*
X139828495Y-96526904D01*
X139780876Y-96336428D01*
X139780876Y-96098333D01*
X139828495Y-95907857D01*
X139876114Y-95812619D01*
X139923733Y-95765000D01*
X140018971Y-95717380D01*
X137590400Y-92417380D02*
X137399923Y-92417380D01*
X137304685Y-92465000D01*
X137257066Y-92512619D01*
X137161828Y-92655476D01*
X137114209Y-92845952D01*
X137114209Y-93226904D01*
X137161828Y-93322142D01*
X137209447Y-93369761D01*
X137304685Y-93417380D01*
X137495161Y-93417380D01*
X137590400Y-93369761D01*
X137638019Y-93322142D01*
X137685638Y-93226904D01*
X137685638Y-92988809D01*
X137638019Y-92893571D01*
X137590400Y-92845952D01*
X137495161Y-92798333D01*
X137304685Y-92798333D01*
X137209447Y-92845952D01*
X137161828Y-92893571D01*
X137114209Y-92988809D01*
X138114209Y-93322142D02*
X138161828Y-93369761D01*
X138114209Y-93417380D01*
X138066590Y-93369761D01*
X138114209Y-93322142D01*
X138114209Y-93417380D01*
X138733257Y-92845952D02*
X138638019Y-92798333D01*
X138590400Y-92750714D01*
X138542780Y-92655476D01*
X138542780Y-92607857D01*
X138590400Y-92512619D01*
X138638019Y-92465000D01*
X138733257Y-92417380D01*
X138923733Y-92417380D01*
X139018971Y-92465000D01*
X139066590Y-92512619D01*
X139114209Y-92607857D01*
X139114209Y-92655476D01*
X139066590Y-92750714D01*
X139018971Y-92798333D01*
X138923733Y-92845952D01*
X138733257Y-92845952D01*
X138638019Y-92893571D01*
X138590400Y-92941190D01*
X138542780Y-93036428D01*
X138542780Y-93226904D01*
X138590400Y-93322142D01*
X138638019Y-93369761D01*
X138733257Y-93417380D01*
X138923733Y-93417380D01*
X139018971Y-93369761D01*
X139066590Y-93322142D01*
X139114209Y-93226904D01*
X139114209Y-93036428D01*
X139066590Y-92941190D01*
X139018971Y-92893571D01*
X138923733Y-92845952D01*
X139542780Y-93417380D02*
X139542780Y-92417380D01*
X139638019Y-93036428D02*
X139923733Y-93417380D01*
X139923733Y-92750714D02*
X139542780Y-93131666D01*
X140304685Y-93417380D02*
X140542780Y-93417380D01*
X140542780Y-93226904D01*
X140447542Y-93179285D01*
X140352304Y-93084047D01*
X140304685Y-92941190D01*
X140304685Y-92703095D01*
X140352304Y-92560238D01*
X140447542Y-92465000D01*
X140590400Y-92417380D01*
X140780876Y-92417380D01*
X140923733Y-92465000D01*
X141018971Y-92560238D01*
X141066590Y-92703095D01*
X141066590Y-92941190D01*
X141018971Y-93084047D01*
X140923733Y-93179285D01*
X140828495Y-93226904D01*
X140828495Y-93417380D01*
X141066590Y-93417380D01*
X133037342Y-85744580D02*
X132704009Y-85268390D01*
X132465914Y-85744580D02*
X132465914Y-84744580D01*
X132846866Y-84744580D01*
X132942104Y-84792200D01*
X132989723Y-84839819D01*
X133037342Y-84935057D01*
X133037342Y-85077914D01*
X132989723Y-85173152D01*
X132942104Y-85220771D01*
X132846866Y-85268390D01*
X132465914Y-85268390D01*
X133989723Y-85744580D02*
X133418295Y-85744580D01*
X133704009Y-85744580D02*
X133704009Y-84744580D01*
X133608771Y-84887438D01*
X133513533Y-84982676D01*
X133418295Y-85030295D01*
X134465914Y-85744580D02*
X134656390Y-85744580D01*
X134751628Y-85696961D01*
X134799247Y-85649342D01*
X134894485Y-85506485D01*
X134942104Y-85316009D01*
X134942104Y-84935057D01*
X134894485Y-84839819D01*
X134846866Y-84792200D01*
X134751628Y-84744580D01*
X134561152Y-84744580D01*
X134465914Y-84792200D01*
X134418295Y-84839819D01*
X134370676Y-84935057D01*
X134370676Y-85173152D01*
X134418295Y-85268390D01*
X134465914Y-85316009D01*
X134561152Y-85363628D01*
X134751628Y-85363628D01*
X134846866Y-85316009D01*
X134894485Y-85268390D01*
X134942104Y-85173152D01*
X132442104Y-82444580D02*
X131870676Y-82444580D01*
X132156390Y-82444580D02*
X132156390Y-81444580D01*
X132061152Y-81587438D01*
X131965914Y-81682676D01*
X131870676Y-81730295D01*
X133346866Y-81444580D02*
X132870676Y-81444580D01*
X132823057Y-81920771D01*
X132870676Y-81873152D01*
X132965914Y-81825533D01*
X133204009Y-81825533D01*
X133299247Y-81873152D01*
X133346866Y-81920771D01*
X133394485Y-82016009D01*
X133394485Y-82254104D01*
X133346866Y-82349342D01*
X133299247Y-82396961D01*
X133204009Y-82444580D01*
X132965914Y-82444580D01*
X132870676Y-82396961D01*
X132823057Y-82349342D01*
X134013533Y-81444580D02*
X134108771Y-81444580D01*
X134204009Y-81492200D01*
X134251628Y-81539819D01*
X134299247Y-81635057D01*
X134346866Y-81825533D01*
X134346866Y-82063628D01*
X134299247Y-82254104D01*
X134251628Y-82349342D01*
X134204009Y-82396961D01*
X134108771Y-82444580D01*
X134013533Y-82444580D01*
X133918295Y-82396961D01*
X133870676Y-82349342D01*
X133823057Y-82254104D01*
X133775438Y-82063628D01*
X133775438Y-81825533D01*
X133823057Y-81635057D01*
X133870676Y-81539819D01*
X133918295Y-81492200D01*
X134013533Y-81444580D01*
X134727819Y-82444580D02*
X134965914Y-82444580D01*
X134965914Y-82254104D01*
X134870676Y-82206485D01*
X134775438Y-82111247D01*
X134727819Y-81968390D01*
X134727819Y-81730295D01*
X134775438Y-81587438D01*
X134870676Y-81492200D01*
X135013533Y-81444580D01*
X135204009Y-81444580D01*
X135346866Y-81492200D01*
X135442104Y-81587438D01*
X135489723Y-81730295D01*
X135489723Y-81968390D01*
X135442104Y-82111247D01*
X135346866Y-82206485D01*
X135251628Y-82254104D01*
X135251628Y-82444580D01*
X135489723Y-82444580D01*
X133037342Y-74746380D02*
X132704009Y-74270190D01*
X132465914Y-74746380D02*
X132465914Y-73746380D01*
X132846866Y-73746380D01*
X132942104Y-73794000D01*
X132989723Y-73841619D01*
X133037342Y-73936857D01*
X133037342Y-74079714D01*
X132989723Y-74174952D01*
X132942104Y-74222571D01*
X132846866Y-74270190D01*
X132465914Y-74270190D01*
X133989723Y-74746380D02*
X133418295Y-74746380D01*
X133704009Y-74746380D02*
X133704009Y-73746380D01*
X133608771Y-73889238D01*
X133513533Y-73984476D01*
X133418295Y-74032095D01*
X134561152Y-74174952D02*
X134465914Y-74127333D01*
X134418295Y-74079714D01*
X134370676Y-73984476D01*
X134370676Y-73936857D01*
X134418295Y-73841619D01*
X134465914Y-73794000D01*
X134561152Y-73746380D01*
X134751628Y-73746380D01*
X134846866Y-73794000D01*
X134894485Y-73841619D01*
X134942104Y-73936857D01*
X134942104Y-73984476D01*
X134894485Y-74079714D01*
X134846866Y-74127333D01*
X134751628Y-74174952D01*
X134561152Y-74174952D01*
X134465914Y-74222571D01*
X134418295Y-74270190D01*
X134370676Y-74365428D01*
X134370676Y-74555904D01*
X134418295Y-74651142D01*
X134465914Y-74698761D01*
X134561152Y-74746380D01*
X134751628Y-74746380D01*
X134846866Y-74698761D01*
X134894485Y-74651142D01*
X134942104Y-74555904D01*
X134942104Y-74365428D01*
X134894485Y-74270190D01*
X134846866Y-74222571D01*
X134751628Y-74174952D01*
X132442104Y-71446380D02*
X131870676Y-71446380D01*
X132156390Y-71446380D02*
X132156390Y-70446380D01*
X132061152Y-70589238D01*
X131965914Y-70684476D01*
X131870676Y-70732095D01*
X133346866Y-70446380D02*
X132870676Y-70446380D01*
X132823057Y-70922571D01*
X132870676Y-70874952D01*
X132965914Y-70827333D01*
X133204009Y-70827333D01*
X133299247Y-70874952D01*
X133346866Y-70922571D01*
X133394485Y-71017809D01*
X133394485Y-71255904D01*
X133346866Y-71351142D01*
X133299247Y-71398761D01*
X133204009Y-71446380D01*
X132965914Y-71446380D01*
X132870676Y-71398761D01*
X132823057Y-71351142D01*
X134013533Y-70446380D02*
X134108771Y-70446380D01*
X134204009Y-70494000D01*
X134251628Y-70541619D01*
X134299247Y-70636857D01*
X134346866Y-70827333D01*
X134346866Y-71065428D01*
X134299247Y-71255904D01*
X134251628Y-71351142D01*
X134204009Y-71398761D01*
X134108771Y-71446380D01*
X134013533Y-71446380D01*
X133918295Y-71398761D01*
X133870676Y-71351142D01*
X133823057Y-71255904D01*
X133775438Y-71065428D01*
X133775438Y-70827333D01*
X133823057Y-70636857D01*
X133870676Y-70541619D01*
X133918295Y-70494000D01*
X134013533Y-70446380D01*
X134727819Y-71446380D02*
X134965914Y-71446380D01*
X134965914Y-71255904D01*
X134870676Y-71208285D01*
X134775438Y-71113047D01*
X134727819Y-70970190D01*
X134727819Y-70732095D01*
X134775438Y-70589238D01*
X134870676Y-70494000D01*
X135013533Y-70446380D01*
X135204009Y-70446380D01*
X135346866Y-70494000D01*
X135442104Y-70589238D01*
X135489723Y-70732095D01*
X135489723Y-70970190D01*
X135442104Y-71113047D01*
X135346866Y-71208285D01*
X135251628Y-71255904D01*
X135251628Y-71446380D01*
X135489723Y-71446380D01*
X133291342Y-96691980D02*
X132958009Y-96215790D01*
X132719914Y-96691980D02*
X132719914Y-95691980D01*
X133100866Y-95691980D01*
X133196104Y-95739600D01*
X133243723Y-95787219D01*
X133291342Y-95882457D01*
X133291342Y-96025314D01*
X133243723Y-96120552D01*
X133196104Y-96168171D01*
X133100866Y-96215790D01*
X132719914Y-96215790D01*
X134243723Y-96691980D02*
X133672295Y-96691980D01*
X133958009Y-96691980D02*
X133958009Y-95691980D01*
X133862771Y-95834838D01*
X133767533Y-95930076D01*
X133672295Y-95977695D01*
X134577057Y-95691980D02*
X135243723Y-95691980D01*
X134815152Y-96691980D01*
X132696104Y-93391980D02*
X132124676Y-93391980D01*
X132410390Y-93391980D02*
X132410390Y-92391980D01*
X132315152Y-92534838D01*
X132219914Y-92630076D01*
X132124676Y-92677695D01*
X133600866Y-92391980D02*
X133124676Y-92391980D01*
X133077057Y-92868171D01*
X133124676Y-92820552D01*
X133219914Y-92772933D01*
X133458009Y-92772933D01*
X133553247Y-92820552D01*
X133600866Y-92868171D01*
X133648485Y-92963409D01*
X133648485Y-93201504D01*
X133600866Y-93296742D01*
X133553247Y-93344361D01*
X133458009Y-93391980D01*
X133219914Y-93391980D01*
X133124676Y-93344361D01*
X133077057Y-93296742D01*
X134267533Y-92391980D02*
X134362771Y-92391980D01*
X134458009Y-92439600D01*
X134505628Y-92487219D01*
X134553247Y-92582457D01*
X134600866Y-92772933D01*
X134600866Y-93011028D01*
X134553247Y-93201504D01*
X134505628Y-93296742D01*
X134458009Y-93344361D01*
X134362771Y-93391980D01*
X134267533Y-93391980D01*
X134172295Y-93344361D01*
X134124676Y-93296742D01*
X134077057Y-93201504D01*
X134029438Y-93011028D01*
X134029438Y-92772933D01*
X134077057Y-92582457D01*
X134124676Y-92487219D01*
X134172295Y-92439600D01*
X134267533Y-92391980D01*
X134981819Y-93391980D02*
X135219914Y-93391980D01*
X135219914Y-93201504D01*
X135124676Y-93153885D01*
X135029438Y-93058647D01*
X134981819Y-92915790D01*
X134981819Y-92677695D01*
X135029438Y-92534838D01*
X135124676Y-92439600D01*
X135267533Y-92391980D01*
X135458009Y-92391980D01*
X135600866Y-92439600D01*
X135696104Y-92534838D01*
X135743723Y-92677695D01*
X135743723Y-92915790D01*
X135696104Y-93058647D01*
X135600866Y-93153885D01*
X135505628Y-93201504D01*
X135505628Y-93391980D01*
X135743723Y-93391980D01*
X118203742Y-82190580D02*
X117870409Y-81714390D01*
X117632314Y-82190580D02*
X117632314Y-81190580D01*
X118013266Y-81190580D01*
X118108504Y-81238200D01*
X118156123Y-81285819D01*
X118203742Y-81381057D01*
X118203742Y-81523914D01*
X118156123Y-81619152D01*
X118108504Y-81666771D01*
X118013266Y-81714390D01*
X117632314Y-81714390D01*
X119156123Y-82190580D02*
X118584695Y-82190580D01*
X118870409Y-82190580D02*
X118870409Y-81190580D01*
X118775171Y-81333438D01*
X118679933Y-81428676D01*
X118584695Y-81476295D01*
X120013266Y-81190580D02*
X119822790Y-81190580D01*
X119727552Y-81238200D01*
X119679933Y-81285819D01*
X119584695Y-81428676D01*
X119537076Y-81619152D01*
X119537076Y-82000104D01*
X119584695Y-82095342D01*
X119632314Y-82142961D01*
X119727552Y-82190580D01*
X119918028Y-82190580D01*
X120013266Y-82142961D01*
X120060885Y-82095342D01*
X120108504Y-82000104D01*
X120108504Y-81762009D01*
X120060885Y-81666771D01*
X120013266Y-81619152D01*
X119918028Y-81571533D01*
X119727552Y-81571533D01*
X119632314Y-81619152D01*
X119584695Y-81666771D01*
X119537076Y-81762009D01*
X117346600Y-84823914D02*
X117346600Y-85490580D01*
X117108504Y-84442961D02*
X116870409Y-85157247D01*
X117489457Y-85157247D01*
X117870409Y-85395342D02*
X117918028Y-85442961D01*
X117870409Y-85490580D01*
X117822790Y-85442961D01*
X117870409Y-85395342D01*
X117870409Y-85490580D01*
X118251361Y-84490580D02*
X118918028Y-84490580D01*
X118489457Y-85490580D01*
X119298980Y-85490580D02*
X119298980Y-84490580D01*
X119394219Y-85109628D02*
X119679933Y-85490580D01*
X119679933Y-84823914D02*
X119298980Y-85204866D01*
X120060885Y-85490580D02*
X120298980Y-85490580D01*
X120298980Y-85300104D01*
X120203742Y-85252485D01*
X120108504Y-85157247D01*
X120060885Y-85014390D01*
X120060885Y-84776295D01*
X120108504Y-84633438D01*
X120203742Y-84538200D01*
X120346600Y-84490580D01*
X120537076Y-84490580D01*
X120679933Y-84538200D01*
X120775171Y-84633438D01*
X120822790Y-84776295D01*
X120822790Y-85014390D01*
X120775171Y-85157247D01*
X120679933Y-85252485D01*
X120584695Y-85300104D01*
X120584695Y-85490580D01*
X120822790Y-85490580D01*
X120108742Y-98063580D02*
X119775409Y-97587390D01*
X119537314Y-98063580D02*
X119537314Y-97063580D01*
X119918266Y-97063580D01*
X120013504Y-97111200D01*
X120061123Y-97158819D01*
X120108742Y-97254057D01*
X120108742Y-97396914D01*
X120061123Y-97492152D01*
X120013504Y-97539771D01*
X119918266Y-97587390D01*
X119537314Y-97587390D01*
X121061123Y-98063580D02*
X120489695Y-98063580D01*
X120775409Y-98063580D02*
X120775409Y-97063580D01*
X120680171Y-97206438D01*
X120584933Y-97301676D01*
X120489695Y-97349295D01*
X121965885Y-97063580D02*
X121489695Y-97063580D01*
X121442076Y-97539771D01*
X121489695Y-97492152D01*
X121584933Y-97444533D01*
X121823028Y-97444533D01*
X121918266Y-97492152D01*
X121965885Y-97539771D01*
X122013504Y-97635009D01*
X122013504Y-97873104D01*
X121965885Y-97968342D01*
X121918266Y-98015961D01*
X121823028Y-98063580D01*
X121584933Y-98063580D01*
X121489695Y-98015961D01*
X121442076Y-97968342D01*
X118775409Y-93858819D02*
X118823028Y-93811200D01*
X118918266Y-93763580D01*
X119156361Y-93763580D01*
X119251600Y-93811200D01*
X119299219Y-93858819D01*
X119346838Y-93954057D01*
X119346838Y-94049295D01*
X119299219Y-94192152D01*
X118727790Y-94763580D01*
X119346838Y-94763580D01*
X119775409Y-94668342D02*
X119823028Y-94715961D01*
X119775409Y-94763580D01*
X119727790Y-94715961D01*
X119775409Y-94668342D01*
X119775409Y-94763580D01*
X120156361Y-93763580D02*
X120823028Y-93763580D01*
X120394457Y-94763580D01*
X121203980Y-94763580D02*
X121203980Y-93763580D01*
X121299219Y-94382628D02*
X121584933Y-94763580D01*
X121584933Y-94096914D02*
X121203980Y-94477866D01*
X121965885Y-94763580D02*
X122203980Y-94763580D01*
X122203980Y-94573104D01*
X122108742Y-94525485D01*
X122013504Y-94430247D01*
X121965885Y-94287390D01*
X121965885Y-94049295D01*
X122013504Y-93906438D01*
X122108742Y-93811200D01*
X122251600Y-93763580D01*
X122442076Y-93763580D01*
X122584933Y-93811200D01*
X122680171Y-93906438D01*
X122727790Y-94049295D01*
X122727790Y-94287390D01*
X122680171Y-94430247D01*
X122584933Y-94525485D01*
X122489695Y-94573104D01*
X122489695Y-94763580D01*
X122727790Y-94763580D01*
X113352342Y-101644980D02*
X113019009Y-101168790D01*
X112780914Y-101644980D02*
X112780914Y-100644980D01*
X113161866Y-100644980D01*
X113257104Y-100692600D01*
X113304723Y-100740219D01*
X113352342Y-100835457D01*
X113352342Y-100978314D01*
X113304723Y-101073552D01*
X113257104Y-101121171D01*
X113161866Y-101168790D01*
X112780914Y-101168790D01*
X114304723Y-101644980D02*
X113733295Y-101644980D01*
X114019009Y-101644980D02*
X114019009Y-100644980D01*
X113923771Y-100787838D01*
X113828533Y-100883076D01*
X113733295Y-100930695D01*
X115161866Y-100978314D02*
X115161866Y-101644980D01*
X114923771Y-100597361D02*
X114685676Y-101311647D01*
X115304723Y-101311647D01*
X112757104Y-98344980D02*
X112185676Y-98344980D01*
X112471390Y-98344980D02*
X112471390Y-97344980D01*
X112376152Y-97487838D01*
X112280914Y-97583076D01*
X112185676Y-97630695D01*
X113661866Y-97344980D02*
X113185676Y-97344980D01*
X113138057Y-97821171D01*
X113185676Y-97773552D01*
X113280914Y-97725933D01*
X113519009Y-97725933D01*
X113614247Y-97773552D01*
X113661866Y-97821171D01*
X113709485Y-97916409D01*
X113709485Y-98154504D01*
X113661866Y-98249742D01*
X113614247Y-98297361D01*
X113519009Y-98344980D01*
X113280914Y-98344980D01*
X113185676Y-98297361D01*
X113138057Y-98249742D01*
X114328533Y-97344980D02*
X114423771Y-97344980D01*
X114519009Y-97392600D01*
X114566628Y-97440219D01*
X114614247Y-97535457D01*
X114661866Y-97725933D01*
X114661866Y-97964028D01*
X114614247Y-98154504D01*
X114566628Y-98249742D01*
X114519009Y-98297361D01*
X114423771Y-98344980D01*
X114328533Y-98344980D01*
X114233295Y-98297361D01*
X114185676Y-98249742D01*
X114138057Y-98154504D01*
X114090438Y-97964028D01*
X114090438Y-97725933D01*
X114138057Y-97535457D01*
X114185676Y-97440219D01*
X114233295Y-97392600D01*
X114328533Y-97344980D01*
X115042819Y-98344980D02*
X115280914Y-98344980D01*
X115280914Y-98154504D01*
X115185676Y-98106885D01*
X115090438Y-98011647D01*
X115042819Y-97868790D01*
X115042819Y-97630695D01*
X115090438Y-97487838D01*
X115185676Y-97392600D01*
X115328533Y-97344980D01*
X115519009Y-97344980D01*
X115661866Y-97392600D01*
X115757104Y-97487838D01*
X115804723Y-97630695D01*
X115804723Y-97868790D01*
X115757104Y-98011647D01*
X115661866Y-98106885D01*
X115566628Y-98154504D01*
X115566628Y-98344980D01*
X115804723Y-98344980D01*
X110151942Y-89732380D02*
X109818609Y-89256190D01*
X109580514Y-89732380D02*
X109580514Y-88732380D01*
X109961466Y-88732380D01*
X110056704Y-88780000D01*
X110104323Y-88827619D01*
X110151942Y-88922857D01*
X110151942Y-89065714D01*
X110104323Y-89160952D01*
X110056704Y-89208571D01*
X109961466Y-89256190D01*
X109580514Y-89256190D01*
X111104323Y-89732380D02*
X110532895Y-89732380D01*
X110818609Y-89732380D02*
X110818609Y-88732380D01*
X110723371Y-88875238D01*
X110628133Y-88970476D01*
X110532895Y-89018095D01*
X111437657Y-88732380D02*
X112056704Y-88732380D01*
X111723371Y-89113333D01*
X111866228Y-89113333D01*
X111961466Y-89160952D01*
X112009085Y-89208571D01*
X112056704Y-89303809D01*
X112056704Y-89541904D01*
X112009085Y-89637142D01*
X111961466Y-89684761D01*
X111866228Y-89732380D01*
X111580514Y-89732380D01*
X111485276Y-89684761D01*
X111437657Y-89637142D01*
X109556704Y-86432380D02*
X108985276Y-86432380D01*
X109270990Y-86432380D02*
X109270990Y-85432380D01*
X109175752Y-85575238D01*
X109080514Y-85670476D01*
X108985276Y-85718095D01*
X110461466Y-85432380D02*
X109985276Y-85432380D01*
X109937657Y-85908571D01*
X109985276Y-85860952D01*
X110080514Y-85813333D01*
X110318609Y-85813333D01*
X110413847Y-85860952D01*
X110461466Y-85908571D01*
X110509085Y-86003809D01*
X110509085Y-86241904D01*
X110461466Y-86337142D01*
X110413847Y-86384761D01*
X110318609Y-86432380D01*
X110080514Y-86432380D01*
X109985276Y-86384761D01*
X109937657Y-86337142D01*
X111128133Y-85432380D02*
X111223371Y-85432380D01*
X111318609Y-85480000D01*
X111366228Y-85527619D01*
X111413847Y-85622857D01*
X111461466Y-85813333D01*
X111461466Y-86051428D01*
X111413847Y-86241904D01*
X111366228Y-86337142D01*
X111318609Y-86384761D01*
X111223371Y-86432380D01*
X111128133Y-86432380D01*
X111032895Y-86384761D01*
X110985276Y-86337142D01*
X110937657Y-86241904D01*
X110890038Y-86051428D01*
X110890038Y-85813333D01*
X110937657Y-85622857D01*
X110985276Y-85527619D01*
X111032895Y-85480000D01*
X111128133Y-85432380D01*
X111842419Y-86432380D02*
X112080514Y-86432380D01*
X112080514Y-86241904D01*
X111985276Y-86194285D01*
X111890038Y-86099047D01*
X111842419Y-85956190D01*
X111842419Y-85718095D01*
X111890038Y-85575238D01*
X111985276Y-85480000D01*
X112128133Y-85432380D01*
X112318609Y-85432380D01*
X112461466Y-85480000D01*
X112556704Y-85575238D01*
X112604323Y-85718095D01*
X112604323Y-85956190D01*
X112556704Y-86099047D01*
X112461466Y-86194285D01*
X112366228Y-86241904D01*
X112366228Y-86432380D01*
X112604323Y-86432380D01*
X112945942Y-67202580D02*
X112612609Y-66726390D01*
X112374514Y-67202580D02*
X112374514Y-66202580D01*
X112755466Y-66202580D01*
X112850704Y-66250200D01*
X112898323Y-66297819D01*
X112945942Y-66393057D01*
X112945942Y-66535914D01*
X112898323Y-66631152D01*
X112850704Y-66678771D01*
X112755466Y-66726390D01*
X112374514Y-66726390D01*
X113898323Y-67202580D02*
X113326895Y-67202580D01*
X113612609Y-67202580D02*
X113612609Y-66202580D01*
X113517371Y-66345438D01*
X113422133Y-66440676D01*
X113326895Y-66488295D01*
X114279276Y-66297819D02*
X114326895Y-66250200D01*
X114422133Y-66202580D01*
X114660228Y-66202580D01*
X114755466Y-66250200D01*
X114803085Y-66297819D01*
X114850704Y-66393057D01*
X114850704Y-66488295D01*
X114803085Y-66631152D01*
X114231657Y-67202580D01*
X114850704Y-67202580D01*
X111612609Y-62997819D02*
X111660228Y-62950200D01*
X111755466Y-62902580D01*
X111993561Y-62902580D01*
X112088800Y-62950200D01*
X112136419Y-62997819D01*
X112184038Y-63093057D01*
X112184038Y-63188295D01*
X112136419Y-63331152D01*
X111564990Y-63902580D01*
X112184038Y-63902580D01*
X112612609Y-63807342D02*
X112660228Y-63854961D01*
X112612609Y-63902580D01*
X112564990Y-63854961D01*
X112612609Y-63807342D01*
X112612609Y-63902580D01*
X113041180Y-62997819D02*
X113088800Y-62950200D01*
X113184038Y-62902580D01*
X113422133Y-62902580D01*
X113517371Y-62950200D01*
X113564990Y-62997819D01*
X113612609Y-63093057D01*
X113612609Y-63188295D01*
X113564990Y-63331152D01*
X112993561Y-63902580D01*
X113612609Y-63902580D01*
X114041180Y-63902580D02*
X114041180Y-62902580D01*
X114136419Y-63521628D02*
X114422133Y-63902580D01*
X114422133Y-63235914D02*
X114041180Y-63616866D01*
X114803085Y-63902580D02*
X115041180Y-63902580D01*
X115041180Y-63712104D01*
X114945942Y-63664485D01*
X114850704Y-63569247D01*
X114803085Y-63426390D01*
X114803085Y-63188295D01*
X114850704Y-63045438D01*
X114945942Y-62950200D01*
X115088800Y-62902580D01*
X115279276Y-62902580D01*
X115422133Y-62950200D01*
X115517371Y-63045438D01*
X115564990Y-63188295D01*
X115564990Y-63426390D01*
X115517371Y-63569247D01*
X115422133Y-63664485D01*
X115326895Y-63712104D01*
X115326895Y-63902580D01*
X115564990Y-63902580D01*
X107815142Y-76879980D02*
X107481809Y-76403790D01*
X107243714Y-76879980D02*
X107243714Y-75879980D01*
X107624666Y-75879980D01*
X107719904Y-75927600D01*
X107767523Y-75975219D01*
X107815142Y-76070457D01*
X107815142Y-76213314D01*
X107767523Y-76308552D01*
X107719904Y-76356171D01*
X107624666Y-76403790D01*
X107243714Y-76403790D01*
X108767523Y-76879980D02*
X108196095Y-76879980D01*
X108481809Y-76879980D02*
X108481809Y-75879980D01*
X108386571Y-76022838D01*
X108291333Y-76118076D01*
X108196095Y-76165695D01*
X109719904Y-76879980D02*
X109148476Y-76879980D01*
X109434190Y-76879980D02*
X109434190Y-75879980D01*
X109338952Y-76022838D01*
X109243714Y-76118076D01*
X109148476Y-76165695D01*
X107196095Y-72675219D02*
X107243714Y-72627600D01*
X107338952Y-72579980D01*
X107577047Y-72579980D01*
X107672285Y-72627600D01*
X107719904Y-72675219D01*
X107767523Y-72770457D01*
X107767523Y-72865695D01*
X107719904Y-73008552D01*
X107148476Y-73579980D01*
X107767523Y-73579980D01*
X108196095Y-73579980D02*
X108196095Y-72579980D01*
X108291333Y-73199028D02*
X108577047Y-73579980D01*
X108577047Y-72913314D02*
X108196095Y-73294266D01*
X108958000Y-73579980D02*
X109196095Y-73579980D01*
X109196095Y-73389504D01*
X109100857Y-73341885D01*
X109005619Y-73246647D01*
X108958000Y-73103790D01*
X108958000Y-72865695D01*
X109005619Y-72722838D01*
X109100857Y-72627600D01*
X109243714Y-72579980D01*
X109434190Y-72579980D01*
X109577047Y-72627600D01*
X109672285Y-72722838D01*
X109719904Y-72865695D01*
X109719904Y-73103790D01*
X109672285Y-73246647D01*
X109577047Y-73341885D01*
X109481809Y-73389504D01*
X109481809Y-73579980D01*
X109719904Y-73579980D01*
X107967542Y-67151780D02*
X107634209Y-66675590D01*
X107396114Y-67151780D02*
X107396114Y-66151780D01*
X107777066Y-66151780D01*
X107872304Y-66199400D01*
X107919923Y-66247019D01*
X107967542Y-66342257D01*
X107967542Y-66485114D01*
X107919923Y-66580352D01*
X107872304Y-66627971D01*
X107777066Y-66675590D01*
X107396114Y-66675590D01*
X108919923Y-67151780D02*
X108348495Y-67151780D01*
X108634209Y-67151780D02*
X108634209Y-66151780D01*
X108538971Y-66294638D01*
X108443733Y-66389876D01*
X108348495Y-66437495D01*
X109538971Y-66151780D02*
X109634209Y-66151780D01*
X109729447Y-66199400D01*
X109777066Y-66247019D01*
X109824685Y-66342257D01*
X109872304Y-66532733D01*
X109872304Y-66770828D01*
X109824685Y-66961304D01*
X109777066Y-67056542D01*
X109729447Y-67104161D01*
X109634209Y-67151780D01*
X109538971Y-67151780D01*
X109443733Y-67104161D01*
X109396114Y-67056542D01*
X109348495Y-66961304D01*
X109300876Y-66770828D01*
X109300876Y-66532733D01*
X109348495Y-66342257D01*
X109396114Y-66247019D01*
X109443733Y-66199400D01*
X109538971Y-66151780D01*
X106586590Y-62851780D02*
X107205638Y-62851780D01*
X106872304Y-63232733D01*
X107015161Y-63232733D01*
X107110400Y-63280352D01*
X107158019Y-63327971D01*
X107205638Y-63423209D01*
X107205638Y-63661304D01*
X107158019Y-63756542D01*
X107110400Y-63804161D01*
X107015161Y-63851780D01*
X106729447Y-63851780D01*
X106634209Y-63804161D01*
X106586590Y-63756542D01*
X107634209Y-63756542D02*
X107681828Y-63804161D01*
X107634209Y-63851780D01*
X107586590Y-63804161D01*
X107634209Y-63756542D01*
X107634209Y-63851780D01*
X108015161Y-62851780D02*
X108634209Y-62851780D01*
X108300876Y-63232733D01*
X108443733Y-63232733D01*
X108538971Y-63280352D01*
X108586590Y-63327971D01*
X108634209Y-63423209D01*
X108634209Y-63661304D01*
X108586590Y-63756542D01*
X108538971Y-63804161D01*
X108443733Y-63851780D01*
X108158019Y-63851780D01*
X108062780Y-63804161D01*
X108015161Y-63756542D01*
X109062780Y-63851780D02*
X109062780Y-62851780D01*
X109158019Y-63470828D02*
X109443733Y-63851780D01*
X109443733Y-63185114D02*
X109062780Y-63566066D01*
X109824685Y-63851780D02*
X110062780Y-63851780D01*
X110062780Y-63661304D01*
X109967542Y-63613685D01*
X109872304Y-63518447D01*
X109824685Y-63375590D01*
X109824685Y-63137495D01*
X109872304Y-62994638D01*
X109967542Y-62899400D01*
X110110400Y-62851780D01*
X110300876Y-62851780D01*
X110443733Y-62899400D01*
X110538971Y-62994638D01*
X110586590Y-63137495D01*
X110586590Y-63375590D01*
X110538971Y-63518447D01*
X110443733Y-63613685D01*
X110348495Y-63661304D01*
X110348495Y-63851780D01*
X110586590Y-63851780D01*
X108342133Y-71901580D02*
X108008800Y-71425390D01*
X107770704Y-71901580D02*
X107770704Y-70901580D01*
X108151657Y-70901580D01*
X108246895Y-70949200D01*
X108294514Y-70996819D01*
X108342133Y-71092057D01*
X108342133Y-71234914D01*
X108294514Y-71330152D01*
X108246895Y-71377771D01*
X108151657Y-71425390D01*
X107770704Y-71425390D01*
X108818323Y-71901580D02*
X109008800Y-71901580D01*
X109104038Y-71853961D01*
X109151657Y-71806342D01*
X109246895Y-71663485D01*
X109294514Y-71473009D01*
X109294514Y-71092057D01*
X109246895Y-70996819D01*
X109199276Y-70949200D01*
X109104038Y-70901580D01*
X108913561Y-70901580D01*
X108818323Y-70949200D01*
X108770704Y-70996819D01*
X108723085Y-71092057D01*
X108723085Y-71330152D01*
X108770704Y-71425390D01*
X108818323Y-71473009D01*
X108913561Y-71520628D01*
X109104038Y-71520628D01*
X109199276Y-71473009D01*
X109246895Y-71425390D01*
X109294514Y-71330152D01*
X107246895Y-67696819D02*
X107294514Y-67649200D01*
X107389752Y-67601580D01*
X107627847Y-67601580D01*
X107723085Y-67649200D01*
X107770704Y-67696819D01*
X107818323Y-67792057D01*
X107818323Y-67887295D01*
X107770704Y-68030152D01*
X107199276Y-68601580D01*
X107818323Y-68601580D01*
X108246895Y-68601580D02*
X108246895Y-67601580D01*
X108342133Y-68220628D02*
X108627847Y-68601580D01*
X108627847Y-67934914D02*
X108246895Y-68315866D01*
X109008800Y-68601580D02*
X109246895Y-68601580D01*
X109246895Y-68411104D01*
X109151657Y-68363485D01*
X109056419Y-68268247D01*
X109008800Y-68125390D01*
X109008800Y-67887295D01*
X109056419Y-67744438D01*
X109151657Y-67649200D01*
X109294514Y-67601580D01*
X109484990Y-67601580D01*
X109627847Y-67649200D01*
X109723085Y-67744438D01*
X109770704Y-67887295D01*
X109770704Y-68125390D01*
X109723085Y-68268247D01*
X109627847Y-68363485D01*
X109532609Y-68411104D01*
X109532609Y-68601580D01*
X109770704Y-68601580D01*
X108342133Y-81655180D02*
X108008800Y-81178990D01*
X107770704Y-81655180D02*
X107770704Y-80655180D01*
X108151657Y-80655180D01*
X108246895Y-80702800D01*
X108294514Y-80750419D01*
X108342133Y-80845657D01*
X108342133Y-80988514D01*
X108294514Y-81083752D01*
X108246895Y-81131371D01*
X108151657Y-81178990D01*
X107770704Y-81178990D01*
X108913561Y-81083752D02*
X108818323Y-81036133D01*
X108770704Y-80988514D01*
X108723085Y-80893276D01*
X108723085Y-80845657D01*
X108770704Y-80750419D01*
X108818323Y-80702800D01*
X108913561Y-80655180D01*
X109104038Y-80655180D01*
X109199276Y-80702800D01*
X109246895Y-80750419D01*
X109294514Y-80845657D01*
X109294514Y-80893276D01*
X109246895Y-80988514D01*
X109199276Y-81036133D01*
X109104038Y-81083752D01*
X108913561Y-81083752D01*
X108818323Y-81131371D01*
X108770704Y-81178990D01*
X108723085Y-81274228D01*
X108723085Y-81464704D01*
X108770704Y-81559942D01*
X108818323Y-81607561D01*
X108913561Y-81655180D01*
X109104038Y-81655180D01*
X109199276Y-81607561D01*
X109246895Y-81559942D01*
X109294514Y-81464704D01*
X109294514Y-81274228D01*
X109246895Y-81178990D01*
X109199276Y-81131371D01*
X109104038Y-81083752D01*
X107008800Y-77355180D02*
X106818323Y-77355180D01*
X106723085Y-77402800D01*
X106675466Y-77450419D01*
X106580228Y-77593276D01*
X106532609Y-77783752D01*
X106532609Y-78164704D01*
X106580228Y-78259942D01*
X106627847Y-78307561D01*
X106723085Y-78355180D01*
X106913561Y-78355180D01*
X107008800Y-78307561D01*
X107056419Y-78259942D01*
X107104038Y-78164704D01*
X107104038Y-77926609D01*
X107056419Y-77831371D01*
X107008800Y-77783752D01*
X106913561Y-77736133D01*
X106723085Y-77736133D01*
X106627847Y-77783752D01*
X106580228Y-77831371D01*
X106532609Y-77926609D01*
X107532609Y-78259942D02*
X107580228Y-78307561D01*
X107532609Y-78355180D01*
X107484990Y-78307561D01*
X107532609Y-78259942D01*
X107532609Y-78355180D01*
X108151657Y-77783752D02*
X108056419Y-77736133D01*
X108008800Y-77688514D01*
X107961180Y-77593276D01*
X107961180Y-77545657D01*
X108008800Y-77450419D01*
X108056419Y-77402800D01*
X108151657Y-77355180D01*
X108342133Y-77355180D01*
X108437371Y-77402800D01*
X108484990Y-77450419D01*
X108532609Y-77545657D01*
X108532609Y-77593276D01*
X108484990Y-77688514D01*
X108437371Y-77736133D01*
X108342133Y-77783752D01*
X108151657Y-77783752D01*
X108056419Y-77831371D01*
X108008800Y-77878990D01*
X107961180Y-77974228D01*
X107961180Y-78164704D01*
X108008800Y-78259942D01*
X108056419Y-78307561D01*
X108151657Y-78355180D01*
X108342133Y-78355180D01*
X108437371Y-78307561D01*
X108484990Y-78259942D01*
X108532609Y-78164704D01*
X108532609Y-77974228D01*
X108484990Y-77878990D01*
X108437371Y-77831371D01*
X108342133Y-77783752D01*
X108961180Y-78355180D02*
X108961180Y-77355180D01*
X109056419Y-77974228D02*
X109342133Y-78355180D01*
X109342133Y-77688514D02*
X108961180Y-78069466D01*
X109723085Y-78355180D02*
X109961180Y-78355180D01*
X109961180Y-78164704D01*
X109865942Y-78117085D01*
X109770704Y-78021847D01*
X109723085Y-77878990D01*
X109723085Y-77640895D01*
X109770704Y-77498038D01*
X109865942Y-77402800D01*
X110008800Y-77355180D01*
X110199276Y-77355180D01*
X110342133Y-77402800D01*
X110437371Y-77498038D01*
X110484990Y-77640895D01*
X110484990Y-77878990D01*
X110437371Y-78021847D01*
X110342133Y-78117085D01*
X110246895Y-78164704D01*
X110246895Y-78355180D01*
X110484990Y-78355180D01*
X96353333Y-81807580D02*
X96020000Y-81331390D01*
X95781904Y-81807580D02*
X95781904Y-80807580D01*
X96162857Y-80807580D01*
X96258095Y-80855200D01*
X96305714Y-80902819D01*
X96353333Y-80998057D01*
X96353333Y-81140914D01*
X96305714Y-81236152D01*
X96258095Y-81283771D01*
X96162857Y-81331390D01*
X95781904Y-81331390D01*
X96686666Y-80807580D02*
X97353333Y-80807580D01*
X96924761Y-81807580D01*
X95281904Y-78507580D02*
X94710476Y-78507580D01*
X94996190Y-78507580D02*
X94996190Y-77507580D01*
X94900952Y-77650438D01*
X94805714Y-77745676D01*
X94710476Y-77793295D01*
X96186666Y-77507580D02*
X95710476Y-77507580D01*
X95662857Y-77983771D01*
X95710476Y-77936152D01*
X95805714Y-77888533D01*
X96043809Y-77888533D01*
X96139047Y-77936152D01*
X96186666Y-77983771D01*
X96234285Y-78079009D01*
X96234285Y-78317104D01*
X96186666Y-78412342D01*
X96139047Y-78459961D01*
X96043809Y-78507580D01*
X95805714Y-78507580D01*
X95710476Y-78459961D01*
X95662857Y-78412342D01*
X96853333Y-77507580D02*
X96948571Y-77507580D01*
X97043809Y-77555200D01*
X97091428Y-77602819D01*
X97139047Y-77698057D01*
X97186666Y-77888533D01*
X97186666Y-78126628D01*
X97139047Y-78317104D01*
X97091428Y-78412342D01*
X97043809Y-78459961D01*
X96948571Y-78507580D01*
X96853333Y-78507580D01*
X96758095Y-78459961D01*
X96710476Y-78412342D01*
X96662857Y-78317104D01*
X96615238Y-78126628D01*
X96615238Y-77888533D01*
X96662857Y-77698057D01*
X96710476Y-77602819D01*
X96758095Y-77555200D01*
X96853333Y-77507580D01*
X97567619Y-78507580D02*
X97805714Y-78507580D01*
X97805714Y-78317104D01*
X97710476Y-78269485D01*
X97615238Y-78174247D01*
X97567619Y-78031390D01*
X97567619Y-77793295D01*
X97615238Y-77650438D01*
X97710476Y-77555200D01*
X97853333Y-77507580D01*
X98043809Y-77507580D01*
X98186666Y-77555200D01*
X98281904Y-77650438D01*
X98329523Y-77793295D01*
X98329523Y-78031390D01*
X98281904Y-78174247D01*
X98186666Y-78269485D01*
X98091428Y-78317104D01*
X98091428Y-78507580D01*
X98329523Y-78507580D01*
X102093733Y-73349380D02*
X101760400Y-72873190D01*
X101522304Y-73349380D02*
X101522304Y-72349380D01*
X101903257Y-72349380D01*
X101998495Y-72397000D01*
X102046114Y-72444619D01*
X102093733Y-72539857D01*
X102093733Y-72682714D01*
X102046114Y-72777952D01*
X101998495Y-72825571D01*
X101903257Y-72873190D01*
X101522304Y-72873190D01*
X102950876Y-72349380D02*
X102760400Y-72349380D01*
X102665161Y-72397000D01*
X102617542Y-72444619D01*
X102522304Y-72587476D01*
X102474685Y-72777952D01*
X102474685Y-73158904D01*
X102522304Y-73254142D01*
X102569923Y-73301761D01*
X102665161Y-73349380D01*
X102855638Y-73349380D01*
X102950876Y-73301761D01*
X102998495Y-73254142D01*
X103046114Y-73158904D01*
X103046114Y-72920809D01*
X102998495Y-72825571D01*
X102950876Y-72777952D01*
X102855638Y-72730333D01*
X102665161Y-72730333D01*
X102569923Y-72777952D01*
X102522304Y-72825571D01*
X102474685Y-72920809D01*
X101022304Y-70049380D02*
X100450876Y-70049380D01*
X100736590Y-70049380D02*
X100736590Y-69049380D01*
X100641352Y-69192238D01*
X100546114Y-69287476D01*
X100450876Y-69335095D01*
X101641352Y-69049380D02*
X101736590Y-69049380D01*
X101831828Y-69097000D01*
X101879447Y-69144619D01*
X101927066Y-69239857D01*
X101974685Y-69430333D01*
X101974685Y-69668428D01*
X101927066Y-69858904D01*
X101879447Y-69954142D01*
X101831828Y-70001761D01*
X101736590Y-70049380D01*
X101641352Y-70049380D01*
X101546114Y-70001761D01*
X101498495Y-69954142D01*
X101450876Y-69858904D01*
X101403257Y-69668428D01*
X101403257Y-69430333D01*
X101450876Y-69239857D01*
X101498495Y-69144619D01*
X101546114Y-69097000D01*
X101641352Y-69049380D01*
X102593733Y-69049380D02*
X102688971Y-69049380D01*
X102784209Y-69097000D01*
X102831828Y-69144619D01*
X102879447Y-69239857D01*
X102927066Y-69430333D01*
X102927066Y-69668428D01*
X102879447Y-69858904D01*
X102831828Y-69954142D01*
X102784209Y-70001761D01*
X102688971Y-70049380D01*
X102593733Y-70049380D01*
X102498495Y-70001761D01*
X102450876Y-69954142D01*
X102403257Y-69858904D01*
X102355638Y-69668428D01*
X102355638Y-69430333D01*
X102403257Y-69239857D01*
X102450876Y-69144619D01*
X102498495Y-69097000D01*
X102593733Y-69049380D01*
X103308019Y-70049380D02*
X103546114Y-70049380D01*
X103546114Y-69858904D01*
X103450876Y-69811285D01*
X103355638Y-69716047D01*
X103308019Y-69573190D01*
X103308019Y-69335095D01*
X103355638Y-69192238D01*
X103450876Y-69097000D01*
X103593733Y-69049380D01*
X103784209Y-69049380D01*
X103927066Y-69097000D01*
X104022304Y-69192238D01*
X104069923Y-69335095D01*
X104069923Y-69573190D01*
X104022304Y-69716047D01*
X103927066Y-69811285D01*
X103831828Y-69858904D01*
X103831828Y-70049380D01*
X104069923Y-70049380D01*
X96327933Y-67151780D02*
X95994600Y-66675590D01*
X95756504Y-67151780D02*
X95756504Y-66151780D01*
X96137457Y-66151780D01*
X96232695Y-66199400D01*
X96280314Y-66247019D01*
X96327933Y-66342257D01*
X96327933Y-66485114D01*
X96280314Y-66580352D01*
X96232695Y-66627971D01*
X96137457Y-66675590D01*
X95756504Y-66675590D01*
X97232695Y-66151780D02*
X96756504Y-66151780D01*
X96708885Y-66627971D01*
X96756504Y-66580352D01*
X96851742Y-66532733D01*
X97089838Y-66532733D01*
X97185076Y-66580352D01*
X97232695Y-66627971D01*
X97280314Y-66723209D01*
X97280314Y-66961304D01*
X97232695Y-67056542D01*
X97185076Y-67104161D01*
X97089838Y-67151780D01*
X96851742Y-67151780D01*
X96756504Y-67104161D01*
X96708885Y-67056542D01*
X95256504Y-63851780D02*
X94685076Y-63851780D01*
X94970790Y-63851780D02*
X94970790Y-62851780D01*
X94875552Y-62994638D01*
X94780314Y-63089876D01*
X94685076Y-63137495D01*
X95827933Y-63280352D02*
X95732695Y-63232733D01*
X95685076Y-63185114D01*
X95637457Y-63089876D01*
X95637457Y-63042257D01*
X95685076Y-62947019D01*
X95732695Y-62899400D01*
X95827933Y-62851780D01*
X96018409Y-62851780D01*
X96113647Y-62899400D01*
X96161266Y-62947019D01*
X96208885Y-63042257D01*
X96208885Y-63089876D01*
X96161266Y-63185114D01*
X96113647Y-63232733D01*
X96018409Y-63280352D01*
X95827933Y-63280352D01*
X95732695Y-63327971D01*
X95685076Y-63375590D01*
X95637457Y-63470828D01*
X95637457Y-63661304D01*
X95685076Y-63756542D01*
X95732695Y-63804161D01*
X95827933Y-63851780D01*
X96018409Y-63851780D01*
X96113647Y-63804161D01*
X96161266Y-63756542D01*
X96208885Y-63661304D01*
X96208885Y-63470828D01*
X96161266Y-63375590D01*
X96113647Y-63327971D01*
X96018409Y-63280352D01*
X96827933Y-62851780D02*
X96923171Y-62851780D01*
X97018409Y-62899400D01*
X97066028Y-62947019D01*
X97113647Y-63042257D01*
X97161266Y-63232733D01*
X97161266Y-63470828D01*
X97113647Y-63661304D01*
X97066028Y-63756542D01*
X97018409Y-63804161D01*
X96923171Y-63851780D01*
X96827933Y-63851780D01*
X96732695Y-63804161D01*
X96685076Y-63756542D01*
X96637457Y-63661304D01*
X96589838Y-63470828D01*
X96589838Y-63232733D01*
X96637457Y-63042257D01*
X96685076Y-62947019D01*
X96732695Y-62899400D01*
X96827933Y-62851780D01*
X97542219Y-63851780D02*
X97780314Y-63851780D01*
X97780314Y-63661304D01*
X97685076Y-63613685D01*
X97589838Y-63518447D01*
X97542219Y-63375590D01*
X97542219Y-63137495D01*
X97589838Y-62994638D01*
X97685076Y-62899400D01*
X97827933Y-62851780D01*
X98018409Y-62851780D01*
X98161266Y-62899400D01*
X98256504Y-62994638D01*
X98304123Y-63137495D01*
X98304123Y-63375590D01*
X98256504Y-63518447D01*
X98161266Y-63613685D01*
X98066028Y-63661304D01*
X98066028Y-63851780D01*
X98304123Y-63851780D01*
X96327933Y-98673180D02*
X95994600Y-98196990D01*
X95756504Y-98673180D02*
X95756504Y-97673180D01*
X96137457Y-97673180D01*
X96232695Y-97720800D01*
X96280314Y-97768419D01*
X96327933Y-97863657D01*
X96327933Y-98006514D01*
X96280314Y-98101752D01*
X96232695Y-98149371D01*
X96137457Y-98196990D01*
X95756504Y-98196990D01*
X97185076Y-98006514D02*
X97185076Y-98673180D01*
X96946980Y-97625561D02*
X96708885Y-98339847D01*
X97327933Y-98339847D01*
X95256504Y-95373180D02*
X94685076Y-95373180D01*
X94970790Y-95373180D02*
X94970790Y-94373180D01*
X94875552Y-94516038D01*
X94780314Y-94611276D01*
X94685076Y-94658895D01*
X96161266Y-94373180D02*
X95685076Y-94373180D01*
X95637457Y-94849371D01*
X95685076Y-94801752D01*
X95780314Y-94754133D01*
X96018409Y-94754133D01*
X96113647Y-94801752D01*
X96161266Y-94849371D01*
X96208885Y-94944609D01*
X96208885Y-95182704D01*
X96161266Y-95277942D01*
X96113647Y-95325561D01*
X96018409Y-95373180D01*
X95780314Y-95373180D01*
X95685076Y-95325561D01*
X95637457Y-95277942D01*
X96827933Y-94373180D02*
X96923171Y-94373180D01*
X97018409Y-94420800D01*
X97066028Y-94468419D01*
X97113647Y-94563657D01*
X97161266Y-94754133D01*
X97161266Y-94992228D01*
X97113647Y-95182704D01*
X97066028Y-95277942D01*
X97018409Y-95325561D01*
X96923171Y-95373180D01*
X96827933Y-95373180D01*
X96732695Y-95325561D01*
X96685076Y-95277942D01*
X96637457Y-95182704D01*
X96589838Y-94992228D01*
X96589838Y-94754133D01*
X96637457Y-94563657D01*
X96685076Y-94468419D01*
X96732695Y-94420800D01*
X96827933Y-94373180D01*
X97542219Y-95373180D02*
X97780314Y-95373180D01*
X97780314Y-95182704D01*
X97685076Y-95135085D01*
X97589838Y-95039847D01*
X97542219Y-94896990D01*
X97542219Y-94658895D01*
X97589838Y-94516038D01*
X97685076Y-94420800D01*
X97827933Y-94373180D01*
X98018409Y-94373180D01*
X98161266Y-94420800D01*
X98256504Y-94516038D01*
X98304123Y-94658895D01*
X98304123Y-94896990D01*
X98256504Y-95039847D01*
X98161266Y-95135085D01*
X98066028Y-95182704D01*
X98066028Y-95373180D01*
X98304123Y-95373180D01*
X96327933Y-86912980D02*
X95994600Y-86436790D01*
X95756504Y-86912980D02*
X95756504Y-85912980D01*
X96137457Y-85912980D01*
X96232695Y-85960600D01*
X96280314Y-86008219D01*
X96327933Y-86103457D01*
X96327933Y-86246314D01*
X96280314Y-86341552D01*
X96232695Y-86389171D01*
X96137457Y-86436790D01*
X95756504Y-86436790D01*
X96661266Y-85912980D02*
X97280314Y-85912980D01*
X96946980Y-86293933D01*
X97089838Y-86293933D01*
X97185076Y-86341552D01*
X97232695Y-86389171D01*
X97280314Y-86484409D01*
X97280314Y-86722504D01*
X97232695Y-86817742D01*
X97185076Y-86865361D01*
X97089838Y-86912980D01*
X96804123Y-86912980D01*
X96708885Y-86865361D01*
X96661266Y-86817742D01*
X95256504Y-83612980D02*
X94685076Y-83612980D01*
X94970790Y-83612980D02*
X94970790Y-82612980D01*
X94875552Y-82755838D01*
X94780314Y-82851076D01*
X94685076Y-82898695D01*
X96161266Y-82612980D02*
X95685076Y-82612980D01*
X95637457Y-83089171D01*
X95685076Y-83041552D01*
X95780314Y-82993933D01*
X96018409Y-82993933D01*
X96113647Y-83041552D01*
X96161266Y-83089171D01*
X96208885Y-83184409D01*
X96208885Y-83422504D01*
X96161266Y-83517742D01*
X96113647Y-83565361D01*
X96018409Y-83612980D01*
X95780314Y-83612980D01*
X95685076Y-83565361D01*
X95637457Y-83517742D01*
X96827933Y-82612980D02*
X96923171Y-82612980D01*
X97018409Y-82660600D01*
X97066028Y-82708219D01*
X97113647Y-82803457D01*
X97161266Y-82993933D01*
X97161266Y-83232028D01*
X97113647Y-83422504D01*
X97066028Y-83517742D01*
X97018409Y-83565361D01*
X96923171Y-83612980D01*
X96827933Y-83612980D01*
X96732695Y-83565361D01*
X96685076Y-83517742D01*
X96637457Y-83422504D01*
X96589838Y-83232028D01*
X96589838Y-82993933D01*
X96637457Y-82803457D01*
X96685076Y-82708219D01*
X96732695Y-82660600D01*
X96827933Y-82612980D01*
X97542219Y-83612980D02*
X97780314Y-83612980D01*
X97780314Y-83422504D01*
X97685076Y-83374885D01*
X97589838Y-83279647D01*
X97542219Y-83136790D01*
X97542219Y-82898695D01*
X97589838Y-82755838D01*
X97685076Y-82660600D01*
X97827933Y-82612980D01*
X98018409Y-82612980D01*
X98161266Y-82660600D01*
X98256504Y-82755838D01*
X98304123Y-82898695D01*
X98304123Y-83136790D01*
X98256504Y-83279647D01*
X98161266Y-83374885D01*
X98066028Y-83422504D01*
X98066028Y-83612980D01*
X98304123Y-83612980D01*
X96404133Y-76854580D02*
X96070800Y-76378390D01*
X95832704Y-76854580D02*
X95832704Y-75854580D01*
X96213657Y-75854580D01*
X96308895Y-75902200D01*
X96356514Y-75949819D01*
X96404133Y-76045057D01*
X96404133Y-76187914D01*
X96356514Y-76283152D01*
X96308895Y-76330771D01*
X96213657Y-76378390D01*
X95832704Y-76378390D01*
X96785085Y-75949819D02*
X96832704Y-75902200D01*
X96927942Y-75854580D01*
X97166038Y-75854580D01*
X97261276Y-75902200D01*
X97308895Y-75949819D01*
X97356514Y-76045057D01*
X97356514Y-76140295D01*
X97308895Y-76283152D01*
X96737466Y-76854580D01*
X97356514Y-76854580D01*
X95332704Y-73554580D02*
X94761276Y-73554580D01*
X95046990Y-73554580D02*
X95046990Y-72554580D01*
X94951752Y-72697438D01*
X94856514Y-72792676D01*
X94761276Y-72840295D01*
X96237466Y-72554580D02*
X95761276Y-72554580D01*
X95713657Y-73030771D01*
X95761276Y-72983152D01*
X95856514Y-72935533D01*
X96094609Y-72935533D01*
X96189847Y-72983152D01*
X96237466Y-73030771D01*
X96285085Y-73126009D01*
X96285085Y-73364104D01*
X96237466Y-73459342D01*
X96189847Y-73506961D01*
X96094609Y-73554580D01*
X95856514Y-73554580D01*
X95761276Y-73506961D01*
X95713657Y-73459342D01*
X96904133Y-72554580D02*
X96999371Y-72554580D01*
X97094609Y-72602200D01*
X97142228Y-72649819D01*
X97189847Y-72745057D01*
X97237466Y-72935533D01*
X97237466Y-73173628D01*
X97189847Y-73364104D01*
X97142228Y-73459342D01*
X97094609Y-73506961D01*
X96999371Y-73554580D01*
X96904133Y-73554580D01*
X96808895Y-73506961D01*
X96761276Y-73459342D01*
X96713657Y-73364104D01*
X96666038Y-73173628D01*
X96666038Y-72935533D01*
X96713657Y-72745057D01*
X96761276Y-72649819D01*
X96808895Y-72602200D01*
X96904133Y-72554580D01*
X97618419Y-73554580D02*
X97856514Y-73554580D01*
X97856514Y-73364104D01*
X97761276Y-73316485D01*
X97666038Y-73221247D01*
X97618419Y-73078390D01*
X97618419Y-72840295D01*
X97666038Y-72697438D01*
X97761276Y-72602200D01*
X97904133Y-72554580D01*
X98094609Y-72554580D01*
X98237466Y-72602200D01*
X98332704Y-72697438D01*
X98380323Y-72840295D01*
X98380323Y-73078390D01*
X98332704Y-73221247D01*
X98237466Y-73316485D01*
X98142228Y-73364104D01*
X98142228Y-73554580D01*
X98380323Y-73554580D01*
X96327933Y-71926980D02*
X95994600Y-71450790D01*
X95756504Y-71926980D02*
X95756504Y-70926980D01*
X96137457Y-70926980D01*
X96232695Y-70974600D01*
X96280314Y-71022219D01*
X96327933Y-71117457D01*
X96327933Y-71260314D01*
X96280314Y-71355552D01*
X96232695Y-71403171D01*
X96137457Y-71450790D01*
X95756504Y-71450790D01*
X97280314Y-71926980D02*
X96708885Y-71926980D01*
X96994600Y-71926980D02*
X96994600Y-70926980D01*
X96899361Y-71069838D01*
X96804123Y-71165076D01*
X96708885Y-71212695D01*
X94780314Y-68626980D02*
X94970790Y-68626980D01*
X95066028Y-68579361D01*
X95113647Y-68531742D01*
X95208885Y-68388885D01*
X95256504Y-68198409D01*
X95256504Y-67817457D01*
X95208885Y-67722219D01*
X95161266Y-67674600D01*
X95066028Y-67626980D01*
X94875552Y-67626980D01*
X94780314Y-67674600D01*
X94732695Y-67722219D01*
X94685076Y-67817457D01*
X94685076Y-68055552D01*
X94732695Y-68150790D01*
X94780314Y-68198409D01*
X94875552Y-68246028D01*
X95066028Y-68246028D01*
X95161266Y-68198409D01*
X95208885Y-68150790D01*
X95256504Y-68055552D01*
X96208885Y-68626980D02*
X95637457Y-68626980D01*
X95923171Y-68626980D02*
X95923171Y-67626980D01*
X95827933Y-67769838D01*
X95732695Y-67865076D01*
X95637457Y-67912695D01*
X96827933Y-67626980D02*
X96923171Y-67626980D01*
X97018409Y-67674600D01*
X97066028Y-67722219D01*
X97113647Y-67817457D01*
X97161266Y-68007933D01*
X97161266Y-68246028D01*
X97113647Y-68436504D01*
X97066028Y-68531742D01*
X97018409Y-68579361D01*
X96923171Y-68626980D01*
X96827933Y-68626980D01*
X96732695Y-68579361D01*
X96685076Y-68531742D01*
X96637457Y-68436504D01*
X96589838Y-68246028D01*
X96589838Y-68007933D01*
X96637457Y-67817457D01*
X96685076Y-67722219D01*
X96732695Y-67674600D01*
X96827933Y-67626980D01*
X97542219Y-68626980D02*
X97780314Y-68626980D01*
X97780314Y-68436504D01*
X97685076Y-68388885D01*
X97589838Y-68293647D01*
X97542219Y-68150790D01*
X97542219Y-67912695D01*
X97589838Y-67769838D01*
X97685076Y-67674600D01*
X97827933Y-67626980D01*
X98018409Y-67626980D01*
X98161266Y-67674600D01*
X98256504Y-67769838D01*
X98304123Y-67912695D01*
X98304123Y-68150790D01*
X98256504Y-68293647D01*
X98161266Y-68388885D01*
X98066028Y-68436504D01*
X98066028Y-68626980D01*
X98304123Y-68626980D01*
X146220619Y-78149438D02*
X146173000Y-78244676D01*
X146077761Y-78339914D01*
X145934904Y-78482771D01*
X145887285Y-78578009D01*
X145887285Y-78673247D01*
X146125380Y-78625628D02*
X146077761Y-78720866D01*
X145982523Y-78816104D01*
X145792047Y-78863723D01*
X145458714Y-78863723D01*
X145268238Y-78816104D01*
X145173000Y-78720866D01*
X145125380Y-78625628D01*
X145125380Y-78435152D01*
X145173000Y-78339914D01*
X145268238Y-78244676D01*
X145458714Y-78197057D01*
X145792047Y-78197057D01*
X145982523Y-78244676D01*
X146077761Y-78339914D01*
X146125380Y-78435152D01*
X146125380Y-78625628D01*
X146125380Y-77720866D02*
X146125380Y-77530390D01*
X146077761Y-77435152D01*
X146030142Y-77387533D01*
X145887285Y-77292295D01*
X145696809Y-77244676D01*
X145315857Y-77244676D01*
X145220619Y-77292295D01*
X145173000Y-77339914D01*
X145125380Y-77435152D01*
X145125380Y-77625628D01*
X145173000Y-77720866D01*
X145220619Y-77768485D01*
X145315857Y-77816104D01*
X145553952Y-77816104D01*
X145649190Y-77768485D01*
X145696809Y-77720866D01*
X145744428Y-77625628D01*
X145744428Y-77435152D01*
X145696809Y-77339914D01*
X145649190Y-77292295D01*
X145553952Y-77244676D01*
X139251571Y-79911342D02*
X139299190Y-79768485D01*
X139346809Y-79720866D01*
X139442047Y-79673247D01*
X139584904Y-79673247D01*
X139680142Y-79720866D01*
X139727761Y-79768485D01*
X139775380Y-79863723D01*
X139775380Y-80244676D01*
X138775380Y-80244676D01*
X138775380Y-79911342D01*
X138823000Y-79816104D01*
X138870619Y-79768485D01*
X138965857Y-79720866D01*
X139061095Y-79720866D01*
X139156333Y-79768485D01*
X139203952Y-79816104D01*
X139251571Y-79911342D01*
X139251571Y-80244676D01*
X139680142Y-78673247D02*
X139727761Y-78720866D01*
X139775380Y-78863723D01*
X139775380Y-78958961D01*
X139727761Y-79101819D01*
X139632523Y-79197057D01*
X139537285Y-79244676D01*
X139346809Y-79292295D01*
X139203952Y-79292295D01*
X139013476Y-79244676D01*
X138918238Y-79197057D01*
X138823000Y-79101819D01*
X138775380Y-78958961D01*
X138775380Y-78863723D01*
X138823000Y-78720866D01*
X138870619Y-78673247D01*
X138775380Y-77768485D02*
X138775380Y-78244676D01*
X139251571Y-78292295D01*
X139203952Y-78244676D01*
X139156333Y-78149438D01*
X139156333Y-77911342D01*
X139203952Y-77816104D01*
X139251571Y-77768485D01*
X139346809Y-77720866D01*
X139584904Y-77720866D01*
X139680142Y-77768485D01*
X139727761Y-77816104D01*
X139775380Y-77911342D01*
X139775380Y-78149438D01*
X139727761Y-78244676D01*
X139680142Y-78292295D01*
X138775380Y-76816104D02*
X138775380Y-77292295D01*
X139251571Y-77339914D01*
X139203952Y-77292295D01*
X139156333Y-77197057D01*
X139156333Y-76958961D01*
X139203952Y-76863723D01*
X139251571Y-76816104D01*
X139346809Y-76768485D01*
X139584904Y-76768485D01*
X139680142Y-76816104D01*
X139727761Y-76863723D01*
X139775380Y-76958961D01*
X139775380Y-77197057D01*
X139727761Y-77292295D01*
X139680142Y-77339914D01*
X139203952Y-76197057D02*
X139156333Y-76292295D01*
X139108714Y-76339914D01*
X139013476Y-76387533D01*
X138965857Y-76387533D01*
X138870619Y-76339914D01*
X138823000Y-76292295D01*
X138775380Y-76197057D01*
X138775380Y-76006580D01*
X138823000Y-75911342D01*
X138870619Y-75863723D01*
X138965857Y-75816104D01*
X139013476Y-75816104D01*
X139108714Y-75863723D01*
X139156333Y-75911342D01*
X139203952Y-76006580D01*
X139203952Y-76197057D01*
X139251571Y-76292295D01*
X139299190Y-76339914D01*
X139394428Y-76387533D01*
X139584904Y-76387533D01*
X139680142Y-76339914D01*
X139727761Y-76292295D01*
X139775380Y-76197057D01*
X139775380Y-76006580D01*
X139727761Y-75911342D01*
X139680142Y-75863723D01*
X139584904Y-75816104D01*
X139394428Y-75816104D01*
X139299190Y-75863723D01*
X139251571Y-75911342D01*
X139203952Y-76006580D01*
X148100219Y-98977438D02*
X148052600Y-99072676D01*
X147957361Y-99167914D01*
X147814504Y-99310771D01*
X147766885Y-99406009D01*
X147766885Y-99501247D01*
X148004980Y-99453628D02*
X147957361Y-99548866D01*
X147862123Y-99644104D01*
X147671647Y-99691723D01*
X147338314Y-99691723D01*
X147147838Y-99644104D01*
X147052600Y-99548866D01*
X147004980Y-99453628D01*
X147004980Y-99263152D01*
X147052600Y-99167914D01*
X147147838Y-99072676D01*
X147338314Y-99025057D01*
X147671647Y-99025057D01*
X147862123Y-99072676D01*
X147957361Y-99167914D01*
X148004980Y-99263152D01*
X148004980Y-99453628D01*
X147433552Y-98453628D02*
X147385933Y-98548866D01*
X147338314Y-98596485D01*
X147243076Y-98644104D01*
X147195457Y-98644104D01*
X147100219Y-98596485D01*
X147052600Y-98548866D01*
X147004980Y-98453628D01*
X147004980Y-98263152D01*
X147052600Y-98167914D01*
X147100219Y-98120295D01*
X147195457Y-98072676D01*
X147243076Y-98072676D01*
X147338314Y-98120295D01*
X147385933Y-98167914D01*
X147433552Y-98263152D01*
X147433552Y-98453628D01*
X147481171Y-98548866D01*
X147528790Y-98596485D01*
X147624028Y-98644104D01*
X147814504Y-98644104D01*
X147909742Y-98596485D01*
X147957361Y-98548866D01*
X148004980Y-98453628D01*
X148004980Y-98263152D01*
X147957361Y-98167914D01*
X147909742Y-98120295D01*
X147814504Y-98072676D01*
X147624028Y-98072676D01*
X147528790Y-98120295D01*
X147481171Y-98167914D01*
X147433552Y-98263152D01*
X141131171Y-100739342D02*
X141178790Y-100596485D01*
X141226409Y-100548866D01*
X141321647Y-100501247D01*
X141464504Y-100501247D01*
X141559742Y-100548866D01*
X141607361Y-100596485D01*
X141654980Y-100691723D01*
X141654980Y-101072676D01*
X140654980Y-101072676D01*
X140654980Y-100739342D01*
X140702600Y-100644104D01*
X140750219Y-100596485D01*
X140845457Y-100548866D01*
X140940695Y-100548866D01*
X141035933Y-100596485D01*
X141083552Y-100644104D01*
X141131171Y-100739342D01*
X141131171Y-101072676D01*
X141559742Y-99501247D02*
X141607361Y-99548866D01*
X141654980Y-99691723D01*
X141654980Y-99786961D01*
X141607361Y-99929819D01*
X141512123Y-100025057D01*
X141416885Y-100072676D01*
X141226409Y-100120295D01*
X141083552Y-100120295D01*
X140893076Y-100072676D01*
X140797838Y-100025057D01*
X140702600Y-99929819D01*
X140654980Y-99786961D01*
X140654980Y-99691723D01*
X140702600Y-99548866D01*
X140750219Y-99501247D01*
X140654980Y-98596485D02*
X140654980Y-99072676D01*
X141131171Y-99120295D01*
X141083552Y-99072676D01*
X141035933Y-98977438D01*
X141035933Y-98739342D01*
X141083552Y-98644104D01*
X141131171Y-98596485D01*
X141226409Y-98548866D01*
X141464504Y-98548866D01*
X141559742Y-98596485D01*
X141607361Y-98644104D01*
X141654980Y-98739342D01*
X141654980Y-98977438D01*
X141607361Y-99072676D01*
X141559742Y-99120295D01*
X140988314Y-97691723D02*
X141654980Y-97691723D01*
X140607361Y-97929819D02*
X141321647Y-98167914D01*
X141321647Y-97548866D01*
X141083552Y-97025057D02*
X141035933Y-97120295D01*
X140988314Y-97167914D01*
X140893076Y-97215533D01*
X140845457Y-97215533D01*
X140750219Y-97167914D01*
X140702600Y-97120295D01*
X140654980Y-97025057D01*
X140654980Y-96834580D01*
X140702600Y-96739342D01*
X140750219Y-96691723D01*
X140845457Y-96644104D01*
X140893076Y-96644104D01*
X140988314Y-96691723D01*
X141035933Y-96739342D01*
X141083552Y-96834580D01*
X141083552Y-97025057D01*
X141131171Y-97120295D01*
X141178790Y-97167914D01*
X141274028Y-97215533D01*
X141464504Y-97215533D01*
X141559742Y-97167914D01*
X141607361Y-97120295D01*
X141654980Y-97025057D01*
X141654980Y-96834580D01*
X141607361Y-96739342D01*
X141559742Y-96691723D01*
X141464504Y-96644104D01*
X141274028Y-96644104D01*
X141178790Y-96691723D01*
X141131171Y-96739342D01*
X141083552Y-96834580D01*
X137584619Y-89249238D02*
X137537000Y-89344476D01*
X137441761Y-89439714D01*
X137298904Y-89582571D01*
X137251285Y-89677809D01*
X137251285Y-89773047D01*
X137489380Y-89725428D02*
X137441761Y-89820666D01*
X137346523Y-89915904D01*
X137156047Y-89963523D01*
X136822714Y-89963523D01*
X136632238Y-89915904D01*
X136537000Y-89820666D01*
X136489380Y-89725428D01*
X136489380Y-89534952D01*
X136537000Y-89439714D01*
X136632238Y-89344476D01*
X136822714Y-89296857D01*
X137156047Y-89296857D01*
X137346523Y-89344476D01*
X137441761Y-89439714D01*
X137489380Y-89534952D01*
X137489380Y-89725428D01*
X136489380Y-88963523D02*
X136489380Y-88296857D01*
X137489380Y-88725428D01*
X130615571Y-91011142D02*
X130663190Y-90868285D01*
X130710809Y-90820666D01*
X130806047Y-90773047D01*
X130948904Y-90773047D01*
X131044142Y-90820666D01*
X131091761Y-90868285D01*
X131139380Y-90963523D01*
X131139380Y-91344476D01*
X130139380Y-91344476D01*
X130139380Y-91011142D01*
X130187000Y-90915904D01*
X130234619Y-90868285D01*
X130329857Y-90820666D01*
X130425095Y-90820666D01*
X130520333Y-90868285D01*
X130567952Y-90915904D01*
X130615571Y-91011142D01*
X130615571Y-91344476D01*
X131044142Y-89773047D02*
X131091761Y-89820666D01*
X131139380Y-89963523D01*
X131139380Y-90058761D01*
X131091761Y-90201619D01*
X130996523Y-90296857D01*
X130901285Y-90344476D01*
X130710809Y-90392095D01*
X130567952Y-90392095D01*
X130377476Y-90344476D01*
X130282238Y-90296857D01*
X130187000Y-90201619D01*
X130139380Y-90058761D01*
X130139380Y-89963523D01*
X130187000Y-89820666D01*
X130234619Y-89773047D01*
X130139380Y-88868285D02*
X130139380Y-89344476D01*
X130615571Y-89392095D01*
X130567952Y-89344476D01*
X130520333Y-89249238D01*
X130520333Y-89011142D01*
X130567952Y-88915904D01*
X130615571Y-88868285D01*
X130710809Y-88820666D01*
X130948904Y-88820666D01*
X131044142Y-88868285D01*
X131091761Y-88915904D01*
X131139380Y-89011142D01*
X131139380Y-89249238D01*
X131091761Y-89344476D01*
X131044142Y-89392095D01*
X130472714Y-87963523D02*
X131139380Y-87963523D01*
X130091761Y-88201619D02*
X130806047Y-88439714D01*
X130806047Y-87820666D01*
X130567952Y-87296857D02*
X130520333Y-87392095D01*
X130472714Y-87439714D01*
X130377476Y-87487333D01*
X130329857Y-87487333D01*
X130234619Y-87439714D01*
X130187000Y-87392095D01*
X130139380Y-87296857D01*
X130139380Y-87106380D01*
X130187000Y-87011142D01*
X130234619Y-86963523D01*
X130329857Y-86915904D01*
X130377476Y-86915904D01*
X130472714Y-86963523D01*
X130520333Y-87011142D01*
X130567952Y-87106380D01*
X130567952Y-87296857D01*
X130615571Y-87392095D01*
X130663190Y-87439714D01*
X130758428Y-87487333D01*
X130948904Y-87487333D01*
X131044142Y-87439714D01*
X131091761Y-87392095D01*
X131139380Y-87296857D01*
X131139380Y-87106380D01*
X131091761Y-87011142D01*
X131044142Y-86963523D01*
X130948904Y-86915904D01*
X130758428Y-86915904D01*
X130663190Y-86963523D01*
X130615571Y-87011142D01*
X130567952Y-87106380D01*
X137635419Y-78251038D02*
X137587800Y-78346276D01*
X137492561Y-78441514D01*
X137349704Y-78584371D01*
X137302085Y-78679609D01*
X137302085Y-78774847D01*
X137540180Y-78727228D02*
X137492561Y-78822466D01*
X137397323Y-78917704D01*
X137206847Y-78965323D01*
X136873514Y-78965323D01*
X136683038Y-78917704D01*
X136587800Y-78822466D01*
X136540180Y-78727228D01*
X136540180Y-78536752D01*
X136587800Y-78441514D01*
X136683038Y-78346276D01*
X136873514Y-78298657D01*
X137206847Y-78298657D01*
X137397323Y-78346276D01*
X137492561Y-78441514D01*
X137540180Y-78536752D01*
X137540180Y-78727228D01*
X136540180Y-77441514D02*
X136540180Y-77631990D01*
X136587800Y-77727228D01*
X136635419Y-77774847D01*
X136778276Y-77870085D01*
X136968752Y-77917704D01*
X137349704Y-77917704D01*
X137444942Y-77870085D01*
X137492561Y-77822466D01*
X137540180Y-77727228D01*
X137540180Y-77536752D01*
X137492561Y-77441514D01*
X137444942Y-77393895D01*
X137349704Y-77346276D01*
X137111609Y-77346276D01*
X137016371Y-77393895D01*
X136968752Y-77441514D01*
X136921133Y-77536752D01*
X136921133Y-77727228D01*
X136968752Y-77822466D01*
X137016371Y-77870085D01*
X137111609Y-77917704D01*
X130666371Y-80012942D02*
X130713990Y-79870085D01*
X130761609Y-79822466D01*
X130856847Y-79774847D01*
X130999704Y-79774847D01*
X131094942Y-79822466D01*
X131142561Y-79870085D01*
X131190180Y-79965323D01*
X131190180Y-80346276D01*
X130190180Y-80346276D01*
X130190180Y-80012942D01*
X130237800Y-79917704D01*
X130285419Y-79870085D01*
X130380657Y-79822466D01*
X130475895Y-79822466D01*
X130571133Y-79870085D01*
X130618752Y-79917704D01*
X130666371Y-80012942D01*
X130666371Y-80346276D01*
X131094942Y-78774847D02*
X131142561Y-78822466D01*
X131190180Y-78965323D01*
X131190180Y-79060561D01*
X131142561Y-79203419D01*
X131047323Y-79298657D01*
X130952085Y-79346276D01*
X130761609Y-79393895D01*
X130618752Y-79393895D01*
X130428276Y-79346276D01*
X130333038Y-79298657D01*
X130237800Y-79203419D01*
X130190180Y-79060561D01*
X130190180Y-78965323D01*
X130237800Y-78822466D01*
X130285419Y-78774847D01*
X130190180Y-77870085D02*
X130190180Y-78346276D01*
X130666371Y-78393895D01*
X130618752Y-78346276D01*
X130571133Y-78251038D01*
X130571133Y-78012942D01*
X130618752Y-77917704D01*
X130666371Y-77870085D01*
X130761609Y-77822466D01*
X130999704Y-77822466D01*
X131094942Y-77870085D01*
X131142561Y-77917704D01*
X131190180Y-78012942D01*
X131190180Y-78251038D01*
X131142561Y-78346276D01*
X131094942Y-78393895D01*
X130523514Y-76965323D02*
X131190180Y-76965323D01*
X130142561Y-77203419D02*
X130856847Y-77441514D01*
X130856847Y-76822466D01*
X130618752Y-76298657D02*
X130571133Y-76393895D01*
X130523514Y-76441514D01*
X130428276Y-76489133D01*
X130380657Y-76489133D01*
X130285419Y-76441514D01*
X130237800Y-76393895D01*
X130190180Y-76298657D01*
X130190180Y-76108180D01*
X130237800Y-76012942D01*
X130285419Y-75965323D01*
X130380657Y-75917704D01*
X130428276Y-75917704D01*
X130523514Y-75965323D01*
X130571133Y-76012942D01*
X130618752Y-76108180D01*
X130618752Y-76298657D01*
X130666371Y-76393895D01*
X130713990Y-76441514D01*
X130809228Y-76489133D01*
X130999704Y-76489133D01*
X131094942Y-76441514D01*
X131142561Y-76393895D01*
X131190180Y-76298657D01*
X131190180Y-76108180D01*
X131142561Y-76012942D01*
X131094942Y-75965323D01*
X130999704Y-75917704D01*
X130809228Y-75917704D01*
X130713990Y-75965323D01*
X130666371Y-76012942D01*
X130618752Y-76108180D01*
X137635419Y-67049638D02*
X137587800Y-67144876D01*
X137492561Y-67240114D01*
X137349704Y-67382971D01*
X137302085Y-67478209D01*
X137302085Y-67573447D01*
X137540180Y-67525828D02*
X137492561Y-67621066D01*
X137397323Y-67716304D01*
X137206847Y-67763923D01*
X136873514Y-67763923D01*
X136683038Y-67716304D01*
X136587800Y-67621066D01*
X136540180Y-67525828D01*
X136540180Y-67335352D01*
X136587800Y-67240114D01*
X136683038Y-67144876D01*
X136873514Y-67097257D01*
X137206847Y-67097257D01*
X137397323Y-67144876D01*
X137492561Y-67240114D01*
X137540180Y-67335352D01*
X137540180Y-67525828D01*
X136540180Y-66192495D02*
X136540180Y-66668685D01*
X137016371Y-66716304D01*
X136968752Y-66668685D01*
X136921133Y-66573447D01*
X136921133Y-66335352D01*
X136968752Y-66240114D01*
X137016371Y-66192495D01*
X137111609Y-66144876D01*
X137349704Y-66144876D01*
X137444942Y-66192495D01*
X137492561Y-66240114D01*
X137540180Y-66335352D01*
X137540180Y-66573447D01*
X137492561Y-66668685D01*
X137444942Y-66716304D01*
X130666371Y-68811542D02*
X130713990Y-68668685D01*
X130761609Y-68621066D01*
X130856847Y-68573447D01*
X130999704Y-68573447D01*
X131094942Y-68621066D01*
X131142561Y-68668685D01*
X131190180Y-68763923D01*
X131190180Y-69144876D01*
X130190180Y-69144876D01*
X130190180Y-68811542D01*
X130237800Y-68716304D01*
X130285419Y-68668685D01*
X130380657Y-68621066D01*
X130475895Y-68621066D01*
X130571133Y-68668685D01*
X130618752Y-68716304D01*
X130666371Y-68811542D01*
X130666371Y-69144876D01*
X131094942Y-67573447D02*
X131142561Y-67621066D01*
X131190180Y-67763923D01*
X131190180Y-67859161D01*
X131142561Y-68002019D01*
X131047323Y-68097257D01*
X130952085Y-68144876D01*
X130761609Y-68192495D01*
X130618752Y-68192495D01*
X130428276Y-68144876D01*
X130333038Y-68097257D01*
X130237800Y-68002019D01*
X130190180Y-67859161D01*
X130190180Y-67763923D01*
X130237800Y-67621066D01*
X130285419Y-67573447D01*
X130190180Y-66668685D02*
X130190180Y-67144876D01*
X130666371Y-67192495D01*
X130618752Y-67144876D01*
X130571133Y-67049638D01*
X130571133Y-66811542D01*
X130618752Y-66716304D01*
X130666371Y-66668685D01*
X130761609Y-66621066D01*
X130999704Y-66621066D01*
X131094942Y-66668685D01*
X131142561Y-66716304D01*
X131190180Y-66811542D01*
X131190180Y-67049638D01*
X131142561Y-67144876D01*
X131094942Y-67192495D01*
X130523514Y-65763923D02*
X131190180Y-65763923D01*
X130142561Y-66002019D02*
X130856847Y-66240114D01*
X130856847Y-65621066D01*
X130618752Y-65097257D02*
X130571133Y-65192495D01*
X130523514Y-65240114D01*
X130428276Y-65287733D01*
X130380657Y-65287733D01*
X130285419Y-65240114D01*
X130237800Y-65192495D01*
X130190180Y-65097257D01*
X130190180Y-64906780D01*
X130237800Y-64811542D01*
X130285419Y-64763923D01*
X130380657Y-64716304D01*
X130428276Y-64716304D01*
X130523514Y-64763923D01*
X130571133Y-64811542D01*
X130618752Y-64906780D01*
X130618752Y-65097257D01*
X130666371Y-65192495D01*
X130713990Y-65240114D01*
X130809228Y-65287733D01*
X130999704Y-65287733D01*
X131094942Y-65240114D01*
X131142561Y-65192495D01*
X131190180Y-65097257D01*
X131190180Y-64906780D01*
X131142561Y-64811542D01*
X131094942Y-64763923D01*
X130999704Y-64716304D01*
X130809228Y-64716304D01*
X130713990Y-64763923D01*
X130666371Y-64811542D01*
X130618752Y-64906780D01*
X117772619Y-93745038D02*
X117725000Y-93840276D01*
X117629761Y-93935514D01*
X117486904Y-94078371D01*
X117439285Y-94173609D01*
X117439285Y-94268847D01*
X117677380Y-94221228D02*
X117629761Y-94316466D01*
X117534523Y-94411704D01*
X117344047Y-94459323D01*
X117010714Y-94459323D01*
X116820238Y-94411704D01*
X116725000Y-94316466D01*
X116677380Y-94221228D01*
X116677380Y-94030752D01*
X116725000Y-93935514D01*
X116820238Y-93840276D01*
X117010714Y-93792657D01*
X117344047Y-93792657D01*
X117534523Y-93840276D01*
X117629761Y-93935514D01*
X117677380Y-94030752D01*
X117677380Y-94221228D01*
X117010714Y-92935514D02*
X117677380Y-92935514D01*
X116629761Y-93173609D02*
X117344047Y-93411704D01*
X117344047Y-92792657D01*
X110803571Y-95506942D02*
X110851190Y-95364085D01*
X110898809Y-95316466D01*
X110994047Y-95268847D01*
X111136904Y-95268847D01*
X111232142Y-95316466D01*
X111279761Y-95364085D01*
X111327380Y-95459323D01*
X111327380Y-95840276D01*
X110327380Y-95840276D01*
X110327380Y-95506942D01*
X110375000Y-95411704D01*
X110422619Y-95364085D01*
X110517857Y-95316466D01*
X110613095Y-95316466D01*
X110708333Y-95364085D01*
X110755952Y-95411704D01*
X110803571Y-95506942D01*
X110803571Y-95840276D01*
X111232142Y-94268847D02*
X111279761Y-94316466D01*
X111327380Y-94459323D01*
X111327380Y-94554561D01*
X111279761Y-94697419D01*
X111184523Y-94792657D01*
X111089285Y-94840276D01*
X110898809Y-94887895D01*
X110755952Y-94887895D01*
X110565476Y-94840276D01*
X110470238Y-94792657D01*
X110375000Y-94697419D01*
X110327380Y-94554561D01*
X110327380Y-94459323D01*
X110375000Y-94316466D01*
X110422619Y-94268847D01*
X110327380Y-93364085D02*
X110327380Y-93840276D01*
X110803571Y-93887895D01*
X110755952Y-93840276D01*
X110708333Y-93745038D01*
X110708333Y-93506942D01*
X110755952Y-93411704D01*
X110803571Y-93364085D01*
X110898809Y-93316466D01*
X111136904Y-93316466D01*
X111232142Y-93364085D01*
X111279761Y-93411704D01*
X111327380Y-93506942D01*
X111327380Y-93745038D01*
X111279761Y-93840276D01*
X111232142Y-93887895D01*
X110660714Y-92459323D02*
X111327380Y-92459323D01*
X110279761Y-92697419D02*
X110994047Y-92935514D01*
X110994047Y-92316466D01*
X110755952Y-91792657D02*
X110708333Y-91887895D01*
X110660714Y-91935514D01*
X110565476Y-91983133D01*
X110517857Y-91983133D01*
X110422619Y-91935514D01*
X110375000Y-91887895D01*
X110327380Y-91792657D01*
X110327380Y-91602180D01*
X110375000Y-91506942D01*
X110422619Y-91459323D01*
X110517857Y-91411704D01*
X110565476Y-91411704D01*
X110660714Y-91459323D01*
X110708333Y-91506942D01*
X110755952Y-91602180D01*
X110755952Y-91792657D01*
X110803571Y-91887895D01*
X110851190Y-91935514D01*
X110946428Y-91983133D01*
X111136904Y-91983133D01*
X111232142Y-91935514D01*
X111279761Y-91887895D01*
X111327380Y-91792657D01*
X111327380Y-91602180D01*
X111279761Y-91506942D01*
X111232142Y-91459323D01*
X111136904Y-91411704D01*
X110946428Y-91411704D01*
X110851190Y-91459323D01*
X110803571Y-91506942D01*
X110755952Y-91602180D01*
X106215619Y-76676238D02*
X106168000Y-76771476D01*
X106072761Y-76866714D01*
X105929904Y-77009571D01*
X105882285Y-77104809D01*
X105882285Y-77200047D01*
X106120380Y-77152428D02*
X106072761Y-77247666D01*
X105977523Y-77342904D01*
X105787047Y-77390523D01*
X105453714Y-77390523D01*
X105263238Y-77342904D01*
X105168000Y-77247666D01*
X105120380Y-77152428D01*
X105120380Y-76961952D01*
X105168000Y-76866714D01*
X105263238Y-76771476D01*
X105453714Y-76723857D01*
X105787047Y-76723857D01*
X105977523Y-76771476D01*
X106072761Y-76866714D01*
X106120380Y-76961952D01*
X106120380Y-77152428D01*
X105120380Y-76390523D02*
X105120380Y-75771476D01*
X105501333Y-76104809D01*
X105501333Y-75961952D01*
X105548952Y-75866714D01*
X105596571Y-75819095D01*
X105691809Y-75771476D01*
X105929904Y-75771476D01*
X106025142Y-75819095D01*
X106072761Y-75866714D01*
X106120380Y-75961952D01*
X106120380Y-76247666D01*
X106072761Y-76342904D01*
X106025142Y-76390523D01*
X99246571Y-78438142D02*
X99294190Y-78295285D01*
X99341809Y-78247666D01*
X99437047Y-78200047D01*
X99579904Y-78200047D01*
X99675142Y-78247666D01*
X99722761Y-78295285D01*
X99770380Y-78390523D01*
X99770380Y-78771476D01*
X98770380Y-78771476D01*
X98770380Y-78438142D01*
X98818000Y-78342904D01*
X98865619Y-78295285D01*
X98960857Y-78247666D01*
X99056095Y-78247666D01*
X99151333Y-78295285D01*
X99198952Y-78342904D01*
X99246571Y-78438142D01*
X99246571Y-78771476D01*
X99675142Y-77200047D02*
X99722761Y-77247666D01*
X99770380Y-77390523D01*
X99770380Y-77485761D01*
X99722761Y-77628619D01*
X99627523Y-77723857D01*
X99532285Y-77771476D01*
X99341809Y-77819095D01*
X99198952Y-77819095D01*
X99008476Y-77771476D01*
X98913238Y-77723857D01*
X98818000Y-77628619D01*
X98770380Y-77485761D01*
X98770380Y-77390523D01*
X98818000Y-77247666D01*
X98865619Y-77200047D01*
X98770380Y-76295285D02*
X98770380Y-76771476D01*
X99246571Y-76819095D01*
X99198952Y-76771476D01*
X99151333Y-76676238D01*
X99151333Y-76438142D01*
X99198952Y-76342904D01*
X99246571Y-76295285D01*
X99341809Y-76247666D01*
X99579904Y-76247666D01*
X99675142Y-76295285D01*
X99722761Y-76342904D01*
X99770380Y-76438142D01*
X99770380Y-76676238D01*
X99722761Y-76771476D01*
X99675142Y-76819095D01*
X99103714Y-75390523D02*
X99770380Y-75390523D01*
X98722761Y-75628619D02*
X99437047Y-75866714D01*
X99437047Y-75247666D01*
X99198952Y-74723857D02*
X99151333Y-74819095D01*
X99103714Y-74866714D01*
X99008476Y-74914333D01*
X98960857Y-74914333D01*
X98865619Y-74866714D01*
X98818000Y-74819095D01*
X98770380Y-74723857D01*
X98770380Y-74533380D01*
X98818000Y-74438142D01*
X98865619Y-74390523D01*
X98960857Y-74342904D01*
X99008476Y-74342904D01*
X99103714Y-74390523D01*
X99151333Y-74438142D01*
X99198952Y-74533380D01*
X99198952Y-74723857D01*
X99246571Y-74819095D01*
X99294190Y-74866714D01*
X99389428Y-74914333D01*
X99579904Y-74914333D01*
X99675142Y-74866714D01*
X99722761Y-74819095D01*
X99770380Y-74723857D01*
X99770380Y-74533380D01*
X99722761Y-74438142D01*
X99675142Y-74390523D01*
X99579904Y-74342904D01*
X99389428Y-74342904D01*
X99294190Y-74390523D01*
X99246571Y-74438142D01*
X99198952Y-74533380D01*
X105936219Y-65881238D02*
X105888600Y-65976476D01*
X105793361Y-66071714D01*
X105650504Y-66214571D01*
X105602885Y-66309809D01*
X105602885Y-66405047D01*
X105840980Y-66357428D02*
X105793361Y-66452666D01*
X105698123Y-66547904D01*
X105507647Y-66595523D01*
X105174314Y-66595523D01*
X104983838Y-66547904D01*
X104888600Y-66452666D01*
X104840980Y-66357428D01*
X104840980Y-66166952D01*
X104888600Y-66071714D01*
X104983838Y-65976476D01*
X105174314Y-65928857D01*
X105507647Y-65928857D01*
X105698123Y-65976476D01*
X105793361Y-66071714D01*
X105840980Y-66166952D01*
X105840980Y-66357428D01*
X104936219Y-65547904D02*
X104888600Y-65500285D01*
X104840980Y-65405047D01*
X104840980Y-65166952D01*
X104888600Y-65071714D01*
X104936219Y-65024095D01*
X105031457Y-64976476D01*
X105126695Y-64976476D01*
X105269552Y-65024095D01*
X105840980Y-65595523D01*
X105840980Y-64976476D01*
X98967171Y-67643142D02*
X99014790Y-67500285D01*
X99062409Y-67452666D01*
X99157647Y-67405047D01*
X99300504Y-67405047D01*
X99395742Y-67452666D01*
X99443361Y-67500285D01*
X99490980Y-67595523D01*
X99490980Y-67976476D01*
X98490980Y-67976476D01*
X98490980Y-67643142D01*
X98538600Y-67547904D01*
X98586219Y-67500285D01*
X98681457Y-67452666D01*
X98776695Y-67452666D01*
X98871933Y-67500285D01*
X98919552Y-67547904D01*
X98967171Y-67643142D01*
X98967171Y-67976476D01*
X99395742Y-66405047D02*
X99443361Y-66452666D01*
X99490980Y-66595523D01*
X99490980Y-66690761D01*
X99443361Y-66833619D01*
X99348123Y-66928857D01*
X99252885Y-66976476D01*
X99062409Y-67024095D01*
X98919552Y-67024095D01*
X98729076Y-66976476D01*
X98633838Y-66928857D01*
X98538600Y-66833619D01*
X98490980Y-66690761D01*
X98490980Y-66595523D01*
X98538600Y-66452666D01*
X98586219Y-66405047D01*
X98490980Y-65500285D02*
X98490980Y-65976476D01*
X98967171Y-66024095D01*
X98919552Y-65976476D01*
X98871933Y-65881238D01*
X98871933Y-65643142D01*
X98919552Y-65547904D01*
X98967171Y-65500285D01*
X99062409Y-65452666D01*
X99300504Y-65452666D01*
X99395742Y-65500285D01*
X99443361Y-65547904D01*
X99490980Y-65643142D01*
X99490980Y-65881238D01*
X99443361Y-65976476D01*
X99395742Y-66024095D01*
X98824314Y-64595523D02*
X99490980Y-64595523D01*
X98443361Y-64833619D02*
X99157647Y-65071714D01*
X99157647Y-64452666D01*
X98919552Y-63928857D02*
X98871933Y-64024095D01*
X98824314Y-64071714D01*
X98729076Y-64119333D01*
X98681457Y-64119333D01*
X98586219Y-64071714D01*
X98538600Y-64024095D01*
X98490980Y-63928857D01*
X98490980Y-63738380D01*
X98538600Y-63643142D01*
X98586219Y-63595523D01*
X98681457Y-63547904D01*
X98729076Y-63547904D01*
X98824314Y-63595523D01*
X98871933Y-63643142D01*
X98919552Y-63738380D01*
X98919552Y-63928857D01*
X98967171Y-64024095D01*
X99014790Y-64071714D01*
X99110028Y-64119333D01*
X99300504Y-64119333D01*
X99395742Y-64071714D01*
X99443361Y-64024095D01*
X99490980Y-63928857D01*
X99490980Y-63738380D01*
X99443361Y-63643142D01*
X99395742Y-63595523D01*
X99300504Y-63547904D01*
X99110028Y-63547904D01*
X99014790Y-63595523D01*
X98967171Y-63643142D01*
X98919552Y-63738380D01*
X101846819Y-90747838D02*
X101799200Y-90843076D01*
X101703961Y-90938314D01*
X101561104Y-91081171D01*
X101513485Y-91176409D01*
X101513485Y-91271647D01*
X101751580Y-91224028D02*
X101703961Y-91319266D01*
X101608723Y-91414504D01*
X101418247Y-91462123D01*
X101084914Y-91462123D01*
X100894438Y-91414504D01*
X100799200Y-91319266D01*
X100751580Y-91224028D01*
X100751580Y-91033552D01*
X100799200Y-90938314D01*
X100894438Y-90843076D01*
X101084914Y-90795457D01*
X101418247Y-90795457D01*
X101608723Y-90843076D01*
X101703961Y-90938314D01*
X101751580Y-91033552D01*
X101751580Y-91224028D01*
X101751580Y-89843076D02*
X101751580Y-90414504D01*
X101751580Y-90128790D02*
X100751580Y-90128790D01*
X100894438Y-90224028D01*
X100989676Y-90319266D01*
X101037295Y-90414504D01*
X94877771Y-92509742D02*
X94925390Y-92366885D01*
X94973009Y-92319266D01*
X95068247Y-92271647D01*
X95211104Y-92271647D01*
X95306342Y-92319266D01*
X95353961Y-92366885D01*
X95401580Y-92462123D01*
X95401580Y-92843076D01*
X94401580Y-92843076D01*
X94401580Y-92509742D01*
X94449200Y-92414504D01*
X94496819Y-92366885D01*
X94592057Y-92319266D01*
X94687295Y-92319266D01*
X94782533Y-92366885D01*
X94830152Y-92414504D01*
X94877771Y-92509742D01*
X94877771Y-92843076D01*
X95306342Y-91271647D02*
X95353961Y-91319266D01*
X95401580Y-91462123D01*
X95401580Y-91557361D01*
X95353961Y-91700219D01*
X95258723Y-91795457D01*
X95163485Y-91843076D01*
X94973009Y-91890695D01*
X94830152Y-91890695D01*
X94639676Y-91843076D01*
X94544438Y-91795457D01*
X94449200Y-91700219D01*
X94401580Y-91557361D01*
X94401580Y-91462123D01*
X94449200Y-91319266D01*
X94496819Y-91271647D01*
X94401580Y-90366885D02*
X94401580Y-90843076D01*
X94877771Y-90890695D01*
X94830152Y-90843076D01*
X94782533Y-90747838D01*
X94782533Y-90509742D01*
X94830152Y-90414504D01*
X94877771Y-90366885D01*
X94973009Y-90319266D01*
X95211104Y-90319266D01*
X95306342Y-90366885D01*
X95353961Y-90414504D01*
X95401580Y-90509742D01*
X95401580Y-90747838D01*
X95353961Y-90843076D01*
X95306342Y-90890695D01*
X94734914Y-89462123D02*
X95401580Y-89462123D01*
X94353961Y-89700219D02*
X95068247Y-89938314D01*
X95068247Y-89319266D01*
X94830152Y-88795457D02*
X94782533Y-88890695D01*
X94734914Y-88938314D01*
X94639676Y-88985933D01*
X94592057Y-88985933D01*
X94496819Y-88938314D01*
X94449200Y-88890695D01*
X94401580Y-88795457D01*
X94401580Y-88604980D01*
X94449200Y-88509742D01*
X94496819Y-88462123D01*
X94592057Y-88414504D01*
X94639676Y-88414504D01*
X94734914Y-88462123D01*
X94782533Y-88509742D01*
X94830152Y-88604980D01*
X94830152Y-88795457D01*
X94877771Y-88890695D01*
X94925390Y-88938314D01*
X95020628Y-88985933D01*
X95211104Y-88985933D01*
X95306342Y-88938314D01*
X95353961Y-88890695D01*
X95401580Y-88795457D01*
X95401580Y-88604980D01*
X95353961Y-88509742D01*
X95306342Y-88462123D01*
X95211104Y-88414504D01*
X95020628Y-88414504D01*
X94925390Y-88462123D01*
X94877771Y-88509742D01*
X94830152Y-88604980D01*
X90751066Y-81348780D02*
X90751066Y-82063066D01*
X90703447Y-82205923D01*
X90608209Y-82301161D01*
X90465352Y-82348780D01*
X90370114Y-82348780D01*
X91132019Y-81348780D02*
X91751066Y-81348780D01*
X91417733Y-81729733D01*
X91560590Y-81729733D01*
X91655828Y-81777352D01*
X91703447Y-81824971D01*
X91751066Y-81920209D01*
X91751066Y-82158304D01*
X91703447Y-82253542D01*
X91655828Y-82301161D01*
X91560590Y-82348780D01*
X91274876Y-82348780D01*
X91179638Y-82301161D01*
X91132019Y-82253542D01*
X88774876Y-89860380D02*
X88774876Y-88860380D01*
X89155828Y-88860380D01*
X89251066Y-88908000D01*
X89298685Y-88955619D01*
X89346304Y-89050857D01*
X89346304Y-89193714D01*
X89298685Y-89288952D01*
X89251066Y-89336571D01*
X89155828Y-89384190D01*
X88774876Y-89384190D01*
X89965352Y-88860380D02*
X90155828Y-88860380D01*
X90251066Y-88908000D01*
X90346304Y-89003238D01*
X90393923Y-89193714D01*
X90393923Y-89527047D01*
X90346304Y-89717523D01*
X90251066Y-89812761D01*
X90155828Y-89860380D01*
X89965352Y-89860380D01*
X89870114Y-89812761D01*
X89774876Y-89717523D01*
X89727257Y-89527047D01*
X89727257Y-89193714D01*
X89774876Y-89003238D01*
X89870114Y-88908000D01*
X89965352Y-88860380D01*
X90727257Y-88860380D02*
X90965352Y-89860380D01*
X91155828Y-89146095D01*
X91346304Y-89860380D01*
X91584400Y-88860380D01*
X91965352Y-89336571D02*
X92298685Y-89336571D01*
X92441542Y-89860380D02*
X91965352Y-89860380D01*
X91965352Y-88860380D01*
X92441542Y-88860380D01*
X93441542Y-89860380D02*
X93108209Y-89384190D01*
X92870114Y-89860380D02*
X92870114Y-88860380D01*
X93251066Y-88860380D01*
X93346304Y-88908000D01*
X93393923Y-88955619D01*
X93441542Y-89050857D01*
X93441542Y-89193714D01*
X93393923Y-89288952D01*
X93346304Y-89336571D01*
X93251066Y-89384190D01*
X92870114Y-89384190D01*
X149272666Y-67016380D02*
X149272666Y-67730666D01*
X149225047Y-67873523D01*
X149129809Y-67968761D01*
X148986952Y-68016380D01*
X148891714Y-68016380D01*
X149701238Y-67111619D02*
X149748857Y-67064000D01*
X149844095Y-67016380D01*
X150082190Y-67016380D01*
X150177428Y-67064000D01*
X150225047Y-67111619D01*
X150272666Y-67206857D01*
X150272666Y-67302095D01*
X150225047Y-67444952D01*
X149653619Y-68016380D01*
X150272666Y-68016380D01*
X147106000Y-69794380D02*
X146772666Y-69318190D01*
X146534571Y-69794380D02*
X146534571Y-68794380D01*
X146915523Y-68794380D01*
X147010761Y-68842000D01*
X147058380Y-68889619D01*
X147106000Y-68984857D01*
X147106000Y-69127714D01*
X147058380Y-69222952D01*
X147010761Y-69270571D01*
X146915523Y-69318190D01*
X146534571Y-69318190D01*
X148058380Y-68842000D02*
X147963142Y-68794380D01*
X147820285Y-68794380D01*
X147677428Y-68842000D01*
X147582190Y-68937238D01*
X147534571Y-69032476D01*
X147486952Y-69222952D01*
X147486952Y-69365809D01*
X147534571Y-69556285D01*
X147582190Y-69651523D01*
X147677428Y-69746761D01*
X147820285Y-69794380D01*
X147915523Y-69794380D01*
X148058380Y-69746761D01*
X148106000Y-69699142D01*
X148106000Y-69365809D01*
X147915523Y-69365809D01*
X148867904Y-69270571D02*
X149010761Y-69318190D01*
X149058380Y-69365809D01*
X149106000Y-69461047D01*
X149106000Y-69603904D01*
X149058380Y-69699142D01*
X149010761Y-69746761D01*
X148915523Y-69794380D01*
X148534571Y-69794380D01*
X148534571Y-68794380D01*
X148867904Y-68794380D01*
X148963142Y-68842000D01*
X149010761Y-68889619D01*
X149058380Y-68984857D01*
X149058380Y-69080095D01*
X149010761Y-69175333D01*
X148963142Y-69222952D01*
X148867904Y-69270571D01*
X148534571Y-69270571D01*
X150486952Y-68794380D02*
X150677428Y-68794380D01*
X150772666Y-68842000D01*
X150867904Y-68937238D01*
X150915523Y-69127714D01*
X150915523Y-69461047D01*
X150867904Y-69651523D01*
X150772666Y-69746761D01*
X150677428Y-69794380D01*
X150486952Y-69794380D01*
X150391714Y-69746761D01*
X150296476Y-69651523D01*
X150248857Y-69461047D01*
X150248857Y-69127714D01*
X150296476Y-68937238D01*
X150391714Y-68842000D01*
X150486952Y-68794380D01*
X151344095Y-68794380D02*
X151344095Y-69603904D01*
X151391714Y-69699142D01*
X151439333Y-69746761D01*
X151534571Y-69794380D01*
X151725047Y-69794380D01*
X151820285Y-69746761D01*
X151867904Y-69699142D01*
X151915523Y-69603904D01*
X151915523Y-68794380D01*
X152248857Y-68794380D02*
X152820285Y-68794380D01*
X152534571Y-69794380D02*
X152534571Y-68794380D01*
X90700266Y-66997780D02*
X90700266Y-67712066D01*
X90652647Y-67854923D01*
X90557409Y-67950161D01*
X90414552Y-67997780D01*
X90319314Y-67997780D01*
X91700266Y-67997780D02*
X91128838Y-67997780D01*
X91414552Y-67997780D02*
X91414552Y-66997780D01*
X91319314Y-67140638D01*
X91224076Y-67235876D01*
X91128838Y-67283495D01*
X88938361Y-79986190D02*
X88938361Y-80462380D01*
X88605028Y-79462380D02*
X88938361Y-79986190D01*
X89271695Y-79462380D01*
X89605028Y-79462380D02*
X89605028Y-80271904D01*
X89652647Y-80367142D01*
X89700266Y-80414761D01*
X89795504Y-80462380D01*
X89985980Y-80462380D01*
X90081219Y-80414761D01*
X90128838Y-80367142D01*
X90176457Y-80271904D01*
X90176457Y-79462380D01*
X90509790Y-79462380D02*
X90843123Y-80462380D01*
X91176457Y-79462380D01*
X92271695Y-80462380D02*
X92271695Y-79462380D01*
X92747885Y-80462380D02*
X92747885Y-79462380D01*
X93319314Y-80462380D01*
X93319314Y-79462380D01*
X145948942Y-111275266D02*
X145996561Y-111322885D01*
X146044180Y-111465742D01*
X146044180Y-111560980D01*
X145996561Y-111703838D01*
X145901323Y-111799076D01*
X145806085Y-111846695D01*
X145615609Y-111894314D01*
X145472752Y-111894314D01*
X145282276Y-111846695D01*
X145187038Y-111799076D01*
X145091800Y-111703838D01*
X145044180Y-111560980D01*
X145044180Y-111465742D01*
X145091800Y-111322885D01*
X145139419Y-111275266D01*
X146044180Y-110799076D02*
X146044180Y-110608600D01*
X145996561Y-110513361D01*
X145948942Y-110465742D01*
X145806085Y-110370504D01*
X145615609Y-110322885D01*
X145234657Y-110322885D01*
X145139419Y-110370504D01*
X145091800Y-110418123D01*
X145044180Y-110513361D01*
X145044180Y-110703838D01*
X145091800Y-110799076D01*
X145139419Y-110846695D01*
X145234657Y-110894314D01*
X145472752Y-110894314D01*
X145567990Y-110846695D01*
X145615609Y-110799076D01*
X145663228Y-110703838D01*
X145663228Y-110513361D01*
X145615609Y-110418123D01*
X145567990Y-110370504D01*
X145472752Y-110322885D01*
X142744180Y-112656219D02*
X142744180Y-113227647D01*
X142744180Y-112941933D02*
X141744180Y-112941933D01*
X141887038Y-113037171D01*
X141982276Y-113132409D01*
X142029895Y-113227647D01*
X141744180Y-112037171D02*
X141744180Y-111941933D01*
X141791800Y-111846695D01*
X141839419Y-111799076D01*
X141934657Y-111751457D01*
X142125133Y-111703838D01*
X142363228Y-111703838D01*
X142553704Y-111751457D01*
X142648942Y-111799076D01*
X142696561Y-111846695D01*
X142744180Y-111941933D01*
X142744180Y-112037171D01*
X142696561Y-112132409D01*
X142648942Y-112180028D01*
X142553704Y-112227647D01*
X142363228Y-112275266D01*
X142125133Y-112275266D01*
X141934657Y-112227647D01*
X141839419Y-112180028D01*
X141791800Y-112132409D01*
X141744180Y-112037171D01*
X141744180Y-111084790D02*
X141744180Y-110989552D01*
X141791800Y-110894314D01*
X141839419Y-110846695D01*
X141934657Y-110799076D01*
X142125133Y-110751457D01*
X142363228Y-110751457D01*
X142553704Y-110799076D01*
X142648942Y-110846695D01*
X142696561Y-110894314D01*
X142744180Y-110989552D01*
X142744180Y-111084790D01*
X142696561Y-111180028D01*
X142648942Y-111227647D01*
X142553704Y-111275266D01*
X142363228Y-111322885D01*
X142125133Y-111322885D01*
X141934657Y-111275266D01*
X141839419Y-111227647D01*
X141791800Y-111180028D01*
X141744180Y-111084790D01*
X142077514Y-110322885D02*
X142744180Y-110322885D01*
X142172752Y-110322885D02*
X142125133Y-110275266D01*
X142077514Y-110180028D01*
X142077514Y-110037171D01*
X142125133Y-109941933D01*
X142220371Y-109894314D01*
X142744180Y-109894314D01*
X142220371Y-109084790D02*
X142220371Y-109418123D01*
X142744180Y-109418123D02*
X141744180Y-109418123D01*
X141744180Y-108941933D01*
X120548942Y-111529266D02*
X120596561Y-111576885D01*
X120644180Y-111719742D01*
X120644180Y-111814980D01*
X120596561Y-111957838D01*
X120501323Y-112053076D01*
X120406085Y-112100695D01*
X120215609Y-112148314D01*
X120072752Y-112148314D01*
X119882276Y-112100695D01*
X119787038Y-112053076D01*
X119691800Y-111957838D01*
X119644180Y-111814980D01*
X119644180Y-111719742D01*
X119691800Y-111576885D01*
X119739419Y-111529266D01*
X120072752Y-110957838D02*
X120025133Y-111053076D01*
X119977514Y-111100695D01*
X119882276Y-111148314D01*
X119834657Y-111148314D01*
X119739419Y-111100695D01*
X119691800Y-111053076D01*
X119644180Y-110957838D01*
X119644180Y-110767361D01*
X119691800Y-110672123D01*
X119739419Y-110624504D01*
X119834657Y-110576885D01*
X119882276Y-110576885D01*
X119977514Y-110624504D01*
X120025133Y-110672123D01*
X120072752Y-110767361D01*
X120072752Y-110957838D01*
X120120371Y-111053076D01*
X120167990Y-111100695D01*
X120263228Y-111148314D01*
X120453704Y-111148314D01*
X120548942Y-111100695D01*
X120596561Y-111053076D01*
X120644180Y-110957838D01*
X120644180Y-110767361D01*
X120596561Y-110672123D01*
X120548942Y-110624504D01*
X120453704Y-110576885D01*
X120263228Y-110576885D01*
X120167990Y-110624504D01*
X120120371Y-110672123D01*
X120072752Y-110767361D01*
X117344180Y-112910219D02*
X117344180Y-113481647D01*
X117344180Y-113195933D02*
X116344180Y-113195933D01*
X116487038Y-113291171D01*
X116582276Y-113386409D01*
X116629895Y-113481647D01*
X116344180Y-112291171D02*
X116344180Y-112195933D01*
X116391800Y-112100695D01*
X116439419Y-112053076D01*
X116534657Y-112005457D01*
X116725133Y-111957838D01*
X116963228Y-111957838D01*
X117153704Y-112005457D01*
X117248942Y-112053076D01*
X117296561Y-112100695D01*
X117344180Y-112195933D01*
X117344180Y-112291171D01*
X117296561Y-112386409D01*
X117248942Y-112434028D01*
X117153704Y-112481647D01*
X116963228Y-112529266D01*
X116725133Y-112529266D01*
X116534657Y-112481647D01*
X116439419Y-112434028D01*
X116391800Y-112386409D01*
X116344180Y-112291171D01*
X116344180Y-111338790D02*
X116344180Y-111243552D01*
X116391800Y-111148314D01*
X116439419Y-111100695D01*
X116534657Y-111053076D01*
X116725133Y-111005457D01*
X116963228Y-111005457D01*
X117153704Y-111053076D01*
X117248942Y-111100695D01*
X117296561Y-111148314D01*
X117344180Y-111243552D01*
X117344180Y-111338790D01*
X117296561Y-111434028D01*
X117248942Y-111481647D01*
X117153704Y-111529266D01*
X116963228Y-111576885D01*
X116725133Y-111576885D01*
X116534657Y-111529266D01*
X116439419Y-111481647D01*
X116391800Y-111434028D01*
X116344180Y-111338790D01*
X116677514Y-110576885D02*
X117344180Y-110576885D01*
X116772752Y-110576885D02*
X116725133Y-110529266D01*
X116677514Y-110434028D01*
X116677514Y-110291171D01*
X116725133Y-110195933D01*
X116820371Y-110148314D01*
X117344180Y-110148314D01*
X116820371Y-109338790D02*
X116820371Y-109672123D01*
X117344180Y-109672123D02*
X116344180Y-109672123D01*
X116344180Y-109195933D01*
X139126933Y-74574942D02*
X139079314Y-74622561D01*
X138936457Y-74670180D01*
X138841219Y-74670180D01*
X138698361Y-74622561D01*
X138603123Y-74527323D01*
X138555504Y-74432085D01*
X138507885Y-74241609D01*
X138507885Y-74098752D01*
X138555504Y-73908276D01*
X138603123Y-73813038D01*
X138698361Y-73717800D01*
X138841219Y-73670180D01*
X138936457Y-73670180D01*
X139079314Y-73717800D01*
X139126933Y-73765419D01*
X139460266Y-73670180D02*
X140126933Y-73670180D01*
X139698361Y-74670180D01*
X137888838Y-70703514D02*
X137888838Y-71370180D01*
X137650742Y-70322561D02*
X137412647Y-71036847D01*
X138031695Y-71036847D01*
X138412647Y-71274942D02*
X138460266Y-71322561D01*
X138412647Y-71370180D01*
X138365028Y-71322561D01*
X138412647Y-71274942D01*
X138412647Y-71370180D01*
X138793600Y-70370180D02*
X139460266Y-70370180D01*
X139031695Y-71370180D01*
X139841219Y-70703514D02*
X139841219Y-71370180D01*
X139841219Y-70798752D02*
X139888838Y-70751133D01*
X139984076Y-70703514D01*
X140126933Y-70703514D01*
X140222171Y-70751133D01*
X140269790Y-70846371D01*
X140269790Y-71370180D01*
X141079314Y-70846371D02*
X140745980Y-70846371D01*
X140745980Y-71370180D02*
X140745980Y-70370180D01*
X141222171Y-70370180D01*
X133716733Y-101676742D02*
X133669114Y-101724361D01*
X133526257Y-101771980D01*
X133431019Y-101771980D01*
X133288161Y-101724361D01*
X133192923Y-101629123D01*
X133145304Y-101533885D01*
X133097685Y-101343409D01*
X133097685Y-101200552D01*
X133145304Y-101010076D01*
X133192923Y-100914838D01*
X133288161Y-100819600D01*
X133431019Y-100771980D01*
X133526257Y-100771980D01*
X133669114Y-100819600D01*
X133716733Y-100867219D01*
X134573876Y-100771980D02*
X134383400Y-100771980D01*
X134288161Y-100819600D01*
X134240542Y-100867219D01*
X134145304Y-101010076D01*
X134097685Y-101200552D01*
X134097685Y-101581504D01*
X134145304Y-101676742D01*
X134192923Y-101724361D01*
X134288161Y-101771980D01*
X134478638Y-101771980D01*
X134573876Y-101724361D01*
X134621495Y-101676742D01*
X134669114Y-101581504D01*
X134669114Y-101343409D01*
X134621495Y-101248171D01*
X134573876Y-101200552D01*
X134478638Y-101152933D01*
X134288161Y-101152933D01*
X134192923Y-101200552D01*
X134145304Y-101248171D01*
X134097685Y-101343409D01*
X132335780Y-98471980D02*
X131764352Y-98471980D01*
X132050066Y-98471980D02*
X132050066Y-97471980D01*
X131954828Y-97614838D01*
X131859590Y-97710076D01*
X131764352Y-97757695D01*
X132907209Y-97900552D02*
X132811971Y-97852933D01*
X132764352Y-97805314D01*
X132716733Y-97710076D01*
X132716733Y-97662457D01*
X132764352Y-97567219D01*
X132811971Y-97519600D01*
X132907209Y-97471980D01*
X133097685Y-97471980D01*
X133192923Y-97519600D01*
X133240542Y-97567219D01*
X133288161Y-97662457D01*
X133288161Y-97710076D01*
X133240542Y-97805314D01*
X133192923Y-97852933D01*
X133097685Y-97900552D01*
X132907209Y-97900552D01*
X132811971Y-97948171D01*
X132764352Y-97995790D01*
X132716733Y-98091028D01*
X132716733Y-98281504D01*
X132764352Y-98376742D01*
X132811971Y-98424361D01*
X132907209Y-98471980D01*
X133097685Y-98471980D01*
X133192923Y-98424361D01*
X133240542Y-98376742D01*
X133288161Y-98281504D01*
X133288161Y-98091028D01*
X133240542Y-97995790D01*
X133192923Y-97948171D01*
X133097685Y-97900552D01*
X133907209Y-97471980D02*
X134002447Y-97471980D01*
X134097685Y-97519600D01*
X134145304Y-97567219D01*
X134192923Y-97662457D01*
X134240542Y-97852933D01*
X134240542Y-98091028D01*
X134192923Y-98281504D01*
X134145304Y-98376742D01*
X134097685Y-98424361D01*
X134002447Y-98471980D01*
X133907209Y-98471980D01*
X133811971Y-98424361D01*
X133764352Y-98376742D01*
X133716733Y-98281504D01*
X133669114Y-98091028D01*
X133669114Y-97852933D01*
X133716733Y-97662457D01*
X133764352Y-97567219D01*
X133811971Y-97519600D01*
X133907209Y-97471980D01*
X134669114Y-97805314D02*
X134669114Y-98805314D01*
X134669114Y-97852933D02*
X134764352Y-97805314D01*
X134954828Y-97805314D01*
X135050066Y-97852933D01*
X135097685Y-97900552D01*
X135145304Y-97995790D01*
X135145304Y-98281504D01*
X135097685Y-98376742D01*
X135050066Y-98424361D01*
X134954828Y-98471980D01*
X134764352Y-98471980D01*
X134669114Y-98424361D01*
X135907209Y-97948171D02*
X135573876Y-97948171D01*
X135573876Y-98471980D02*
X135573876Y-97471980D01*
X136050066Y-97471980D01*
X127011133Y-101676742D02*
X126963514Y-101724361D01*
X126820657Y-101771980D01*
X126725419Y-101771980D01*
X126582561Y-101724361D01*
X126487323Y-101629123D01*
X126439704Y-101533885D01*
X126392085Y-101343409D01*
X126392085Y-101200552D01*
X126439704Y-101010076D01*
X126487323Y-100914838D01*
X126582561Y-100819600D01*
X126725419Y-100771980D01*
X126820657Y-100771980D01*
X126963514Y-100819600D01*
X127011133Y-100867219D01*
X127915895Y-100771980D02*
X127439704Y-100771980D01*
X127392085Y-101248171D01*
X127439704Y-101200552D01*
X127534942Y-101152933D01*
X127773038Y-101152933D01*
X127868276Y-101200552D01*
X127915895Y-101248171D01*
X127963514Y-101343409D01*
X127963514Y-101581504D01*
X127915895Y-101676742D01*
X127868276Y-101724361D01*
X127773038Y-101771980D01*
X127534942Y-101771980D01*
X127439704Y-101724361D01*
X127392085Y-101676742D01*
X125534942Y-97471980D02*
X125344466Y-97471980D01*
X125249228Y-97519600D01*
X125201609Y-97567219D01*
X125106371Y-97710076D01*
X125058752Y-97900552D01*
X125058752Y-98281504D01*
X125106371Y-98376742D01*
X125153990Y-98424361D01*
X125249228Y-98471980D01*
X125439704Y-98471980D01*
X125534942Y-98424361D01*
X125582561Y-98376742D01*
X125630180Y-98281504D01*
X125630180Y-98043409D01*
X125582561Y-97948171D01*
X125534942Y-97900552D01*
X125439704Y-97852933D01*
X125249228Y-97852933D01*
X125153990Y-97900552D01*
X125106371Y-97948171D01*
X125058752Y-98043409D01*
X126201609Y-97900552D02*
X126106371Y-97852933D01*
X126058752Y-97805314D01*
X126011133Y-97710076D01*
X126011133Y-97662457D01*
X126058752Y-97567219D01*
X126106371Y-97519600D01*
X126201609Y-97471980D01*
X126392085Y-97471980D01*
X126487323Y-97519600D01*
X126534942Y-97567219D01*
X126582561Y-97662457D01*
X126582561Y-97710076D01*
X126534942Y-97805314D01*
X126487323Y-97852933D01*
X126392085Y-97900552D01*
X126201609Y-97900552D01*
X126106371Y-97948171D01*
X126058752Y-97995790D01*
X126011133Y-98091028D01*
X126011133Y-98281504D01*
X126058752Y-98376742D01*
X126106371Y-98424361D01*
X126201609Y-98471980D01*
X126392085Y-98471980D01*
X126487323Y-98424361D01*
X126534942Y-98376742D01*
X126582561Y-98281504D01*
X126582561Y-98091028D01*
X126534942Y-97995790D01*
X126487323Y-97948171D01*
X126392085Y-97900552D01*
X127201609Y-97471980D02*
X127296847Y-97471980D01*
X127392085Y-97519600D01*
X127439704Y-97567219D01*
X127487323Y-97662457D01*
X127534942Y-97852933D01*
X127534942Y-98091028D01*
X127487323Y-98281504D01*
X127439704Y-98376742D01*
X127392085Y-98424361D01*
X127296847Y-98471980D01*
X127201609Y-98471980D01*
X127106371Y-98424361D01*
X127058752Y-98376742D01*
X127011133Y-98281504D01*
X126963514Y-98091028D01*
X126963514Y-97852933D01*
X127011133Y-97662457D01*
X127058752Y-97567219D01*
X127106371Y-97519600D01*
X127201609Y-97471980D01*
X127963514Y-97805314D02*
X127963514Y-98471980D01*
X127963514Y-97900552D02*
X128011133Y-97852933D01*
X128106371Y-97805314D01*
X128249228Y-97805314D01*
X128344466Y-97852933D01*
X128392085Y-97948171D01*
X128392085Y-98471980D01*
X129201609Y-97948171D02*
X128868276Y-97948171D01*
X128868276Y-98471980D02*
X128868276Y-97471980D01*
X129344466Y-97471980D01*
X118781533Y-87810342D02*
X118733914Y-87857961D01*
X118591057Y-87905580D01*
X118495819Y-87905580D01*
X118352961Y-87857961D01*
X118257723Y-87762723D01*
X118210104Y-87667485D01*
X118162485Y-87477009D01*
X118162485Y-87334152D01*
X118210104Y-87143676D01*
X118257723Y-87048438D01*
X118352961Y-86953200D01*
X118495819Y-86905580D01*
X118591057Y-86905580D01*
X118733914Y-86953200D01*
X118781533Y-87000819D01*
X119638676Y-87238914D02*
X119638676Y-87905580D01*
X119400580Y-86857961D02*
X119162485Y-87572247D01*
X119781533Y-87572247D01*
X117805342Y-91205580D02*
X117233914Y-91205580D01*
X117519628Y-91205580D02*
X117519628Y-90205580D01*
X117424390Y-90348438D01*
X117329152Y-90443676D01*
X117233914Y-90491295D01*
X118424390Y-90205580D02*
X118519628Y-90205580D01*
X118614866Y-90253200D01*
X118662485Y-90300819D01*
X118710104Y-90396057D01*
X118757723Y-90586533D01*
X118757723Y-90824628D01*
X118710104Y-91015104D01*
X118662485Y-91110342D01*
X118614866Y-91157961D01*
X118519628Y-91205580D01*
X118424390Y-91205580D01*
X118329152Y-91157961D01*
X118281533Y-91110342D01*
X118233914Y-91015104D01*
X118186295Y-90824628D01*
X118186295Y-90586533D01*
X118233914Y-90396057D01*
X118281533Y-90300819D01*
X118329152Y-90253200D01*
X118424390Y-90205580D01*
X119186295Y-90538914D02*
X119186295Y-91538914D01*
X119662485Y-91062723D02*
X119710104Y-91157961D01*
X119805342Y-91205580D01*
X119186295Y-91062723D02*
X119233914Y-91157961D01*
X119329152Y-91205580D01*
X119519628Y-91205580D01*
X119614866Y-91157961D01*
X119662485Y-91062723D01*
X119662485Y-90538914D01*
X120567247Y-90681771D02*
X120233914Y-90681771D01*
X120233914Y-91205580D02*
X120233914Y-90205580D01*
X120710104Y-90205580D01*
X118654533Y-76405742D02*
X118606914Y-76453361D01*
X118464057Y-76500980D01*
X118368819Y-76500980D01*
X118225961Y-76453361D01*
X118130723Y-76358123D01*
X118083104Y-76262885D01*
X118035485Y-76072409D01*
X118035485Y-75929552D01*
X118083104Y-75739076D01*
X118130723Y-75643838D01*
X118225961Y-75548600D01*
X118368819Y-75500980D01*
X118464057Y-75500980D01*
X118606914Y-75548600D01*
X118654533Y-75596219D01*
X118987866Y-75500980D02*
X119606914Y-75500980D01*
X119273580Y-75881933D01*
X119416438Y-75881933D01*
X119511676Y-75929552D01*
X119559295Y-75977171D01*
X119606914Y-76072409D01*
X119606914Y-76310504D01*
X119559295Y-76405742D01*
X119511676Y-76453361D01*
X119416438Y-76500980D01*
X119130723Y-76500980D01*
X119035485Y-76453361D01*
X118987866Y-76405742D01*
X117678342Y-79800980D02*
X117106914Y-79800980D01*
X117392628Y-79800980D02*
X117392628Y-78800980D01*
X117297390Y-78943838D01*
X117202152Y-79039076D01*
X117106914Y-79086695D01*
X118297390Y-78800980D02*
X118392628Y-78800980D01*
X118487866Y-78848600D01*
X118535485Y-78896219D01*
X118583104Y-78991457D01*
X118630723Y-79181933D01*
X118630723Y-79420028D01*
X118583104Y-79610504D01*
X118535485Y-79705742D01*
X118487866Y-79753361D01*
X118392628Y-79800980D01*
X118297390Y-79800980D01*
X118202152Y-79753361D01*
X118154533Y-79705742D01*
X118106914Y-79610504D01*
X118059295Y-79420028D01*
X118059295Y-79181933D01*
X118106914Y-78991457D01*
X118154533Y-78896219D01*
X118202152Y-78848600D01*
X118297390Y-78800980D01*
X119059295Y-79134314D02*
X119059295Y-80134314D01*
X119535485Y-79658123D02*
X119583104Y-79753361D01*
X119678342Y-79800980D01*
X119059295Y-79658123D02*
X119106914Y-79753361D01*
X119202152Y-79800980D01*
X119392628Y-79800980D01*
X119487866Y-79753361D01*
X119535485Y-79658123D01*
X119535485Y-79134314D01*
X120440247Y-79277171D02*
X120106914Y-79277171D01*
X120106914Y-79800980D02*
X120106914Y-78800980D01*
X120583104Y-78800980D01*
X118121133Y-67107342D02*
X118073514Y-67154961D01*
X117930657Y-67202580D01*
X117835419Y-67202580D01*
X117692561Y-67154961D01*
X117597323Y-67059723D01*
X117549704Y-66964485D01*
X117502085Y-66774009D01*
X117502085Y-66631152D01*
X117549704Y-66440676D01*
X117597323Y-66345438D01*
X117692561Y-66250200D01*
X117835419Y-66202580D01*
X117930657Y-66202580D01*
X118073514Y-66250200D01*
X118121133Y-66297819D01*
X118502085Y-66297819D02*
X118549704Y-66250200D01*
X118644942Y-66202580D01*
X118883038Y-66202580D01*
X118978276Y-66250200D01*
X119025895Y-66297819D01*
X119073514Y-66393057D01*
X119073514Y-66488295D01*
X119025895Y-66631152D01*
X118454466Y-67202580D01*
X119073514Y-67202580D01*
X117144942Y-63902580D02*
X116573514Y-63902580D01*
X116859228Y-63902580D02*
X116859228Y-62902580D01*
X116763990Y-63045438D01*
X116668752Y-63140676D01*
X116573514Y-63188295D01*
X117763990Y-62902580D02*
X117859228Y-62902580D01*
X117954466Y-62950200D01*
X118002085Y-62997819D01*
X118049704Y-63093057D01*
X118097323Y-63283533D01*
X118097323Y-63521628D01*
X118049704Y-63712104D01*
X118002085Y-63807342D01*
X117954466Y-63854961D01*
X117859228Y-63902580D01*
X117763990Y-63902580D01*
X117668752Y-63854961D01*
X117621133Y-63807342D01*
X117573514Y-63712104D01*
X117525895Y-63521628D01*
X117525895Y-63283533D01*
X117573514Y-63093057D01*
X117621133Y-62997819D01*
X117668752Y-62950200D01*
X117763990Y-62902580D01*
X118525895Y-63235914D02*
X118525895Y-64235914D01*
X119002085Y-63759723D02*
X119049704Y-63854961D01*
X119144942Y-63902580D01*
X118525895Y-63759723D02*
X118573514Y-63854961D01*
X118668752Y-63902580D01*
X118859228Y-63902580D01*
X118954466Y-63854961D01*
X119002085Y-63759723D01*
X119002085Y-63235914D01*
X119906847Y-63378771D02*
X119573514Y-63378771D01*
X119573514Y-63902580D02*
X119573514Y-62902580D01*
X120049704Y-62902580D01*
X104455933Y-89586342D02*
X104408314Y-89633961D01*
X104265457Y-89681580D01*
X104170219Y-89681580D01*
X104027361Y-89633961D01*
X103932123Y-89538723D01*
X103884504Y-89443485D01*
X103836885Y-89253009D01*
X103836885Y-89110152D01*
X103884504Y-88919676D01*
X103932123Y-88824438D01*
X104027361Y-88729200D01*
X104170219Y-88681580D01*
X104265457Y-88681580D01*
X104408314Y-88729200D01*
X104455933Y-88776819D01*
X105408314Y-89681580D02*
X104836885Y-89681580D01*
X105122600Y-89681580D02*
X105122600Y-88681580D01*
X105027361Y-88824438D01*
X104932123Y-88919676D01*
X104836885Y-88967295D01*
X103479742Y-86381580D02*
X102908314Y-86381580D01*
X103194028Y-86381580D02*
X103194028Y-85381580D01*
X103098790Y-85524438D01*
X103003552Y-85619676D01*
X102908314Y-85667295D01*
X104098790Y-85381580D02*
X104194028Y-85381580D01*
X104289266Y-85429200D01*
X104336885Y-85476819D01*
X104384504Y-85572057D01*
X104432123Y-85762533D01*
X104432123Y-86000628D01*
X104384504Y-86191104D01*
X104336885Y-86286342D01*
X104289266Y-86333961D01*
X104194028Y-86381580D01*
X104098790Y-86381580D01*
X104003552Y-86333961D01*
X103955933Y-86286342D01*
X103908314Y-86191104D01*
X103860695Y-86000628D01*
X103860695Y-85762533D01*
X103908314Y-85572057D01*
X103955933Y-85476819D01*
X104003552Y-85429200D01*
X104098790Y-85381580D01*
X104860695Y-85714914D02*
X104860695Y-86714914D01*
X105336885Y-86238723D02*
X105384504Y-86333961D01*
X105479742Y-86381580D01*
X104860695Y-86238723D02*
X104908314Y-86333961D01*
X105003552Y-86381580D01*
X105194028Y-86381580D01*
X105289266Y-86333961D01*
X105336885Y-86238723D01*
X105336885Y-85714914D01*
X106241647Y-85857771D02*
X105908314Y-85857771D01*
X105908314Y-86381580D02*
X105908314Y-85381580D01*
X106384504Y-85381580D01*
M02*
