M48
; DRILL file {KiCad (5.1.5-0-10_14)} date Thursday, 04 June 2020 at 16:49:06
; FORMAT={-:-/ absolute / inch / decimal}
; #@! TF.CreationDate,2020-06-04T16:49:06+02:00
; #@! TF.GenerationSoftware,Kicad,Pcbnew,(5.1.5-0-10_14)
; #@! TF.FileFunction,Plated,1,2,PTH
FMAT,2
INCH
T1C0.0157
T2C0.0295
T3C0.0315
T4C0.0354
T5C0.0394
%
G90
G05
T1
X3.689Y-2.951
X3.689Y-3.568
X3.7586Y-3.339
X3.76Y-3.516
X3.7616Y-2.943
X3.8Y-3.9004
X3.805Y-2.81
X3.8394Y-2.561
X3.8394Y-2.749
X3.8394Y-3.339
X3.8394Y-3.802
X3.947Y-2.851
X3.947Y-3.014
X4.0Y-3.3823
X4.0664Y-2.805
X4.0786Y-3.448
X4.157Y-3.518
X4.1594Y-3.448
X4.229Y-2.941
X4.2356Y-2.561
X4.308Y-2.812
X4.3124Y-2.748
X4.3124Y-3.132
X4.3216Y-3.45
X4.335Y-3.639
X4.343Y-3.841
X4.4024Y-3.45
X4.4316Y-2.563
X4.437Y-2.98
X4.5284Y-3.919
X4.53Y-3.39
X4.6386Y-3.283
X4.6426Y-3.508
X4.644Y-2.943
X4.667Y-4.4247
X4.674Y-3.608
X4.7136Y-3.778
X4.7194Y-3.283
X4.85Y-2.5309
X4.9Y-4.23
X4.957Y-2.563
X5.1Y-4.2733
X5.13Y-2.8
X5.15Y-3.54
X5.1527Y-4.1867
X5.198Y-3.777
X5.2226Y-2.86
X5.2306Y-3.924
X5.2326Y-3.724
X5.2374Y-3.777
X5.25Y-4.2733
X5.296Y-4.328
X5.302Y-3.633
X5.33Y-2.78
X5.397Y-4.162
X5.4Y-3.56
X5.4436Y-2.857
X5.4966Y-3.51
X5.5665Y-3.31
X5.5774Y-3.51
X5.6446Y-3.661
X5.667Y-4.4147
X5.705Y-3.77
X5.7254Y-3.661
X5.74Y-4.0706
X5.75Y-2.914
X5.7524Y-3.43
T2
X5.595Y-3.023
X5.595Y-3.073
X5.595Y-3.123
X4.475Y-3.637
X4.475Y-3.687
X4.475Y-3.737
X5.669Y-3.843
X5.669Y-3.893
X5.669Y-3.943
X4.02Y-2.965
X4.02Y-3.015
X4.02Y-3.065
X5.257Y-3.027
X5.257Y-3.077
X5.257Y-3.127
X5.255Y-3.46
X5.255Y-3.51
X5.255Y-3.56
X4.009Y-2.54
X4.009Y-2.59
X4.009Y-2.64
X3.848Y-3.519
X3.848Y-3.569
X3.848Y-3.619
X5.257Y-2.586
X5.257Y-2.636
X5.257Y-2.686
T3
X3.801Y-4.097
X3.801Y-4.397
X3.901Y-4.097
X3.901Y-4.397
X4.001Y-4.097
X4.001Y-4.397
X4.101Y-4.097
X4.101Y-4.397
X4.201Y-4.097
X4.201Y-4.397
X4.301Y-4.097
X4.301Y-4.397
X4.401Y-4.097
X4.401Y-4.397
X4.501Y-4.097
X4.501Y-4.397
X4.897Y-4.09
X4.897Y-4.39
X4.997Y-4.09
X4.997Y-4.39
X5.097Y-4.09
X5.097Y-4.39
X5.197Y-4.09
X5.197Y-4.39
X5.297Y-4.09
X5.297Y-4.39
X5.397Y-4.09
X5.397Y-4.39
X5.497Y-4.09
X5.497Y-4.39
T4
X4.8521Y-2.6454
X5.049Y-2.547
X5.049Y-2.7439
X4.8521Y-3.0754
X5.049Y-2.977
X5.049Y-3.1739
X4.8551Y-3.5064
X5.052Y-3.408
X5.052Y-3.6049
X4.0751Y-3.7284
X4.272Y-3.63
X4.272Y-3.8269
T5
X3.586Y-3.316
X3.586Y-3.416
X3.584Y-2.751
X3.584Y-2.851
X3.584Y-2.951
X3.584Y-3.051
X5.89Y-2.84
X5.89Y-2.94
X5.89Y-3.04
X5.89Y-3.14
X5.89Y-3.24
T0
M30
