G04 #@! TF.GenerationSoftware,KiCad,Pcbnew,(5.1.5-0-10_14)*
G04 #@! TF.CreationDate,2020-06-04T16:49:04+02:00*
G04 #@! TF.ProjectId,yuv-rgb-converter,7975762d-7267-4622-9d63-6f6e76657274,rev?*
G04 #@! TF.SameCoordinates,Original*
G04 #@! TF.FileFunction,Soldermask,Top*
G04 #@! TF.FilePolarity,Negative*
%FSLAX46Y46*%
G04 Gerber Fmt 4.6, Leading zero omitted, Abs format (unit mm)*
G04 Created by KiCad (PCBNEW (5.1.5-0-10_14)) date 2020-06-04 16:49:04*
%MOMM*%
%LPD*%
G04 APERTURE LIST*
%ADD10C,0.300000*%
%ADD11C,0.100000*%
G04 APERTURE END LIST*
D10*
X149406000Y-107830380D02*
X149406000Y-106716095D01*
X150840285Y-107273238D02*
X151554571Y-107273238D01*
X150054571Y-107706571D02*
X150840285Y-107273238D01*
X150054571Y-106839904D01*
X150054571Y-106406571D02*
X151268857Y-106406571D01*
X151411714Y-106344666D01*
X151483142Y-106282761D01*
X151554571Y-106158952D01*
X151554571Y-105911333D01*
X151483142Y-105787523D01*
X151411714Y-105725619D01*
X151268857Y-105663714D01*
X150054571Y-105663714D01*
X150054571Y-105230380D02*
X151554571Y-104797047D01*
X150054571Y-104363714D01*
X150554571Y-103125619D02*
X150554571Y-102630380D01*
X150054571Y-102939904D02*
X151340285Y-102939904D01*
X151483142Y-102878000D01*
X151554571Y-102754190D01*
X151554571Y-102630380D01*
X151554571Y-102011333D02*
X151483142Y-102135142D01*
X151411714Y-102197047D01*
X151268857Y-102258952D01*
X150840285Y-102258952D01*
X150697428Y-102197047D01*
X150626000Y-102135142D01*
X150554571Y-102011333D01*
X150554571Y-101825619D01*
X150626000Y-101701809D01*
X150697428Y-101639904D01*
X150840285Y-101578000D01*
X151268857Y-101578000D01*
X151411714Y-101639904D01*
X151483142Y-101701809D01*
X151554571Y-101825619D01*
X151554571Y-102011333D01*
X151554571Y-99287523D02*
X150840285Y-99720857D01*
X151554571Y-100030380D02*
X150054571Y-100030380D01*
X150054571Y-99535142D01*
X150126000Y-99411333D01*
X150197428Y-99349428D01*
X150340285Y-99287523D01*
X150554571Y-99287523D01*
X150697428Y-99349428D01*
X150768857Y-99411333D01*
X150840285Y-99535142D01*
X150840285Y-100030380D01*
X150126000Y-98049428D02*
X150054571Y-98173238D01*
X150054571Y-98358952D01*
X150126000Y-98544666D01*
X150268857Y-98668476D01*
X150411714Y-98730380D01*
X150697428Y-98792285D01*
X150911714Y-98792285D01*
X151197428Y-98730380D01*
X151340285Y-98668476D01*
X151483142Y-98544666D01*
X151554571Y-98358952D01*
X151554571Y-98235142D01*
X151483142Y-98049428D01*
X151411714Y-97987523D01*
X150911714Y-97987523D01*
X150911714Y-98235142D01*
X150768857Y-96997047D02*
X150840285Y-96811333D01*
X150911714Y-96749428D01*
X151054571Y-96687523D01*
X151268857Y-96687523D01*
X151411714Y-96749428D01*
X151483142Y-96811333D01*
X151554571Y-96935142D01*
X151554571Y-97430380D01*
X150054571Y-97430380D01*
X150054571Y-96997047D01*
X150126000Y-96873238D01*
X150197428Y-96811333D01*
X150340285Y-96749428D01*
X150483142Y-96749428D01*
X150626000Y-96811333D01*
X150697428Y-96873238D01*
X150768857Y-96997047D01*
X150768857Y-97430380D01*
X151411714Y-94397047D02*
X151483142Y-94458952D01*
X151554571Y-94644666D01*
X151554571Y-94768476D01*
X151483142Y-94954190D01*
X151340285Y-95078000D01*
X151197428Y-95139904D01*
X150911714Y-95201809D01*
X150697428Y-95201809D01*
X150411714Y-95139904D01*
X150268857Y-95078000D01*
X150126000Y-94954190D01*
X150054571Y-94768476D01*
X150054571Y-94644666D01*
X150126000Y-94458952D01*
X150197428Y-94397047D01*
X151554571Y-93654190D02*
X151483142Y-93778000D01*
X151411714Y-93839904D01*
X151268857Y-93901809D01*
X150840285Y-93901809D01*
X150697428Y-93839904D01*
X150626000Y-93778000D01*
X150554571Y-93654190D01*
X150554571Y-93468476D01*
X150626000Y-93344666D01*
X150697428Y-93282761D01*
X150840285Y-93220857D01*
X151268857Y-93220857D01*
X151411714Y-93282761D01*
X151483142Y-93344666D01*
X151554571Y-93468476D01*
X151554571Y-93654190D01*
X150554571Y-92663714D02*
X151554571Y-92663714D01*
X150697428Y-92663714D02*
X150626000Y-92601809D01*
X150554571Y-92478000D01*
X150554571Y-92292285D01*
X150626000Y-92168476D01*
X150768857Y-92106571D01*
X151554571Y-92106571D01*
X150554571Y-91611333D02*
X151554571Y-91301809D01*
X150554571Y-90992285D01*
X151483142Y-90001809D02*
X151554571Y-90125619D01*
X151554571Y-90373238D01*
X151483142Y-90497047D01*
X151340285Y-90558952D01*
X150768857Y-90558952D01*
X150626000Y-90497047D01*
X150554571Y-90373238D01*
X150554571Y-90125619D01*
X150626000Y-90001809D01*
X150768857Y-89939904D01*
X150911714Y-89939904D01*
X151054571Y-90558952D01*
X151554571Y-89382761D02*
X150554571Y-89382761D01*
X150840285Y-89382761D02*
X150697428Y-89320857D01*
X150626000Y-89258952D01*
X150554571Y-89135142D01*
X150554571Y-89011333D01*
X150554571Y-88763714D02*
X150554571Y-88268476D01*
X150054571Y-88578000D02*
X151340285Y-88578000D01*
X151483142Y-88516095D01*
X151554571Y-88392285D01*
X151554571Y-88268476D01*
X151483142Y-87339904D02*
X151554571Y-87463714D01*
X151554571Y-87711333D01*
X151483142Y-87835142D01*
X151340285Y-87897047D01*
X150768857Y-87897047D01*
X150626000Y-87835142D01*
X150554571Y-87711333D01*
X150554571Y-87463714D01*
X150626000Y-87339904D01*
X150768857Y-87278000D01*
X150911714Y-87278000D01*
X151054571Y-87897047D01*
X151554571Y-86720857D02*
X150554571Y-86720857D01*
X150840285Y-86720857D02*
X150697428Y-86658952D01*
X150626000Y-86597047D01*
X150554571Y-86473238D01*
X150554571Y-86349428D01*
D11*
G36*
X119130474Y-111766065D02*
G01*
X119168167Y-111777499D01*
X119202903Y-111796066D01*
X119233348Y-111821052D01*
X119258334Y-111851497D01*
X119276901Y-111886233D01*
X119288335Y-111923926D01*
X119292800Y-111969261D01*
X119292800Y-112805939D01*
X119288335Y-112851274D01*
X119276901Y-112888967D01*
X119258334Y-112923703D01*
X119233348Y-112954148D01*
X119202903Y-112979134D01*
X119168167Y-112997701D01*
X119130474Y-113009135D01*
X119085139Y-113013600D01*
X117998461Y-113013600D01*
X117953126Y-113009135D01*
X117915433Y-112997701D01*
X117880697Y-112979134D01*
X117850252Y-112954148D01*
X117825266Y-112923703D01*
X117806699Y-112888967D01*
X117795265Y-112851274D01*
X117790800Y-112805939D01*
X117790800Y-111969261D01*
X117795265Y-111923926D01*
X117806699Y-111886233D01*
X117825266Y-111851497D01*
X117850252Y-111821052D01*
X117880697Y-111796066D01*
X117915433Y-111777499D01*
X117953126Y-111766065D01*
X117998461Y-111761600D01*
X119085139Y-111761600D01*
X119130474Y-111766065D01*
G37*
G36*
X144530474Y-111512065D02*
G01*
X144568167Y-111523499D01*
X144602903Y-111542066D01*
X144633348Y-111567052D01*
X144658334Y-111597497D01*
X144676901Y-111632233D01*
X144688335Y-111669926D01*
X144692800Y-111715261D01*
X144692800Y-112551939D01*
X144688335Y-112597274D01*
X144676901Y-112634967D01*
X144658334Y-112669703D01*
X144633348Y-112700148D01*
X144602903Y-112725134D01*
X144568167Y-112743701D01*
X144530474Y-112755135D01*
X144485139Y-112759600D01*
X143398461Y-112759600D01*
X143353126Y-112755135D01*
X143315433Y-112743701D01*
X143280697Y-112725134D01*
X143250252Y-112700148D01*
X143225266Y-112669703D01*
X143206699Y-112634967D01*
X143195265Y-112597274D01*
X143190800Y-112551939D01*
X143190800Y-111715261D01*
X143195265Y-111669926D01*
X143206699Y-111632233D01*
X143225266Y-111597497D01*
X143250252Y-111567052D01*
X143280697Y-111542066D01*
X143315433Y-111523499D01*
X143353126Y-111512065D01*
X143398461Y-111507600D01*
X144485139Y-111507600D01*
X144530474Y-111512065D01*
G37*
G36*
X114573628Y-110865503D02*
G01*
X114728500Y-110929653D01*
X114867881Y-111022785D01*
X114986415Y-111141319D01*
X115079547Y-111280700D01*
X115143697Y-111435572D01*
X115176400Y-111599984D01*
X115176400Y-111767616D01*
X115143697Y-111932028D01*
X115079547Y-112086900D01*
X114986415Y-112226281D01*
X114867881Y-112344815D01*
X114728500Y-112437947D01*
X114573628Y-112502097D01*
X114409216Y-112534800D01*
X114241584Y-112534800D01*
X114077172Y-112502097D01*
X113922300Y-112437947D01*
X113782919Y-112344815D01*
X113664385Y-112226281D01*
X113571253Y-112086900D01*
X113507103Y-111932028D01*
X113474400Y-111767616D01*
X113474400Y-111599984D01*
X113507103Y-111435572D01*
X113571253Y-111280700D01*
X113664385Y-111141319D01*
X113782919Y-111022785D01*
X113922300Y-110929653D01*
X114077172Y-110865503D01*
X114241584Y-110832800D01*
X114409216Y-110832800D01*
X114573628Y-110865503D01*
G37*
G36*
X112033628Y-110865503D02*
G01*
X112188500Y-110929653D01*
X112327881Y-111022785D01*
X112446415Y-111141319D01*
X112539547Y-111280700D01*
X112603697Y-111435572D01*
X112636400Y-111599984D01*
X112636400Y-111767616D01*
X112603697Y-111932028D01*
X112539547Y-112086900D01*
X112446415Y-112226281D01*
X112327881Y-112344815D01*
X112188500Y-112437947D01*
X112033628Y-112502097D01*
X111869216Y-112534800D01*
X111701584Y-112534800D01*
X111537172Y-112502097D01*
X111382300Y-112437947D01*
X111242919Y-112344815D01*
X111124385Y-112226281D01*
X111031253Y-112086900D01*
X110967103Y-111932028D01*
X110934400Y-111767616D01*
X110934400Y-111599984D01*
X110967103Y-111435572D01*
X111031253Y-111280700D01*
X111124385Y-111141319D01*
X111242919Y-111022785D01*
X111382300Y-110929653D01*
X111537172Y-110865503D01*
X111701584Y-110832800D01*
X111869216Y-110832800D01*
X112033628Y-110865503D01*
G37*
G36*
X109493628Y-110865503D02*
G01*
X109648500Y-110929653D01*
X109787881Y-111022785D01*
X109906415Y-111141319D01*
X109999547Y-111280700D01*
X110063697Y-111435572D01*
X110096400Y-111599984D01*
X110096400Y-111767616D01*
X110063697Y-111932028D01*
X109999547Y-112086900D01*
X109906415Y-112226281D01*
X109787881Y-112344815D01*
X109648500Y-112437947D01*
X109493628Y-112502097D01*
X109329216Y-112534800D01*
X109161584Y-112534800D01*
X108997172Y-112502097D01*
X108842300Y-112437947D01*
X108702919Y-112344815D01*
X108584385Y-112226281D01*
X108491253Y-112086900D01*
X108427103Y-111932028D01*
X108394400Y-111767616D01*
X108394400Y-111599984D01*
X108427103Y-111435572D01*
X108491253Y-111280700D01*
X108584385Y-111141319D01*
X108702919Y-111022785D01*
X108842300Y-110929653D01*
X108997172Y-110865503D01*
X109161584Y-110832800D01*
X109329216Y-110832800D01*
X109493628Y-110865503D01*
G37*
G36*
X106953628Y-110865503D02*
G01*
X107108500Y-110929653D01*
X107247881Y-111022785D01*
X107366415Y-111141319D01*
X107459547Y-111280700D01*
X107523697Y-111435572D01*
X107556400Y-111599984D01*
X107556400Y-111767616D01*
X107523697Y-111932028D01*
X107459547Y-112086900D01*
X107366415Y-112226281D01*
X107247881Y-112344815D01*
X107108500Y-112437947D01*
X106953628Y-112502097D01*
X106789216Y-112534800D01*
X106621584Y-112534800D01*
X106457172Y-112502097D01*
X106302300Y-112437947D01*
X106162919Y-112344815D01*
X106044385Y-112226281D01*
X105951253Y-112086900D01*
X105887103Y-111932028D01*
X105854400Y-111767616D01*
X105854400Y-111599984D01*
X105887103Y-111435572D01*
X105951253Y-111280700D01*
X106044385Y-111141319D01*
X106162919Y-111022785D01*
X106302300Y-110929653D01*
X106457172Y-110865503D01*
X106621584Y-110832800D01*
X106789216Y-110832800D01*
X106953628Y-110865503D01*
G37*
G36*
X104413628Y-110865503D02*
G01*
X104568500Y-110929653D01*
X104707881Y-111022785D01*
X104826415Y-111141319D01*
X104919547Y-111280700D01*
X104983697Y-111435572D01*
X105016400Y-111599984D01*
X105016400Y-111767616D01*
X104983697Y-111932028D01*
X104919547Y-112086900D01*
X104826415Y-112226281D01*
X104707881Y-112344815D01*
X104568500Y-112437947D01*
X104413628Y-112502097D01*
X104249216Y-112534800D01*
X104081584Y-112534800D01*
X103917172Y-112502097D01*
X103762300Y-112437947D01*
X103622919Y-112344815D01*
X103504385Y-112226281D01*
X103411253Y-112086900D01*
X103347103Y-111932028D01*
X103314400Y-111767616D01*
X103314400Y-111599984D01*
X103347103Y-111435572D01*
X103411253Y-111280700D01*
X103504385Y-111141319D01*
X103622919Y-111022785D01*
X103762300Y-110929653D01*
X103917172Y-110865503D01*
X104081584Y-110832800D01*
X104249216Y-110832800D01*
X104413628Y-110865503D01*
G37*
G36*
X101873628Y-110865503D02*
G01*
X102028500Y-110929653D01*
X102167881Y-111022785D01*
X102286415Y-111141319D01*
X102379547Y-111280700D01*
X102443697Y-111435572D01*
X102476400Y-111599984D01*
X102476400Y-111767616D01*
X102443697Y-111932028D01*
X102379547Y-112086900D01*
X102286415Y-112226281D01*
X102167881Y-112344815D01*
X102028500Y-112437947D01*
X101873628Y-112502097D01*
X101709216Y-112534800D01*
X101541584Y-112534800D01*
X101377172Y-112502097D01*
X101222300Y-112437947D01*
X101082919Y-112344815D01*
X100964385Y-112226281D01*
X100871253Y-112086900D01*
X100807103Y-111932028D01*
X100774400Y-111767616D01*
X100774400Y-111599984D01*
X100807103Y-111435572D01*
X100871253Y-111280700D01*
X100964385Y-111141319D01*
X101082919Y-111022785D01*
X101222300Y-110929653D01*
X101377172Y-110865503D01*
X101541584Y-110832800D01*
X101709216Y-110832800D01*
X101873628Y-110865503D01*
G37*
G36*
X99333628Y-110865503D02*
G01*
X99488500Y-110929653D01*
X99627881Y-111022785D01*
X99746415Y-111141319D01*
X99839547Y-111280700D01*
X99903697Y-111435572D01*
X99936400Y-111599984D01*
X99936400Y-111767616D01*
X99903697Y-111932028D01*
X99839547Y-112086900D01*
X99746415Y-112226281D01*
X99627881Y-112344815D01*
X99488500Y-112437947D01*
X99333628Y-112502097D01*
X99169216Y-112534800D01*
X99001584Y-112534800D01*
X98837172Y-112502097D01*
X98682300Y-112437947D01*
X98542919Y-112344815D01*
X98424385Y-112226281D01*
X98331253Y-112086900D01*
X98267103Y-111932028D01*
X98234400Y-111767616D01*
X98234400Y-111599984D01*
X98267103Y-111435572D01*
X98331253Y-111280700D01*
X98424385Y-111141319D01*
X98542919Y-111022785D01*
X98682300Y-110929653D01*
X98837172Y-110865503D01*
X99001584Y-110832800D01*
X99169216Y-110832800D01*
X99333628Y-110865503D01*
G37*
G36*
X96793628Y-110865503D02*
G01*
X96948500Y-110929653D01*
X97087881Y-111022785D01*
X97206415Y-111141319D01*
X97299547Y-111280700D01*
X97363697Y-111435572D01*
X97396400Y-111599984D01*
X97396400Y-111767616D01*
X97363697Y-111932028D01*
X97299547Y-112086900D01*
X97206415Y-112226281D01*
X97087881Y-112344815D01*
X96948500Y-112437947D01*
X96793628Y-112502097D01*
X96629216Y-112534800D01*
X96461584Y-112534800D01*
X96297172Y-112502097D01*
X96142300Y-112437947D01*
X96002919Y-112344815D01*
X95884385Y-112226281D01*
X95791253Y-112086900D01*
X95727103Y-111932028D01*
X95694400Y-111767616D01*
X95694400Y-111599984D01*
X95727103Y-111435572D01*
X95791253Y-111280700D01*
X95884385Y-111141319D01*
X96002919Y-111022785D01*
X96142300Y-110929653D01*
X96297172Y-110865503D01*
X96461584Y-110832800D01*
X96629216Y-110832800D01*
X96793628Y-110865503D01*
G37*
G36*
X150592549Y-110123116D02*
G01*
X150703734Y-110145232D01*
X150913203Y-110231997D01*
X151101720Y-110357960D01*
X151262040Y-110518280D01*
X151386381Y-110704370D01*
X151388004Y-110706799D01*
X151406665Y-110751852D01*
X151474768Y-110916266D01*
X151519000Y-111138636D01*
X151519000Y-111365364D01*
X151474768Y-111587734D01*
X151388003Y-111797203D01*
X151262040Y-111985720D01*
X151101720Y-112146040D01*
X150913203Y-112272003D01*
X150703734Y-112358768D01*
X150592549Y-112380884D01*
X150481365Y-112403000D01*
X150254635Y-112403000D01*
X150143451Y-112380884D01*
X150032266Y-112358768D01*
X149822797Y-112272003D01*
X149634280Y-112146040D01*
X149473960Y-111985720D01*
X149347997Y-111797203D01*
X149261232Y-111587734D01*
X149217000Y-111365364D01*
X149217000Y-111138636D01*
X149261232Y-110916266D01*
X149329335Y-110751852D01*
X149347996Y-110706799D01*
X149349619Y-110704370D01*
X149473960Y-110518280D01*
X149634280Y-110357960D01*
X149822797Y-110231997D01*
X150032266Y-110145232D01*
X150143451Y-110123116D01*
X150254635Y-110101000D01*
X150481365Y-110101000D01*
X150592549Y-110123116D01*
G37*
G36*
X90902549Y-110123116D02*
G01*
X91013734Y-110145232D01*
X91223203Y-110231997D01*
X91411720Y-110357960D01*
X91572040Y-110518280D01*
X91696381Y-110704370D01*
X91698004Y-110706799D01*
X91716665Y-110751852D01*
X91784768Y-110916266D01*
X91829000Y-111138636D01*
X91829000Y-111365364D01*
X91784768Y-111587734D01*
X91698003Y-111797203D01*
X91572040Y-111985720D01*
X91411720Y-112146040D01*
X91223203Y-112272003D01*
X91013734Y-112358768D01*
X90902549Y-112380884D01*
X90791365Y-112403000D01*
X90564635Y-112403000D01*
X90453451Y-112380884D01*
X90342266Y-112358768D01*
X90132797Y-112272003D01*
X89944280Y-112146040D01*
X89783960Y-111985720D01*
X89657997Y-111797203D01*
X89571232Y-111587734D01*
X89527000Y-111365364D01*
X89527000Y-111138636D01*
X89571232Y-110916266D01*
X89639335Y-110751852D01*
X89657996Y-110706799D01*
X89659619Y-110704370D01*
X89783960Y-110518280D01*
X89944280Y-110357960D01*
X90132797Y-110231997D01*
X90342266Y-110145232D01*
X90453451Y-110123116D01*
X90564635Y-110101000D01*
X90791365Y-110101000D01*
X90902549Y-110123116D01*
G37*
G36*
X132252028Y-110687703D02*
G01*
X132406900Y-110751853D01*
X132546281Y-110844985D01*
X132664815Y-110963519D01*
X132757947Y-111102900D01*
X132822097Y-111257772D01*
X132854800Y-111422184D01*
X132854800Y-111589816D01*
X132822097Y-111754228D01*
X132757947Y-111909100D01*
X132664815Y-112048481D01*
X132546281Y-112167015D01*
X132406900Y-112260147D01*
X132252028Y-112324297D01*
X132087616Y-112357000D01*
X131919984Y-112357000D01*
X131755572Y-112324297D01*
X131600700Y-112260147D01*
X131461319Y-112167015D01*
X131342785Y-112048481D01*
X131249653Y-111909100D01*
X131185503Y-111754228D01*
X131152800Y-111589816D01*
X131152800Y-111422184D01*
X131185503Y-111257772D01*
X131249653Y-111102900D01*
X131342785Y-110963519D01*
X131461319Y-110844985D01*
X131600700Y-110751853D01*
X131755572Y-110687703D01*
X131919984Y-110655000D01*
X132087616Y-110655000D01*
X132252028Y-110687703D01*
G37*
G36*
X139872028Y-110687703D02*
G01*
X140026900Y-110751853D01*
X140166281Y-110844985D01*
X140284815Y-110963519D01*
X140377947Y-111102900D01*
X140442097Y-111257772D01*
X140474800Y-111422184D01*
X140474800Y-111589816D01*
X140442097Y-111754228D01*
X140377947Y-111909100D01*
X140284815Y-112048481D01*
X140166281Y-112167015D01*
X140026900Y-112260147D01*
X139872028Y-112324297D01*
X139707616Y-112357000D01*
X139539984Y-112357000D01*
X139375572Y-112324297D01*
X139220700Y-112260147D01*
X139081319Y-112167015D01*
X138962785Y-112048481D01*
X138869653Y-111909100D01*
X138805503Y-111754228D01*
X138772800Y-111589816D01*
X138772800Y-111422184D01*
X138805503Y-111257772D01*
X138869653Y-111102900D01*
X138962785Y-110963519D01*
X139081319Y-110844985D01*
X139220700Y-110751853D01*
X139375572Y-110687703D01*
X139539984Y-110655000D01*
X139707616Y-110655000D01*
X139872028Y-110687703D01*
G37*
G36*
X137332028Y-110687703D02*
G01*
X137486900Y-110751853D01*
X137626281Y-110844985D01*
X137744815Y-110963519D01*
X137837947Y-111102900D01*
X137902097Y-111257772D01*
X137934800Y-111422184D01*
X137934800Y-111589816D01*
X137902097Y-111754228D01*
X137837947Y-111909100D01*
X137744815Y-112048481D01*
X137626281Y-112167015D01*
X137486900Y-112260147D01*
X137332028Y-112324297D01*
X137167616Y-112357000D01*
X136999984Y-112357000D01*
X136835572Y-112324297D01*
X136680700Y-112260147D01*
X136541319Y-112167015D01*
X136422785Y-112048481D01*
X136329653Y-111909100D01*
X136265503Y-111754228D01*
X136232800Y-111589816D01*
X136232800Y-111422184D01*
X136265503Y-111257772D01*
X136329653Y-111102900D01*
X136422785Y-110963519D01*
X136541319Y-110844985D01*
X136680700Y-110751853D01*
X136835572Y-110687703D01*
X136999984Y-110655000D01*
X137167616Y-110655000D01*
X137332028Y-110687703D01*
G37*
G36*
X134792028Y-110687703D02*
G01*
X134946900Y-110751853D01*
X135086281Y-110844985D01*
X135204815Y-110963519D01*
X135297947Y-111102900D01*
X135362097Y-111257772D01*
X135394800Y-111422184D01*
X135394800Y-111589816D01*
X135362097Y-111754228D01*
X135297947Y-111909100D01*
X135204815Y-112048481D01*
X135086281Y-112167015D01*
X134946900Y-112260147D01*
X134792028Y-112324297D01*
X134627616Y-112357000D01*
X134459984Y-112357000D01*
X134295572Y-112324297D01*
X134140700Y-112260147D01*
X134001319Y-112167015D01*
X133882785Y-112048481D01*
X133789653Y-111909100D01*
X133725503Y-111754228D01*
X133692800Y-111589816D01*
X133692800Y-111422184D01*
X133725503Y-111257772D01*
X133789653Y-111102900D01*
X133882785Y-110963519D01*
X134001319Y-110844985D01*
X134140700Y-110751853D01*
X134295572Y-110687703D01*
X134459984Y-110655000D01*
X134627616Y-110655000D01*
X134792028Y-110687703D01*
G37*
G36*
X129712028Y-110687703D02*
G01*
X129866900Y-110751853D01*
X130006281Y-110844985D01*
X130124815Y-110963519D01*
X130217947Y-111102900D01*
X130282097Y-111257772D01*
X130314800Y-111422184D01*
X130314800Y-111589816D01*
X130282097Y-111754228D01*
X130217947Y-111909100D01*
X130124815Y-112048481D01*
X130006281Y-112167015D01*
X129866900Y-112260147D01*
X129712028Y-112324297D01*
X129547616Y-112357000D01*
X129379984Y-112357000D01*
X129215572Y-112324297D01*
X129060700Y-112260147D01*
X128921319Y-112167015D01*
X128802785Y-112048481D01*
X128709653Y-111909100D01*
X128645503Y-111754228D01*
X128612800Y-111589816D01*
X128612800Y-111422184D01*
X128645503Y-111257772D01*
X128709653Y-111102900D01*
X128802785Y-110963519D01*
X128921319Y-110844985D01*
X129060700Y-110751853D01*
X129215572Y-110687703D01*
X129379984Y-110655000D01*
X129547616Y-110655000D01*
X129712028Y-110687703D01*
G37*
G36*
X127172028Y-110687703D02*
G01*
X127326900Y-110751853D01*
X127466281Y-110844985D01*
X127584815Y-110963519D01*
X127677947Y-111102900D01*
X127742097Y-111257772D01*
X127774800Y-111422184D01*
X127774800Y-111589816D01*
X127742097Y-111754228D01*
X127677947Y-111909100D01*
X127584815Y-112048481D01*
X127466281Y-112167015D01*
X127326900Y-112260147D01*
X127172028Y-112324297D01*
X127007616Y-112357000D01*
X126839984Y-112357000D01*
X126675572Y-112324297D01*
X126520700Y-112260147D01*
X126381319Y-112167015D01*
X126262785Y-112048481D01*
X126169653Y-111909100D01*
X126105503Y-111754228D01*
X126072800Y-111589816D01*
X126072800Y-111422184D01*
X126105503Y-111257772D01*
X126169653Y-111102900D01*
X126262785Y-110963519D01*
X126381319Y-110844985D01*
X126520700Y-110751853D01*
X126675572Y-110687703D01*
X126839984Y-110655000D01*
X127007616Y-110655000D01*
X127172028Y-110687703D01*
G37*
G36*
X124632028Y-110687703D02*
G01*
X124786900Y-110751853D01*
X124926281Y-110844985D01*
X125044815Y-110963519D01*
X125137947Y-111102900D01*
X125202097Y-111257772D01*
X125234800Y-111422184D01*
X125234800Y-111589816D01*
X125202097Y-111754228D01*
X125137947Y-111909100D01*
X125044815Y-112048481D01*
X124926281Y-112167015D01*
X124786900Y-112260147D01*
X124632028Y-112324297D01*
X124467616Y-112357000D01*
X124299984Y-112357000D01*
X124135572Y-112324297D01*
X123980700Y-112260147D01*
X123841319Y-112167015D01*
X123722785Y-112048481D01*
X123629653Y-111909100D01*
X123565503Y-111754228D01*
X123532800Y-111589816D01*
X123532800Y-111422184D01*
X123565503Y-111257772D01*
X123629653Y-111102900D01*
X123722785Y-110963519D01*
X123841319Y-110844985D01*
X123980700Y-110751853D01*
X124135572Y-110687703D01*
X124299984Y-110655000D01*
X124467616Y-110655000D01*
X124632028Y-110687703D01*
G37*
G36*
X119130474Y-109716065D02*
G01*
X119168167Y-109727499D01*
X119202903Y-109746066D01*
X119233348Y-109771052D01*
X119258334Y-109801497D01*
X119276901Y-109836233D01*
X119288335Y-109873926D01*
X119292800Y-109919261D01*
X119292800Y-110755939D01*
X119288335Y-110801274D01*
X119276901Y-110838967D01*
X119258334Y-110873703D01*
X119233348Y-110904148D01*
X119202903Y-110929134D01*
X119168167Y-110947701D01*
X119130474Y-110959135D01*
X119085139Y-110963600D01*
X117998461Y-110963600D01*
X117953126Y-110959135D01*
X117915433Y-110947701D01*
X117880697Y-110929134D01*
X117850252Y-110904148D01*
X117825266Y-110873703D01*
X117806699Y-110838967D01*
X117795265Y-110801274D01*
X117790800Y-110755939D01*
X117790800Y-109919261D01*
X117795265Y-109873926D01*
X117806699Y-109836233D01*
X117825266Y-109801497D01*
X117850252Y-109771052D01*
X117880697Y-109746066D01*
X117915433Y-109727499D01*
X117953126Y-109716065D01*
X117998461Y-109711600D01*
X119085139Y-109711600D01*
X119130474Y-109716065D01*
G37*
G36*
X144530474Y-109462065D02*
G01*
X144568167Y-109473499D01*
X144602903Y-109492066D01*
X144633348Y-109517052D01*
X144658334Y-109547497D01*
X144676901Y-109582233D01*
X144688335Y-109619926D01*
X144692800Y-109665261D01*
X144692800Y-110501939D01*
X144688335Y-110547274D01*
X144676901Y-110584967D01*
X144658334Y-110619703D01*
X144633348Y-110650148D01*
X144602903Y-110675134D01*
X144568167Y-110693701D01*
X144530474Y-110705135D01*
X144485139Y-110709600D01*
X143398461Y-110709600D01*
X143353126Y-110705135D01*
X143315433Y-110693701D01*
X143280697Y-110675134D01*
X143250252Y-110650148D01*
X143225266Y-110619703D01*
X143206699Y-110584967D01*
X143195265Y-110547274D01*
X143190800Y-110501939D01*
X143190800Y-109665261D01*
X143195265Y-109619926D01*
X143206699Y-109582233D01*
X143225266Y-109547497D01*
X143250252Y-109517052D01*
X143280697Y-109492066D01*
X143315433Y-109473499D01*
X143353126Y-109462065D01*
X143398461Y-109457600D01*
X144485139Y-109457600D01*
X144530474Y-109462065D01*
G37*
G36*
X146384674Y-104822865D02*
G01*
X146422367Y-104834299D01*
X146457103Y-104852866D01*
X146487548Y-104877852D01*
X146512534Y-104908297D01*
X146531101Y-104943033D01*
X146542535Y-104980726D01*
X146547000Y-105026061D01*
X146547000Y-105862739D01*
X146542535Y-105908074D01*
X146531101Y-105945767D01*
X146512534Y-105980503D01*
X146487548Y-106010948D01*
X146457103Y-106035934D01*
X146422367Y-106054501D01*
X146384674Y-106065935D01*
X146339339Y-106070400D01*
X145252661Y-106070400D01*
X145207326Y-106065935D01*
X145169633Y-106054501D01*
X145134897Y-106035934D01*
X145104452Y-106010948D01*
X145079466Y-105980503D01*
X145060899Y-105945767D01*
X145049465Y-105908074D01*
X145045000Y-105862739D01*
X145045000Y-105026061D01*
X145049465Y-104980726D01*
X145060899Y-104943033D01*
X145079466Y-104908297D01*
X145104452Y-104877852D01*
X145134897Y-104852866D01*
X145169633Y-104834299D01*
X145207326Y-104822865D01*
X145252661Y-104818400D01*
X146339339Y-104818400D01*
X146384674Y-104822865D01*
G37*
G36*
X109493628Y-103245503D02*
G01*
X109648500Y-103309653D01*
X109787881Y-103402785D01*
X109906415Y-103521319D01*
X109999547Y-103660700D01*
X110063697Y-103815572D01*
X110096400Y-103979984D01*
X110096400Y-104147616D01*
X110063697Y-104312028D01*
X109999547Y-104466900D01*
X109906415Y-104606281D01*
X109787881Y-104724815D01*
X109648500Y-104817947D01*
X109493628Y-104882097D01*
X109329216Y-104914800D01*
X109161584Y-104914800D01*
X108997172Y-104882097D01*
X108842300Y-104817947D01*
X108702919Y-104724815D01*
X108584385Y-104606281D01*
X108491253Y-104466900D01*
X108427103Y-104312028D01*
X108394400Y-104147616D01*
X108394400Y-103979984D01*
X108427103Y-103815572D01*
X108491253Y-103660700D01*
X108584385Y-103521319D01*
X108702919Y-103402785D01*
X108842300Y-103309653D01*
X108997172Y-103245503D01*
X109161584Y-103212800D01*
X109329216Y-103212800D01*
X109493628Y-103245503D01*
G37*
G36*
X112033628Y-103245503D02*
G01*
X112188500Y-103309653D01*
X112327881Y-103402785D01*
X112446415Y-103521319D01*
X112539547Y-103660700D01*
X112603697Y-103815572D01*
X112636400Y-103979984D01*
X112636400Y-104147616D01*
X112603697Y-104312028D01*
X112539547Y-104466900D01*
X112446415Y-104606281D01*
X112327881Y-104724815D01*
X112188500Y-104817947D01*
X112033628Y-104882097D01*
X111869216Y-104914800D01*
X111701584Y-104914800D01*
X111537172Y-104882097D01*
X111382300Y-104817947D01*
X111242919Y-104724815D01*
X111124385Y-104606281D01*
X111031253Y-104466900D01*
X110967103Y-104312028D01*
X110934400Y-104147616D01*
X110934400Y-103979984D01*
X110967103Y-103815572D01*
X111031253Y-103660700D01*
X111124385Y-103521319D01*
X111242919Y-103402785D01*
X111382300Y-103309653D01*
X111537172Y-103245503D01*
X111701584Y-103212800D01*
X111869216Y-103212800D01*
X112033628Y-103245503D01*
G37*
G36*
X106953628Y-103245503D02*
G01*
X107108500Y-103309653D01*
X107247881Y-103402785D01*
X107366415Y-103521319D01*
X107459547Y-103660700D01*
X107523697Y-103815572D01*
X107556400Y-103979984D01*
X107556400Y-104147616D01*
X107523697Y-104312028D01*
X107459547Y-104466900D01*
X107366415Y-104606281D01*
X107247881Y-104724815D01*
X107108500Y-104817947D01*
X106953628Y-104882097D01*
X106789216Y-104914800D01*
X106621584Y-104914800D01*
X106457172Y-104882097D01*
X106302300Y-104817947D01*
X106162919Y-104724815D01*
X106044385Y-104606281D01*
X105951253Y-104466900D01*
X105887103Y-104312028D01*
X105854400Y-104147616D01*
X105854400Y-103979984D01*
X105887103Y-103815572D01*
X105951253Y-103660700D01*
X106044385Y-103521319D01*
X106162919Y-103402785D01*
X106302300Y-103309653D01*
X106457172Y-103245503D01*
X106621584Y-103212800D01*
X106789216Y-103212800D01*
X106953628Y-103245503D01*
G37*
G36*
X115176400Y-104914800D02*
G01*
X113474400Y-104914800D01*
X113474400Y-103212800D01*
X115176400Y-103212800D01*
X115176400Y-104914800D01*
G37*
G36*
X104413628Y-103245503D02*
G01*
X104568500Y-103309653D01*
X104707881Y-103402785D01*
X104826415Y-103521319D01*
X104919547Y-103660700D01*
X104983697Y-103815572D01*
X105016400Y-103979984D01*
X105016400Y-104147616D01*
X104983697Y-104312028D01*
X104919547Y-104466900D01*
X104826415Y-104606281D01*
X104707881Y-104724815D01*
X104568500Y-104817947D01*
X104413628Y-104882097D01*
X104249216Y-104914800D01*
X104081584Y-104914800D01*
X103917172Y-104882097D01*
X103762300Y-104817947D01*
X103622919Y-104724815D01*
X103504385Y-104606281D01*
X103411253Y-104466900D01*
X103347103Y-104312028D01*
X103314400Y-104147616D01*
X103314400Y-103979984D01*
X103347103Y-103815572D01*
X103411253Y-103660700D01*
X103504385Y-103521319D01*
X103622919Y-103402785D01*
X103762300Y-103309653D01*
X103917172Y-103245503D01*
X104081584Y-103212800D01*
X104249216Y-103212800D01*
X104413628Y-103245503D01*
G37*
G36*
X101873628Y-103245503D02*
G01*
X102028500Y-103309653D01*
X102167881Y-103402785D01*
X102286415Y-103521319D01*
X102379547Y-103660700D01*
X102443697Y-103815572D01*
X102476400Y-103979984D01*
X102476400Y-104147616D01*
X102443697Y-104312028D01*
X102379547Y-104466900D01*
X102286415Y-104606281D01*
X102167881Y-104724815D01*
X102028500Y-104817947D01*
X101873628Y-104882097D01*
X101709216Y-104914800D01*
X101541584Y-104914800D01*
X101377172Y-104882097D01*
X101222300Y-104817947D01*
X101082919Y-104724815D01*
X100964385Y-104606281D01*
X100871253Y-104466900D01*
X100807103Y-104312028D01*
X100774400Y-104147616D01*
X100774400Y-103979984D01*
X100807103Y-103815572D01*
X100871253Y-103660700D01*
X100964385Y-103521319D01*
X101082919Y-103402785D01*
X101222300Y-103309653D01*
X101377172Y-103245503D01*
X101541584Y-103212800D01*
X101709216Y-103212800D01*
X101873628Y-103245503D01*
G37*
G36*
X99333628Y-103245503D02*
G01*
X99488500Y-103309653D01*
X99627881Y-103402785D01*
X99746415Y-103521319D01*
X99839547Y-103660700D01*
X99903697Y-103815572D01*
X99936400Y-103979984D01*
X99936400Y-104147616D01*
X99903697Y-104312028D01*
X99839547Y-104466900D01*
X99746415Y-104606281D01*
X99627881Y-104724815D01*
X99488500Y-104817947D01*
X99333628Y-104882097D01*
X99169216Y-104914800D01*
X99001584Y-104914800D01*
X98837172Y-104882097D01*
X98682300Y-104817947D01*
X98542919Y-104724815D01*
X98424385Y-104606281D01*
X98331253Y-104466900D01*
X98267103Y-104312028D01*
X98234400Y-104147616D01*
X98234400Y-103979984D01*
X98267103Y-103815572D01*
X98331253Y-103660700D01*
X98424385Y-103521319D01*
X98542919Y-103402785D01*
X98682300Y-103309653D01*
X98837172Y-103245503D01*
X99001584Y-103212800D01*
X99169216Y-103212800D01*
X99333628Y-103245503D01*
G37*
G36*
X96793628Y-103245503D02*
G01*
X96948500Y-103309653D01*
X97087881Y-103402785D01*
X97206415Y-103521319D01*
X97299547Y-103660700D01*
X97363697Y-103815572D01*
X97396400Y-103979984D01*
X97396400Y-104147616D01*
X97363697Y-104312028D01*
X97299547Y-104466900D01*
X97206415Y-104606281D01*
X97087881Y-104724815D01*
X96948500Y-104817947D01*
X96793628Y-104882097D01*
X96629216Y-104914800D01*
X96461584Y-104914800D01*
X96297172Y-104882097D01*
X96142300Y-104817947D01*
X96002919Y-104724815D01*
X95884385Y-104606281D01*
X95791253Y-104466900D01*
X95727103Y-104312028D01*
X95694400Y-104147616D01*
X95694400Y-103979984D01*
X95727103Y-103815572D01*
X95791253Y-103660700D01*
X95884385Y-103521319D01*
X96002919Y-103402785D01*
X96142300Y-103309653D01*
X96297172Y-103245503D01*
X96461584Y-103212800D01*
X96629216Y-103212800D01*
X96793628Y-103245503D01*
G37*
G36*
X129712028Y-103067703D02*
G01*
X129866900Y-103131853D01*
X130006281Y-103224985D01*
X130124815Y-103343519D01*
X130217947Y-103482900D01*
X130282097Y-103637772D01*
X130314800Y-103802184D01*
X130314800Y-103969816D01*
X130282097Y-104134228D01*
X130217947Y-104289100D01*
X130124815Y-104428481D01*
X130006281Y-104547015D01*
X129866900Y-104640147D01*
X129712028Y-104704297D01*
X129547616Y-104737000D01*
X129379984Y-104737000D01*
X129215572Y-104704297D01*
X129060700Y-104640147D01*
X128921319Y-104547015D01*
X128802785Y-104428481D01*
X128709653Y-104289100D01*
X128645503Y-104134228D01*
X128612800Y-103969816D01*
X128612800Y-103802184D01*
X128645503Y-103637772D01*
X128709653Y-103482900D01*
X128802785Y-103343519D01*
X128921319Y-103224985D01*
X129060700Y-103131853D01*
X129215572Y-103067703D01*
X129379984Y-103035000D01*
X129547616Y-103035000D01*
X129712028Y-103067703D01*
G37*
G36*
X132252028Y-103067703D02*
G01*
X132406900Y-103131853D01*
X132546281Y-103224985D01*
X132664815Y-103343519D01*
X132757947Y-103482900D01*
X132822097Y-103637772D01*
X132854800Y-103802184D01*
X132854800Y-103969816D01*
X132822097Y-104134228D01*
X132757947Y-104289100D01*
X132664815Y-104428481D01*
X132546281Y-104547015D01*
X132406900Y-104640147D01*
X132252028Y-104704297D01*
X132087616Y-104737000D01*
X131919984Y-104737000D01*
X131755572Y-104704297D01*
X131600700Y-104640147D01*
X131461319Y-104547015D01*
X131342785Y-104428481D01*
X131249653Y-104289100D01*
X131185503Y-104134228D01*
X131152800Y-103969816D01*
X131152800Y-103802184D01*
X131185503Y-103637772D01*
X131249653Y-103482900D01*
X131342785Y-103343519D01*
X131461319Y-103224985D01*
X131600700Y-103131853D01*
X131755572Y-103067703D01*
X131919984Y-103035000D01*
X132087616Y-103035000D01*
X132252028Y-103067703D01*
G37*
G36*
X124632028Y-103067703D02*
G01*
X124786900Y-103131853D01*
X124926281Y-103224985D01*
X125044815Y-103343519D01*
X125137947Y-103482900D01*
X125202097Y-103637772D01*
X125234800Y-103802184D01*
X125234800Y-103969816D01*
X125202097Y-104134228D01*
X125137947Y-104289100D01*
X125044815Y-104428481D01*
X124926281Y-104547015D01*
X124786900Y-104640147D01*
X124632028Y-104704297D01*
X124467616Y-104737000D01*
X124299984Y-104737000D01*
X124135572Y-104704297D01*
X123980700Y-104640147D01*
X123841319Y-104547015D01*
X123722785Y-104428481D01*
X123629653Y-104289100D01*
X123565503Y-104134228D01*
X123532800Y-103969816D01*
X123532800Y-103802184D01*
X123565503Y-103637772D01*
X123629653Y-103482900D01*
X123722785Y-103343519D01*
X123841319Y-103224985D01*
X123980700Y-103131853D01*
X124135572Y-103067703D01*
X124299984Y-103035000D01*
X124467616Y-103035000D01*
X124632028Y-103067703D01*
G37*
G36*
X127172028Y-103067703D02*
G01*
X127326900Y-103131853D01*
X127466281Y-103224985D01*
X127584815Y-103343519D01*
X127677947Y-103482900D01*
X127742097Y-103637772D01*
X127774800Y-103802184D01*
X127774800Y-103969816D01*
X127742097Y-104134228D01*
X127677947Y-104289100D01*
X127584815Y-104428481D01*
X127466281Y-104547015D01*
X127326900Y-104640147D01*
X127172028Y-104704297D01*
X127007616Y-104737000D01*
X126839984Y-104737000D01*
X126675572Y-104704297D01*
X126520700Y-104640147D01*
X126381319Y-104547015D01*
X126262785Y-104428481D01*
X126169653Y-104289100D01*
X126105503Y-104134228D01*
X126072800Y-103969816D01*
X126072800Y-103802184D01*
X126105503Y-103637772D01*
X126169653Y-103482900D01*
X126262785Y-103343519D01*
X126381319Y-103224985D01*
X126520700Y-103131853D01*
X126675572Y-103067703D01*
X126839984Y-103035000D01*
X127007616Y-103035000D01*
X127172028Y-103067703D01*
G37*
G36*
X134792028Y-103067703D02*
G01*
X134946900Y-103131853D01*
X135086281Y-103224985D01*
X135204815Y-103343519D01*
X135297947Y-103482900D01*
X135362097Y-103637772D01*
X135394800Y-103802184D01*
X135394800Y-103969816D01*
X135362097Y-104134228D01*
X135297947Y-104289100D01*
X135204815Y-104428481D01*
X135086281Y-104547015D01*
X134946900Y-104640147D01*
X134792028Y-104704297D01*
X134627616Y-104737000D01*
X134459984Y-104737000D01*
X134295572Y-104704297D01*
X134140700Y-104640147D01*
X134001319Y-104547015D01*
X133882785Y-104428481D01*
X133789653Y-104289100D01*
X133725503Y-104134228D01*
X133692800Y-103969816D01*
X133692800Y-103802184D01*
X133725503Y-103637772D01*
X133789653Y-103482900D01*
X133882785Y-103343519D01*
X134001319Y-103224985D01*
X134140700Y-103131853D01*
X134295572Y-103067703D01*
X134459984Y-103035000D01*
X134627616Y-103035000D01*
X134792028Y-103067703D01*
G37*
G36*
X140474800Y-104737000D02*
G01*
X138772800Y-104737000D01*
X138772800Y-103035000D01*
X140474800Y-103035000D01*
X140474800Y-104737000D01*
G37*
G36*
X137332028Y-103067703D02*
G01*
X137486900Y-103131853D01*
X137626281Y-103224985D01*
X137744815Y-103343519D01*
X137837947Y-103482900D01*
X137902097Y-103637772D01*
X137934800Y-103802184D01*
X137934800Y-103969816D01*
X137902097Y-104134228D01*
X137837947Y-104289100D01*
X137744815Y-104428481D01*
X137626281Y-104547015D01*
X137486900Y-104640147D01*
X137332028Y-104704297D01*
X137167616Y-104737000D01*
X136999984Y-104737000D01*
X136835572Y-104704297D01*
X136680700Y-104640147D01*
X136541319Y-104547015D01*
X136422785Y-104428481D01*
X136329653Y-104289100D01*
X136265503Y-104134228D01*
X136232800Y-103969816D01*
X136232800Y-103802184D01*
X136265503Y-103637772D01*
X136329653Y-103482900D01*
X136422785Y-103343519D01*
X136541319Y-103224985D01*
X136680700Y-103131853D01*
X136835572Y-103067703D01*
X136999984Y-103035000D01*
X137167616Y-103035000D01*
X137332028Y-103067703D01*
G37*
G36*
X146384674Y-102772865D02*
G01*
X146422367Y-102784299D01*
X146457103Y-102802866D01*
X146487548Y-102827852D01*
X146512534Y-102858297D01*
X146531101Y-102893033D01*
X146542535Y-102930726D01*
X146547000Y-102976061D01*
X146547000Y-103812739D01*
X146542535Y-103858074D01*
X146531101Y-103895767D01*
X146512534Y-103930503D01*
X146487548Y-103960948D01*
X146457103Y-103985934D01*
X146422367Y-104004501D01*
X146384674Y-104015935D01*
X146339339Y-104020400D01*
X145252661Y-104020400D01*
X145207326Y-104015935D01*
X145169633Y-104004501D01*
X145134897Y-103985934D01*
X145104452Y-103960948D01*
X145079466Y-103930503D01*
X145060899Y-103895767D01*
X145049465Y-103858074D01*
X145045000Y-103812739D01*
X145045000Y-102976061D01*
X145049465Y-102930726D01*
X145060899Y-102893033D01*
X145079466Y-102858297D01*
X145104452Y-102827852D01*
X145134897Y-102802866D01*
X145169633Y-102784299D01*
X145207326Y-102772865D01*
X145252661Y-102768400D01*
X146339339Y-102768400D01*
X146384674Y-102772865D01*
G37*
G36*
X144793600Y-98188200D02*
G01*
X144629260Y-98188200D01*
X144604874Y-98190602D01*
X144581425Y-98197715D01*
X144559814Y-98209266D01*
X144540872Y-98224811D01*
X144525327Y-98243753D01*
X144513776Y-98265364D01*
X144506663Y-98288813D01*
X144504261Y-98313199D01*
X144506663Y-98337585D01*
X144513776Y-98361034D01*
X144525327Y-98382645D01*
X144540872Y-98401587D01*
X144549945Y-98409809D01*
X144626864Y-98472936D01*
X144698844Y-98560643D01*
X144733029Y-98624599D01*
X144752328Y-98660705D01*
X144752329Y-98660708D01*
X144785266Y-98769284D01*
X144796387Y-98882200D01*
X144785266Y-98995116D01*
X144752329Y-99103692D01*
X144752328Y-99103695D01*
X144740266Y-99126261D01*
X144698844Y-99203757D01*
X144626864Y-99291464D01*
X144539157Y-99363444D01*
X144457741Y-99406961D01*
X144437366Y-99420575D01*
X144420039Y-99437902D01*
X144406426Y-99458276D01*
X144397048Y-99480915D01*
X144392268Y-99504948D01*
X144392268Y-99529452D01*
X144397048Y-99553485D01*
X144406426Y-99576124D01*
X144420040Y-99596499D01*
X144437367Y-99613826D01*
X144457741Y-99627439D01*
X144539157Y-99670956D01*
X144626864Y-99742936D01*
X144698844Y-99830643D01*
X144733029Y-99894599D01*
X144752328Y-99930705D01*
X144752329Y-99930708D01*
X144785266Y-100039284D01*
X144796387Y-100152200D01*
X144785266Y-100265116D01*
X144762282Y-100340882D01*
X144752328Y-100373695D01*
X144735755Y-100404701D01*
X144698844Y-100473757D01*
X144626864Y-100561464D01*
X144539157Y-100633444D01*
X144475201Y-100667629D01*
X144439095Y-100686928D01*
X144439092Y-100686929D01*
X144330516Y-100719866D01*
X144245898Y-100728200D01*
X143739302Y-100728200D01*
X143654684Y-100719866D01*
X143546108Y-100686929D01*
X143546105Y-100686928D01*
X143509999Y-100667629D01*
X143446043Y-100633444D01*
X143358336Y-100561464D01*
X143286356Y-100473757D01*
X143249445Y-100404701D01*
X143232872Y-100373695D01*
X143222918Y-100340882D01*
X143199934Y-100265116D01*
X143188813Y-100152200D01*
X143199934Y-100039284D01*
X143232871Y-99930708D01*
X143232872Y-99930705D01*
X143252171Y-99894599D01*
X143286356Y-99830643D01*
X143358336Y-99742936D01*
X143446043Y-99670956D01*
X143527459Y-99627439D01*
X143547834Y-99613825D01*
X143565161Y-99596498D01*
X143578774Y-99576124D01*
X143588152Y-99553485D01*
X143592932Y-99529452D01*
X143592932Y-99504948D01*
X143588152Y-99480915D01*
X143578774Y-99458276D01*
X143565160Y-99437901D01*
X143547833Y-99420574D01*
X143527459Y-99406961D01*
X143446043Y-99363444D01*
X143358336Y-99291464D01*
X143286356Y-99203757D01*
X143244934Y-99126261D01*
X143232872Y-99103695D01*
X143232871Y-99103692D01*
X143199934Y-98995116D01*
X143188813Y-98882200D01*
X143199934Y-98769284D01*
X143232871Y-98660708D01*
X143232872Y-98660705D01*
X143252171Y-98624599D01*
X143286356Y-98560643D01*
X143358336Y-98472936D01*
X143435246Y-98409817D01*
X143452565Y-98392498D01*
X143466179Y-98372123D01*
X143475557Y-98349484D01*
X143480337Y-98325451D01*
X143480337Y-98300947D01*
X143475557Y-98276914D01*
X143466179Y-98254275D01*
X143452566Y-98233901D01*
X143435239Y-98216574D01*
X143414864Y-98202960D01*
X143392225Y-98193582D01*
X143368192Y-98188802D01*
X143355940Y-98188200D01*
X143191600Y-98188200D01*
X143191600Y-97036200D01*
X144793600Y-97036200D01*
X144793600Y-98188200D01*
G37*
G36*
X133322074Y-98923065D02*
G01*
X133359767Y-98934499D01*
X133394503Y-98953066D01*
X133424948Y-98978052D01*
X133449934Y-99008497D01*
X133468501Y-99043233D01*
X133479935Y-99080926D01*
X133484400Y-99126261D01*
X133484400Y-100212939D01*
X133479935Y-100258274D01*
X133468501Y-100295967D01*
X133449934Y-100330703D01*
X133424948Y-100361148D01*
X133394503Y-100386134D01*
X133359767Y-100404701D01*
X133322074Y-100416135D01*
X133276739Y-100420600D01*
X132440061Y-100420600D01*
X132394726Y-100416135D01*
X132357033Y-100404701D01*
X132322297Y-100386134D01*
X132291852Y-100361148D01*
X132266866Y-100330703D01*
X132248299Y-100295967D01*
X132236865Y-100258274D01*
X132232400Y-100212939D01*
X132232400Y-99126261D01*
X132236865Y-99080926D01*
X132248299Y-99043233D01*
X132266866Y-99008497D01*
X132291852Y-98978052D01*
X132322297Y-98953066D01*
X132357033Y-98934499D01*
X132394726Y-98923065D01*
X132440061Y-98918600D01*
X133276739Y-98918600D01*
X133322074Y-98923065D01*
G37*
G36*
X135372074Y-98923065D02*
G01*
X135409767Y-98934499D01*
X135444503Y-98953066D01*
X135474948Y-98978052D01*
X135499934Y-99008497D01*
X135518501Y-99043233D01*
X135529935Y-99080926D01*
X135534400Y-99126261D01*
X135534400Y-100212939D01*
X135529935Y-100258274D01*
X135518501Y-100295967D01*
X135499934Y-100330703D01*
X135474948Y-100361148D01*
X135444503Y-100386134D01*
X135409767Y-100404701D01*
X135372074Y-100416135D01*
X135326739Y-100420600D01*
X134490061Y-100420600D01*
X134444726Y-100416135D01*
X134407033Y-100404701D01*
X134372297Y-100386134D01*
X134341852Y-100361148D01*
X134316866Y-100330703D01*
X134298299Y-100295967D01*
X134286865Y-100258274D01*
X134282400Y-100212939D01*
X134282400Y-99126261D01*
X134286865Y-99080926D01*
X134298299Y-99043233D01*
X134316866Y-99008497D01*
X134341852Y-98978052D01*
X134372297Y-98953066D01*
X134407033Y-98934499D01*
X134444726Y-98923065D01*
X134490061Y-98918600D01*
X135326739Y-98918600D01*
X135372074Y-98923065D01*
G37*
G36*
X126616474Y-98923065D02*
G01*
X126654167Y-98934499D01*
X126688903Y-98953066D01*
X126719348Y-98978052D01*
X126744334Y-99008497D01*
X126762901Y-99043233D01*
X126774335Y-99080926D01*
X126778800Y-99126261D01*
X126778800Y-100212939D01*
X126774335Y-100258274D01*
X126762901Y-100295967D01*
X126744334Y-100330703D01*
X126719348Y-100361148D01*
X126688903Y-100386134D01*
X126654167Y-100404701D01*
X126616474Y-100416135D01*
X126571139Y-100420600D01*
X125734461Y-100420600D01*
X125689126Y-100416135D01*
X125651433Y-100404701D01*
X125616697Y-100386134D01*
X125586252Y-100361148D01*
X125561266Y-100330703D01*
X125542699Y-100295967D01*
X125531265Y-100258274D01*
X125526800Y-100212939D01*
X125526800Y-99126261D01*
X125531265Y-99080926D01*
X125542699Y-99043233D01*
X125561266Y-99008497D01*
X125586252Y-98978052D01*
X125616697Y-98953066D01*
X125651433Y-98934499D01*
X125689126Y-98923065D01*
X125734461Y-98918600D01*
X126571139Y-98918600D01*
X126616474Y-98923065D01*
G37*
G36*
X128666474Y-98923065D02*
G01*
X128704167Y-98934499D01*
X128738903Y-98953066D01*
X128769348Y-98978052D01*
X128794334Y-99008497D01*
X128812901Y-99043233D01*
X128824335Y-99080926D01*
X128828800Y-99126261D01*
X128828800Y-100212939D01*
X128824335Y-100258274D01*
X128812901Y-100295967D01*
X128794334Y-100330703D01*
X128769348Y-100361148D01*
X128738903Y-100386134D01*
X128704167Y-100404701D01*
X128666474Y-100416135D01*
X128621139Y-100420600D01*
X127784461Y-100420600D01*
X127739126Y-100416135D01*
X127701433Y-100404701D01*
X127666697Y-100386134D01*
X127636252Y-100361148D01*
X127611266Y-100330703D01*
X127592699Y-100295967D01*
X127581265Y-100258274D01*
X127576800Y-100212939D01*
X127576800Y-99126261D01*
X127581265Y-99080926D01*
X127592699Y-99043233D01*
X127611266Y-99008497D01*
X127636252Y-98978052D01*
X127666697Y-98953066D01*
X127701433Y-98934499D01*
X127739126Y-98923065D01*
X127784461Y-98918600D01*
X128621139Y-98918600D01*
X128666474Y-98923065D01*
G37*
G36*
X115483874Y-98796065D02*
G01*
X115521567Y-98807499D01*
X115556303Y-98826066D01*
X115586748Y-98851052D01*
X115611734Y-98881497D01*
X115630301Y-98916233D01*
X115641735Y-98953926D01*
X115646200Y-98999261D01*
X115646200Y-100085939D01*
X115641735Y-100131274D01*
X115630301Y-100168967D01*
X115611734Y-100203703D01*
X115586748Y-100234148D01*
X115556303Y-100259134D01*
X115521567Y-100277701D01*
X115483874Y-100289135D01*
X115438539Y-100293600D01*
X114601861Y-100293600D01*
X114556526Y-100289135D01*
X114518833Y-100277701D01*
X114484097Y-100259134D01*
X114453652Y-100234148D01*
X114428666Y-100203703D01*
X114410099Y-100168967D01*
X114398665Y-100131274D01*
X114394200Y-100085939D01*
X114394200Y-98999261D01*
X114398665Y-98953926D01*
X114410099Y-98916233D01*
X114428666Y-98881497D01*
X114453652Y-98851052D01*
X114484097Y-98826066D01*
X114518833Y-98807499D01*
X114556526Y-98796065D01*
X114601861Y-98791600D01*
X115438539Y-98791600D01*
X115483874Y-98796065D01*
G37*
G36*
X113433874Y-98796065D02*
G01*
X113471567Y-98807499D01*
X113506303Y-98826066D01*
X113536748Y-98851052D01*
X113561734Y-98881497D01*
X113580301Y-98916233D01*
X113591735Y-98953926D01*
X113596200Y-98999261D01*
X113596200Y-100085939D01*
X113591735Y-100131274D01*
X113580301Y-100168967D01*
X113561734Y-100203703D01*
X113536748Y-100234148D01*
X113506303Y-100259134D01*
X113471567Y-100277701D01*
X113433874Y-100289135D01*
X113388539Y-100293600D01*
X112551861Y-100293600D01*
X112506526Y-100289135D01*
X112468833Y-100277701D01*
X112434097Y-100259134D01*
X112403652Y-100234148D01*
X112378666Y-100203703D01*
X112360099Y-100168967D01*
X112348665Y-100131274D01*
X112344200Y-100085939D01*
X112344200Y-98999261D01*
X112348665Y-98953926D01*
X112360099Y-98916233D01*
X112378666Y-98881497D01*
X112403652Y-98851052D01*
X112434097Y-98826066D01*
X112468833Y-98807499D01*
X112506526Y-98796065D01*
X112551861Y-98791600D01*
X113388539Y-98791600D01*
X113433874Y-98796065D01*
G37*
G36*
X108759943Y-96374087D02*
G01*
X108916638Y-96438992D01*
X109057653Y-96533215D01*
X109177585Y-96653147D01*
X109271808Y-96794162D01*
X109336713Y-96950857D01*
X109369800Y-97117198D01*
X109369800Y-97286802D01*
X109336713Y-97453143D01*
X109271808Y-97609838D01*
X109177585Y-97750853D01*
X109057653Y-97870785D01*
X108916638Y-97965008D01*
X108759943Y-98029913D01*
X108593602Y-98063000D01*
X108423998Y-98063000D01*
X108257657Y-98029913D01*
X108100962Y-97965008D01*
X107959947Y-97870785D01*
X107840015Y-97750853D01*
X107745792Y-97609838D01*
X107680887Y-97453143D01*
X107647800Y-97286802D01*
X107647800Y-97117198D01*
X107680887Y-96950857D01*
X107745792Y-96794162D01*
X107840015Y-96653147D01*
X107959947Y-96533215D01*
X108100962Y-96438992D01*
X108257657Y-96374087D01*
X108423998Y-96341000D01*
X108593602Y-96341000D01*
X108759943Y-96374087D01*
G37*
G36*
X95933274Y-95824265D02*
G01*
X95970967Y-95835699D01*
X96005703Y-95854266D01*
X96036148Y-95879252D01*
X96061134Y-95909697D01*
X96079701Y-95944433D01*
X96091135Y-95982126D01*
X96095600Y-96027461D01*
X96095600Y-97114139D01*
X96091135Y-97159474D01*
X96079701Y-97197167D01*
X96061134Y-97231903D01*
X96036148Y-97262348D01*
X96005703Y-97287334D01*
X95970967Y-97305901D01*
X95933274Y-97317335D01*
X95887939Y-97321800D01*
X95051261Y-97321800D01*
X95005926Y-97317335D01*
X94968233Y-97305901D01*
X94933497Y-97287334D01*
X94903052Y-97262348D01*
X94878066Y-97231903D01*
X94859499Y-97197167D01*
X94848065Y-97159474D01*
X94843600Y-97114139D01*
X94843600Y-96027461D01*
X94848065Y-95982126D01*
X94859499Y-95944433D01*
X94878066Y-95909697D01*
X94903052Y-95879252D01*
X94933497Y-95854266D01*
X94968233Y-95835699D01*
X95005926Y-95824265D01*
X95051261Y-95819800D01*
X95887939Y-95819800D01*
X95933274Y-95824265D01*
G37*
G36*
X97983274Y-95824265D02*
G01*
X98020967Y-95835699D01*
X98055703Y-95854266D01*
X98086148Y-95879252D01*
X98111134Y-95909697D01*
X98129701Y-95944433D01*
X98141135Y-95982126D01*
X98145600Y-96027461D01*
X98145600Y-97114139D01*
X98141135Y-97159474D01*
X98129701Y-97197167D01*
X98111134Y-97231903D01*
X98086148Y-97262348D01*
X98055703Y-97287334D01*
X98020967Y-97305901D01*
X97983274Y-97317335D01*
X97937939Y-97321800D01*
X97101261Y-97321800D01*
X97055926Y-97317335D01*
X97018233Y-97305901D01*
X96983497Y-97287334D01*
X96953052Y-97262348D01*
X96928066Y-97231903D01*
X96909499Y-97197167D01*
X96898065Y-97159474D01*
X96893600Y-97114139D01*
X96893600Y-96027461D01*
X96898065Y-95982126D01*
X96909499Y-95944433D01*
X96928066Y-95909697D01*
X96953052Y-95879252D01*
X96983497Y-95854266D01*
X97018233Y-95835699D01*
X97055926Y-95824265D01*
X97101261Y-95819800D01*
X97937939Y-95819800D01*
X97983274Y-95824265D01*
G37*
G36*
X122240274Y-95214665D02*
G01*
X122277967Y-95226099D01*
X122312703Y-95244666D01*
X122343148Y-95269652D01*
X122368134Y-95300097D01*
X122386701Y-95334833D01*
X122398135Y-95372526D01*
X122402600Y-95417861D01*
X122402600Y-96504539D01*
X122398135Y-96549874D01*
X122386701Y-96587567D01*
X122368134Y-96622303D01*
X122343148Y-96652748D01*
X122312703Y-96677734D01*
X122277967Y-96696301D01*
X122240274Y-96707735D01*
X122194939Y-96712200D01*
X121358261Y-96712200D01*
X121312926Y-96707735D01*
X121275233Y-96696301D01*
X121240497Y-96677734D01*
X121210052Y-96652748D01*
X121185066Y-96622303D01*
X121166499Y-96587567D01*
X121155065Y-96549874D01*
X121150600Y-96504539D01*
X121150600Y-95417861D01*
X121155065Y-95372526D01*
X121166499Y-95334833D01*
X121185066Y-95300097D01*
X121210052Y-95269652D01*
X121240497Y-95244666D01*
X121275233Y-95226099D01*
X121312926Y-95214665D01*
X121358261Y-95210200D01*
X122194939Y-95210200D01*
X122240274Y-95214665D01*
G37*
G36*
X120190274Y-95214665D02*
G01*
X120227967Y-95226099D01*
X120262703Y-95244666D01*
X120293148Y-95269652D01*
X120318134Y-95300097D01*
X120336701Y-95334833D01*
X120348135Y-95372526D01*
X120352600Y-95417861D01*
X120352600Y-96504539D01*
X120348135Y-96549874D01*
X120336701Y-96587567D01*
X120318134Y-96622303D01*
X120293148Y-96652748D01*
X120262703Y-96677734D01*
X120227967Y-96696301D01*
X120190274Y-96707735D01*
X120144939Y-96712200D01*
X119308261Y-96712200D01*
X119262926Y-96707735D01*
X119225233Y-96696301D01*
X119190497Y-96677734D01*
X119160052Y-96652748D01*
X119135066Y-96622303D01*
X119116499Y-96587567D01*
X119105065Y-96549874D01*
X119100600Y-96504539D01*
X119100600Y-95417861D01*
X119105065Y-95372526D01*
X119116499Y-95334833D01*
X119135066Y-95300097D01*
X119160052Y-95269652D01*
X119190497Y-95244666D01*
X119225233Y-95226099D01*
X119262926Y-95214665D01*
X119308261Y-95210200D01*
X120144939Y-95210200D01*
X120190274Y-95214665D01*
G37*
G36*
X103759943Y-93874087D02*
G01*
X103916638Y-93938992D01*
X104057653Y-94033215D01*
X104177585Y-94153147D01*
X104271808Y-94294162D01*
X104336713Y-94450857D01*
X104369800Y-94617198D01*
X104369800Y-94786802D01*
X104336713Y-94953143D01*
X104271808Y-95109838D01*
X104177585Y-95250853D01*
X104057653Y-95370785D01*
X103916638Y-95465008D01*
X103759943Y-95529913D01*
X103593602Y-95563000D01*
X103423998Y-95563000D01*
X103257657Y-95529913D01*
X103100962Y-95465008D01*
X102959947Y-95370785D01*
X102840015Y-95250853D01*
X102745792Y-95109838D01*
X102680887Y-94953143D01*
X102647800Y-94786802D01*
X102647800Y-94617198D01*
X102680887Y-94450857D01*
X102745792Y-94294162D01*
X102840015Y-94153147D01*
X102959947Y-94033215D01*
X103100962Y-93938992D01*
X103257657Y-93874087D01*
X103423998Y-93841000D01*
X103593602Y-93841000D01*
X103759943Y-93874087D01*
G37*
G36*
X114466000Y-92955800D02*
G01*
X114301660Y-92955800D01*
X114277274Y-92958202D01*
X114253825Y-92965315D01*
X114232214Y-92976866D01*
X114213272Y-92992411D01*
X114197727Y-93011353D01*
X114186176Y-93032964D01*
X114179063Y-93056413D01*
X114176661Y-93080799D01*
X114179063Y-93105185D01*
X114186176Y-93128634D01*
X114197727Y-93150245D01*
X114213272Y-93169187D01*
X114222345Y-93177409D01*
X114299264Y-93240536D01*
X114371244Y-93328243D01*
X114405429Y-93392199D01*
X114424728Y-93428305D01*
X114424729Y-93428308D01*
X114457666Y-93536884D01*
X114468787Y-93649800D01*
X114457666Y-93762716D01*
X114424729Y-93871292D01*
X114424728Y-93871295D01*
X114405429Y-93907401D01*
X114371244Y-93971357D01*
X114299264Y-94059064D01*
X114211557Y-94131044D01*
X114130141Y-94174561D01*
X114109766Y-94188175D01*
X114092439Y-94205502D01*
X114078826Y-94225876D01*
X114069448Y-94248515D01*
X114064668Y-94272548D01*
X114064668Y-94297052D01*
X114069448Y-94321085D01*
X114078826Y-94343724D01*
X114092440Y-94364099D01*
X114109767Y-94381426D01*
X114130141Y-94395039D01*
X114211557Y-94438556D01*
X114299264Y-94510536D01*
X114371244Y-94598243D01*
X114405429Y-94662199D01*
X114424728Y-94698305D01*
X114424729Y-94698308D01*
X114457666Y-94806884D01*
X114468787Y-94919800D01*
X114457666Y-95032716D01*
X114430725Y-95121525D01*
X114424728Y-95141295D01*
X114408004Y-95172583D01*
X114371244Y-95241357D01*
X114299264Y-95329064D01*
X114211557Y-95401044D01*
X114147601Y-95435229D01*
X114111495Y-95454528D01*
X114111492Y-95454529D01*
X114002916Y-95487466D01*
X113918298Y-95495800D01*
X113411702Y-95495800D01*
X113327084Y-95487466D01*
X113218508Y-95454529D01*
X113218505Y-95454528D01*
X113182399Y-95435229D01*
X113118443Y-95401044D01*
X113030736Y-95329064D01*
X112958756Y-95241357D01*
X112921996Y-95172583D01*
X112905272Y-95141295D01*
X112899275Y-95121525D01*
X112872334Y-95032716D01*
X112861213Y-94919800D01*
X112872334Y-94806884D01*
X112905271Y-94698308D01*
X112905272Y-94698305D01*
X112924571Y-94662199D01*
X112958756Y-94598243D01*
X113030736Y-94510536D01*
X113118443Y-94438556D01*
X113199859Y-94395039D01*
X113220234Y-94381425D01*
X113237561Y-94364098D01*
X113251174Y-94343724D01*
X113260552Y-94321085D01*
X113265332Y-94297052D01*
X113265332Y-94272548D01*
X113260552Y-94248515D01*
X113251174Y-94225876D01*
X113237560Y-94205501D01*
X113220233Y-94188174D01*
X113199859Y-94174561D01*
X113118443Y-94131044D01*
X113030736Y-94059064D01*
X112958756Y-93971357D01*
X112924571Y-93907401D01*
X112905272Y-93871295D01*
X112905271Y-93871292D01*
X112872334Y-93762716D01*
X112861213Y-93649800D01*
X112872334Y-93536884D01*
X112905271Y-93428308D01*
X112905272Y-93428305D01*
X112924571Y-93392199D01*
X112958756Y-93328243D01*
X113030736Y-93240536D01*
X113107646Y-93177417D01*
X113124965Y-93160098D01*
X113138579Y-93139723D01*
X113147957Y-93117084D01*
X113152737Y-93093051D01*
X113152737Y-93068547D01*
X113147957Y-93044514D01*
X113138579Y-93021875D01*
X113124966Y-93001501D01*
X113107639Y-92984174D01*
X113087264Y-92970560D01*
X113064625Y-92961182D01*
X113040592Y-92956402D01*
X113028340Y-92955800D01*
X112864000Y-92955800D01*
X112864000Y-91803800D01*
X114466000Y-91803800D01*
X114466000Y-92955800D01*
G37*
G36*
X138529074Y-93868465D02*
G01*
X138566767Y-93879899D01*
X138601503Y-93898466D01*
X138631948Y-93923452D01*
X138656934Y-93953897D01*
X138675501Y-93988633D01*
X138686935Y-94026326D01*
X138691400Y-94071661D01*
X138691400Y-95158339D01*
X138686935Y-95203674D01*
X138675501Y-95241367D01*
X138656934Y-95276103D01*
X138631948Y-95306548D01*
X138601503Y-95331534D01*
X138566767Y-95350101D01*
X138529074Y-95361535D01*
X138483739Y-95366000D01*
X137647061Y-95366000D01*
X137601726Y-95361535D01*
X137564033Y-95350101D01*
X137529297Y-95331534D01*
X137498852Y-95306548D01*
X137473866Y-95276103D01*
X137455299Y-95241367D01*
X137443865Y-95203674D01*
X137439400Y-95158339D01*
X137439400Y-94071661D01*
X137443865Y-94026326D01*
X137455299Y-93988633D01*
X137473866Y-93953897D01*
X137498852Y-93923452D01*
X137529297Y-93898466D01*
X137564033Y-93879899D01*
X137601726Y-93868465D01*
X137647061Y-93864000D01*
X138483739Y-93864000D01*
X138529074Y-93868465D01*
G37*
G36*
X140579074Y-93868465D02*
G01*
X140616767Y-93879899D01*
X140651503Y-93898466D01*
X140681948Y-93923452D01*
X140706934Y-93953897D01*
X140725501Y-93988633D01*
X140736935Y-94026326D01*
X140741400Y-94071661D01*
X140741400Y-95158339D01*
X140736935Y-95203674D01*
X140725501Y-95241367D01*
X140706934Y-95276103D01*
X140681948Y-95306548D01*
X140651503Y-95331534D01*
X140616767Y-95350101D01*
X140579074Y-95361535D01*
X140533739Y-95366000D01*
X139697061Y-95366000D01*
X139651726Y-95361535D01*
X139614033Y-95350101D01*
X139579297Y-95331534D01*
X139548852Y-95306548D01*
X139523866Y-95276103D01*
X139505299Y-95241367D01*
X139493865Y-95203674D01*
X139489400Y-95158339D01*
X139489400Y-94071661D01*
X139493865Y-94026326D01*
X139505299Y-93988633D01*
X139523866Y-93953897D01*
X139548852Y-93923452D01*
X139579297Y-93898466D01*
X139614033Y-93879899D01*
X139651726Y-93868465D01*
X139697061Y-93864000D01*
X140533739Y-93864000D01*
X140579074Y-93868465D01*
G37*
G36*
X135422874Y-93843065D02*
G01*
X135460567Y-93854499D01*
X135495303Y-93873066D01*
X135525748Y-93898052D01*
X135550734Y-93928497D01*
X135569301Y-93963233D01*
X135580735Y-94000926D01*
X135585200Y-94046261D01*
X135585200Y-95132939D01*
X135580735Y-95178274D01*
X135569301Y-95215967D01*
X135550734Y-95250703D01*
X135525748Y-95281148D01*
X135495303Y-95306134D01*
X135460567Y-95324701D01*
X135422874Y-95336135D01*
X135377539Y-95340600D01*
X134540861Y-95340600D01*
X134495526Y-95336135D01*
X134457833Y-95324701D01*
X134423097Y-95306134D01*
X134392652Y-95281148D01*
X134367666Y-95250703D01*
X134349099Y-95215967D01*
X134337665Y-95178274D01*
X134333200Y-95132939D01*
X134333200Y-94046261D01*
X134337665Y-94000926D01*
X134349099Y-93963233D01*
X134367666Y-93928497D01*
X134392652Y-93898052D01*
X134423097Y-93873066D01*
X134457833Y-93854499D01*
X134495526Y-93843065D01*
X134540861Y-93838600D01*
X135377539Y-93838600D01*
X135422874Y-93843065D01*
G37*
G36*
X133372874Y-93843065D02*
G01*
X133410567Y-93854499D01*
X133445303Y-93873066D01*
X133475748Y-93898052D01*
X133500734Y-93928497D01*
X133519301Y-93963233D01*
X133530735Y-94000926D01*
X133535200Y-94046261D01*
X133535200Y-95132939D01*
X133530735Y-95178274D01*
X133519301Y-95215967D01*
X133500734Y-95250703D01*
X133475748Y-95281148D01*
X133445303Y-95306134D01*
X133410567Y-95324701D01*
X133372874Y-95336135D01*
X133327539Y-95340600D01*
X132490861Y-95340600D01*
X132445526Y-95336135D01*
X132407833Y-95324701D01*
X132373097Y-95306134D01*
X132342652Y-95281148D01*
X132317666Y-95250703D01*
X132299099Y-95215967D01*
X132287665Y-95178274D01*
X132283200Y-95132939D01*
X132283200Y-94046261D01*
X132287665Y-94000926D01*
X132299099Y-93963233D01*
X132317666Y-93928497D01*
X132342652Y-93898052D01*
X132373097Y-93873066D01*
X132407833Y-93854499D01*
X132445526Y-93843065D01*
X132490861Y-93838600D01*
X133327539Y-93838600D01*
X133372874Y-93843065D01*
G37*
G36*
X145887674Y-92242865D02*
G01*
X145925367Y-92254299D01*
X145960103Y-92272866D01*
X145990548Y-92297852D01*
X146015534Y-92328297D01*
X146034101Y-92363033D01*
X146045535Y-92400726D01*
X146050000Y-92446061D01*
X146050000Y-93532739D01*
X146045535Y-93578074D01*
X146034101Y-93615767D01*
X146015534Y-93650503D01*
X145990548Y-93680948D01*
X145960103Y-93705934D01*
X145925367Y-93724501D01*
X145887674Y-93735935D01*
X145842339Y-93740400D01*
X145005661Y-93740400D01*
X144960326Y-93735935D01*
X144922633Y-93724501D01*
X144887897Y-93705934D01*
X144857452Y-93680948D01*
X144832466Y-93650503D01*
X144813899Y-93615767D01*
X144802465Y-93578074D01*
X144798000Y-93532739D01*
X144798000Y-92446061D01*
X144802465Y-92400726D01*
X144813899Y-92363033D01*
X144832466Y-92328297D01*
X144857452Y-92297852D01*
X144887897Y-92272866D01*
X144922633Y-92254299D01*
X144960326Y-92242865D01*
X145005661Y-92238400D01*
X145842339Y-92238400D01*
X145887674Y-92242865D01*
G37*
G36*
X143837674Y-92242865D02*
G01*
X143875367Y-92254299D01*
X143910103Y-92272866D01*
X143940548Y-92297852D01*
X143965534Y-92328297D01*
X143984101Y-92363033D01*
X143995535Y-92400726D01*
X144000000Y-92446061D01*
X144000000Y-93532739D01*
X143995535Y-93578074D01*
X143984101Y-93615767D01*
X143965534Y-93650503D01*
X143940548Y-93680948D01*
X143910103Y-93705934D01*
X143875367Y-93724501D01*
X143837674Y-93735935D01*
X143792339Y-93740400D01*
X142955661Y-93740400D01*
X142910326Y-93735935D01*
X142872633Y-93724501D01*
X142837897Y-93705934D01*
X142807452Y-93680948D01*
X142782466Y-93650503D01*
X142763899Y-93615767D01*
X142752465Y-93578074D01*
X142748000Y-93532739D01*
X142748000Y-92446061D01*
X142752465Y-92400726D01*
X142763899Y-92363033D01*
X142782466Y-92328297D01*
X142807452Y-92297852D01*
X142837897Y-92272866D01*
X142872633Y-92254299D01*
X142910326Y-92242865D01*
X142955661Y-92238400D01*
X143792339Y-92238400D01*
X143837674Y-92242865D01*
G37*
G36*
X108759943Y-91374087D02*
G01*
X108916638Y-91438992D01*
X109057653Y-91533215D01*
X109177585Y-91653147D01*
X109271808Y-91794162D01*
X109336713Y-91950857D01*
X109369800Y-92117198D01*
X109369800Y-92286802D01*
X109336713Y-92453143D01*
X109271808Y-92609838D01*
X109177585Y-92750853D01*
X109057653Y-92870785D01*
X108916638Y-92965008D01*
X108759943Y-93029913D01*
X108593602Y-93063000D01*
X108423998Y-93063000D01*
X108257657Y-93029913D01*
X108100962Y-92965008D01*
X107959947Y-92870785D01*
X107840015Y-92750853D01*
X107745792Y-92609838D01*
X107680887Y-92453143D01*
X107647800Y-92286802D01*
X107647800Y-92117198D01*
X107680887Y-91950857D01*
X107745792Y-91794162D01*
X107840015Y-91653147D01*
X107959947Y-91533215D01*
X108100962Y-91438992D01*
X108257657Y-91374087D01*
X108423998Y-91341000D01*
X108593602Y-91341000D01*
X108759943Y-91374087D01*
G37*
G36*
X98540200Y-89958600D02*
G01*
X98375860Y-89958600D01*
X98351474Y-89961002D01*
X98328025Y-89968115D01*
X98306414Y-89979666D01*
X98287472Y-89995211D01*
X98271927Y-90014153D01*
X98260376Y-90035764D01*
X98253263Y-90059213D01*
X98250861Y-90083599D01*
X98253263Y-90107985D01*
X98260376Y-90131434D01*
X98271927Y-90153045D01*
X98287472Y-90171987D01*
X98296545Y-90180209D01*
X98373464Y-90243336D01*
X98445444Y-90331043D01*
X98479629Y-90394999D01*
X98498928Y-90431105D01*
X98498929Y-90431108D01*
X98531866Y-90539684D01*
X98542987Y-90652600D01*
X98531866Y-90765516D01*
X98511314Y-90833264D01*
X98498928Y-90874095D01*
X98488065Y-90894418D01*
X98445444Y-90974157D01*
X98373464Y-91061864D01*
X98285757Y-91133844D01*
X98204341Y-91177361D01*
X98183966Y-91190975D01*
X98166639Y-91208302D01*
X98153026Y-91228676D01*
X98143648Y-91251315D01*
X98138868Y-91275348D01*
X98138868Y-91299852D01*
X98143648Y-91323885D01*
X98153026Y-91346524D01*
X98166640Y-91366899D01*
X98183967Y-91384226D01*
X98204341Y-91397839D01*
X98285757Y-91441356D01*
X98373464Y-91513336D01*
X98445444Y-91601043D01*
X98473292Y-91653144D01*
X98498928Y-91701105D01*
X98498929Y-91701108D01*
X98531866Y-91809684D01*
X98542987Y-91922600D01*
X98531866Y-92035516D01*
X98508648Y-92112053D01*
X98498928Y-92144095D01*
X98479629Y-92180201D01*
X98445444Y-92244157D01*
X98373464Y-92331864D01*
X98285757Y-92403844D01*
X98221801Y-92438029D01*
X98185695Y-92457328D01*
X98185692Y-92457329D01*
X98077116Y-92490266D01*
X97992498Y-92498600D01*
X97485902Y-92498600D01*
X97401284Y-92490266D01*
X97292708Y-92457329D01*
X97292705Y-92457328D01*
X97256599Y-92438029D01*
X97192643Y-92403844D01*
X97104936Y-92331864D01*
X97032956Y-92244157D01*
X96998771Y-92180201D01*
X96979472Y-92144095D01*
X96969752Y-92112053D01*
X96946534Y-92035516D01*
X96935413Y-91922600D01*
X96946534Y-91809684D01*
X96979471Y-91701108D01*
X96979472Y-91701105D01*
X97005108Y-91653144D01*
X97032956Y-91601043D01*
X97104936Y-91513336D01*
X97192643Y-91441356D01*
X97274059Y-91397839D01*
X97294434Y-91384225D01*
X97311761Y-91366898D01*
X97325374Y-91346524D01*
X97334752Y-91323885D01*
X97339532Y-91299852D01*
X97339532Y-91275348D01*
X97334752Y-91251315D01*
X97325374Y-91228676D01*
X97311760Y-91208301D01*
X97294433Y-91190974D01*
X97274059Y-91177361D01*
X97192643Y-91133844D01*
X97104936Y-91061864D01*
X97032956Y-90974157D01*
X96990335Y-90894418D01*
X96979472Y-90874095D01*
X96967086Y-90833264D01*
X96946534Y-90765516D01*
X96935413Y-90652600D01*
X96946534Y-90539684D01*
X96979471Y-90431108D01*
X96979472Y-90431105D01*
X96998771Y-90394999D01*
X97032956Y-90331043D01*
X97104936Y-90243336D01*
X97181846Y-90180217D01*
X97199165Y-90162898D01*
X97212779Y-90142523D01*
X97222157Y-90119884D01*
X97226937Y-90095851D01*
X97226937Y-90071347D01*
X97222157Y-90047314D01*
X97212779Y-90024675D01*
X97199166Y-90004301D01*
X97181839Y-89986974D01*
X97161464Y-89973360D01*
X97138825Y-89963982D01*
X97114792Y-89959202D01*
X97102540Y-89958600D01*
X96938200Y-89958600D01*
X96938200Y-88806600D01*
X98540200Y-88806600D01*
X98540200Y-89958600D01*
G37*
G36*
X128571943Y-90735287D02*
G01*
X128728638Y-90800192D01*
X128869653Y-90894415D01*
X128989585Y-91014347D01*
X129083808Y-91155362D01*
X129148713Y-91312057D01*
X129181800Y-91478398D01*
X129181800Y-91648002D01*
X129148713Y-91814343D01*
X129083808Y-91971038D01*
X128989585Y-92112053D01*
X128869653Y-92231985D01*
X128728638Y-92326208D01*
X128571943Y-92391113D01*
X128405602Y-92424200D01*
X128235998Y-92424200D01*
X128069657Y-92391113D01*
X127912962Y-92326208D01*
X127771947Y-92231985D01*
X127652015Y-92112053D01*
X127557792Y-91971038D01*
X127492887Y-91814343D01*
X127459800Y-91648002D01*
X127459800Y-91478398D01*
X127492887Y-91312057D01*
X127557792Y-91155362D01*
X127652015Y-91014347D01*
X127771947Y-90894415D01*
X127912962Y-90800192D01*
X128069657Y-90735287D01*
X128235998Y-90702200D01*
X128405602Y-90702200D01*
X128571943Y-90735287D01*
G37*
G36*
X134278000Y-88460000D02*
G01*
X134113660Y-88460000D01*
X134089274Y-88462402D01*
X134065825Y-88469515D01*
X134044214Y-88481066D01*
X134025272Y-88496611D01*
X134009727Y-88515553D01*
X133998176Y-88537164D01*
X133991063Y-88560613D01*
X133988661Y-88584999D01*
X133991063Y-88609385D01*
X133998176Y-88632834D01*
X134009727Y-88654445D01*
X134025272Y-88673387D01*
X134034345Y-88681609D01*
X134111264Y-88744736D01*
X134183244Y-88832443D01*
X134217429Y-88896399D01*
X134236728Y-88932505D01*
X134236729Y-88932508D01*
X134269666Y-89041084D01*
X134280787Y-89154000D01*
X134269666Y-89266916D01*
X134236729Y-89375492D01*
X134236728Y-89375495D01*
X134217429Y-89411601D01*
X134183244Y-89475557D01*
X134111264Y-89563264D01*
X134023557Y-89635244D01*
X133942141Y-89678761D01*
X133921766Y-89692375D01*
X133904439Y-89709702D01*
X133890826Y-89730076D01*
X133881448Y-89752715D01*
X133876668Y-89776748D01*
X133876668Y-89801252D01*
X133881448Y-89825285D01*
X133890826Y-89847924D01*
X133904440Y-89868299D01*
X133921767Y-89885626D01*
X133942141Y-89899239D01*
X134023557Y-89942756D01*
X134111264Y-90014736D01*
X134183244Y-90102443D01*
X134210291Y-90153045D01*
X134236728Y-90202505D01*
X134236729Y-90202508D01*
X134269666Y-90311084D01*
X134280787Y-90424000D01*
X134269666Y-90536916D01*
X134236729Y-90645492D01*
X134236728Y-90645495D01*
X134232930Y-90652600D01*
X134183244Y-90745557D01*
X134111264Y-90833264D01*
X134023557Y-90905244D01*
X133959601Y-90939429D01*
X133923495Y-90958728D01*
X133923492Y-90958729D01*
X133814916Y-90991666D01*
X133730298Y-91000000D01*
X133223702Y-91000000D01*
X133139084Y-90991666D01*
X133030508Y-90958729D01*
X133030505Y-90958728D01*
X132994399Y-90939429D01*
X132930443Y-90905244D01*
X132842736Y-90833264D01*
X132770756Y-90745557D01*
X132721070Y-90652600D01*
X132717272Y-90645495D01*
X132717271Y-90645492D01*
X132684334Y-90536916D01*
X132673213Y-90424000D01*
X132684334Y-90311084D01*
X132717271Y-90202508D01*
X132717272Y-90202505D01*
X132743709Y-90153045D01*
X132770756Y-90102443D01*
X132842736Y-90014736D01*
X132930443Y-89942756D01*
X133011859Y-89899239D01*
X133032234Y-89885625D01*
X133049561Y-89868298D01*
X133063174Y-89847924D01*
X133072552Y-89825285D01*
X133077332Y-89801252D01*
X133077332Y-89776748D01*
X133072552Y-89752715D01*
X133063174Y-89730076D01*
X133049560Y-89709701D01*
X133032233Y-89692374D01*
X133011859Y-89678761D01*
X132930443Y-89635244D01*
X132842736Y-89563264D01*
X132770756Y-89475557D01*
X132736571Y-89411601D01*
X132717272Y-89375495D01*
X132717271Y-89375492D01*
X132684334Y-89266916D01*
X132673213Y-89154000D01*
X132684334Y-89041084D01*
X132717271Y-88932508D01*
X132717272Y-88932505D01*
X132736571Y-88896399D01*
X132770756Y-88832443D01*
X132842736Y-88744736D01*
X132919646Y-88681617D01*
X132936965Y-88664298D01*
X132950579Y-88643923D01*
X132959957Y-88621284D01*
X132964737Y-88597251D01*
X132964737Y-88572747D01*
X132959957Y-88548714D01*
X132950579Y-88526075D01*
X132936966Y-88505701D01*
X132919639Y-88488374D01*
X132899264Y-88474760D01*
X132876625Y-88465382D01*
X132852592Y-88460602D01*
X132840340Y-88460000D01*
X132676000Y-88460000D01*
X132676000Y-87308000D01*
X134278000Y-87308000D01*
X134278000Y-88460000D01*
G37*
G36*
X123571943Y-88235287D02*
G01*
X123728638Y-88300192D01*
X123869653Y-88394415D01*
X123989585Y-88514347D01*
X124083808Y-88655362D01*
X124148713Y-88812057D01*
X124181800Y-88978398D01*
X124181800Y-89148002D01*
X124148713Y-89314343D01*
X124083808Y-89471038D01*
X123989585Y-89612053D01*
X123869653Y-89731985D01*
X123728638Y-89826208D01*
X123571943Y-89891113D01*
X123405602Y-89924200D01*
X123235998Y-89924200D01*
X123069657Y-89891113D01*
X122912962Y-89826208D01*
X122771947Y-89731985D01*
X122652015Y-89612053D01*
X122557792Y-89471038D01*
X122492887Y-89314343D01*
X122459800Y-89148002D01*
X122459800Y-88978398D01*
X122492887Y-88812057D01*
X122557792Y-88655362D01*
X122652015Y-88514347D01*
X122771947Y-88394415D01*
X122912962Y-88300192D01*
X123069657Y-88235287D01*
X123235998Y-88202200D01*
X123405602Y-88202200D01*
X123571943Y-88235287D01*
G37*
G36*
X140078474Y-88407465D02*
G01*
X140116167Y-88418899D01*
X140150903Y-88437466D01*
X140181348Y-88462452D01*
X140206334Y-88492897D01*
X140224901Y-88527633D01*
X140236335Y-88565326D01*
X140240800Y-88610661D01*
X140240800Y-89697339D01*
X140236335Y-89742674D01*
X140224901Y-89780367D01*
X140206334Y-89815103D01*
X140181348Y-89845548D01*
X140150903Y-89870534D01*
X140116167Y-89889101D01*
X140078474Y-89900535D01*
X140033139Y-89905000D01*
X139196461Y-89905000D01*
X139151126Y-89900535D01*
X139113433Y-89889101D01*
X139078697Y-89870534D01*
X139048252Y-89845548D01*
X139023266Y-89815103D01*
X139004699Y-89780367D01*
X138993265Y-89742674D01*
X138988800Y-89697339D01*
X138988800Y-88610661D01*
X138993265Y-88565326D01*
X139004699Y-88527633D01*
X139023266Y-88492897D01*
X139048252Y-88462452D01*
X139078697Y-88437466D01*
X139113433Y-88418899D01*
X139151126Y-88407465D01*
X139196461Y-88403000D01*
X140033139Y-88403000D01*
X140078474Y-88407465D01*
G37*
G36*
X142128474Y-88407465D02*
G01*
X142166167Y-88418899D01*
X142200903Y-88437466D01*
X142231348Y-88462452D01*
X142256334Y-88492897D01*
X142274901Y-88527633D01*
X142286335Y-88565326D01*
X142290800Y-88610661D01*
X142290800Y-89697339D01*
X142286335Y-89742674D01*
X142274901Y-89780367D01*
X142256334Y-89815103D01*
X142231348Y-89845548D01*
X142200903Y-89870534D01*
X142166167Y-89889101D01*
X142128474Y-89900535D01*
X142083139Y-89905000D01*
X141246461Y-89905000D01*
X141201126Y-89900535D01*
X141163433Y-89889101D01*
X141128697Y-89870534D01*
X141098252Y-89845548D01*
X141073266Y-89815103D01*
X141054699Y-89780367D01*
X141043265Y-89742674D01*
X141038800Y-89697339D01*
X141038800Y-88610661D01*
X141043265Y-88565326D01*
X141054699Y-88527633D01*
X141073266Y-88492897D01*
X141098252Y-88462452D01*
X141128697Y-88437466D01*
X141163433Y-88418899D01*
X141201126Y-88407465D01*
X141246461Y-88403000D01*
X142083139Y-88403000D01*
X142128474Y-88407465D01*
G37*
G36*
X120436874Y-88356665D02*
G01*
X120474567Y-88368099D01*
X120509303Y-88386666D01*
X120539748Y-88411652D01*
X120564734Y-88442097D01*
X120583301Y-88476833D01*
X120594735Y-88514526D01*
X120599200Y-88559861D01*
X120599200Y-89646539D01*
X120594735Y-89691874D01*
X120583301Y-89729567D01*
X120564734Y-89764303D01*
X120539748Y-89794748D01*
X120509303Y-89819734D01*
X120474567Y-89838301D01*
X120436874Y-89849735D01*
X120391539Y-89854200D01*
X119554861Y-89854200D01*
X119509526Y-89849735D01*
X119471833Y-89838301D01*
X119437097Y-89819734D01*
X119406652Y-89794748D01*
X119381666Y-89764303D01*
X119363099Y-89729567D01*
X119351665Y-89691874D01*
X119347200Y-89646539D01*
X119347200Y-88559861D01*
X119351665Y-88514526D01*
X119363099Y-88476833D01*
X119381666Y-88442097D01*
X119406652Y-88411652D01*
X119437097Y-88386666D01*
X119471833Y-88368099D01*
X119509526Y-88356665D01*
X119554861Y-88352200D01*
X120391539Y-88352200D01*
X120436874Y-88356665D01*
G37*
G36*
X118386874Y-88356665D02*
G01*
X118424567Y-88368099D01*
X118459303Y-88386666D01*
X118489748Y-88411652D01*
X118514734Y-88442097D01*
X118533301Y-88476833D01*
X118544735Y-88514526D01*
X118549200Y-88559861D01*
X118549200Y-89646539D01*
X118544735Y-89691874D01*
X118533301Y-89729567D01*
X118514734Y-89764303D01*
X118489748Y-89794748D01*
X118459303Y-89819734D01*
X118424567Y-89838301D01*
X118386874Y-89849735D01*
X118341539Y-89854200D01*
X117504861Y-89854200D01*
X117459526Y-89849735D01*
X117421833Y-89838301D01*
X117387097Y-89819734D01*
X117356652Y-89794748D01*
X117331666Y-89764303D01*
X117313099Y-89729567D01*
X117301665Y-89691874D01*
X117297200Y-89646539D01*
X117297200Y-88559861D01*
X117301665Y-88514526D01*
X117313099Y-88476833D01*
X117331666Y-88442097D01*
X117356652Y-88411652D01*
X117387097Y-88386666D01*
X117421833Y-88368099D01*
X117459526Y-88356665D01*
X117504861Y-88352200D01*
X118341539Y-88352200D01*
X118386874Y-88356665D01*
G37*
G36*
X110233474Y-86883465D02*
G01*
X110271167Y-86894899D01*
X110305903Y-86913466D01*
X110336348Y-86938452D01*
X110361334Y-86968897D01*
X110379901Y-87003633D01*
X110391335Y-87041326D01*
X110395800Y-87086661D01*
X110395800Y-88173339D01*
X110391335Y-88218674D01*
X110379901Y-88256367D01*
X110361334Y-88291103D01*
X110336348Y-88321548D01*
X110305903Y-88346534D01*
X110271167Y-88365101D01*
X110233474Y-88376535D01*
X110188139Y-88381000D01*
X109351461Y-88381000D01*
X109306126Y-88376535D01*
X109268433Y-88365101D01*
X109233697Y-88346534D01*
X109203252Y-88321548D01*
X109178266Y-88291103D01*
X109159699Y-88256367D01*
X109148265Y-88218674D01*
X109143800Y-88173339D01*
X109143800Y-87086661D01*
X109148265Y-87041326D01*
X109159699Y-87003633D01*
X109178266Y-86968897D01*
X109203252Y-86938452D01*
X109233697Y-86913466D01*
X109268433Y-86894899D01*
X109306126Y-86883465D01*
X109351461Y-86879000D01*
X110188139Y-86879000D01*
X110233474Y-86883465D01*
G37*
G36*
X112283474Y-86883465D02*
G01*
X112321167Y-86894899D01*
X112355903Y-86913466D01*
X112386348Y-86938452D01*
X112411334Y-86968897D01*
X112429901Y-87003633D01*
X112441335Y-87041326D01*
X112445800Y-87086661D01*
X112445800Y-88173339D01*
X112441335Y-88218674D01*
X112429901Y-88256367D01*
X112411334Y-88291103D01*
X112386348Y-88321548D01*
X112355903Y-88346534D01*
X112321167Y-88365101D01*
X112283474Y-88376535D01*
X112238139Y-88381000D01*
X111401461Y-88381000D01*
X111356126Y-88376535D01*
X111318433Y-88365101D01*
X111283697Y-88346534D01*
X111253252Y-88321548D01*
X111228266Y-88291103D01*
X111209699Y-88256367D01*
X111198265Y-88218674D01*
X111193800Y-88173339D01*
X111193800Y-87086661D01*
X111198265Y-87041326D01*
X111209699Y-87003633D01*
X111228266Y-86968897D01*
X111253252Y-86938452D01*
X111283697Y-86913466D01*
X111318433Y-86894899D01*
X111356126Y-86883465D01*
X111401461Y-86879000D01*
X112238139Y-86879000D01*
X112283474Y-86883465D01*
G37*
G36*
X106111274Y-86832665D02*
G01*
X106148967Y-86844099D01*
X106183703Y-86862666D01*
X106214148Y-86887652D01*
X106239134Y-86918097D01*
X106257701Y-86952833D01*
X106269135Y-86990526D01*
X106273600Y-87035861D01*
X106273600Y-88122539D01*
X106269135Y-88167874D01*
X106257701Y-88205567D01*
X106239134Y-88240303D01*
X106214148Y-88270748D01*
X106183703Y-88295734D01*
X106148967Y-88314301D01*
X106111274Y-88325735D01*
X106065939Y-88330200D01*
X105229261Y-88330200D01*
X105183926Y-88325735D01*
X105146233Y-88314301D01*
X105111497Y-88295734D01*
X105081052Y-88270748D01*
X105056066Y-88240303D01*
X105037499Y-88205567D01*
X105026065Y-88167874D01*
X105021600Y-88122539D01*
X105021600Y-87035861D01*
X105026065Y-86990526D01*
X105037499Y-86952833D01*
X105056066Y-86918097D01*
X105081052Y-86887652D01*
X105111497Y-86862666D01*
X105146233Y-86844099D01*
X105183926Y-86832665D01*
X105229261Y-86828200D01*
X106065939Y-86828200D01*
X106111274Y-86832665D01*
G37*
G36*
X104061274Y-86832665D02*
G01*
X104098967Y-86844099D01*
X104133703Y-86862666D01*
X104164148Y-86887652D01*
X104189134Y-86918097D01*
X104207701Y-86952833D01*
X104219135Y-86990526D01*
X104223600Y-87035861D01*
X104223600Y-88122539D01*
X104219135Y-88167874D01*
X104207701Y-88205567D01*
X104189134Y-88240303D01*
X104164148Y-88270748D01*
X104133703Y-88295734D01*
X104098967Y-88314301D01*
X104061274Y-88325735D01*
X104015939Y-88330200D01*
X103179261Y-88330200D01*
X103133926Y-88325735D01*
X103096233Y-88314301D01*
X103061497Y-88295734D01*
X103031052Y-88270748D01*
X103006066Y-88240303D01*
X102987499Y-88205567D01*
X102976065Y-88167874D01*
X102971600Y-88122539D01*
X102971600Y-87035861D01*
X102976065Y-86990526D01*
X102987499Y-86952833D01*
X103006066Y-86918097D01*
X103031052Y-86887652D01*
X103061497Y-86862666D01*
X103096233Y-86844099D01*
X103133926Y-86832665D01*
X103179261Y-86828200D01*
X104015939Y-86828200D01*
X104061274Y-86832665D01*
G37*
G36*
X144523474Y-86375465D02*
G01*
X144561167Y-86386899D01*
X144595903Y-86405466D01*
X144626348Y-86430452D01*
X144651334Y-86460897D01*
X144669901Y-86495633D01*
X144681335Y-86533326D01*
X144685800Y-86578661D01*
X144685800Y-87665339D01*
X144681335Y-87710674D01*
X144669901Y-87748367D01*
X144651334Y-87783103D01*
X144626348Y-87813548D01*
X144595903Y-87838534D01*
X144561167Y-87857101D01*
X144523474Y-87868535D01*
X144478139Y-87873000D01*
X143641461Y-87873000D01*
X143596126Y-87868535D01*
X143558433Y-87857101D01*
X143523697Y-87838534D01*
X143493252Y-87813548D01*
X143468266Y-87783103D01*
X143449699Y-87748367D01*
X143438265Y-87710674D01*
X143433800Y-87665339D01*
X143433800Y-86578661D01*
X143438265Y-86533326D01*
X143449699Y-86495633D01*
X143468266Y-86460897D01*
X143493252Y-86430452D01*
X143523697Y-86405466D01*
X143558433Y-86386899D01*
X143596126Y-86375465D01*
X143641461Y-86371000D01*
X144478139Y-86371000D01*
X144523474Y-86375465D01*
G37*
G36*
X146573474Y-86375465D02*
G01*
X146611167Y-86386899D01*
X146645903Y-86405466D01*
X146676348Y-86430452D01*
X146701334Y-86460897D01*
X146719901Y-86495633D01*
X146731335Y-86533326D01*
X146735800Y-86578661D01*
X146735800Y-87665339D01*
X146731335Y-87710674D01*
X146719901Y-87748367D01*
X146701334Y-87783103D01*
X146676348Y-87813548D01*
X146645903Y-87838534D01*
X146611167Y-87857101D01*
X146573474Y-87868535D01*
X146528139Y-87873000D01*
X145691461Y-87873000D01*
X145646126Y-87868535D01*
X145608433Y-87857101D01*
X145573697Y-87838534D01*
X145543252Y-87813548D01*
X145518266Y-87783103D01*
X145499699Y-87748367D01*
X145488265Y-87710674D01*
X145483800Y-87665339D01*
X145483800Y-86578661D01*
X145488265Y-86533326D01*
X145499699Y-86495633D01*
X145518266Y-86460897D01*
X145543252Y-86430452D01*
X145573697Y-86405466D01*
X145608433Y-86386899D01*
X145646126Y-86375465D01*
X145691461Y-86371000D01*
X146528139Y-86371000D01*
X146573474Y-86375465D01*
G37*
G36*
X91197912Y-85870327D02*
G01*
X91347212Y-85900024D01*
X91511184Y-85967944D01*
X91658754Y-86066547D01*
X91784253Y-86192046D01*
X91882856Y-86339616D01*
X91950776Y-86503588D01*
X91985400Y-86677659D01*
X91985400Y-86855141D01*
X91950776Y-87029212D01*
X91882856Y-87193184D01*
X91784253Y-87340754D01*
X91658754Y-87466253D01*
X91511184Y-87564856D01*
X91347212Y-87632776D01*
X91197912Y-87662473D01*
X91173142Y-87667400D01*
X90995658Y-87667400D01*
X90970888Y-87662473D01*
X90821588Y-87632776D01*
X90657616Y-87564856D01*
X90510046Y-87466253D01*
X90384547Y-87340754D01*
X90285944Y-87193184D01*
X90218024Y-87029212D01*
X90183400Y-86855141D01*
X90183400Y-86677659D01*
X90218024Y-86503588D01*
X90285944Y-86339616D01*
X90384547Y-86192046D01*
X90510046Y-86066547D01*
X90657616Y-85967944D01*
X90821588Y-85900024D01*
X90970888Y-85870327D01*
X90995658Y-85865400D01*
X91173142Y-85865400D01*
X91197912Y-85870327D01*
G37*
G36*
X128571943Y-85735287D02*
G01*
X128728638Y-85800192D01*
X128869653Y-85894415D01*
X128989585Y-86014347D01*
X129083808Y-86155362D01*
X129148713Y-86312057D01*
X129181800Y-86478398D01*
X129181800Y-86648002D01*
X129148713Y-86814343D01*
X129083808Y-86971038D01*
X128989585Y-87112053D01*
X128869653Y-87231985D01*
X128728638Y-87326208D01*
X128571943Y-87391113D01*
X128405602Y-87424200D01*
X128235998Y-87424200D01*
X128069657Y-87391113D01*
X127912962Y-87326208D01*
X127771947Y-87231985D01*
X127652015Y-87112053D01*
X127557792Y-86971038D01*
X127492887Y-86814343D01*
X127459800Y-86648002D01*
X127459800Y-86478398D01*
X127492887Y-86312057D01*
X127557792Y-86155362D01*
X127652015Y-86014347D01*
X127771947Y-85894415D01*
X127912962Y-85800192D01*
X128069657Y-85735287D01*
X128235998Y-85702200D01*
X128405602Y-85702200D01*
X128571943Y-85735287D01*
G37*
G36*
X97983274Y-84064065D02*
G01*
X98020967Y-84075499D01*
X98055703Y-84094066D01*
X98086148Y-84119052D01*
X98111134Y-84149497D01*
X98129701Y-84184233D01*
X98141135Y-84221926D01*
X98145600Y-84267261D01*
X98145600Y-85353939D01*
X98141135Y-85399274D01*
X98129701Y-85436967D01*
X98111134Y-85471703D01*
X98086148Y-85502148D01*
X98055703Y-85527134D01*
X98020967Y-85545701D01*
X97983274Y-85557135D01*
X97937939Y-85561600D01*
X97101261Y-85561600D01*
X97055926Y-85557135D01*
X97018233Y-85545701D01*
X96983497Y-85527134D01*
X96953052Y-85502148D01*
X96928066Y-85471703D01*
X96909499Y-85436967D01*
X96898065Y-85399274D01*
X96893600Y-85353939D01*
X96893600Y-84267261D01*
X96898065Y-84221926D01*
X96909499Y-84184233D01*
X96928066Y-84149497D01*
X96953052Y-84119052D01*
X96983497Y-84094066D01*
X97018233Y-84075499D01*
X97055926Y-84064065D01*
X97101261Y-84059600D01*
X97937939Y-84059600D01*
X97983274Y-84064065D01*
G37*
G36*
X95933274Y-84064065D02*
G01*
X95970967Y-84075499D01*
X96005703Y-84094066D01*
X96036148Y-84119052D01*
X96061134Y-84149497D01*
X96079701Y-84184233D01*
X96091135Y-84221926D01*
X96095600Y-84267261D01*
X96095600Y-85353939D01*
X96091135Y-85399274D01*
X96079701Y-85436967D01*
X96061134Y-85471703D01*
X96036148Y-85502148D01*
X96005703Y-85527134D01*
X95970967Y-85545701D01*
X95933274Y-85557135D01*
X95887939Y-85561600D01*
X95051261Y-85561600D01*
X95005926Y-85557135D01*
X94968233Y-85545701D01*
X94933497Y-85527134D01*
X94903052Y-85502148D01*
X94878066Y-85471703D01*
X94859499Y-85436967D01*
X94848065Y-85399274D01*
X94843600Y-85353939D01*
X94843600Y-84267261D01*
X94848065Y-84221926D01*
X94859499Y-84184233D01*
X94878066Y-84149497D01*
X94903052Y-84119052D01*
X94933497Y-84094066D01*
X94968233Y-84075499D01*
X95005926Y-84064065D01*
X95051261Y-84059600D01*
X95887939Y-84059600D01*
X95933274Y-84064065D01*
G37*
G36*
X91985400Y-85127400D02*
G01*
X90183400Y-85127400D01*
X90183400Y-83325400D01*
X91985400Y-83325400D01*
X91985400Y-85127400D01*
G37*
G36*
X142204674Y-83327465D02*
G01*
X142242367Y-83338899D01*
X142277103Y-83357466D01*
X142307548Y-83382452D01*
X142332534Y-83412897D01*
X142351101Y-83447633D01*
X142362535Y-83485326D01*
X142367000Y-83530661D01*
X142367000Y-84617339D01*
X142362535Y-84662674D01*
X142351101Y-84700367D01*
X142332534Y-84735103D01*
X142307548Y-84765548D01*
X142277103Y-84790534D01*
X142242367Y-84809101D01*
X142204674Y-84820535D01*
X142159339Y-84825000D01*
X141322661Y-84825000D01*
X141277326Y-84820535D01*
X141239633Y-84809101D01*
X141204897Y-84790534D01*
X141174452Y-84765548D01*
X141149466Y-84735103D01*
X141130899Y-84700367D01*
X141119465Y-84662674D01*
X141115000Y-84617339D01*
X141115000Y-83530661D01*
X141119465Y-83485326D01*
X141130899Y-83447633D01*
X141149466Y-83412897D01*
X141174452Y-83382452D01*
X141204897Y-83357466D01*
X141239633Y-83338899D01*
X141277326Y-83327465D01*
X141322661Y-83323000D01*
X142159339Y-83323000D01*
X142204674Y-83327465D01*
G37*
G36*
X140154674Y-83327465D02*
G01*
X140192367Y-83338899D01*
X140227103Y-83357466D01*
X140257548Y-83382452D01*
X140282534Y-83412897D01*
X140301101Y-83447633D01*
X140312535Y-83485326D01*
X140317000Y-83530661D01*
X140317000Y-84617339D01*
X140312535Y-84662674D01*
X140301101Y-84700367D01*
X140282534Y-84735103D01*
X140257548Y-84765548D01*
X140227103Y-84790534D01*
X140192367Y-84809101D01*
X140154674Y-84820535D01*
X140109339Y-84825000D01*
X139272661Y-84825000D01*
X139227326Y-84820535D01*
X139189633Y-84809101D01*
X139154897Y-84790534D01*
X139124452Y-84765548D01*
X139099466Y-84735103D01*
X139080899Y-84700367D01*
X139069465Y-84662674D01*
X139065000Y-84617339D01*
X139065000Y-83530661D01*
X139069465Y-83485326D01*
X139080899Y-83447633D01*
X139099466Y-83412897D01*
X139124452Y-83382452D01*
X139154897Y-83357466D01*
X139189633Y-83338899D01*
X139227326Y-83327465D01*
X139272661Y-83323000D01*
X140109339Y-83323000D01*
X140154674Y-83327465D01*
G37*
G36*
X135168874Y-82895665D02*
G01*
X135206567Y-82907099D01*
X135241303Y-82925666D01*
X135271748Y-82950652D01*
X135296734Y-82981097D01*
X135315301Y-83015833D01*
X135326735Y-83053526D01*
X135331200Y-83098861D01*
X135331200Y-84185539D01*
X135326735Y-84230874D01*
X135315301Y-84268567D01*
X135296734Y-84303303D01*
X135271748Y-84333748D01*
X135241303Y-84358734D01*
X135206567Y-84377301D01*
X135168874Y-84388735D01*
X135123539Y-84393200D01*
X134286861Y-84393200D01*
X134241526Y-84388735D01*
X134203833Y-84377301D01*
X134169097Y-84358734D01*
X134138652Y-84333748D01*
X134113666Y-84303303D01*
X134095099Y-84268567D01*
X134083665Y-84230874D01*
X134079200Y-84185539D01*
X134079200Y-83098861D01*
X134083665Y-83053526D01*
X134095099Y-83015833D01*
X134113666Y-82981097D01*
X134138652Y-82950652D01*
X134169097Y-82925666D01*
X134203833Y-82907099D01*
X134241526Y-82895665D01*
X134286861Y-82891200D01*
X135123539Y-82891200D01*
X135168874Y-82895665D01*
G37*
G36*
X133118874Y-82895665D02*
G01*
X133156567Y-82907099D01*
X133191303Y-82925666D01*
X133221748Y-82950652D01*
X133246734Y-82981097D01*
X133265301Y-83015833D01*
X133276735Y-83053526D01*
X133281200Y-83098861D01*
X133281200Y-84185539D01*
X133276735Y-84230874D01*
X133265301Y-84268567D01*
X133246734Y-84303303D01*
X133221748Y-84333748D01*
X133191303Y-84358734D01*
X133156567Y-84377301D01*
X133118874Y-84388735D01*
X133073539Y-84393200D01*
X132236861Y-84393200D01*
X132191526Y-84388735D01*
X132153833Y-84377301D01*
X132119097Y-84358734D01*
X132088652Y-84333748D01*
X132063666Y-84303303D01*
X132045099Y-84268567D01*
X132033665Y-84230874D01*
X132029200Y-84185539D01*
X132029200Y-83098861D01*
X132033665Y-83053526D01*
X132045099Y-83015833D01*
X132063666Y-82981097D01*
X132088652Y-82950652D01*
X132119097Y-82925666D01*
X132153833Y-82907099D01*
X132191526Y-82895665D01*
X132236861Y-82891200D01*
X133073539Y-82891200D01*
X133118874Y-82895665D01*
G37*
G36*
X120335274Y-82641665D02*
G01*
X120372967Y-82653099D01*
X120407703Y-82671666D01*
X120438148Y-82696652D01*
X120463134Y-82727097D01*
X120481701Y-82761833D01*
X120493135Y-82799526D01*
X120497600Y-82844861D01*
X120497600Y-83931539D01*
X120493135Y-83976874D01*
X120481701Y-84014567D01*
X120463134Y-84049303D01*
X120438148Y-84079748D01*
X120407703Y-84104734D01*
X120372967Y-84123301D01*
X120335274Y-84134735D01*
X120289939Y-84139200D01*
X119453261Y-84139200D01*
X119407926Y-84134735D01*
X119370233Y-84123301D01*
X119335497Y-84104734D01*
X119305052Y-84079748D01*
X119280066Y-84049303D01*
X119261499Y-84014567D01*
X119250065Y-83976874D01*
X119245600Y-83931539D01*
X119245600Y-82844861D01*
X119250065Y-82799526D01*
X119261499Y-82761833D01*
X119280066Y-82727097D01*
X119305052Y-82696652D01*
X119335497Y-82671666D01*
X119370233Y-82653099D01*
X119407926Y-82641665D01*
X119453261Y-82637200D01*
X120289939Y-82637200D01*
X120335274Y-82641665D01*
G37*
G36*
X118285274Y-82641665D02*
G01*
X118322967Y-82653099D01*
X118357703Y-82671666D01*
X118388148Y-82696652D01*
X118413134Y-82727097D01*
X118431701Y-82761833D01*
X118443135Y-82799526D01*
X118447600Y-82844861D01*
X118447600Y-83931539D01*
X118443135Y-83976874D01*
X118431701Y-84014567D01*
X118413134Y-84049303D01*
X118388148Y-84079748D01*
X118357703Y-84104734D01*
X118322967Y-84123301D01*
X118285274Y-84134735D01*
X118239939Y-84139200D01*
X117403261Y-84139200D01*
X117357926Y-84134735D01*
X117320233Y-84123301D01*
X117285497Y-84104734D01*
X117255052Y-84079748D01*
X117230066Y-84049303D01*
X117211499Y-84014567D01*
X117200065Y-83976874D01*
X117195600Y-83931539D01*
X117195600Y-82844861D01*
X117200065Y-82799526D01*
X117211499Y-82761833D01*
X117230066Y-82727097D01*
X117255052Y-82696652D01*
X117285497Y-82671666D01*
X117320233Y-82653099D01*
X117357926Y-82641665D01*
X117403261Y-82637200D01*
X118239939Y-82637200D01*
X118285274Y-82641665D01*
G37*
G36*
X149719512Y-81399927D02*
G01*
X149868812Y-81429624D01*
X150032784Y-81497544D01*
X150180354Y-81596147D01*
X150305853Y-81721646D01*
X150404456Y-81869216D01*
X150472376Y-82033188D01*
X150507000Y-82207259D01*
X150507000Y-82384741D01*
X150472376Y-82558812D01*
X150404456Y-82722784D01*
X150305853Y-82870354D01*
X150180354Y-82995853D01*
X150032784Y-83094456D01*
X149868812Y-83162376D01*
X149719512Y-83192073D01*
X149694742Y-83197000D01*
X149517258Y-83197000D01*
X149492488Y-83192073D01*
X149343188Y-83162376D01*
X149179216Y-83094456D01*
X149031646Y-82995853D01*
X148906147Y-82870354D01*
X148807544Y-82722784D01*
X148739624Y-82558812D01*
X148705000Y-82384741D01*
X148705000Y-82207259D01*
X148739624Y-82033188D01*
X148807544Y-81869216D01*
X148906147Y-81721646D01*
X149031646Y-81596147D01*
X149179216Y-81497544D01*
X149343188Y-81429624D01*
X149492488Y-81399927D01*
X149517258Y-81395000D01*
X149694742Y-81395000D01*
X149719512Y-81399927D01*
G37*
G36*
X128495743Y-79787887D02*
G01*
X128652438Y-79852792D01*
X128793453Y-79947015D01*
X128913385Y-80066947D01*
X129007608Y-80207962D01*
X129072513Y-80364657D01*
X129105600Y-80530998D01*
X129105600Y-80700602D01*
X129072513Y-80866943D01*
X129007608Y-81023638D01*
X128913385Y-81164653D01*
X128793453Y-81284585D01*
X128652438Y-81378808D01*
X128495743Y-81443713D01*
X128329402Y-81476800D01*
X128159798Y-81476800D01*
X127993457Y-81443713D01*
X127836762Y-81378808D01*
X127695747Y-81284585D01*
X127575815Y-81164653D01*
X127481592Y-81023638D01*
X127416687Y-80866943D01*
X127383600Y-80700602D01*
X127383600Y-80530998D01*
X127416687Y-80364657D01*
X127481592Y-80207962D01*
X127575815Y-80066947D01*
X127695747Y-79947015D01*
X127836762Y-79852792D01*
X127993457Y-79787887D01*
X128159798Y-79754800D01*
X128329402Y-79754800D01*
X128495743Y-79787887D01*
G37*
G36*
X149710497Y-78858134D02*
G01*
X149868812Y-78889624D01*
X150032784Y-78957544D01*
X150180354Y-79056147D01*
X150305853Y-79181646D01*
X150404456Y-79329216D01*
X150472376Y-79493188D01*
X150507000Y-79667259D01*
X150507000Y-79844741D01*
X150472376Y-80018812D01*
X150404456Y-80182784D01*
X150305853Y-80330354D01*
X150180354Y-80455853D01*
X150032784Y-80554456D01*
X149868812Y-80622376D01*
X149719512Y-80652073D01*
X149694742Y-80657000D01*
X149517258Y-80657000D01*
X149492488Y-80652073D01*
X149343188Y-80622376D01*
X149179216Y-80554456D01*
X149031646Y-80455853D01*
X148906147Y-80330354D01*
X148807544Y-80182784D01*
X148739624Y-80018812D01*
X148705000Y-79844741D01*
X148705000Y-79667259D01*
X148739624Y-79493188D01*
X148807544Y-79329216D01*
X148906147Y-79181646D01*
X149031646Y-79056147D01*
X149179216Y-78957544D01*
X149343188Y-78889624D01*
X149501503Y-78858134D01*
X149517258Y-78855000D01*
X149694742Y-78855000D01*
X149710497Y-78858134D01*
G37*
G36*
X95958674Y-78958665D02*
G01*
X95996367Y-78970099D01*
X96031103Y-78988666D01*
X96061548Y-79013652D01*
X96086534Y-79044097D01*
X96105101Y-79078833D01*
X96116535Y-79116526D01*
X96121000Y-79161861D01*
X96121000Y-80248539D01*
X96116535Y-80293874D01*
X96105101Y-80331567D01*
X96086534Y-80366303D01*
X96061548Y-80396748D01*
X96031103Y-80421734D01*
X95996367Y-80440301D01*
X95958674Y-80451735D01*
X95913339Y-80456200D01*
X95076661Y-80456200D01*
X95031326Y-80451735D01*
X94993633Y-80440301D01*
X94958897Y-80421734D01*
X94928452Y-80396748D01*
X94903466Y-80366303D01*
X94884899Y-80331567D01*
X94873465Y-80293874D01*
X94869000Y-80248539D01*
X94869000Y-79161861D01*
X94873465Y-79116526D01*
X94884899Y-79078833D01*
X94903466Y-79044097D01*
X94928452Y-79013652D01*
X94958897Y-78988666D01*
X94993633Y-78970099D01*
X95031326Y-78958665D01*
X95076661Y-78954200D01*
X95913339Y-78954200D01*
X95958674Y-78958665D01*
G37*
G36*
X98008674Y-78958665D02*
G01*
X98046367Y-78970099D01*
X98081103Y-78988666D01*
X98111548Y-79013652D01*
X98136534Y-79044097D01*
X98155101Y-79078833D01*
X98166535Y-79116526D01*
X98171000Y-79161861D01*
X98171000Y-80248539D01*
X98166535Y-80293874D01*
X98155101Y-80331567D01*
X98136534Y-80366303D01*
X98111548Y-80396748D01*
X98081103Y-80421734D01*
X98046367Y-80440301D01*
X98008674Y-80451735D01*
X97963339Y-80456200D01*
X97126661Y-80456200D01*
X97081326Y-80451735D01*
X97043633Y-80440301D01*
X97008897Y-80421734D01*
X96978452Y-80396748D01*
X96953466Y-80366303D01*
X96934899Y-80331567D01*
X96923465Y-80293874D01*
X96919000Y-80248539D01*
X96919000Y-79161861D01*
X96923465Y-79116526D01*
X96934899Y-79078833D01*
X96953466Y-79044097D01*
X96978452Y-79013652D01*
X97008897Y-78988666D01*
X97043633Y-78970099D01*
X97081326Y-78958665D01*
X97126661Y-78954200D01*
X97963339Y-78954200D01*
X98008674Y-78958665D01*
G37*
G36*
X109997474Y-78806265D02*
G01*
X110035167Y-78817699D01*
X110069903Y-78836266D01*
X110100348Y-78861252D01*
X110125334Y-78891697D01*
X110143901Y-78926433D01*
X110155335Y-78964126D01*
X110159800Y-79009461D01*
X110159800Y-80096139D01*
X110155335Y-80141474D01*
X110143901Y-80179167D01*
X110125334Y-80213903D01*
X110100348Y-80244348D01*
X110069903Y-80269334D01*
X110035167Y-80287901D01*
X109997474Y-80299335D01*
X109952139Y-80303800D01*
X109115461Y-80303800D01*
X109070126Y-80299335D01*
X109032433Y-80287901D01*
X108997697Y-80269334D01*
X108967252Y-80244348D01*
X108942266Y-80213903D01*
X108923699Y-80179167D01*
X108912265Y-80141474D01*
X108907800Y-80096139D01*
X108907800Y-79009461D01*
X108912265Y-78964126D01*
X108923699Y-78926433D01*
X108942266Y-78891697D01*
X108967252Y-78861252D01*
X108997697Y-78836266D01*
X109032433Y-78817699D01*
X109070126Y-78806265D01*
X109115461Y-78801800D01*
X109952139Y-78801800D01*
X109997474Y-78806265D01*
G37*
G36*
X107947474Y-78806265D02*
G01*
X107985167Y-78817699D01*
X108019903Y-78836266D01*
X108050348Y-78861252D01*
X108075334Y-78891697D01*
X108093901Y-78926433D01*
X108105335Y-78964126D01*
X108109800Y-79009461D01*
X108109800Y-80096139D01*
X108105335Y-80141474D01*
X108093901Y-80179167D01*
X108075334Y-80213903D01*
X108050348Y-80244348D01*
X108019903Y-80269334D01*
X107985167Y-80287901D01*
X107947474Y-80299335D01*
X107902139Y-80303800D01*
X107065461Y-80303800D01*
X107020126Y-80299335D01*
X106982433Y-80287901D01*
X106947697Y-80269334D01*
X106917252Y-80244348D01*
X106892266Y-80213903D01*
X106873699Y-80179167D01*
X106862265Y-80141474D01*
X106857800Y-80096139D01*
X106857800Y-79009461D01*
X106862265Y-78964126D01*
X106873699Y-78926433D01*
X106892266Y-78891697D01*
X106917252Y-78861252D01*
X106947697Y-78836266D01*
X106982433Y-78817699D01*
X107020126Y-78806265D01*
X107065461Y-78801800D01*
X107902139Y-78801800D01*
X107947474Y-78806265D01*
G37*
G36*
X134328800Y-77461800D02*
G01*
X134164460Y-77461800D01*
X134140074Y-77464202D01*
X134116625Y-77471315D01*
X134095014Y-77482866D01*
X134076072Y-77498411D01*
X134060527Y-77517353D01*
X134048976Y-77538964D01*
X134041863Y-77562413D01*
X134039461Y-77586799D01*
X134041863Y-77611185D01*
X134048976Y-77634634D01*
X134060527Y-77656245D01*
X134076072Y-77675187D01*
X134085145Y-77683409D01*
X134162064Y-77746536D01*
X134234044Y-77834243D01*
X134250300Y-77864657D01*
X134287528Y-77934305D01*
X134287529Y-77934308D01*
X134320466Y-78042884D01*
X134331587Y-78155800D01*
X134320466Y-78268716D01*
X134292236Y-78361775D01*
X134287528Y-78377295D01*
X134277316Y-78396400D01*
X134234044Y-78477357D01*
X134162064Y-78565064D01*
X134074357Y-78637044D01*
X133992941Y-78680561D01*
X133972566Y-78694175D01*
X133955239Y-78711502D01*
X133941626Y-78731876D01*
X133932248Y-78754515D01*
X133927468Y-78778548D01*
X133927468Y-78803052D01*
X133932248Y-78827085D01*
X133941626Y-78849724D01*
X133955240Y-78870099D01*
X133972567Y-78887426D01*
X133992941Y-78901039D01*
X134074357Y-78944556D01*
X134162064Y-79016536D01*
X134234044Y-79104243D01*
X134264841Y-79161861D01*
X134287528Y-79204305D01*
X134287529Y-79204308D01*
X134320466Y-79312884D01*
X134331587Y-79425800D01*
X134320466Y-79538716D01*
X134287995Y-79645755D01*
X134287528Y-79647295D01*
X134276857Y-79667258D01*
X134234044Y-79747357D01*
X134162064Y-79835064D01*
X134074357Y-79907044D01*
X134010401Y-79941229D01*
X133974295Y-79960528D01*
X133974292Y-79960529D01*
X133865716Y-79993466D01*
X133781098Y-80001800D01*
X133274502Y-80001800D01*
X133189884Y-79993466D01*
X133081308Y-79960529D01*
X133081305Y-79960528D01*
X133045199Y-79941229D01*
X132981243Y-79907044D01*
X132893536Y-79835064D01*
X132821556Y-79747357D01*
X132778743Y-79667258D01*
X132768072Y-79647295D01*
X132767605Y-79645755D01*
X132735134Y-79538716D01*
X132724013Y-79425800D01*
X132735134Y-79312884D01*
X132768071Y-79204308D01*
X132768072Y-79204305D01*
X132790759Y-79161861D01*
X132821556Y-79104243D01*
X132893536Y-79016536D01*
X132981243Y-78944556D01*
X133062659Y-78901039D01*
X133083034Y-78887425D01*
X133100361Y-78870098D01*
X133113974Y-78849724D01*
X133123352Y-78827085D01*
X133128132Y-78803052D01*
X133128132Y-78778548D01*
X133123352Y-78754515D01*
X133113974Y-78731876D01*
X133100360Y-78711501D01*
X133083033Y-78694174D01*
X133062659Y-78680561D01*
X132981243Y-78637044D01*
X132893536Y-78565064D01*
X132821556Y-78477357D01*
X132778284Y-78396400D01*
X132768072Y-78377295D01*
X132763364Y-78361775D01*
X132735134Y-78268716D01*
X132724013Y-78155800D01*
X132735134Y-78042884D01*
X132768071Y-77934308D01*
X132768072Y-77934305D01*
X132805300Y-77864657D01*
X132821556Y-77834243D01*
X132893536Y-77746536D01*
X132970446Y-77683417D01*
X132987765Y-77666098D01*
X133001379Y-77645723D01*
X133010757Y-77623084D01*
X133015537Y-77599051D01*
X133015537Y-77574547D01*
X133010757Y-77550514D01*
X133001379Y-77527875D01*
X132987766Y-77507501D01*
X132970439Y-77490174D01*
X132950064Y-77476560D01*
X132927425Y-77467182D01*
X132903392Y-77462402D01*
X132891140Y-77461800D01*
X132726800Y-77461800D01*
X132726800Y-76309800D01*
X134328800Y-76309800D01*
X134328800Y-77461800D01*
G37*
G36*
X142914000Y-77360200D02*
G01*
X142749660Y-77360200D01*
X142725274Y-77362602D01*
X142701825Y-77369715D01*
X142680214Y-77381266D01*
X142661272Y-77396811D01*
X142645727Y-77415753D01*
X142634176Y-77437364D01*
X142627063Y-77460813D01*
X142624661Y-77485199D01*
X142627063Y-77509585D01*
X142634176Y-77533034D01*
X142645727Y-77554645D01*
X142661272Y-77573587D01*
X142670345Y-77581809D01*
X142747264Y-77644936D01*
X142819244Y-77732643D01*
X142850090Y-77790353D01*
X142872728Y-77832705D01*
X142872729Y-77832708D01*
X142905666Y-77941284D01*
X142916787Y-78054200D01*
X142905666Y-78167116D01*
X142882968Y-78241939D01*
X142872728Y-78275695D01*
X142853429Y-78311801D01*
X142819244Y-78375757D01*
X142747264Y-78463464D01*
X142659557Y-78535444D01*
X142578141Y-78578961D01*
X142557766Y-78592575D01*
X142540439Y-78609902D01*
X142526826Y-78630276D01*
X142517448Y-78652915D01*
X142512668Y-78676948D01*
X142512668Y-78701452D01*
X142517448Y-78725485D01*
X142526826Y-78748124D01*
X142540440Y-78768499D01*
X142557767Y-78785826D01*
X142578141Y-78799439D01*
X142659557Y-78842956D01*
X142747264Y-78914936D01*
X142819244Y-79002643D01*
X142853429Y-79066599D01*
X142872728Y-79102705D01*
X142872729Y-79102708D01*
X142905666Y-79211284D01*
X142916787Y-79324200D01*
X142905666Y-79437116D01*
X142874846Y-79538714D01*
X142872728Y-79545695D01*
X142853429Y-79581801D01*
X142819244Y-79645757D01*
X142747264Y-79733464D01*
X142659557Y-79805444D01*
X142604141Y-79835064D01*
X142559495Y-79858928D01*
X142559492Y-79858929D01*
X142450916Y-79891866D01*
X142366298Y-79900200D01*
X141859702Y-79900200D01*
X141775084Y-79891866D01*
X141666508Y-79858929D01*
X141666505Y-79858928D01*
X141621859Y-79835064D01*
X141566443Y-79805444D01*
X141478736Y-79733464D01*
X141406756Y-79645757D01*
X141372571Y-79581801D01*
X141353272Y-79545695D01*
X141351154Y-79538714D01*
X141320334Y-79437116D01*
X141309213Y-79324200D01*
X141320334Y-79211284D01*
X141353271Y-79102708D01*
X141353272Y-79102705D01*
X141372571Y-79066599D01*
X141406756Y-79002643D01*
X141478736Y-78914936D01*
X141566443Y-78842956D01*
X141647859Y-78799439D01*
X141668234Y-78785825D01*
X141685561Y-78768498D01*
X141699174Y-78748124D01*
X141708552Y-78725485D01*
X141713332Y-78701452D01*
X141713332Y-78676948D01*
X141708552Y-78652915D01*
X141699174Y-78630276D01*
X141685560Y-78609901D01*
X141668233Y-78592574D01*
X141647859Y-78578961D01*
X141566443Y-78535444D01*
X141478736Y-78463464D01*
X141406756Y-78375757D01*
X141372571Y-78311801D01*
X141353272Y-78275695D01*
X141343032Y-78241939D01*
X141320334Y-78167116D01*
X141309213Y-78054200D01*
X141320334Y-77941284D01*
X141353271Y-77832708D01*
X141353272Y-77832705D01*
X141375910Y-77790353D01*
X141406756Y-77732643D01*
X141478736Y-77644936D01*
X141555646Y-77581817D01*
X141572965Y-77564498D01*
X141586579Y-77544123D01*
X141595957Y-77521484D01*
X141600737Y-77497451D01*
X141600737Y-77472947D01*
X141595957Y-77448914D01*
X141586579Y-77426275D01*
X141572966Y-77405901D01*
X141555639Y-77388574D01*
X141535264Y-77374960D01*
X141512625Y-77365582D01*
X141488592Y-77360802D01*
X141476340Y-77360200D01*
X141312000Y-77360200D01*
X141312000Y-76208200D01*
X142914000Y-76208200D01*
X142914000Y-77360200D01*
G37*
G36*
X123495743Y-77287887D02*
G01*
X123652438Y-77352792D01*
X123793453Y-77447015D01*
X123913385Y-77566947D01*
X124007608Y-77707962D01*
X124072513Y-77864657D01*
X124105600Y-78030998D01*
X124105600Y-78200602D01*
X124072513Y-78366943D01*
X124007608Y-78523638D01*
X123913385Y-78664653D01*
X123793453Y-78784585D01*
X123652438Y-78878808D01*
X123495743Y-78943713D01*
X123329402Y-78976800D01*
X123159798Y-78976800D01*
X122993457Y-78943713D01*
X122836762Y-78878808D01*
X122695747Y-78784585D01*
X122575815Y-78664653D01*
X122481592Y-78523638D01*
X122416687Y-78366943D01*
X122383600Y-78200602D01*
X122383600Y-78030998D01*
X122416687Y-77864657D01*
X122481592Y-77707962D01*
X122575815Y-77566947D01*
X122695747Y-77447015D01*
X122836762Y-77352792D01*
X122993457Y-77287887D01*
X123159798Y-77254800D01*
X123329402Y-77254800D01*
X123495743Y-77287887D01*
G37*
G36*
X118259874Y-76952065D02*
G01*
X118297567Y-76963499D01*
X118332303Y-76982066D01*
X118362748Y-77007052D01*
X118387734Y-77037497D01*
X118406301Y-77072233D01*
X118417735Y-77109926D01*
X118422200Y-77155261D01*
X118422200Y-78241939D01*
X118417735Y-78287274D01*
X118406301Y-78324967D01*
X118387734Y-78359703D01*
X118362748Y-78390148D01*
X118332303Y-78415134D01*
X118297567Y-78433701D01*
X118259874Y-78445135D01*
X118214539Y-78449600D01*
X117377861Y-78449600D01*
X117332526Y-78445135D01*
X117294833Y-78433701D01*
X117260097Y-78415134D01*
X117229652Y-78390148D01*
X117204666Y-78359703D01*
X117186099Y-78324967D01*
X117174665Y-78287274D01*
X117170200Y-78241939D01*
X117170200Y-77155261D01*
X117174665Y-77109926D01*
X117186099Y-77072233D01*
X117204666Y-77037497D01*
X117229652Y-77007052D01*
X117260097Y-76982066D01*
X117294833Y-76963499D01*
X117332526Y-76952065D01*
X117377861Y-76947600D01*
X118214539Y-76947600D01*
X118259874Y-76952065D01*
G37*
G36*
X120309874Y-76952065D02*
G01*
X120347567Y-76963499D01*
X120382303Y-76982066D01*
X120412748Y-77007052D01*
X120437734Y-77037497D01*
X120456301Y-77072233D01*
X120467735Y-77109926D01*
X120472200Y-77155261D01*
X120472200Y-78241939D01*
X120467735Y-78287274D01*
X120456301Y-78324967D01*
X120437734Y-78359703D01*
X120412748Y-78390148D01*
X120382303Y-78415134D01*
X120347567Y-78433701D01*
X120309874Y-78445135D01*
X120264539Y-78449600D01*
X119427861Y-78449600D01*
X119382526Y-78445135D01*
X119344833Y-78433701D01*
X119310097Y-78415134D01*
X119279652Y-78390148D01*
X119254666Y-78359703D01*
X119236099Y-78324967D01*
X119224665Y-78287274D01*
X119220200Y-78241939D01*
X119220200Y-77155261D01*
X119224665Y-77109926D01*
X119236099Y-77072233D01*
X119254666Y-77037497D01*
X119279652Y-77007052D01*
X119310097Y-76982066D01*
X119344833Y-76963499D01*
X119382526Y-76952065D01*
X119427861Y-76947600D01*
X120264539Y-76947600D01*
X120309874Y-76952065D01*
G37*
G36*
X102909000Y-75887000D02*
G01*
X102744660Y-75887000D01*
X102720274Y-75889402D01*
X102696825Y-75896515D01*
X102675214Y-75908066D01*
X102656272Y-75923611D01*
X102640727Y-75942553D01*
X102629176Y-75964164D01*
X102622063Y-75987613D01*
X102619661Y-76011999D01*
X102622063Y-76036385D01*
X102629176Y-76059834D01*
X102640727Y-76081445D01*
X102656272Y-76100387D01*
X102665345Y-76108609D01*
X102742264Y-76171736D01*
X102814244Y-76259443D01*
X102827682Y-76284585D01*
X102867728Y-76359505D01*
X102867729Y-76359508D01*
X102900666Y-76468084D01*
X102911787Y-76581000D01*
X102900666Y-76693916D01*
X102869836Y-76795547D01*
X102867728Y-76802495D01*
X102848429Y-76838601D01*
X102814244Y-76902557D01*
X102742264Y-76990264D01*
X102654557Y-77062244D01*
X102573141Y-77105761D01*
X102552766Y-77119375D01*
X102535439Y-77136702D01*
X102521826Y-77157076D01*
X102512448Y-77179715D01*
X102507668Y-77203748D01*
X102507668Y-77228252D01*
X102512448Y-77252285D01*
X102521826Y-77274924D01*
X102535440Y-77295299D01*
X102552767Y-77312626D01*
X102573141Y-77326239D01*
X102654557Y-77369756D01*
X102742264Y-77441736D01*
X102814244Y-77529443D01*
X102837839Y-77573587D01*
X102867728Y-77629505D01*
X102867729Y-77629508D01*
X102900666Y-77738084D01*
X102911787Y-77851000D01*
X102900666Y-77963916D01*
X102867729Y-78072492D01*
X102867728Y-78072495D01*
X102862447Y-78082375D01*
X102814244Y-78172557D01*
X102742264Y-78260264D01*
X102654557Y-78332244D01*
X102590601Y-78366429D01*
X102554495Y-78385728D01*
X102554492Y-78385729D01*
X102445916Y-78418666D01*
X102361298Y-78427000D01*
X101854702Y-78427000D01*
X101770084Y-78418666D01*
X101661508Y-78385729D01*
X101661505Y-78385728D01*
X101625399Y-78366429D01*
X101561443Y-78332244D01*
X101473736Y-78260264D01*
X101401756Y-78172557D01*
X101353553Y-78082375D01*
X101348272Y-78072495D01*
X101348271Y-78072492D01*
X101315334Y-77963916D01*
X101304213Y-77851000D01*
X101315334Y-77738084D01*
X101348271Y-77629508D01*
X101348272Y-77629505D01*
X101378161Y-77573587D01*
X101401756Y-77529443D01*
X101473736Y-77441736D01*
X101561443Y-77369756D01*
X101642859Y-77326239D01*
X101663234Y-77312625D01*
X101680561Y-77295298D01*
X101694174Y-77274924D01*
X101703552Y-77252285D01*
X101708332Y-77228252D01*
X101708332Y-77203748D01*
X101703552Y-77179715D01*
X101694174Y-77157076D01*
X101680560Y-77136701D01*
X101663233Y-77119374D01*
X101642859Y-77105761D01*
X101561443Y-77062244D01*
X101473736Y-76990264D01*
X101401756Y-76902557D01*
X101367571Y-76838601D01*
X101348272Y-76802495D01*
X101346164Y-76795547D01*
X101315334Y-76693916D01*
X101304213Y-76581000D01*
X101315334Y-76468084D01*
X101348271Y-76359508D01*
X101348272Y-76359505D01*
X101388318Y-76284585D01*
X101401756Y-76259443D01*
X101473736Y-76171736D01*
X101550646Y-76108617D01*
X101567965Y-76091298D01*
X101581579Y-76070923D01*
X101590957Y-76048284D01*
X101595737Y-76024251D01*
X101595737Y-75999747D01*
X101590957Y-75975714D01*
X101581579Y-75953075D01*
X101567966Y-75932701D01*
X101550639Y-75915374D01*
X101530264Y-75901760D01*
X101507625Y-75892382D01*
X101483592Y-75887602D01*
X101471340Y-75887000D01*
X101307000Y-75887000D01*
X101307000Y-74735000D01*
X102909000Y-74735000D01*
X102909000Y-75887000D01*
G37*
G36*
X91147112Y-76599327D02*
G01*
X91296412Y-76629024D01*
X91460384Y-76696944D01*
X91607954Y-76795547D01*
X91733453Y-76921046D01*
X91832056Y-77068616D01*
X91899976Y-77232588D01*
X91934600Y-77406659D01*
X91934600Y-77584141D01*
X91899976Y-77758212D01*
X91832056Y-77922184D01*
X91733453Y-78069754D01*
X91607954Y-78195253D01*
X91460384Y-78293856D01*
X91296412Y-78361776D01*
X91147112Y-78391473D01*
X91122342Y-78396400D01*
X90944858Y-78396400D01*
X90920088Y-78391473D01*
X90770788Y-78361776D01*
X90606816Y-78293856D01*
X90459246Y-78195253D01*
X90333747Y-78069754D01*
X90235144Y-77922184D01*
X90167224Y-77758212D01*
X90132600Y-77584141D01*
X90132600Y-77406659D01*
X90167224Y-77232588D01*
X90235144Y-77068616D01*
X90333747Y-76921046D01*
X90459246Y-76795547D01*
X90606816Y-76696944D01*
X90770788Y-76629024D01*
X90920088Y-76599327D01*
X90944858Y-76594400D01*
X91122342Y-76594400D01*
X91147112Y-76599327D01*
G37*
G36*
X149719512Y-76319927D02*
G01*
X149868812Y-76349624D01*
X150032784Y-76417544D01*
X150180354Y-76516147D01*
X150305853Y-76641646D01*
X150404456Y-76789216D01*
X150472376Y-76953188D01*
X150507000Y-77127259D01*
X150507000Y-77304741D01*
X150472376Y-77478812D01*
X150404456Y-77642784D01*
X150305853Y-77790354D01*
X150180354Y-77915853D01*
X150032784Y-78014456D01*
X149868812Y-78082376D01*
X149719512Y-78112073D01*
X149694742Y-78117000D01*
X149517258Y-78117000D01*
X149492488Y-78112073D01*
X149343188Y-78082376D01*
X149179216Y-78014456D01*
X149031646Y-77915853D01*
X148906147Y-77790354D01*
X148807544Y-77642784D01*
X148739624Y-77478812D01*
X148705000Y-77304741D01*
X148705000Y-77127259D01*
X148739624Y-76953188D01*
X148807544Y-76789216D01*
X148906147Y-76641646D01*
X149031646Y-76516147D01*
X149179216Y-76417544D01*
X149343188Y-76349624D01*
X149492488Y-76319927D01*
X149517258Y-76315000D01*
X149694742Y-76315000D01*
X149719512Y-76319927D01*
G37*
G36*
X128495743Y-74787887D02*
G01*
X128652438Y-74852792D01*
X128793453Y-74947015D01*
X128913385Y-75066947D01*
X129007608Y-75207962D01*
X129072513Y-75364657D01*
X129105600Y-75530998D01*
X129105600Y-75700602D01*
X129072513Y-75866943D01*
X129007608Y-76023638D01*
X128913385Y-76164653D01*
X128793453Y-76284585D01*
X128652438Y-76378808D01*
X128495743Y-76443713D01*
X128329402Y-76476800D01*
X128159798Y-76476800D01*
X127993457Y-76443713D01*
X127836762Y-76378808D01*
X127695747Y-76284585D01*
X127575815Y-76164653D01*
X127481592Y-76023638D01*
X127416687Y-75866943D01*
X127383600Y-75700602D01*
X127383600Y-75530998D01*
X127416687Y-75364657D01*
X127481592Y-75207962D01*
X127575815Y-75066947D01*
X127695747Y-74947015D01*
X127836762Y-74852792D01*
X127993457Y-74787887D01*
X128159798Y-74754800D01*
X128329402Y-74754800D01*
X128495743Y-74787887D01*
G37*
G36*
X91147112Y-74059327D02*
G01*
X91296412Y-74089024D01*
X91460384Y-74156944D01*
X91607954Y-74255547D01*
X91733453Y-74381046D01*
X91832056Y-74528616D01*
X91899976Y-74692588D01*
X91934600Y-74866659D01*
X91934600Y-75044141D01*
X91899976Y-75218212D01*
X91832056Y-75382184D01*
X91733453Y-75529754D01*
X91607954Y-75655253D01*
X91460384Y-75753856D01*
X91296412Y-75821776D01*
X91147112Y-75851473D01*
X91122342Y-75856400D01*
X90944858Y-75856400D01*
X90920088Y-75851473D01*
X90770788Y-75821776D01*
X90606816Y-75753856D01*
X90459246Y-75655253D01*
X90333747Y-75529754D01*
X90235144Y-75382184D01*
X90167224Y-75218212D01*
X90132600Y-75044141D01*
X90132600Y-74866659D01*
X90167224Y-74692588D01*
X90235144Y-74528616D01*
X90333747Y-74381046D01*
X90459246Y-74255547D01*
X90606816Y-74156944D01*
X90770788Y-74089024D01*
X90920088Y-74059327D01*
X90944858Y-74054400D01*
X91122342Y-74054400D01*
X91147112Y-74059327D01*
G37*
G36*
X149719512Y-73779927D02*
G01*
X149868812Y-73809624D01*
X150032784Y-73877544D01*
X150180354Y-73976147D01*
X150305853Y-74101646D01*
X150404456Y-74249216D01*
X150472376Y-74413188D01*
X150507000Y-74587259D01*
X150507000Y-74764741D01*
X150472376Y-74938812D01*
X150404456Y-75102784D01*
X150305853Y-75250354D01*
X150180354Y-75375853D01*
X150032784Y-75474456D01*
X149868812Y-75542376D01*
X149719512Y-75572073D01*
X149694742Y-75577000D01*
X149517258Y-75577000D01*
X149492488Y-75572073D01*
X149343188Y-75542376D01*
X149179216Y-75474456D01*
X149031646Y-75375853D01*
X148906147Y-75250354D01*
X148807544Y-75102784D01*
X148739624Y-74938812D01*
X148705000Y-74764741D01*
X148705000Y-74587259D01*
X148739624Y-74413188D01*
X148807544Y-74249216D01*
X148906147Y-74101646D01*
X149031646Y-73976147D01*
X149179216Y-73877544D01*
X149343188Y-73809624D01*
X149492488Y-73779927D01*
X149517258Y-73775000D01*
X149694742Y-73775000D01*
X149719512Y-73779927D01*
G37*
G36*
X107896674Y-74031065D02*
G01*
X107934367Y-74042499D01*
X107969103Y-74061066D01*
X107999548Y-74086052D01*
X108024534Y-74116497D01*
X108043101Y-74151233D01*
X108054535Y-74188926D01*
X108059000Y-74234261D01*
X108059000Y-75320939D01*
X108054535Y-75366274D01*
X108043101Y-75403967D01*
X108024534Y-75438703D01*
X107999548Y-75469148D01*
X107969103Y-75494134D01*
X107934367Y-75512701D01*
X107896674Y-75524135D01*
X107851339Y-75528600D01*
X107014661Y-75528600D01*
X106969326Y-75524135D01*
X106931633Y-75512701D01*
X106896897Y-75494134D01*
X106866452Y-75469148D01*
X106841466Y-75438703D01*
X106822899Y-75403967D01*
X106811465Y-75366274D01*
X106807000Y-75320939D01*
X106807000Y-74234261D01*
X106811465Y-74188926D01*
X106822899Y-74151233D01*
X106841466Y-74116497D01*
X106866452Y-74086052D01*
X106896897Y-74061066D01*
X106931633Y-74042499D01*
X106969326Y-74031065D01*
X107014661Y-74026600D01*
X107851339Y-74026600D01*
X107896674Y-74031065D01*
G37*
G36*
X109946674Y-74031065D02*
G01*
X109984367Y-74042499D01*
X110019103Y-74061066D01*
X110049548Y-74086052D01*
X110074534Y-74116497D01*
X110093101Y-74151233D01*
X110104535Y-74188926D01*
X110109000Y-74234261D01*
X110109000Y-75320939D01*
X110104535Y-75366274D01*
X110093101Y-75403967D01*
X110074534Y-75438703D01*
X110049548Y-75469148D01*
X110019103Y-75494134D01*
X109984367Y-75512701D01*
X109946674Y-75524135D01*
X109901339Y-75528600D01*
X109064661Y-75528600D01*
X109019326Y-75524135D01*
X108981633Y-75512701D01*
X108946897Y-75494134D01*
X108916452Y-75469148D01*
X108891466Y-75438703D01*
X108872899Y-75403967D01*
X108861465Y-75366274D01*
X108857000Y-75320939D01*
X108857000Y-74234261D01*
X108861465Y-74188926D01*
X108872899Y-74151233D01*
X108891466Y-74116497D01*
X108916452Y-74086052D01*
X108946897Y-74061066D01*
X108981633Y-74042499D01*
X109019326Y-74031065D01*
X109064661Y-74026600D01*
X109901339Y-74026600D01*
X109946674Y-74031065D01*
G37*
G36*
X98059474Y-74005665D02*
G01*
X98097167Y-74017099D01*
X98131903Y-74035666D01*
X98162348Y-74060652D01*
X98187334Y-74091097D01*
X98205901Y-74125833D01*
X98217335Y-74163526D01*
X98221800Y-74208861D01*
X98221800Y-75295539D01*
X98217335Y-75340874D01*
X98205901Y-75378567D01*
X98187334Y-75413303D01*
X98162348Y-75443748D01*
X98131903Y-75468734D01*
X98097167Y-75487301D01*
X98059474Y-75498735D01*
X98014139Y-75503200D01*
X97177461Y-75503200D01*
X97132126Y-75498735D01*
X97094433Y-75487301D01*
X97059697Y-75468734D01*
X97029252Y-75443748D01*
X97004266Y-75413303D01*
X96985699Y-75378567D01*
X96974265Y-75340874D01*
X96969800Y-75295539D01*
X96969800Y-74208861D01*
X96974265Y-74163526D01*
X96985699Y-74125833D01*
X97004266Y-74091097D01*
X97029252Y-74060652D01*
X97059697Y-74035666D01*
X97094433Y-74017099D01*
X97132126Y-74005665D01*
X97177461Y-74001200D01*
X98014139Y-74001200D01*
X98059474Y-74005665D01*
G37*
G36*
X96009474Y-74005665D02*
G01*
X96047167Y-74017099D01*
X96081903Y-74035666D01*
X96112348Y-74060652D01*
X96137334Y-74091097D01*
X96155901Y-74125833D01*
X96167335Y-74163526D01*
X96171800Y-74208861D01*
X96171800Y-75295539D01*
X96167335Y-75340874D01*
X96155901Y-75378567D01*
X96137334Y-75413303D01*
X96112348Y-75443748D01*
X96081903Y-75468734D01*
X96047167Y-75487301D01*
X96009474Y-75498735D01*
X95964139Y-75503200D01*
X95127461Y-75503200D01*
X95082126Y-75498735D01*
X95044433Y-75487301D01*
X95009697Y-75468734D01*
X94979252Y-75443748D01*
X94954266Y-75413303D01*
X94935699Y-75378567D01*
X94924265Y-75340874D01*
X94919800Y-75295539D01*
X94919800Y-74208861D01*
X94924265Y-74163526D01*
X94935699Y-74125833D01*
X94954266Y-74091097D01*
X94979252Y-74060652D01*
X95009697Y-74035666D01*
X95044433Y-74017099D01*
X95082126Y-74005665D01*
X95127461Y-74001200D01*
X95964139Y-74001200D01*
X96009474Y-74005665D01*
G37*
G36*
X133118874Y-71897465D02*
G01*
X133156567Y-71908899D01*
X133191303Y-71927466D01*
X133221748Y-71952452D01*
X133246734Y-71982897D01*
X133265301Y-72017633D01*
X133276735Y-72055326D01*
X133281200Y-72100661D01*
X133281200Y-73187339D01*
X133276735Y-73232674D01*
X133265301Y-73270367D01*
X133246734Y-73305103D01*
X133221748Y-73335548D01*
X133191303Y-73360534D01*
X133156567Y-73379101D01*
X133118874Y-73390535D01*
X133073539Y-73395000D01*
X132236861Y-73395000D01*
X132191526Y-73390535D01*
X132153833Y-73379101D01*
X132119097Y-73360534D01*
X132088652Y-73335548D01*
X132063666Y-73305103D01*
X132045099Y-73270367D01*
X132033665Y-73232674D01*
X132029200Y-73187339D01*
X132029200Y-72100661D01*
X132033665Y-72055326D01*
X132045099Y-72017633D01*
X132063666Y-71982897D01*
X132088652Y-71952452D01*
X132119097Y-71927466D01*
X132153833Y-71908899D01*
X132191526Y-71897465D01*
X132236861Y-71893000D01*
X133073539Y-71893000D01*
X133118874Y-71897465D01*
G37*
G36*
X135168874Y-71897465D02*
G01*
X135206567Y-71908899D01*
X135241303Y-71927466D01*
X135271748Y-71952452D01*
X135296734Y-71982897D01*
X135315301Y-72017633D01*
X135326735Y-72055326D01*
X135331200Y-72100661D01*
X135331200Y-73187339D01*
X135326735Y-73232674D01*
X135315301Y-73270367D01*
X135296734Y-73305103D01*
X135271748Y-73335548D01*
X135241303Y-73360534D01*
X135206567Y-73379101D01*
X135168874Y-73390535D01*
X135123539Y-73395000D01*
X134286861Y-73395000D01*
X134241526Y-73390535D01*
X134203833Y-73379101D01*
X134169097Y-73360534D01*
X134138652Y-73335548D01*
X134113666Y-73305103D01*
X134095099Y-73270367D01*
X134083665Y-73232674D01*
X134079200Y-73187339D01*
X134079200Y-72100661D01*
X134083665Y-72055326D01*
X134095099Y-72017633D01*
X134113666Y-71982897D01*
X134138652Y-71952452D01*
X134169097Y-71927466D01*
X134203833Y-71908899D01*
X134241526Y-71897465D01*
X134286861Y-71893000D01*
X135123539Y-71893000D01*
X135168874Y-71897465D01*
G37*
G36*
X140782274Y-71821265D02*
G01*
X140819967Y-71832699D01*
X140854703Y-71851266D01*
X140885148Y-71876252D01*
X140910134Y-71906697D01*
X140928701Y-71941433D01*
X140940135Y-71979126D01*
X140944600Y-72024461D01*
X140944600Y-73111139D01*
X140940135Y-73156474D01*
X140928701Y-73194167D01*
X140910134Y-73228903D01*
X140885148Y-73259348D01*
X140854703Y-73284334D01*
X140819967Y-73302901D01*
X140782274Y-73314335D01*
X140736939Y-73318800D01*
X139900261Y-73318800D01*
X139854926Y-73314335D01*
X139817233Y-73302901D01*
X139782497Y-73284334D01*
X139752052Y-73259348D01*
X139727066Y-73228903D01*
X139708499Y-73194167D01*
X139697065Y-73156474D01*
X139692600Y-73111139D01*
X139692600Y-72024461D01*
X139697065Y-71979126D01*
X139708499Y-71941433D01*
X139727066Y-71906697D01*
X139752052Y-71876252D01*
X139782497Y-71851266D01*
X139817233Y-71832699D01*
X139854926Y-71821265D01*
X139900261Y-71816800D01*
X140736939Y-71816800D01*
X140782274Y-71821265D01*
G37*
G36*
X138732274Y-71821265D02*
G01*
X138769967Y-71832699D01*
X138804703Y-71851266D01*
X138835148Y-71876252D01*
X138860134Y-71906697D01*
X138878701Y-71941433D01*
X138890135Y-71979126D01*
X138894600Y-72024461D01*
X138894600Y-73111139D01*
X138890135Y-73156474D01*
X138878701Y-73194167D01*
X138860134Y-73228903D01*
X138835148Y-73259348D01*
X138804703Y-73284334D01*
X138769967Y-73302901D01*
X138732274Y-73314335D01*
X138686939Y-73318800D01*
X137850261Y-73318800D01*
X137804926Y-73314335D01*
X137767233Y-73302901D01*
X137732497Y-73284334D01*
X137702052Y-73259348D01*
X137677066Y-73228903D01*
X137658499Y-73194167D01*
X137647065Y-73156474D01*
X137642600Y-73111139D01*
X137642600Y-72024461D01*
X137647065Y-71979126D01*
X137658499Y-71941433D01*
X137677066Y-71906697D01*
X137702052Y-71876252D01*
X137732497Y-71851266D01*
X137767233Y-71832699D01*
X137804926Y-71821265D01*
X137850261Y-71816800D01*
X138686939Y-71816800D01*
X138732274Y-71821265D01*
G37*
G36*
X91147112Y-71519327D02*
G01*
X91296412Y-71549024D01*
X91460384Y-71616944D01*
X91607954Y-71715547D01*
X91733453Y-71841046D01*
X91832056Y-71988616D01*
X91899976Y-72152588D01*
X91934600Y-72326659D01*
X91934600Y-72504141D01*
X91899976Y-72678212D01*
X91832056Y-72842184D01*
X91733453Y-72989754D01*
X91607954Y-73115253D01*
X91460384Y-73213856D01*
X91296412Y-73281776D01*
X91147112Y-73311473D01*
X91122342Y-73316400D01*
X90944858Y-73316400D01*
X90920088Y-73311473D01*
X90770788Y-73281776D01*
X90606816Y-73213856D01*
X90459246Y-73115253D01*
X90333747Y-72989754D01*
X90235144Y-72842184D01*
X90167224Y-72678212D01*
X90132600Y-72504141D01*
X90132600Y-72326659D01*
X90167224Y-72152588D01*
X90235144Y-71988616D01*
X90333747Y-71841046D01*
X90459246Y-71715547D01*
X90606816Y-71616944D01*
X90770788Y-71549024D01*
X90920088Y-71519327D01*
X90944858Y-71514400D01*
X91122342Y-71514400D01*
X91147112Y-71519327D01*
G37*
G36*
X150507000Y-73037000D02*
G01*
X148705000Y-73037000D01*
X148705000Y-71235000D01*
X150507000Y-71235000D01*
X150507000Y-73037000D01*
G37*
G36*
X103749074Y-70500465D02*
G01*
X103786767Y-70511899D01*
X103821503Y-70530466D01*
X103851948Y-70555452D01*
X103876934Y-70585897D01*
X103895501Y-70620633D01*
X103906935Y-70658326D01*
X103911400Y-70703661D01*
X103911400Y-71790339D01*
X103906935Y-71835674D01*
X103895501Y-71873367D01*
X103876934Y-71908103D01*
X103851948Y-71938548D01*
X103821503Y-71963534D01*
X103786767Y-71982101D01*
X103749074Y-71993535D01*
X103703739Y-71998000D01*
X102867061Y-71998000D01*
X102821726Y-71993535D01*
X102784033Y-71982101D01*
X102749297Y-71963534D01*
X102718852Y-71938548D01*
X102693866Y-71908103D01*
X102675299Y-71873367D01*
X102663865Y-71835674D01*
X102659400Y-71790339D01*
X102659400Y-70703661D01*
X102663865Y-70658326D01*
X102675299Y-70620633D01*
X102693866Y-70585897D01*
X102718852Y-70555452D01*
X102749297Y-70530466D01*
X102784033Y-70511899D01*
X102821726Y-70500465D01*
X102867061Y-70496000D01*
X103703739Y-70496000D01*
X103749074Y-70500465D01*
G37*
G36*
X101699074Y-70500465D02*
G01*
X101736767Y-70511899D01*
X101771503Y-70530466D01*
X101801948Y-70555452D01*
X101826934Y-70585897D01*
X101845501Y-70620633D01*
X101856935Y-70658326D01*
X101861400Y-70703661D01*
X101861400Y-71790339D01*
X101856935Y-71835674D01*
X101845501Y-71873367D01*
X101826934Y-71908103D01*
X101801948Y-71938548D01*
X101771503Y-71963534D01*
X101736767Y-71982101D01*
X101699074Y-71993535D01*
X101653739Y-71998000D01*
X100817061Y-71998000D01*
X100771726Y-71993535D01*
X100734033Y-71982101D01*
X100699297Y-71963534D01*
X100668852Y-71938548D01*
X100643866Y-71908103D01*
X100625299Y-71873367D01*
X100613865Y-71835674D01*
X100609400Y-71790339D01*
X100609400Y-70703661D01*
X100613865Y-70658326D01*
X100625299Y-70620633D01*
X100643866Y-70585897D01*
X100668852Y-70555452D01*
X100699297Y-70530466D01*
X100734033Y-70511899D01*
X100771726Y-70500465D01*
X100817061Y-70496000D01*
X101653739Y-70496000D01*
X101699074Y-70500465D01*
G37*
G36*
X91934600Y-70776400D02*
G01*
X90132600Y-70776400D01*
X90132600Y-68974400D01*
X91934600Y-68974400D01*
X91934600Y-70776400D01*
G37*
G36*
X95933274Y-69078065D02*
G01*
X95970967Y-69089499D01*
X96005703Y-69108066D01*
X96036148Y-69133052D01*
X96061134Y-69163497D01*
X96079701Y-69198233D01*
X96091135Y-69235926D01*
X96095600Y-69281261D01*
X96095600Y-70367939D01*
X96091135Y-70413274D01*
X96079701Y-70450967D01*
X96061134Y-70485703D01*
X96036148Y-70516148D01*
X96005703Y-70541134D01*
X95970967Y-70559701D01*
X95933274Y-70571135D01*
X95887939Y-70575600D01*
X95051261Y-70575600D01*
X95005926Y-70571135D01*
X94968233Y-70559701D01*
X94933497Y-70541134D01*
X94903052Y-70516148D01*
X94878066Y-70485703D01*
X94859499Y-70450967D01*
X94848065Y-70413274D01*
X94843600Y-70367939D01*
X94843600Y-69281261D01*
X94848065Y-69235926D01*
X94859499Y-69198233D01*
X94878066Y-69163497D01*
X94903052Y-69133052D01*
X94933497Y-69108066D01*
X94968233Y-69089499D01*
X95005926Y-69078065D01*
X95051261Y-69073600D01*
X95887939Y-69073600D01*
X95933274Y-69078065D01*
G37*
G36*
X97983274Y-69078065D02*
G01*
X98020967Y-69089499D01*
X98055703Y-69108066D01*
X98086148Y-69133052D01*
X98111134Y-69163497D01*
X98129701Y-69198233D01*
X98141135Y-69235926D01*
X98145600Y-69281261D01*
X98145600Y-70367939D01*
X98141135Y-70413274D01*
X98129701Y-70450967D01*
X98111134Y-70485703D01*
X98086148Y-70516148D01*
X98055703Y-70541134D01*
X98020967Y-70559701D01*
X97983274Y-70571135D01*
X97937939Y-70575600D01*
X97101261Y-70575600D01*
X97055926Y-70571135D01*
X97018233Y-70559701D01*
X96983497Y-70541134D01*
X96953052Y-70516148D01*
X96928066Y-70485703D01*
X96909499Y-70450967D01*
X96898065Y-70413274D01*
X96893600Y-70367939D01*
X96893600Y-69281261D01*
X96898065Y-69235926D01*
X96909499Y-69198233D01*
X96928066Y-69163497D01*
X96953052Y-69133052D01*
X96983497Y-69108066D01*
X97018233Y-69089499D01*
X97055926Y-69078065D01*
X97101261Y-69073600D01*
X97937939Y-69073600D01*
X97983274Y-69078065D01*
G37*
G36*
X128495743Y-68865887D02*
G01*
X128652438Y-68930792D01*
X128793453Y-69025015D01*
X128913385Y-69144947D01*
X129007608Y-69285962D01*
X129072513Y-69442657D01*
X129105600Y-69608998D01*
X129105600Y-69778602D01*
X129072513Y-69944943D01*
X129007608Y-70101638D01*
X128913385Y-70242653D01*
X128793453Y-70362585D01*
X128652438Y-70456808D01*
X128495743Y-70521713D01*
X128329402Y-70554800D01*
X128159798Y-70554800D01*
X127993457Y-70521713D01*
X127836762Y-70456808D01*
X127695747Y-70362585D01*
X127575815Y-70242653D01*
X127481592Y-70101638D01*
X127416687Y-69944943D01*
X127383600Y-69778602D01*
X127383600Y-69608998D01*
X127416687Y-69442657D01*
X127481592Y-69285962D01*
X127575815Y-69144947D01*
X127695747Y-69025015D01*
X127836762Y-68930792D01*
X127993457Y-68865887D01*
X128159798Y-68832800D01*
X128329402Y-68832800D01*
X128495743Y-68865887D01*
G37*
G36*
X109997474Y-69052665D02*
G01*
X110035167Y-69064099D01*
X110069903Y-69082666D01*
X110100348Y-69107652D01*
X110125334Y-69138097D01*
X110143901Y-69172833D01*
X110155335Y-69210526D01*
X110159800Y-69255861D01*
X110159800Y-70342539D01*
X110155335Y-70387874D01*
X110143901Y-70425567D01*
X110125334Y-70460303D01*
X110100348Y-70490748D01*
X110069903Y-70515734D01*
X110035167Y-70534301D01*
X109997474Y-70545735D01*
X109952139Y-70550200D01*
X109115461Y-70550200D01*
X109070126Y-70545735D01*
X109032433Y-70534301D01*
X108997697Y-70515734D01*
X108967252Y-70490748D01*
X108942266Y-70460303D01*
X108923699Y-70425567D01*
X108912265Y-70387874D01*
X108907800Y-70342539D01*
X108907800Y-69255861D01*
X108912265Y-69210526D01*
X108923699Y-69172833D01*
X108942266Y-69138097D01*
X108967252Y-69107652D01*
X108997697Y-69082666D01*
X109032433Y-69064099D01*
X109070126Y-69052665D01*
X109115461Y-69048200D01*
X109952139Y-69048200D01*
X109997474Y-69052665D01*
G37*
G36*
X107947474Y-69052665D02*
G01*
X107985167Y-69064099D01*
X108019903Y-69082666D01*
X108050348Y-69107652D01*
X108075334Y-69138097D01*
X108093901Y-69172833D01*
X108105335Y-69210526D01*
X108109800Y-69255861D01*
X108109800Y-70342539D01*
X108105335Y-70387874D01*
X108093901Y-70425567D01*
X108075334Y-70460303D01*
X108050348Y-70490748D01*
X108019903Y-70515734D01*
X107985167Y-70534301D01*
X107947474Y-70545735D01*
X107902139Y-70550200D01*
X107065461Y-70550200D01*
X107020126Y-70545735D01*
X106982433Y-70534301D01*
X106947697Y-70515734D01*
X106917252Y-70490748D01*
X106892266Y-70460303D01*
X106873699Y-70425567D01*
X106862265Y-70387874D01*
X106857800Y-70342539D01*
X106857800Y-69255861D01*
X106862265Y-69210526D01*
X106873699Y-69172833D01*
X106892266Y-69138097D01*
X106917252Y-69107652D01*
X106947697Y-69082666D01*
X106982433Y-69064099D01*
X107020126Y-69052665D01*
X107065461Y-69048200D01*
X107902139Y-69048200D01*
X107947474Y-69052665D01*
G37*
G36*
X134328800Y-66260400D02*
G01*
X134164460Y-66260400D01*
X134140074Y-66262802D01*
X134116625Y-66269915D01*
X134095014Y-66281466D01*
X134076072Y-66297011D01*
X134060527Y-66315953D01*
X134048976Y-66337564D01*
X134041863Y-66361013D01*
X134039461Y-66385399D01*
X134041863Y-66409785D01*
X134048976Y-66433234D01*
X134060527Y-66454845D01*
X134076072Y-66473787D01*
X134085145Y-66482009D01*
X134162064Y-66545136D01*
X134234044Y-66632843D01*
X134268229Y-66696799D01*
X134287528Y-66732905D01*
X134287529Y-66732908D01*
X134320466Y-66841484D01*
X134331587Y-66954400D01*
X134320466Y-67067316D01*
X134289646Y-67168914D01*
X134287528Y-67175895D01*
X134268229Y-67212001D01*
X134234044Y-67275957D01*
X134162064Y-67363664D01*
X134074357Y-67435644D01*
X133992941Y-67479161D01*
X133972566Y-67492775D01*
X133955239Y-67510102D01*
X133941626Y-67530476D01*
X133932248Y-67553115D01*
X133927468Y-67577148D01*
X133927468Y-67601652D01*
X133932248Y-67625685D01*
X133941626Y-67648324D01*
X133955240Y-67668699D01*
X133972567Y-67686026D01*
X133992941Y-67699639D01*
X134074357Y-67743156D01*
X134162064Y-67815136D01*
X134234044Y-67902843D01*
X134262888Y-67956808D01*
X134287528Y-68002905D01*
X134287529Y-68002908D01*
X134320466Y-68111484D01*
X134331587Y-68224400D01*
X134320466Y-68337316D01*
X134287529Y-68445892D01*
X134287528Y-68445895D01*
X134268229Y-68482001D01*
X134234044Y-68545957D01*
X134162064Y-68633664D01*
X134074357Y-68705644D01*
X134010401Y-68739829D01*
X133974295Y-68759128D01*
X133974292Y-68759129D01*
X133865716Y-68792066D01*
X133781098Y-68800400D01*
X133274502Y-68800400D01*
X133189884Y-68792066D01*
X133081308Y-68759129D01*
X133081305Y-68759128D01*
X133045199Y-68739829D01*
X132981243Y-68705644D01*
X132893536Y-68633664D01*
X132821556Y-68545957D01*
X132787371Y-68482001D01*
X132768072Y-68445895D01*
X132768071Y-68445892D01*
X132735134Y-68337316D01*
X132724013Y-68224400D01*
X132735134Y-68111484D01*
X132768071Y-68002908D01*
X132768072Y-68002905D01*
X132792712Y-67956808D01*
X132821556Y-67902843D01*
X132893536Y-67815136D01*
X132981243Y-67743156D01*
X133062659Y-67699639D01*
X133083034Y-67686025D01*
X133100361Y-67668698D01*
X133113974Y-67648324D01*
X133123352Y-67625685D01*
X133128132Y-67601652D01*
X133128132Y-67577148D01*
X133123352Y-67553115D01*
X133113974Y-67530476D01*
X133100360Y-67510101D01*
X133083033Y-67492774D01*
X133062659Y-67479161D01*
X132981243Y-67435644D01*
X132893536Y-67363664D01*
X132821556Y-67275957D01*
X132787371Y-67212001D01*
X132768072Y-67175895D01*
X132765954Y-67168914D01*
X132735134Y-67067316D01*
X132724013Y-66954400D01*
X132735134Y-66841484D01*
X132768071Y-66732908D01*
X132768072Y-66732905D01*
X132787371Y-66696799D01*
X132821556Y-66632843D01*
X132893536Y-66545136D01*
X132970446Y-66482017D01*
X132987765Y-66464698D01*
X133001379Y-66444323D01*
X133010757Y-66421684D01*
X133015537Y-66397651D01*
X133015537Y-66373147D01*
X133010757Y-66349114D01*
X133001379Y-66326475D01*
X132987766Y-66306101D01*
X132970439Y-66288774D01*
X132950064Y-66275160D01*
X132927425Y-66265782D01*
X132903392Y-66261002D01*
X132891140Y-66260400D01*
X132726800Y-66260400D01*
X132726800Y-65108400D01*
X134328800Y-65108400D01*
X134328800Y-66260400D01*
G37*
G36*
X123495743Y-66365887D02*
G01*
X123652438Y-66430792D01*
X123793453Y-66525015D01*
X123913385Y-66644947D01*
X124007608Y-66785962D01*
X124072513Y-66942657D01*
X124105600Y-67108998D01*
X124105600Y-67278602D01*
X124072513Y-67444943D01*
X124007608Y-67601638D01*
X123913385Y-67742653D01*
X123793453Y-67862585D01*
X123652438Y-67956808D01*
X123495743Y-68021713D01*
X123329402Y-68054800D01*
X123159798Y-68054800D01*
X122993457Y-68021713D01*
X122836762Y-67956808D01*
X122695747Y-67862585D01*
X122575815Y-67742653D01*
X122481592Y-67601638D01*
X122416687Y-67444943D01*
X122383600Y-67278602D01*
X122383600Y-67108998D01*
X122416687Y-66942657D01*
X122481592Y-66785962D01*
X122575815Y-66644947D01*
X122695747Y-66525015D01*
X122836762Y-66430792D01*
X122993457Y-66365887D01*
X123159798Y-66332800D01*
X123329402Y-66332800D01*
X123495743Y-66365887D01*
G37*
G36*
X102629600Y-65092000D02*
G01*
X102465260Y-65092000D01*
X102440874Y-65094402D01*
X102417425Y-65101515D01*
X102395814Y-65113066D01*
X102376872Y-65128611D01*
X102361327Y-65147553D01*
X102349776Y-65169164D01*
X102342663Y-65192613D01*
X102340261Y-65216999D01*
X102342663Y-65241385D01*
X102349776Y-65264834D01*
X102361327Y-65286445D01*
X102376872Y-65305387D01*
X102385945Y-65313609D01*
X102462864Y-65376736D01*
X102534844Y-65464443D01*
X102565454Y-65521712D01*
X102588328Y-65564505D01*
X102588329Y-65564508D01*
X102621266Y-65673084D01*
X102632387Y-65786000D01*
X102621266Y-65898916D01*
X102588329Y-66007492D01*
X102588328Y-66007495D01*
X102569029Y-66043601D01*
X102534844Y-66107557D01*
X102462864Y-66195264D01*
X102375157Y-66267244D01*
X102293741Y-66310761D01*
X102273366Y-66324375D01*
X102256039Y-66341702D01*
X102242426Y-66362076D01*
X102233048Y-66384715D01*
X102228268Y-66408748D01*
X102228268Y-66433252D01*
X102233048Y-66457285D01*
X102242426Y-66479924D01*
X102256040Y-66500299D01*
X102273367Y-66517626D01*
X102293741Y-66531239D01*
X102375157Y-66574756D01*
X102462864Y-66646736D01*
X102534844Y-66734443D01*
X102562381Y-66785962D01*
X102588328Y-66834505D01*
X102588329Y-66834508D01*
X102621266Y-66943084D01*
X102632387Y-67056000D01*
X102621266Y-67168916D01*
X102588795Y-67275955D01*
X102588328Y-67277495D01*
X102587736Y-67278602D01*
X102534844Y-67377557D01*
X102462864Y-67465264D01*
X102375157Y-67537244D01*
X102311201Y-67571429D01*
X102275095Y-67590728D01*
X102275092Y-67590729D01*
X102166516Y-67623666D01*
X102081898Y-67632000D01*
X101575302Y-67632000D01*
X101490684Y-67623666D01*
X101382108Y-67590729D01*
X101382105Y-67590728D01*
X101345999Y-67571429D01*
X101282043Y-67537244D01*
X101194336Y-67465264D01*
X101122356Y-67377557D01*
X101069464Y-67278602D01*
X101068872Y-67277495D01*
X101068405Y-67275955D01*
X101035934Y-67168916D01*
X101024813Y-67056000D01*
X101035934Y-66943084D01*
X101068871Y-66834508D01*
X101068872Y-66834505D01*
X101094819Y-66785962D01*
X101122356Y-66734443D01*
X101194336Y-66646736D01*
X101282043Y-66574756D01*
X101363459Y-66531239D01*
X101383834Y-66517625D01*
X101401161Y-66500298D01*
X101414774Y-66479924D01*
X101424152Y-66457285D01*
X101428932Y-66433252D01*
X101428932Y-66408748D01*
X101424152Y-66384715D01*
X101414774Y-66362076D01*
X101401160Y-66341701D01*
X101383833Y-66324374D01*
X101363459Y-66310761D01*
X101282043Y-66267244D01*
X101194336Y-66195264D01*
X101122356Y-66107557D01*
X101088171Y-66043601D01*
X101068872Y-66007495D01*
X101068871Y-66007492D01*
X101035934Y-65898916D01*
X101024813Y-65786000D01*
X101035934Y-65673084D01*
X101068871Y-65564508D01*
X101068872Y-65564505D01*
X101091746Y-65521712D01*
X101122356Y-65464443D01*
X101194336Y-65376736D01*
X101271246Y-65313617D01*
X101288565Y-65296298D01*
X101302179Y-65275923D01*
X101311557Y-65253284D01*
X101316337Y-65229251D01*
X101316337Y-65204747D01*
X101311557Y-65180714D01*
X101302179Y-65158075D01*
X101288566Y-65137701D01*
X101271239Y-65120374D01*
X101250864Y-65106760D01*
X101228225Y-65097382D01*
X101204192Y-65092602D01*
X101191940Y-65092000D01*
X101027600Y-65092000D01*
X101027600Y-63940000D01*
X102629600Y-63940000D01*
X102629600Y-65092000D01*
G37*
G36*
X115077474Y-64353665D02*
G01*
X115115167Y-64365099D01*
X115149903Y-64383666D01*
X115180348Y-64408652D01*
X115205334Y-64439097D01*
X115223901Y-64473833D01*
X115235335Y-64511526D01*
X115239800Y-64556861D01*
X115239800Y-65643539D01*
X115235335Y-65688874D01*
X115223901Y-65726567D01*
X115205334Y-65761303D01*
X115180348Y-65791748D01*
X115149903Y-65816734D01*
X115115167Y-65835301D01*
X115077474Y-65846735D01*
X115032139Y-65851200D01*
X114195461Y-65851200D01*
X114150126Y-65846735D01*
X114112433Y-65835301D01*
X114077697Y-65816734D01*
X114047252Y-65791748D01*
X114022266Y-65761303D01*
X114003699Y-65726567D01*
X113992265Y-65688874D01*
X113987800Y-65643539D01*
X113987800Y-64556861D01*
X113992265Y-64511526D01*
X114003699Y-64473833D01*
X114022266Y-64439097D01*
X114047252Y-64408652D01*
X114077697Y-64383666D01*
X114112433Y-64365099D01*
X114150126Y-64353665D01*
X114195461Y-64349200D01*
X115032139Y-64349200D01*
X115077474Y-64353665D01*
G37*
G36*
X113027474Y-64353665D02*
G01*
X113065167Y-64365099D01*
X113099903Y-64383666D01*
X113130348Y-64408652D01*
X113155334Y-64439097D01*
X113173901Y-64473833D01*
X113185335Y-64511526D01*
X113189800Y-64556861D01*
X113189800Y-65643539D01*
X113185335Y-65688874D01*
X113173901Y-65726567D01*
X113155334Y-65761303D01*
X113130348Y-65791748D01*
X113099903Y-65816734D01*
X113065167Y-65835301D01*
X113027474Y-65846735D01*
X112982139Y-65851200D01*
X112145461Y-65851200D01*
X112100126Y-65846735D01*
X112062433Y-65835301D01*
X112027697Y-65816734D01*
X111997252Y-65791748D01*
X111972266Y-65761303D01*
X111953699Y-65726567D01*
X111942265Y-65688874D01*
X111937800Y-65643539D01*
X111937800Y-64556861D01*
X111942265Y-64511526D01*
X111953699Y-64473833D01*
X111972266Y-64439097D01*
X111997252Y-64408652D01*
X112027697Y-64383666D01*
X112062433Y-64365099D01*
X112100126Y-64353665D01*
X112145461Y-64349200D01*
X112982139Y-64349200D01*
X113027474Y-64353665D01*
G37*
G36*
X119776474Y-64353665D02*
G01*
X119814167Y-64365099D01*
X119848903Y-64383666D01*
X119879348Y-64408652D01*
X119904334Y-64439097D01*
X119922901Y-64473833D01*
X119934335Y-64511526D01*
X119938800Y-64556861D01*
X119938800Y-65643539D01*
X119934335Y-65688874D01*
X119922901Y-65726567D01*
X119904334Y-65761303D01*
X119879348Y-65791748D01*
X119848903Y-65816734D01*
X119814167Y-65835301D01*
X119776474Y-65846735D01*
X119731139Y-65851200D01*
X118894461Y-65851200D01*
X118849126Y-65846735D01*
X118811433Y-65835301D01*
X118776697Y-65816734D01*
X118746252Y-65791748D01*
X118721266Y-65761303D01*
X118702699Y-65726567D01*
X118691265Y-65688874D01*
X118686800Y-65643539D01*
X118686800Y-64556861D01*
X118691265Y-64511526D01*
X118702699Y-64473833D01*
X118721266Y-64439097D01*
X118746252Y-64408652D01*
X118776697Y-64383666D01*
X118811433Y-64365099D01*
X118849126Y-64353665D01*
X118894461Y-64349200D01*
X119731139Y-64349200D01*
X119776474Y-64353665D01*
G37*
G36*
X117726474Y-64353665D02*
G01*
X117764167Y-64365099D01*
X117798903Y-64383666D01*
X117829348Y-64408652D01*
X117854334Y-64439097D01*
X117872901Y-64473833D01*
X117884335Y-64511526D01*
X117888800Y-64556861D01*
X117888800Y-65643539D01*
X117884335Y-65688874D01*
X117872901Y-65726567D01*
X117854334Y-65761303D01*
X117829348Y-65791748D01*
X117798903Y-65816734D01*
X117764167Y-65835301D01*
X117726474Y-65846735D01*
X117681139Y-65851200D01*
X116844461Y-65851200D01*
X116799126Y-65846735D01*
X116761433Y-65835301D01*
X116726697Y-65816734D01*
X116696252Y-65791748D01*
X116671266Y-65761303D01*
X116652699Y-65726567D01*
X116641265Y-65688874D01*
X116636800Y-65643539D01*
X116636800Y-64556861D01*
X116641265Y-64511526D01*
X116652699Y-64473833D01*
X116671266Y-64439097D01*
X116696252Y-64408652D01*
X116726697Y-64383666D01*
X116761433Y-64365099D01*
X116799126Y-64353665D01*
X116844461Y-64349200D01*
X117681139Y-64349200D01*
X117726474Y-64353665D01*
G37*
G36*
X108049074Y-64302865D02*
G01*
X108086767Y-64314299D01*
X108121503Y-64332866D01*
X108151948Y-64357852D01*
X108176934Y-64388297D01*
X108195501Y-64423033D01*
X108206935Y-64460726D01*
X108211400Y-64506061D01*
X108211400Y-65592739D01*
X108206935Y-65638074D01*
X108195501Y-65675767D01*
X108176934Y-65710503D01*
X108151948Y-65740948D01*
X108121503Y-65765934D01*
X108086767Y-65784501D01*
X108049074Y-65795935D01*
X108003739Y-65800400D01*
X107167061Y-65800400D01*
X107121726Y-65795935D01*
X107084033Y-65784501D01*
X107049297Y-65765934D01*
X107018852Y-65740948D01*
X106993866Y-65710503D01*
X106975299Y-65675767D01*
X106963865Y-65638074D01*
X106959400Y-65592739D01*
X106959400Y-64506061D01*
X106963865Y-64460726D01*
X106975299Y-64423033D01*
X106993866Y-64388297D01*
X107018852Y-64357852D01*
X107049297Y-64332866D01*
X107084033Y-64314299D01*
X107121726Y-64302865D01*
X107167061Y-64298400D01*
X108003739Y-64298400D01*
X108049074Y-64302865D01*
G37*
G36*
X110099074Y-64302865D02*
G01*
X110136767Y-64314299D01*
X110171503Y-64332866D01*
X110201948Y-64357852D01*
X110226934Y-64388297D01*
X110245501Y-64423033D01*
X110256935Y-64460726D01*
X110261400Y-64506061D01*
X110261400Y-65592739D01*
X110256935Y-65638074D01*
X110245501Y-65675767D01*
X110226934Y-65710503D01*
X110201948Y-65740948D01*
X110171503Y-65765934D01*
X110136767Y-65784501D01*
X110099074Y-65795935D01*
X110053739Y-65800400D01*
X109217061Y-65800400D01*
X109171726Y-65795935D01*
X109134033Y-65784501D01*
X109099297Y-65765934D01*
X109068852Y-65740948D01*
X109043866Y-65710503D01*
X109025299Y-65675767D01*
X109013865Y-65638074D01*
X109009400Y-65592739D01*
X109009400Y-64506061D01*
X109013865Y-64460726D01*
X109025299Y-64423033D01*
X109043866Y-64388297D01*
X109068852Y-64357852D01*
X109099297Y-64332866D01*
X109134033Y-64314299D01*
X109171726Y-64302865D01*
X109217061Y-64298400D01*
X110053739Y-64298400D01*
X110099074Y-64302865D01*
G37*
G36*
X95933274Y-64302865D02*
G01*
X95970967Y-64314299D01*
X96005703Y-64332866D01*
X96036148Y-64357852D01*
X96061134Y-64388297D01*
X96079701Y-64423033D01*
X96091135Y-64460726D01*
X96095600Y-64506061D01*
X96095600Y-65592739D01*
X96091135Y-65638074D01*
X96079701Y-65675767D01*
X96061134Y-65710503D01*
X96036148Y-65740948D01*
X96005703Y-65765934D01*
X95970967Y-65784501D01*
X95933274Y-65795935D01*
X95887939Y-65800400D01*
X95051261Y-65800400D01*
X95005926Y-65795935D01*
X94968233Y-65784501D01*
X94933497Y-65765934D01*
X94903052Y-65740948D01*
X94878066Y-65710503D01*
X94859499Y-65675767D01*
X94848065Y-65638074D01*
X94843600Y-65592739D01*
X94843600Y-64506061D01*
X94848065Y-64460726D01*
X94859499Y-64423033D01*
X94878066Y-64388297D01*
X94903052Y-64357852D01*
X94933497Y-64332866D01*
X94968233Y-64314299D01*
X95005926Y-64302865D01*
X95051261Y-64298400D01*
X95887939Y-64298400D01*
X95933274Y-64302865D01*
G37*
G36*
X97983274Y-64302865D02*
G01*
X98020967Y-64314299D01*
X98055703Y-64332866D01*
X98086148Y-64357852D01*
X98111134Y-64388297D01*
X98129701Y-64423033D01*
X98141135Y-64460726D01*
X98145600Y-64506061D01*
X98145600Y-65592739D01*
X98141135Y-65638074D01*
X98129701Y-65675767D01*
X98111134Y-65710503D01*
X98086148Y-65740948D01*
X98055703Y-65765934D01*
X98020967Y-65784501D01*
X97983274Y-65795935D01*
X97937939Y-65800400D01*
X97101261Y-65800400D01*
X97055926Y-65795935D01*
X97018233Y-65784501D01*
X96983497Y-65765934D01*
X96953052Y-65740948D01*
X96928066Y-65710503D01*
X96909499Y-65675767D01*
X96898065Y-65638074D01*
X96893600Y-65592739D01*
X96893600Y-64506061D01*
X96898065Y-64460726D01*
X96909499Y-64423033D01*
X96928066Y-64388297D01*
X96953052Y-64357852D01*
X96983497Y-64332866D01*
X97018233Y-64314299D01*
X97055926Y-64302865D01*
X97101261Y-64298400D01*
X97937939Y-64298400D01*
X97983274Y-64302865D01*
G37*
G36*
X128495743Y-63865887D02*
G01*
X128652438Y-63930792D01*
X128793453Y-64025015D01*
X128913385Y-64144947D01*
X129007608Y-64285962D01*
X129072513Y-64442657D01*
X129105600Y-64608998D01*
X129105600Y-64778602D01*
X129072513Y-64944943D01*
X129007608Y-65101638D01*
X128913385Y-65242653D01*
X128793453Y-65362585D01*
X128652438Y-65456808D01*
X128495743Y-65521713D01*
X128329402Y-65554800D01*
X128159798Y-65554800D01*
X127993457Y-65521713D01*
X127836762Y-65456808D01*
X127695747Y-65362585D01*
X127575815Y-65242653D01*
X127481592Y-65101638D01*
X127416687Y-64944943D01*
X127383600Y-64778602D01*
X127383600Y-64608998D01*
X127416687Y-64442657D01*
X127481592Y-64285962D01*
X127575815Y-64144947D01*
X127695747Y-64025015D01*
X127836762Y-63930792D01*
X127993457Y-63865887D01*
X128159798Y-63832800D01*
X128329402Y-63832800D01*
X128495743Y-63865887D01*
G37*
G36*
X150592549Y-62625116D02*
G01*
X150703734Y-62647232D01*
X150913203Y-62733997D01*
X151101720Y-62859960D01*
X151262040Y-63020280D01*
X151388003Y-63208797D01*
X151388004Y-63208799D01*
X151474768Y-63418267D01*
X151519000Y-63640635D01*
X151519000Y-63867365D01*
X151504552Y-63940000D01*
X151474768Y-64089734D01*
X151388003Y-64299203D01*
X151262040Y-64487720D01*
X151101720Y-64648040D01*
X150913203Y-64774003D01*
X150913202Y-64774004D01*
X150913201Y-64774004D01*
X150902100Y-64778602D01*
X150703734Y-64860768D01*
X150592549Y-64882884D01*
X150481365Y-64905000D01*
X150254635Y-64905000D01*
X150143451Y-64882884D01*
X150032266Y-64860768D01*
X149833900Y-64778602D01*
X149822799Y-64774004D01*
X149822798Y-64774004D01*
X149822797Y-64774003D01*
X149634280Y-64648040D01*
X149473960Y-64487720D01*
X149347997Y-64299203D01*
X149261232Y-64089734D01*
X149231448Y-63940000D01*
X149217000Y-63867365D01*
X149217000Y-63640635D01*
X149261232Y-63418267D01*
X149347996Y-63208799D01*
X149347997Y-63208797D01*
X149473960Y-63020280D01*
X149634280Y-62859960D01*
X149822797Y-62733997D01*
X150032266Y-62647232D01*
X150143451Y-62625116D01*
X150254635Y-62603000D01*
X150481365Y-62603000D01*
X150592549Y-62625116D01*
G37*
G36*
X90902549Y-62625116D02*
G01*
X91013734Y-62647232D01*
X91223203Y-62733997D01*
X91411720Y-62859960D01*
X91572040Y-63020280D01*
X91698003Y-63208797D01*
X91698004Y-63208799D01*
X91784768Y-63418267D01*
X91829000Y-63640635D01*
X91829000Y-63867365D01*
X91814552Y-63940000D01*
X91784768Y-64089734D01*
X91698003Y-64299203D01*
X91572040Y-64487720D01*
X91411720Y-64648040D01*
X91223203Y-64774003D01*
X91223202Y-64774004D01*
X91223201Y-64774004D01*
X91212100Y-64778602D01*
X91013734Y-64860768D01*
X90902549Y-64882884D01*
X90791365Y-64905000D01*
X90564635Y-64905000D01*
X90453451Y-64882884D01*
X90342266Y-64860768D01*
X90143900Y-64778602D01*
X90132799Y-64774004D01*
X90132798Y-64774004D01*
X90132797Y-64774003D01*
X89944280Y-64648040D01*
X89783960Y-64487720D01*
X89657997Y-64299203D01*
X89571232Y-64089734D01*
X89541448Y-63940000D01*
X89527000Y-63867365D01*
X89527000Y-63640635D01*
X89571232Y-63418267D01*
X89657996Y-63208799D01*
X89657997Y-63208797D01*
X89783960Y-63020280D01*
X89944280Y-62859960D01*
X90132797Y-62733997D01*
X90342266Y-62647232D01*
X90453451Y-62625116D01*
X90564635Y-62603000D01*
X90791365Y-62603000D01*
X90902549Y-62625116D01*
G37*
M02*
