G04 #@! TF.GenerationSoftware,KiCad,Pcbnew,(5.1.5-0-10_14)*
G04 #@! TF.CreationDate,2020-06-04T16:49:04+02:00*
G04 #@! TF.ProjectId,yuv-rgb-converter,7975762d-7267-4622-9d63-6f6e76657274,rev?*
G04 #@! TF.SameCoordinates,Original*
G04 #@! TF.FileFunction,Other,Fab,Top*
%FSLAX46Y46*%
G04 Gerber Fmt 4.6, Leading zero omitted, Abs format (unit mm)*
G04 Created by KiCad (PCBNEW (5.1.5-0-10_14)) date 2020-06-04 16:49:04*
%MOMM*%
%LPD*%
G04 APERTURE LIST*
%ADD10C,0.100000*%
%ADD11C,0.150000*%
%ADD12C,0.080000*%
G04 APERTURE END LIST*
D10*
X140953800Y-112776000D02*
X140953800Y-102616000D01*
X123053800Y-112776000D02*
X140953800Y-112776000D01*
X123053800Y-102616000D02*
X123053800Y-112776000D01*
X140953800Y-102616000D02*
X123053800Y-102616000D01*
X139893800Y-104521000D02*
X140893800Y-105521000D01*
X123113800Y-104521000D02*
X139893800Y-104521000D01*
X123113800Y-110871000D02*
X123113800Y-104521000D01*
X140893800Y-110871000D02*
X123113800Y-110871000D01*
X140893800Y-105521000D02*
X140893800Y-110871000D01*
X115655400Y-112953800D02*
X115655400Y-102793800D01*
X95215400Y-112953800D02*
X115655400Y-112953800D01*
X95215400Y-102793800D02*
X95215400Y-112953800D01*
X115655400Y-102793800D02*
X95215400Y-102793800D01*
X114595400Y-104698800D02*
X115595400Y-105698800D01*
X95275400Y-104698800D02*
X114595400Y-104698800D01*
X95275400Y-111048800D02*
X95275400Y-104698800D01*
X115595400Y-111048800D02*
X95275400Y-111048800D01*
X115595400Y-105698800D02*
X115595400Y-111048800D01*
X126720800Y-89063200D02*
G75*
G03X126720800Y-89063200I-900000J0D01*
G01*
X128970800Y-89063200D02*
G75*
G03X128970800Y-89063200I-3150000J0D01*
G01*
X126644600Y-78115800D02*
G75*
G03X126644600Y-78115800I-900000J0D01*
G01*
X128894600Y-78115800D02*
G75*
G03X128894600Y-78115800I-3150000J0D01*
G01*
X126644600Y-67193800D02*
G75*
G03X126644600Y-67193800I-900000J0D01*
G01*
X128894600Y-67193800D02*
G75*
G03X128894600Y-67193800I-3150000J0D01*
G01*
X106908800Y-94702000D02*
G75*
G03X106908800Y-94702000I-900000J0D01*
G01*
X109158800Y-94702000D02*
G75*
G03X109158800Y-94702000I-3150000J0D01*
G01*
X139639800Y-88554000D02*
X141639800Y-88554000D01*
X139639800Y-89754000D02*
X139639800Y-88554000D01*
X141639800Y-89754000D02*
X139639800Y-89754000D01*
X141639800Y-88554000D02*
X141639800Y-89754000D01*
X144084800Y-86522000D02*
X146084800Y-86522000D01*
X144084800Y-87722000D02*
X144084800Y-86522000D01*
X146084800Y-87722000D02*
X144084800Y-87722000D01*
X146084800Y-86522000D02*
X146084800Y-87722000D01*
X139716000Y-83474000D02*
X141716000Y-83474000D01*
X139716000Y-84674000D02*
X139716000Y-83474000D01*
X141716000Y-84674000D02*
X139716000Y-84674000D01*
X141716000Y-83474000D02*
X141716000Y-84674000D01*
X146396000Y-103419400D02*
X146396000Y-105419400D01*
X145196000Y-103419400D02*
X146396000Y-103419400D01*
X145196000Y-105419400D02*
X145196000Y-103419400D01*
X146396000Y-105419400D02*
X145196000Y-105419400D01*
X143399000Y-92389400D02*
X145399000Y-92389400D01*
X143399000Y-93589400D02*
X143399000Y-92389400D01*
X145399000Y-93589400D02*
X143399000Y-93589400D01*
X145399000Y-92389400D02*
X145399000Y-93589400D01*
X138090400Y-94015000D02*
X140090400Y-94015000D01*
X138090400Y-95215000D02*
X138090400Y-94015000D01*
X140090400Y-95215000D02*
X138090400Y-95215000D01*
X140090400Y-94015000D02*
X140090400Y-95215000D01*
X132680200Y-83042200D02*
X134680200Y-83042200D01*
X132680200Y-84242200D02*
X132680200Y-83042200D01*
X134680200Y-84242200D02*
X132680200Y-84242200D01*
X134680200Y-83042200D02*
X134680200Y-84242200D01*
X132680200Y-72044000D02*
X134680200Y-72044000D01*
X132680200Y-73244000D02*
X132680200Y-72044000D01*
X134680200Y-73244000D02*
X132680200Y-73244000D01*
X134680200Y-72044000D02*
X134680200Y-73244000D01*
X132934200Y-93989600D02*
X134934200Y-93989600D01*
X132934200Y-95189600D02*
X132934200Y-93989600D01*
X134934200Y-95189600D02*
X132934200Y-95189600D01*
X134934200Y-93989600D02*
X134934200Y-95189600D01*
X119846600Y-83988200D02*
X117846600Y-83988200D01*
X119846600Y-82788200D02*
X119846600Y-83988200D01*
X117846600Y-82788200D02*
X119846600Y-82788200D01*
X117846600Y-83988200D02*
X117846600Y-82788200D01*
X119751600Y-95361200D02*
X121751600Y-95361200D01*
X119751600Y-96561200D02*
X119751600Y-95361200D01*
X121751600Y-96561200D02*
X119751600Y-96561200D01*
X121751600Y-95361200D02*
X121751600Y-96561200D01*
X112995200Y-98942600D02*
X114995200Y-98942600D01*
X112995200Y-100142600D02*
X112995200Y-98942600D01*
X114995200Y-100142600D02*
X112995200Y-100142600D01*
X114995200Y-98942600D02*
X114995200Y-100142600D01*
X109794800Y-87030000D02*
X111794800Y-87030000D01*
X109794800Y-88230000D02*
X109794800Y-87030000D01*
X111794800Y-88230000D02*
X109794800Y-88230000D01*
X111794800Y-87030000D02*
X111794800Y-88230000D01*
X112588800Y-64500200D02*
X114588800Y-64500200D01*
X112588800Y-65700200D02*
X112588800Y-64500200D01*
X114588800Y-65700200D02*
X112588800Y-65700200D01*
X114588800Y-64500200D02*
X114588800Y-65700200D01*
X107458000Y-74177600D02*
X109458000Y-74177600D01*
X107458000Y-75377600D02*
X107458000Y-74177600D01*
X109458000Y-75377600D02*
X107458000Y-75377600D01*
X109458000Y-74177600D02*
X109458000Y-75377600D01*
X107610400Y-64449400D02*
X109610400Y-64449400D01*
X107610400Y-65649400D02*
X107610400Y-64449400D01*
X109610400Y-65649400D02*
X107610400Y-65649400D01*
X109610400Y-64449400D02*
X109610400Y-65649400D01*
X107508800Y-69199200D02*
X109508800Y-69199200D01*
X107508800Y-70399200D02*
X107508800Y-69199200D01*
X109508800Y-70399200D02*
X107508800Y-70399200D01*
X109508800Y-69199200D02*
X109508800Y-70399200D01*
X107508800Y-78952800D02*
X109508800Y-78952800D01*
X107508800Y-80152800D02*
X107508800Y-78952800D01*
X109508800Y-80152800D02*
X107508800Y-80152800D01*
X109508800Y-78952800D02*
X109508800Y-80152800D01*
X95520000Y-79105200D02*
X97520000Y-79105200D01*
X95520000Y-80305200D02*
X95520000Y-79105200D01*
X97520000Y-80305200D02*
X95520000Y-80305200D01*
X97520000Y-79105200D02*
X97520000Y-80305200D01*
X101260400Y-70647000D02*
X103260400Y-70647000D01*
X101260400Y-71847000D02*
X101260400Y-70647000D01*
X103260400Y-71847000D02*
X101260400Y-71847000D01*
X103260400Y-70647000D02*
X103260400Y-71847000D01*
X95494600Y-64449400D02*
X97494600Y-64449400D01*
X95494600Y-65649400D02*
X95494600Y-64449400D01*
X97494600Y-65649400D02*
X95494600Y-65649400D01*
X97494600Y-64449400D02*
X97494600Y-65649400D01*
X95494600Y-95970800D02*
X97494600Y-95970800D01*
X95494600Y-97170800D02*
X95494600Y-95970800D01*
X97494600Y-97170800D02*
X95494600Y-97170800D01*
X97494600Y-95970800D02*
X97494600Y-97170800D01*
X95494600Y-84210600D02*
X97494600Y-84210600D01*
X95494600Y-85410600D02*
X95494600Y-84210600D01*
X97494600Y-85410600D02*
X95494600Y-85410600D01*
X97494600Y-84210600D02*
X97494600Y-85410600D01*
X95570800Y-74152200D02*
X97570800Y-74152200D01*
X95570800Y-75352200D02*
X95570800Y-74152200D01*
X97570800Y-75352200D02*
X95570800Y-75352200D01*
X97570800Y-74152200D02*
X97570800Y-75352200D01*
X95494600Y-69224600D02*
X97494600Y-69224600D01*
X95494600Y-70424600D02*
X95494600Y-69224600D01*
X97494600Y-70424600D02*
X95494600Y-70424600D01*
X97494600Y-69224600D02*
X97494600Y-70424600D01*
X140359375Y-76300575D02*
G75*
G02X144593000Y-78054200I1753625J-1753625D01*
G01*
X140359375Y-79807825D02*
G75*
G03X144593000Y-78054200I1753625J1753625D01*
G01*
X140363000Y-76284200D02*
X140363000Y-79784200D01*
X142238975Y-97128575D02*
G75*
G02X146472600Y-98882200I1753625J-1753625D01*
G01*
X142238975Y-100635825D02*
G75*
G03X146472600Y-98882200I1753625J1753625D01*
G01*
X142242600Y-97112200D02*
X142242600Y-100612200D01*
X131723375Y-87400375D02*
G75*
G02X135957000Y-89154000I1753625J-1753625D01*
G01*
X131723375Y-90907625D02*
G75*
G03X135957000Y-89154000I1753625J1753625D01*
G01*
X131727000Y-87384000D02*
X131727000Y-90884000D01*
X131774175Y-76402175D02*
G75*
G02X136007800Y-78155800I1753625J-1753625D01*
G01*
X131774175Y-79909425D02*
G75*
G03X136007800Y-78155800I1753625J1753625D01*
G01*
X131777800Y-76385800D02*
X131777800Y-79885800D01*
X131774175Y-65200775D02*
G75*
G02X136007800Y-66954400I1753625J-1753625D01*
G01*
X131774175Y-68708025D02*
G75*
G03X136007800Y-66954400I1753625J1753625D01*
G01*
X131777800Y-65184400D02*
X131777800Y-68684400D01*
X111911375Y-91896175D02*
G75*
G02X116145000Y-93649800I1753625J-1753625D01*
G01*
X111911375Y-95403425D02*
G75*
G03X116145000Y-93649800I1753625J1753625D01*
G01*
X111915000Y-91879800D02*
X111915000Y-95379800D01*
X100354375Y-74827375D02*
G75*
G02X104588000Y-76581000I1753625J-1753625D01*
G01*
X100354375Y-78334625D02*
G75*
G03X104588000Y-76581000I1753625J1753625D01*
G01*
X100358000Y-74811000D02*
X100358000Y-78311000D01*
X100074975Y-64032375D02*
G75*
G02X104308600Y-65786000I1753625J-1753625D01*
G01*
X100074975Y-67539625D02*
G75*
G03X104308600Y-65786000I1753625J1753625D01*
G01*
X100078600Y-64016000D02*
X100078600Y-67516000D01*
X95985575Y-88898975D02*
G75*
G02X100219200Y-90652600I1753625J-1753625D01*
G01*
X95985575Y-92406225D02*
G75*
G03X100219200Y-90652600I1753625J1753625D01*
G01*
X95989200Y-88882600D02*
X95989200Y-92382600D01*
X89814400Y-83591400D02*
X90449400Y-82956400D01*
X89814400Y-88036400D02*
X89814400Y-83591400D01*
X92354400Y-88036400D02*
X89814400Y-88036400D01*
X92354400Y-82956400D02*
X92354400Y-88036400D01*
X90449400Y-82956400D02*
X92354400Y-82956400D01*
X148336000Y-71501000D02*
X148971000Y-70866000D01*
X148336000Y-83566000D02*
X148336000Y-71501000D01*
X150876000Y-83566000D02*
X148336000Y-83566000D01*
X150876000Y-70866000D02*
X150876000Y-83566000D01*
X148971000Y-70866000D02*
X150876000Y-70866000D01*
X90398600Y-68605400D02*
X92303600Y-68605400D01*
X92303600Y-68605400D02*
X92303600Y-78765400D01*
X92303600Y-78765400D02*
X89763600Y-78765400D01*
X89763600Y-78765400D02*
X89763600Y-69240400D01*
X89763600Y-69240400D02*
X90398600Y-68605400D01*
X143341800Y-112108600D02*
X143341800Y-110108600D01*
X144541800Y-112108600D02*
X143341800Y-112108600D01*
X144541800Y-110108600D02*
X144541800Y-112108600D01*
X143341800Y-110108600D02*
X144541800Y-110108600D01*
X117941800Y-112362600D02*
X117941800Y-110362600D01*
X119141800Y-112362600D02*
X117941800Y-112362600D01*
X119141800Y-110362600D02*
X119141800Y-112362600D01*
X117941800Y-110362600D02*
X119141800Y-110362600D01*
X138293600Y-71967800D02*
X140293600Y-71967800D01*
X138293600Y-73167800D02*
X138293600Y-71967800D01*
X140293600Y-73167800D02*
X138293600Y-73167800D01*
X140293600Y-71967800D02*
X140293600Y-73167800D01*
X132883400Y-99069600D02*
X134883400Y-99069600D01*
X132883400Y-100269600D02*
X132883400Y-99069600D01*
X134883400Y-100269600D02*
X132883400Y-100269600D01*
X134883400Y-99069600D02*
X134883400Y-100269600D01*
X126177800Y-99069600D02*
X128177800Y-99069600D01*
X126177800Y-100269600D02*
X126177800Y-99069600D01*
X128177800Y-100269600D02*
X126177800Y-100269600D01*
X128177800Y-99069600D02*
X128177800Y-100269600D01*
X119948200Y-89703200D02*
X117948200Y-89703200D01*
X119948200Y-88503200D02*
X119948200Y-89703200D01*
X117948200Y-88503200D02*
X119948200Y-88503200D01*
X117948200Y-89703200D02*
X117948200Y-88503200D01*
X119821200Y-78298600D02*
X117821200Y-78298600D01*
X119821200Y-77098600D02*
X119821200Y-78298600D01*
X117821200Y-77098600D02*
X119821200Y-77098600D01*
X117821200Y-78298600D02*
X117821200Y-77098600D01*
X117287800Y-64500200D02*
X119287800Y-64500200D01*
X117287800Y-65700200D02*
X117287800Y-64500200D01*
X119287800Y-65700200D02*
X117287800Y-65700200D01*
X119287800Y-64500200D02*
X119287800Y-65700200D01*
X103622600Y-86979200D02*
X105622600Y-86979200D01*
X103622600Y-88179200D02*
X103622600Y-86979200D01*
X105622600Y-88179200D02*
X103622600Y-88179200D01*
X105622600Y-86979200D02*
X105622600Y-88179200D01*
D11*
X131456180Y-108457904D02*
X132265704Y-108457904D01*
X132360942Y-108410285D01*
X132408561Y-108362666D01*
X132456180Y-108267428D01*
X132456180Y-108076952D01*
X132408561Y-107981714D01*
X132360942Y-107934095D01*
X132265704Y-107886476D01*
X131456180Y-107886476D01*
X131551419Y-107457904D02*
X131503800Y-107410285D01*
X131456180Y-107315047D01*
X131456180Y-107076952D01*
X131503800Y-106981714D01*
X131551419Y-106934095D01*
X131646657Y-106886476D01*
X131741895Y-106886476D01*
X131884752Y-106934095D01*
X132456180Y-107505523D01*
X132456180Y-106886476D01*
X104887780Y-108635704D02*
X105697304Y-108635704D01*
X105792542Y-108588085D01*
X105840161Y-108540466D01*
X105887780Y-108445228D01*
X105887780Y-108254752D01*
X105840161Y-108159514D01*
X105792542Y-108111895D01*
X105697304Y-108064276D01*
X104887780Y-108064276D01*
X105887780Y-107064276D02*
X105887780Y-107635704D01*
X105887780Y-107349990D02*
X104887780Y-107349990D01*
X105030638Y-107445228D01*
X105125876Y-107540466D01*
X105173495Y-107635704D01*
X128223180Y-89658438D02*
X127746990Y-89991771D01*
X128223180Y-90229866D02*
X127223180Y-90229866D01*
X127223180Y-89848914D01*
X127270800Y-89753676D01*
X127318419Y-89706057D01*
X127413657Y-89658438D01*
X127556514Y-89658438D01*
X127651752Y-89706057D01*
X127699371Y-89753676D01*
X127746990Y-89848914D01*
X127746990Y-90229866D01*
X127223180Y-89372723D02*
X128223180Y-89039390D01*
X127223180Y-88706057D01*
X127556514Y-87944152D02*
X128223180Y-87944152D01*
X127175561Y-88182247D02*
X127889847Y-88420342D01*
X127889847Y-87801295D01*
X128146980Y-78711038D02*
X127670790Y-79044371D01*
X128146980Y-79282466D02*
X127146980Y-79282466D01*
X127146980Y-78901514D01*
X127194600Y-78806276D01*
X127242219Y-78758657D01*
X127337457Y-78711038D01*
X127480314Y-78711038D01*
X127575552Y-78758657D01*
X127623171Y-78806276D01*
X127670790Y-78901514D01*
X127670790Y-79282466D01*
X127146980Y-78425323D02*
X128146980Y-78091990D01*
X127146980Y-77758657D01*
X127146980Y-77520561D02*
X127146980Y-76901514D01*
X127527933Y-77234847D01*
X127527933Y-77091990D01*
X127575552Y-76996752D01*
X127623171Y-76949133D01*
X127718409Y-76901514D01*
X127956504Y-76901514D01*
X128051742Y-76949133D01*
X128099361Y-76996752D01*
X128146980Y-77091990D01*
X128146980Y-77377704D01*
X128099361Y-77472942D01*
X128051742Y-77520561D01*
X128146980Y-67789038D02*
X127670790Y-68122371D01*
X128146980Y-68360466D02*
X127146980Y-68360466D01*
X127146980Y-67979514D01*
X127194600Y-67884276D01*
X127242219Y-67836657D01*
X127337457Y-67789038D01*
X127480314Y-67789038D01*
X127575552Y-67836657D01*
X127623171Y-67884276D01*
X127670790Y-67979514D01*
X127670790Y-68360466D01*
X127146980Y-67503323D02*
X128146980Y-67169990D01*
X127146980Y-66836657D01*
X127242219Y-66550942D02*
X127194600Y-66503323D01*
X127146980Y-66408085D01*
X127146980Y-66169990D01*
X127194600Y-66074752D01*
X127242219Y-66027133D01*
X127337457Y-65979514D01*
X127432695Y-65979514D01*
X127575552Y-66027133D01*
X128146980Y-66598561D01*
X128146980Y-65979514D01*
X108411180Y-95297238D02*
X107934990Y-95630571D01*
X108411180Y-95868666D02*
X107411180Y-95868666D01*
X107411180Y-95487714D01*
X107458800Y-95392476D01*
X107506419Y-95344857D01*
X107601657Y-95297238D01*
X107744514Y-95297238D01*
X107839752Y-95344857D01*
X107887371Y-95392476D01*
X107934990Y-95487714D01*
X107934990Y-95868666D01*
X107411180Y-95011523D02*
X108411180Y-94678190D01*
X107411180Y-94344857D01*
X108411180Y-93487714D02*
X108411180Y-94059142D01*
X108411180Y-93773428D02*
X107411180Y-93773428D01*
X107554038Y-93868666D01*
X107649276Y-93963904D01*
X107696895Y-94059142D01*
D12*
X140318371Y-89380190D02*
X140151704Y-89142095D01*
X140032657Y-89380190D02*
X140032657Y-88880190D01*
X140223133Y-88880190D01*
X140270752Y-88904000D01*
X140294561Y-88927809D01*
X140318371Y-88975428D01*
X140318371Y-89046857D01*
X140294561Y-89094476D01*
X140270752Y-89118285D01*
X140223133Y-89142095D01*
X140032657Y-89142095D01*
X140508847Y-88927809D02*
X140532657Y-88904000D01*
X140580276Y-88880190D01*
X140699323Y-88880190D01*
X140746942Y-88904000D01*
X140770752Y-88927809D01*
X140794561Y-88975428D01*
X140794561Y-89023047D01*
X140770752Y-89094476D01*
X140485038Y-89380190D01*
X140794561Y-89380190D01*
X141246942Y-88880190D02*
X141008847Y-88880190D01*
X140985038Y-89118285D01*
X141008847Y-89094476D01*
X141056466Y-89070666D01*
X141175514Y-89070666D01*
X141223133Y-89094476D01*
X141246942Y-89118285D01*
X141270752Y-89165904D01*
X141270752Y-89284952D01*
X141246942Y-89332571D01*
X141223133Y-89356380D01*
X141175514Y-89380190D01*
X141056466Y-89380190D01*
X141008847Y-89356380D01*
X140985038Y-89332571D01*
X144763371Y-87348190D02*
X144596704Y-87110095D01*
X144477657Y-87348190D02*
X144477657Y-86848190D01*
X144668133Y-86848190D01*
X144715752Y-86872000D01*
X144739561Y-86895809D01*
X144763371Y-86943428D01*
X144763371Y-87014857D01*
X144739561Y-87062476D01*
X144715752Y-87086285D01*
X144668133Y-87110095D01*
X144477657Y-87110095D01*
X144953847Y-86895809D02*
X144977657Y-86872000D01*
X145025276Y-86848190D01*
X145144323Y-86848190D01*
X145191942Y-86872000D01*
X145215752Y-86895809D01*
X145239561Y-86943428D01*
X145239561Y-86991047D01*
X145215752Y-87062476D01*
X144930038Y-87348190D01*
X145239561Y-87348190D01*
X145668133Y-87014857D02*
X145668133Y-87348190D01*
X145549085Y-86824380D02*
X145430038Y-87181523D01*
X145739561Y-87181523D01*
X140394571Y-84300190D02*
X140227904Y-84062095D01*
X140108857Y-84300190D02*
X140108857Y-83800190D01*
X140299333Y-83800190D01*
X140346952Y-83824000D01*
X140370761Y-83847809D01*
X140394571Y-83895428D01*
X140394571Y-83966857D01*
X140370761Y-84014476D01*
X140346952Y-84038285D01*
X140299333Y-84062095D01*
X140108857Y-84062095D01*
X140585047Y-83847809D02*
X140608857Y-83824000D01*
X140656476Y-83800190D01*
X140775523Y-83800190D01*
X140823142Y-83824000D01*
X140846952Y-83847809D01*
X140870761Y-83895428D01*
X140870761Y-83943047D01*
X140846952Y-84014476D01*
X140561238Y-84300190D01*
X140870761Y-84300190D01*
X141037428Y-83800190D02*
X141346952Y-83800190D01*
X141180285Y-83990666D01*
X141251714Y-83990666D01*
X141299333Y-84014476D01*
X141323142Y-84038285D01*
X141346952Y-84085904D01*
X141346952Y-84204952D01*
X141323142Y-84252571D01*
X141299333Y-84276380D01*
X141251714Y-84300190D01*
X141108857Y-84300190D01*
X141061238Y-84276380D01*
X141037428Y-84252571D01*
X146022190Y-104740828D02*
X145784095Y-104907495D01*
X146022190Y-105026542D02*
X145522190Y-105026542D01*
X145522190Y-104836066D01*
X145546000Y-104788447D01*
X145569809Y-104764638D01*
X145617428Y-104740828D01*
X145688857Y-104740828D01*
X145736476Y-104764638D01*
X145760285Y-104788447D01*
X145784095Y-104836066D01*
X145784095Y-105026542D01*
X145569809Y-104550352D02*
X145546000Y-104526542D01*
X145522190Y-104478923D01*
X145522190Y-104359876D01*
X145546000Y-104312257D01*
X145569809Y-104288447D01*
X145617428Y-104264638D01*
X145665047Y-104264638D01*
X145736476Y-104288447D01*
X146022190Y-104574161D01*
X146022190Y-104264638D01*
X145569809Y-104074161D02*
X145546000Y-104050352D01*
X145522190Y-104002733D01*
X145522190Y-103883685D01*
X145546000Y-103836066D01*
X145569809Y-103812257D01*
X145617428Y-103788447D01*
X145665047Y-103788447D01*
X145736476Y-103812257D01*
X146022190Y-104097971D01*
X146022190Y-103788447D01*
X144077571Y-93215590D02*
X143910904Y-92977495D01*
X143791857Y-93215590D02*
X143791857Y-92715590D01*
X143982333Y-92715590D01*
X144029952Y-92739400D01*
X144053761Y-92763209D01*
X144077571Y-92810828D01*
X144077571Y-92882257D01*
X144053761Y-92929876D01*
X144029952Y-92953685D01*
X143982333Y-92977495D01*
X143791857Y-92977495D01*
X144268047Y-92763209D02*
X144291857Y-92739400D01*
X144339476Y-92715590D01*
X144458523Y-92715590D01*
X144506142Y-92739400D01*
X144529952Y-92763209D01*
X144553761Y-92810828D01*
X144553761Y-92858447D01*
X144529952Y-92929876D01*
X144244238Y-93215590D01*
X144553761Y-93215590D01*
X145029952Y-93215590D02*
X144744238Y-93215590D01*
X144887095Y-93215590D02*
X144887095Y-92715590D01*
X144839476Y-92787019D01*
X144791857Y-92834638D01*
X144744238Y-92858447D01*
X138768971Y-94841190D02*
X138602304Y-94603095D01*
X138483257Y-94841190D02*
X138483257Y-94341190D01*
X138673733Y-94341190D01*
X138721352Y-94365000D01*
X138745161Y-94388809D01*
X138768971Y-94436428D01*
X138768971Y-94507857D01*
X138745161Y-94555476D01*
X138721352Y-94579285D01*
X138673733Y-94603095D01*
X138483257Y-94603095D01*
X138959447Y-94388809D02*
X138983257Y-94365000D01*
X139030876Y-94341190D01*
X139149923Y-94341190D01*
X139197542Y-94365000D01*
X139221352Y-94388809D01*
X139245161Y-94436428D01*
X139245161Y-94484047D01*
X139221352Y-94555476D01*
X138935638Y-94841190D01*
X139245161Y-94841190D01*
X139554685Y-94341190D02*
X139602304Y-94341190D01*
X139649923Y-94365000D01*
X139673733Y-94388809D01*
X139697542Y-94436428D01*
X139721352Y-94531666D01*
X139721352Y-94650714D01*
X139697542Y-94745952D01*
X139673733Y-94793571D01*
X139649923Y-94817380D01*
X139602304Y-94841190D01*
X139554685Y-94841190D01*
X139507066Y-94817380D01*
X139483257Y-94793571D01*
X139459447Y-94745952D01*
X139435638Y-94650714D01*
X139435638Y-94531666D01*
X139459447Y-94436428D01*
X139483257Y-94388809D01*
X139507066Y-94365000D01*
X139554685Y-94341190D01*
X133358771Y-83868390D02*
X133192104Y-83630295D01*
X133073057Y-83868390D02*
X133073057Y-83368390D01*
X133263533Y-83368390D01*
X133311152Y-83392200D01*
X133334961Y-83416009D01*
X133358771Y-83463628D01*
X133358771Y-83535057D01*
X133334961Y-83582676D01*
X133311152Y-83606485D01*
X133263533Y-83630295D01*
X133073057Y-83630295D01*
X133834961Y-83868390D02*
X133549247Y-83868390D01*
X133692104Y-83868390D02*
X133692104Y-83368390D01*
X133644485Y-83439819D01*
X133596866Y-83487438D01*
X133549247Y-83511247D01*
X134073057Y-83868390D02*
X134168295Y-83868390D01*
X134215914Y-83844580D01*
X134239723Y-83820771D01*
X134287342Y-83749342D01*
X134311152Y-83654104D01*
X134311152Y-83463628D01*
X134287342Y-83416009D01*
X134263533Y-83392200D01*
X134215914Y-83368390D01*
X134120676Y-83368390D01*
X134073057Y-83392200D01*
X134049247Y-83416009D01*
X134025438Y-83463628D01*
X134025438Y-83582676D01*
X134049247Y-83630295D01*
X134073057Y-83654104D01*
X134120676Y-83677914D01*
X134215914Y-83677914D01*
X134263533Y-83654104D01*
X134287342Y-83630295D01*
X134311152Y-83582676D01*
X133358771Y-72870190D02*
X133192104Y-72632095D01*
X133073057Y-72870190D02*
X133073057Y-72370190D01*
X133263533Y-72370190D01*
X133311152Y-72394000D01*
X133334961Y-72417809D01*
X133358771Y-72465428D01*
X133358771Y-72536857D01*
X133334961Y-72584476D01*
X133311152Y-72608285D01*
X133263533Y-72632095D01*
X133073057Y-72632095D01*
X133834961Y-72870190D02*
X133549247Y-72870190D01*
X133692104Y-72870190D02*
X133692104Y-72370190D01*
X133644485Y-72441619D01*
X133596866Y-72489238D01*
X133549247Y-72513047D01*
X134120676Y-72584476D02*
X134073057Y-72560666D01*
X134049247Y-72536857D01*
X134025438Y-72489238D01*
X134025438Y-72465428D01*
X134049247Y-72417809D01*
X134073057Y-72394000D01*
X134120676Y-72370190D01*
X134215914Y-72370190D01*
X134263533Y-72394000D01*
X134287342Y-72417809D01*
X134311152Y-72465428D01*
X134311152Y-72489238D01*
X134287342Y-72536857D01*
X134263533Y-72560666D01*
X134215914Y-72584476D01*
X134120676Y-72584476D01*
X134073057Y-72608285D01*
X134049247Y-72632095D01*
X134025438Y-72679714D01*
X134025438Y-72774952D01*
X134049247Y-72822571D01*
X134073057Y-72846380D01*
X134120676Y-72870190D01*
X134215914Y-72870190D01*
X134263533Y-72846380D01*
X134287342Y-72822571D01*
X134311152Y-72774952D01*
X134311152Y-72679714D01*
X134287342Y-72632095D01*
X134263533Y-72608285D01*
X134215914Y-72584476D01*
X133612771Y-94815790D02*
X133446104Y-94577695D01*
X133327057Y-94815790D02*
X133327057Y-94315790D01*
X133517533Y-94315790D01*
X133565152Y-94339600D01*
X133588961Y-94363409D01*
X133612771Y-94411028D01*
X133612771Y-94482457D01*
X133588961Y-94530076D01*
X133565152Y-94553885D01*
X133517533Y-94577695D01*
X133327057Y-94577695D01*
X134088961Y-94815790D02*
X133803247Y-94815790D01*
X133946104Y-94815790D02*
X133946104Y-94315790D01*
X133898485Y-94387219D01*
X133850866Y-94434838D01*
X133803247Y-94458647D01*
X134255628Y-94315790D02*
X134588961Y-94315790D01*
X134374676Y-94815790D01*
X118525171Y-83614390D02*
X118358504Y-83376295D01*
X118239457Y-83614390D02*
X118239457Y-83114390D01*
X118429933Y-83114390D01*
X118477552Y-83138200D01*
X118501361Y-83162009D01*
X118525171Y-83209628D01*
X118525171Y-83281057D01*
X118501361Y-83328676D01*
X118477552Y-83352485D01*
X118429933Y-83376295D01*
X118239457Y-83376295D01*
X119001361Y-83614390D02*
X118715647Y-83614390D01*
X118858504Y-83614390D02*
X118858504Y-83114390D01*
X118810885Y-83185819D01*
X118763266Y-83233438D01*
X118715647Y-83257247D01*
X119429933Y-83114390D02*
X119334695Y-83114390D01*
X119287076Y-83138200D01*
X119263266Y-83162009D01*
X119215647Y-83233438D01*
X119191838Y-83328676D01*
X119191838Y-83519152D01*
X119215647Y-83566771D01*
X119239457Y-83590580D01*
X119287076Y-83614390D01*
X119382314Y-83614390D01*
X119429933Y-83590580D01*
X119453742Y-83566771D01*
X119477552Y-83519152D01*
X119477552Y-83400104D01*
X119453742Y-83352485D01*
X119429933Y-83328676D01*
X119382314Y-83304866D01*
X119287076Y-83304866D01*
X119239457Y-83328676D01*
X119215647Y-83352485D01*
X119191838Y-83400104D01*
X120430171Y-96187390D02*
X120263504Y-95949295D01*
X120144457Y-96187390D02*
X120144457Y-95687390D01*
X120334933Y-95687390D01*
X120382552Y-95711200D01*
X120406361Y-95735009D01*
X120430171Y-95782628D01*
X120430171Y-95854057D01*
X120406361Y-95901676D01*
X120382552Y-95925485D01*
X120334933Y-95949295D01*
X120144457Y-95949295D01*
X120906361Y-96187390D02*
X120620647Y-96187390D01*
X120763504Y-96187390D02*
X120763504Y-95687390D01*
X120715885Y-95758819D01*
X120668266Y-95806438D01*
X120620647Y-95830247D01*
X121358742Y-95687390D02*
X121120647Y-95687390D01*
X121096838Y-95925485D01*
X121120647Y-95901676D01*
X121168266Y-95877866D01*
X121287314Y-95877866D01*
X121334933Y-95901676D01*
X121358742Y-95925485D01*
X121382552Y-95973104D01*
X121382552Y-96092152D01*
X121358742Y-96139771D01*
X121334933Y-96163580D01*
X121287314Y-96187390D01*
X121168266Y-96187390D01*
X121120647Y-96163580D01*
X121096838Y-96139771D01*
X113673771Y-99768790D02*
X113507104Y-99530695D01*
X113388057Y-99768790D02*
X113388057Y-99268790D01*
X113578533Y-99268790D01*
X113626152Y-99292600D01*
X113649961Y-99316409D01*
X113673771Y-99364028D01*
X113673771Y-99435457D01*
X113649961Y-99483076D01*
X113626152Y-99506885D01*
X113578533Y-99530695D01*
X113388057Y-99530695D01*
X114149961Y-99768790D02*
X113864247Y-99768790D01*
X114007104Y-99768790D02*
X114007104Y-99268790D01*
X113959485Y-99340219D01*
X113911866Y-99387838D01*
X113864247Y-99411647D01*
X114578533Y-99435457D02*
X114578533Y-99768790D01*
X114459485Y-99244980D02*
X114340438Y-99602123D01*
X114649961Y-99602123D01*
X110473371Y-87856190D02*
X110306704Y-87618095D01*
X110187657Y-87856190D02*
X110187657Y-87356190D01*
X110378133Y-87356190D01*
X110425752Y-87380000D01*
X110449561Y-87403809D01*
X110473371Y-87451428D01*
X110473371Y-87522857D01*
X110449561Y-87570476D01*
X110425752Y-87594285D01*
X110378133Y-87618095D01*
X110187657Y-87618095D01*
X110949561Y-87856190D02*
X110663847Y-87856190D01*
X110806704Y-87856190D02*
X110806704Y-87356190D01*
X110759085Y-87427619D01*
X110711466Y-87475238D01*
X110663847Y-87499047D01*
X111116228Y-87356190D02*
X111425752Y-87356190D01*
X111259085Y-87546666D01*
X111330514Y-87546666D01*
X111378133Y-87570476D01*
X111401942Y-87594285D01*
X111425752Y-87641904D01*
X111425752Y-87760952D01*
X111401942Y-87808571D01*
X111378133Y-87832380D01*
X111330514Y-87856190D01*
X111187657Y-87856190D01*
X111140038Y-87832380D01*
X111116228Y-87808571D01*
X113267371Y-65326390D02*
X113100704Y-65088295D01*
X112981657Y-65326390D02*
X112981657Y-64826390D01*
X113172133Y-64826390D01*
X113219752Y-64850200D01*
X113243561Y-64874009D01*
X113267371Y-64921628D01*
X113267371Y-64993057D01*
X113243561Y-65040676D01*
X113219752Y-65064485D01*
X113172133Y-65088295D01*
X112981657Y-65088295D01*
X113743561Y-65326390D02*
X113457847Y-65326390D01*
X113600704Y-65326390D02*
X113600704Y-64826390D01*
X113553085Y-64897819D01*
X113505466Y-64945438D01*
X113457847Y-64969247D01*
X113934038Y-64874009D02*
X113957847Y-64850200D01*
X114005466Y-64826390D01*
X114124514Y-64826390D01*
X114172133Y-64850200D01*
X114195942Y-64874009D01*
X114219752Y-64921628D01*
X114219752Y-64969247D01*
X114195942Y-65040676D01*
X113910228Y-65326390D01*
X114219752Y-65326390D01*
X108136571Y-75003790D02*
X107969904Y-74765695D01*
X107850857Y-75003790D02*
X107850857Y-74503790D01*
X108041333Y-74503790D01*
X108088952Y-74527600D01*
X108112761Y-74551409D01*
X108136571Y-74599028D01*
X108136571Y-74670457D01*
X108112761Y-74718076D01*
X108088952Y-74741885D01*
X108041333Y-74765695D01*
X107850857Y-74765695D01*
X108612761Y-75003790D02*
X108327047Y-75003790D01*
X108469904Y-75003790D02*
X108469904Y-74503790D01*
X108422285Y-74575219D01*
X108374666Y-74622838D01*
X108327047Y-74646647D01*
X109088952Y-75003790D02*
X108803238Y-75003790D01*
X108946095Y-75003790D02*
X108946095Y-74503790D01*
X108898476Y-74575219D01*
X108850857Y-74622838D01*
X108803238Y-74646647D01*
X108288971Y-65275590D02*
X108122304Y-65037495D01*
X108003257Y-65275590D02*
X108003257Y-64775590D01*
X108193733Y-64775590D01*
X108241352Y-64799400D01*
X108265161Y-64823209D01*
X108288971Y-64870828D01*
X108288971Y-64942257D01*
X108265161Y-64989876D01*
X108241352Y-65013685D01*
X108193733Y-65037495D01*
X108003257Y-65037495D01*
X108765161Y-65275590D02*
X108479447Y-65275590D01*
X108622304Y-65275590D02*
X108622304Y-64775590D01*
X108574685Y-64847019D01*
X108527066Y-64894638D01*
X108479447Y-64918447D01*
X109074685Y-64775590D02*
X109122304Y-64775590D01*
X109169923Y-64799400D01*
X109193733Y-64823209D01*
X109217542Y-64870828D01*
X109241352Y-64966066D01*
X109241352Y-65085114D01*
X109217542Y-65180352D01*
X109193733Y-65227971D01*
X109169923Y-65251780D01*
X109122304Y-65275590D01*
X109074685Y-65275590D01*
X109027066Y-65251780D01*
X109003257Y-65227971D01*
X108979447Y-65180352D01*
X108955638Y-65085114D01*
X108955638Y-64966066D01*
X108979447Y-64870828D01*
X109003257Y-64823209D01*
X109027066Y-64799400D01*
X109074685Y-64775590D01*
X108425466Y-70025390D02*
X108258800Y-69787295D01*
X108139752Y-70025390D02*
X108139752Y-69525390D01*
X108330228Y-69525390D01*
X108377847Y-69549200D01*
X108401657Y-69573009D01*
X108425466Y-69620628D01*
X108425466Y-69692057D01*
X108401657Y-69739676D01*
X108377847Y-69763485D01*
X108330228Y-69787295D01*
X108139752Y-69787295D01*
X108663561Y-70025390D02*
X108758800Y-70025390D01*
X108806419Y-70001580D01*
X108830228Y-69977771D01*
X108877847Y-69906342D01*
X108901657Y-69811104D01*
X108901657Y-69620628D01*
X108877847Y-69573009D01*
X108854038Y-69549200D01*
X108806419Y-69525390D01*
X108711180Y-69525390D01*
X108663561Y-69549200D01*
X108639752Y-69573009D01*
X108615942Y-69620628D01*
X108615942Y-69739676D01*
X108639752Y-69787295D01*
X108663561Y-69811104D01*
X108711180Y-69834914D01*
X108806419Y-69834914D01*
X108854038Y-69811104D01*
X108877847Y-69787295D01*
X108901657Y-69739676D01*
X108425466Y-79778990D02*
X108258800Y-79540895D01*
X108139752Y-79778990D02*
X108139752Y-79278990D01*
X108330228Y-79278990D01*
X108377847Y-79302800D01*
X108401657Y-79326609D01*
X108425466Y-79374228D01*
X108425466Y-79445657D01*
X108401657Y-79493276D01*
X108377847Y-79517085D01*
X108330228Y-79540895D01*
X108139752Y-79540895D01*
X108711180Y-79493276D02*
X108663561Y-79469466D01*
X108639752Y-79445657D01*
X108615942Y-79398038D01*
X108615942Y-79374228D01*
X108639752Y-79326609D01*
X108663561Y-79302800D01*
X108711180Y-79278990D01*
X108806419Y-79278990D01*
X108854038Y-79302800D01*
X108877847Y-79326609D01*
X108901657Y-79374228D01*
X108901657Y-79398038D01*
X108877847Y-79445657D01*
X108854038Y-79469466D01*
X108806419Y-79493276D01*
X108711180Y-79493276D01*
X108663561Y-79517085D01*
X108639752Y-79540895D01*
X108615942Y-79588514D01*
X108615942Y-79683752D01*
X108639752Y-79731371D01*
X108663561Y-79755180D01*
X108711180Y-79778990D01*
X108806419Y-79778990D01*
X108854038Y-79755180D01*
X108877847Y-79731371D01*
X108901657Y-79683752D01*
X108901657Y-79588514D01*
X108877847Y-79540895D01*
X108854038Y-79517085D01*
X108806419Y-79493276D01*
X96436666Y-79931390D02*
X96270000Y-79693295D01*
X96150952Y-79931390D02*
X96150952Y-79431390D01*
X96341428Y-79431390D01*
X96389047Y-79455200D01*
X96412857Y-79479009D01*
X96436666Y-79526628D01*
X96436666Y-79598057D01*
X96412857Y-79645676D01*
X96389047Y-79669485D01*
X96341428Y-79693295D01*
X96150952Y-79693295D01*
X96603333Y-79431390D02*
X96936666Y-79431390D01*
X96722380Y-79931390D01*
X102177066Y-71473190D02*
X102010400Y-71235095D01*
X101891352Y-71473190D02*
X101891352Y-70973190D01*
X102081828Y-70973190D01*
X102129447Y-70997000D01*
X102153257Y-71020809D01*
X102177066Y-71068428D01*
X102177066Y-71139857D01*
X102153257Y-71187476D01*
X102129447Y-71211285D01*
X102081828Y-71235095D01*
X101891352Y-71235095D01*
X102605638Y-70973190D02*
X102510400Y-70973190D01*
X102462780Y-70997000D01*
X102438971Y-71020809D01*
X102391352Y-71092238D01*
X102367542Y-71187476D01*
X102367542Y-71377952D01*
X102391352Y-71425571D01*
X102415161Y-71449380D01*
X102462780Y-71473190D01*
X102558019Y-71473190D01*
X102605638Y-71449380D01*
X102629447Y-71425571D01*
X102653257Y-71377952D01*
X102653257Y-71258904D01*
X102629447Y-71211285D01*
X102605638Y-71187476D01*
X102558019Y-71163666D01*
X102462780Y-71163666D01*
X102415161Y-71187476D01*
X102391352Y-71211285D01*
X102367542Y-71258904D01*
X96411266Y-65275590D02*
X96244600Y-65037495D01*
X96125552Y-65275590D02*
X96125552Y-64775590D01*
X96316028Y-64775590D01*
X96363647Y-64799400D01*
X96387457Y-64823209D01*
X96411266Y-64870828D01*
X96411266Y-64942257D01*
X96387457Y-64989876D01*
X96363647Y-65013685D01*
X96316028Y-65037495D01*
X96125552Y-65037495D01*
X96863647Y-64775590D02*
X96625552Y-64775590D01*
X96601742Y-65013685D01*
X96625552Y-64989876D01*
X96673171Y-64966066D01*
X96792219Y-64966066D01*
X96839838Y-64989876D01*
X96863647Y-65013685D01*
X96887457Y-65061304D01*
X96887457Y-65180352D01*
X96863647Y-65227971D01*
X96839838Y-65251780D01*
X96792219Y-65275590D01*
X96673171Y-65275590D01*
X96625552Y-65251780D01*
X96601742Y-65227971D01*
X96411266Y-96796990D02*
X96244600Y-96558895D01*
X96125552Y-96796990D02*
X96125552Y-96296990D01*
X96316028Y-96296990D01*
X96363647Y-96320800D01*
X96387457Y-96344609D01*
X96411266Y-96392228D01*
X96411266Y-96463657D01*
X96387457Y-96511276D01*
X96363647Y-96535085D01*
X96316028Y-96558895D01*
X96125552Y-96558895D01*
X96839838Y-96463657D02*
X96839838Y-96796990D01*
X96720790Y-96273180D02*
X96601742Y-96630323D01*
X96911266Y-96630323D01*
X96411266Y-85036790D02*
X96244600Y-84798695D01*
X96125552Y-85036790D02*
X96125552Y-84536790D01*
X96316028Y-84536790D01*
X96363647Y-84560600D01*
X96387457Y-84584409D01*
X96411266Y-84632028D01*
X96411266Y-84703457D01*
X96387457Y-84751076D01*
X96363647Y-84774885D01*
X96316028Y-84798695D01*
X96125552Y-84798695D01*
X96577933Y-84536790D02*
X96887457Y-84536790D01*
X96720790Y-84727266D01*
X96792219Y-84727266D01*
X96839838Y-84751076D01*
X96863647Y-84774885D01*
X96887457Y-84822504D01*
X96887457Y-84941552D01*
X96863647Y-84989171D01*
X96839838Y-85012980D01*
X96792219Y-85036790D01*
X96649361Y-85036790D01*
X96601742Y-85012980D01*
X96577933Y-84989171D01*
X96487466Y-74978390D02*
X96320800Y-74740295D01*
X96201752Y-74978390D02*
X96201752Y-74478390D01*
X96392228Y-74478390D01*
X96439847Y-74502200D01*
X96463657Y-74526009D01*
X96487466Y-74573628D01*
X96487466Y-74645057D01*
X96463657Y-74692676D01*
X96439847Y-74716485D01*
X96392228Y-74740295D01*
X96201752Y-74740295D01*
X96677942Y-74526009D02*
X96701752Y-74502200D01*
X96749371Y-74478390D01*
X96868419Y-74478390D01*
X96916038Y-74502200D01*
X96939847Y-74526009D01*
X96963657Y-74573628D01*
X96963657Y-74621247D01*
X96939847Y-74692676D01*
X96654133Y-74978390D01*
X96963657Y-74978390D01*
X96411266Y-70050790D02*
X96244600Y-69812695D01*
X96125552Y-70050790D02*
X96125552Y-69550790D01*
X96316028Y-69550790D01*
X96363647Y-69574600D01*
X96387457Y-69598409D01*
X96411266Y-69646028D01*
X96411266Y-69717457D01*
X96387457Y-69765076D01*
X96363647Y-69788885D01*
X96316028Y-69812695D01*
X96125552Y-69812695D01*
X96887457Y-70050790D02*
X96601742Y-70050790D01*
X96744600Y-70050790D02*
X96744600Y-69550790D01*
X96696980Y-69622219D01*
X96649361Y-69669838D01*
X96601742Y-69693647D01*
D11*
X146220619Y-78149438D02*
X146173000Y-78244676D01*
X146077761Y-78339914D01*
X145934904Y-78482771D01*
X145887285Y-78578009D01*
X145887285Y-78673247D01*
X146125380Y-78625628D02*
X146077761Y-78720866D01*
X145982523Y-78816104D01*
X145792047Y-78863723D01*
X145458714Y-78863723D01*
X145268238Y-78816104D01*
X145173000Y-78720866D01*
X145125380Y-78625628D01*
X145125380Y-78435152D01*
X145173000Y-78339914D01*
X145268238Y-78244676D01*
X145458714Y-78197057D01*
X145792047Y-78197057D01*
X145982523Y-78244676D01*
X146077761Y-78339914D01*
X146125380Y-78435152D01*
X146125380Y-78625628D01*
X146125380Y-77720866D02*
X146125380Y-77530390D01*
X146077761Y-77435152D01*
X146030142Y-77387533D01*
X145887285Y-77292295D01*
X145696809Y-77244676D01*
X145315857Y-77244676D01*
X145220619Y-77292295D01*
X145173000Y-77339914D01*
X145125380Y-77435152D01*
X145125380Y-77625628D01*
X145173000Y-77720866D01*
X145220619Y-77768485D01*
X145315857Y-77816104D01*
X145553952Y-77816104D01*
X145649190Y-77768485D01*
X145696809Y-77720866D01*
X145744428Y-77625628D01*
X145744428Y-77435152D01*
X145696809Y-77339914D01*
X145649190Y-77292295D01*
X145553952Y-77244676D01*
X148100219Y-98977438D02*
X148052600Y-99072676D01*
X147957361Y-99167914D01*
X147814504Y-99310771D01*
X147766885Y-99406009D01*
X147766885Y-99501247D01*
X148004980Y-99453628D02*
X147957361Y-99548866D01*
X147862123Y-99644104D01*
X147671647Y-99691723D01*
X147338314Y-99691723D01*
X147147838Y-99644104D01*
X147052600Y-99548866D01*
X147004980Y-99453628D01*
X147004980Y-99263152D01*
X147052600Y-99167914D01*
X147147838Y-99072676D01*
X147338314Y-99025057D01*
X147671647Y-99025057D01*
X147862123Y-99072676D01*
X147957361Y-99167914D01*
X148004980Y-99263152D01*
X148004980Y-99453628D01*
X147433552Y-98453628D02*
X147385933Y-98548866D01*
X147338314Y-98596485D01*
X147243076Y-98644104D01*
X147195457Y-98644104D01*
X147100219Y-98596485D01*
X147052600Y-98548866D01*
X147004980Y-98453628D01*
X147004980Y-98263152D01*
X147052600Y-98167914D01*
X147100219Y-98120295D01*
X147195457Y-98072676D01*
X147243076Y-98072676D01*
X147338314Y-98120295D01*
X147385933Y-98167914D01*
X147433552Y-98263152D01*
X147433552Y-98453628D01*
X147481171Y-98548866D01*
X147528790Y-98596485D01*
X147624028Y-98644104D01*
X147814504Y-98644104D01*
X147909742Y-98596485D01*
X147957361Y-98548866D01*
X148004980Y-98453628D01*
X148004980Y-98263152D01*
X147957361Y-98167914D01*
X147909742Y-98120295D01*
X147814504Y-98072676D01*
X147624028Y-98072676D01*
X147528790Y-98120295D01*
X147481171Y-98167914D01*
X147433552Y-98263152D01*
X137584619Y-89249238D02*
X137537000Y-89344476D01*
X137441761Y-89439714D01*
X137298904Y-89582571D01*
X137251285Y-89677809D01*
X137251285Y-89773047D01*
X137489380Y-89725428D02*
X137441761Y-89820666D01*
X137346523Y-89915904D01*
X137156047Y-89963523D01*
X136822714Y-89963523D01*
X136632238Y-89915904D01*
X136537000Y-89820666D01*
X136489380Y-89725428D01*
X136489380Y-89534952D01*
X136537000Y-89439714D01*
X136632238Y-89344476D01*
X136822714Y-89296857D01*
X137156047Y-89296857D01*
X137346523Y-89344476D01*
X137441761Y-89439714D01*
X137489380Y-89534952D01*
X137489380Y-89725428D01*
X136489380Y-88963523D02*
X136489380Y-88296857D01*
X137489380Y-88725428D01*
X137635419Y-78251038D02*
X137587800Y-78346276D01*
X137492561Y-78441514D01*
X137349704Y-78584371D01*
X137302085Y-78679609D01*
X137302085Y-78774847D01*
X137540180Y-78727228D02*
X137492561Y-78822466D01*
X137397323Y-78917704D01*
X137206847Y-78965323D01*
X136873514Y-78965323D01*
X136683038Y-78917704D01*
X136587800Y-78822466D01*
X136540180Y-78727228D01*
X136540180Y-78536752D01*
X136587800Y-78441514D01*
X136683038Y-78346276D01*
X136873514Y-78298657D01*
X137206847Y-78298657D01*
X137397323Y-78346276D01*
X137492561Y-78441514D01*
X137540180Y-78536752D01*
X137540180Y-78727228D01*
X136540180Y-77441514D02*
X136540180Y-77631990D01*
X136587800Y-77727228D01*
X136635419Y-77774847D01*
X136778276Y-77870085D01*
X136968752Y-77917704D01*
X137349704Y-77917704D01*
X137444942Y-77870085D01*
X137492561Y-77822466D01*
X137540180Y-77727228D01*
X137540180Y-77536752D01*
X137492561Y-77441514D01*
X137444942Y-77393895D01*
X137349704Y-77346276D01*
X137111609Y-77346276D01*
X137016371Y-77393895D01*
X136968752Y-77441514D01*
X136921133Y-77536752D01*
X136921133Y-77727228D01*
X136968752Y-77822466D01*
X137016371Y-77870085D01*
X137111609Y-77917704D01*
X137635419Y-67049638D02*
X137587800Y-67144876D01*
X137492561Y-67240114D01*
X137349704Y-67382971D01*
X137302085Y-67478209D01*
X137302085Y-67573447D01*
X137540180Y-67525828D02*
X137492561Y-67621066D01*
X137397323Y-67716304D01*
X137206847Y-67763923D01*
X136873514Y-67763923D01*
X136683038Y-67716304D01*
X136587800Y-67621066D01*
X136540180Y-67525828D01*
X136540180Y-67335352D01*
X136587800Y-67240114D01*
X136683038Y-67144876D01*
X136873514Y-67097257D01*
X137206847Y-67097257D01*
X137397323Y-67144876D01*
X137492561Y-67240114D01*
X137540180Y-67335352D01*
X137540180Y-67525828D01*
X136540180Y-66192495D02*
X136540180Y-66668685D01*
X137016371Y-66716304D01*
X136968752Y-66668685D01*
X136921133Y-66573447D01*
X136921133Y-66335352D01*
X136968752Y-66240114D01*
X137016371Y-66192495D01*
X137111609Y-66144876D01*
X137349704Y-66144876D01*
X137444942Y-66192495D01*
X137492561Y-66240114D01*
X137540180Y-66335352D01*
X137540180Y-66573447D01*
X137492561Y-66668685D01*
X137444942Y-66716304D01*
X117772619Y-93745038D02*
X117725000Y-93840276D01*
X117629761Y-93935514D01*
X117486904Y-94078371D01*
X117439285Y-94173609D01*
X117439285Y-94268847D01*
X117677380Y-94221228D02*
X117629761Y-94316466D01*
X117534523Y-94411704D01*
X117344047Y-94459323D01*
X117010714Y-94459323D01*
X116820238Y-94411704D01*
X116725000Y-94316466D01*
X116677380Y-94221228D01*
X116677380Y-94030752D01*
X116725000Y-93935514D01*
X116820238Y-93840276D01*
X117010714Y-93792657D01*
X117344047Y-93792657D01*
X117534523Y-93840276D01*
X117629761Y-93935514D01*
X117677380Y-94030752D01*
X117677380Y-94221228D01*
X117010714Y-92935514D02*
X117677380Y-92935514D01*
X116629761Y-93173609D02*
X117344047Y-93411704D01*
X117344047Y-92792657D01*
X106215619Y-76676238D02*
X106168000Y-76771476D01*
X106072761Y-76866714D01*
X105929904Y-77009571D01*
X105882285Y-77104809D01*
X105882285Y-77200047D01*
X106120380Y-77152428D02*
X106072761Y-77247666D01*
X105977523Y-77342904D01*
X105787047Y-77390523D01*
X105453714Y-77390523D01*
X105263238Y-77342904D01*
X105168000Y-77247666D01*
X105120380Y-77152428D01*
X105120380Y-76961952D01*
X105168000Y-76866714D01*
X105263238Y-76771476D01*
X105453714Y-76723857D01*
X105787047Y-76723857D01*
X105977523Y-76771476D01*
X106072761Y-76866714D01*
X106120380Y-76961952D01*
X106120380Y-77152428D01*
X105120380Y-76390523D02*
X105120380Y-75771476D01*
X105501333Y-76104809D01*
X105501333Y-75961952D01*
X105548952Y-75866714D01*
X105596571Y-75819095D01*
X105691809Y-75771476D01*
X105929904Y-75771476D01*
X106025142Y-75819095D01*
X106072761Y-75866714D01*
X106120380Y-75961952D01*
X106120380Y-76247666D01*
X106072761Y-76342904D01*
X106025142Y-76390523D01*
X105936219Y-65881238D02*
X105888600Y-65976476D01*
X105793361Y-66071714D01*
X105650504Y-66214571D01*
X105602885Y-66309809D01*
X105602885Y-66405047D01*
X105840980Y-66357428D02*
X105793361Y-66452666D01*
X105698123Y-66547904D01*
X105507647Y-66595523D01*
X105174314Y-66595523D01*
X104983838Y-66547904D01*
X104888600Y-66452666D01*
X104840980Y-66357428D01*
X104840980Y-66166952D01*
X104888600Y-66071714D01*
X104983838Y-65976476D01*
X105174314Y-65928857D01*
X105507647Y-65928857D01*
X105698123Y-65976476D01*
X105793361Y-66071714D01*
X105840980Y-66166952D01*
X105840980Y-66357428D01*
X104936219Y-65547904D02*
X104888600Y-65500285D01*
X104840980Y-65405047D01*
X104840980Y-65166952D01*
X104888600Y-65071714D01*
X104936219Y-65024095D01*
X105031457Y-64976476D01*
X105126695Y-64976476D01*
X105269552Y-65024095D01*
X105840980Y-65595523D01*
X105840980Y-64976476D01*
X101846819Y-90747838D02*
X101799200Y-90843076D01*
X101703961Y-90938314D01*
X101561104Y-91081171D01*
X101513485Y-91176409D01*
X101513485Y-91271647D01*
X101751580Y-91224028D02*
X101703961Y-91319266D01*
X101608723Y-91414504D01*
X101418247Y-91462123D01*
X101084914Y-91462123D01*
X100894438Y-91414504D01*
X100799200Y-91319266D01*
X100751580Y-91224028D01*
X100751580Y-91033552D01*
X100799200Y-90938314D01*
X100894438Y-90843076D01*
X101084914Y-90795457D01*
X101418247Y-90795457D01*
X101608723Y-90843076D01*
X101703961Y-90938314D01*
X101751580Y-91033552D01*
X101751580Y-91224028D01*
X101751580Y-89843076D02*
X101751580Y-90414504D01*
X101751580Y-90128790D02*
X100751580Y-90128790D01*
X100894438Y-90224028D01*
X100989676Y-90319266D01*
X101037295Y-90414504D01*
X90536780Y-85829733D02*
X91251066Y-85829733D01*
X91393923Y-85877352D01*
X91489161Y-85972590D01*
X91536780Y-86115447D01*
X91536780Y-86210685D01*
X90536780Y-85448780D02*
X90536780Y-84829733D01*
X90917733Y-85163066D01*
X90917733Y-85020209D01*
X90965352Y-84924971D01*
X91012971Y-84877352D01*
X91108209Y-84829733D01*
X91346304Y-84829733D01*
X91441542Y-84877352D01*
X91489161Y-84924971D01*
X91536780Y-85020209D01*
X91536780Y-85305923D01*
X91489161Y-85401161D01*
X91441542Y-85448780D01*
X149058380Y-77549333D02*
X149772666Y-77549333D01*
X149915523Y-77596952D01*
X150010761Y-77692190D01*
X150058380Y-77835047D01*
X150058380Y-77930285D01*
X149153619Y-77120761D02*
X149106000Y-77073142D01*
X149058380Y-76977904D01*
X149058380Y-76739809D01*
X149106000Y-76644571D01*
X149153619Y-76596952D01*
X149248857Y-76549333D01*
X149344095Y-76549333D01*
X149486952Y-76596952D01*
X150058380Y-77168380D01*
X150058380Y-76549333D01*
X90485980Y-74018733D02*
X91200266Y-74018733D01*
X91343123Y-74066352D01*
X91438361Y-74161590D01*
X91485980Y-74304447D01*
X91485980Y-74399685D01*
X91485980Y-73018733D02*
X91485980Y-73590161D01*
X91485980Y-73304447D02*
X90485980Y-73304447D01*
X90628838Y-73399685D01*
X90724076Y-73494923D01*
X90771695Y-73590161D01*
D12*
X144120371Y-111191933D02*
X144144180Y-111215742D01*
X144167990Y-111287171D01*
X144167990Y-111334790D01*
X144144180Y-111406219D01*
X144096561Y-111453838D01*
X144048942Y-111477647D01*
X143953704Y-111501457D01*
X143882276Y-111501457D01*
X143787038Y-111477647D01*
X143739419Y-111453838D01*
X143691800Y-111406219D01*
X143667990Y-111334790D01*
X143667990Y-111287171D01*
X143691800Y-111215742D01*
X143715609Y-111191933D01*
X144167990Y-110953838D02*
X144167990Y-110858600D01*
X144144180Y-110810980D01*
X144120371Y-110787171D01*
X144048942Y-110739552D01*
X143953704Y-110715742D01*
X143763228Y-110715742D01*
X143715609Y-110739552D01*
X143691800Y-110763361D01*
X143667990Y-110810980D01*
X143667990Y-110906219D01*
X143691800Y-110953838D01*
X143715609Y-110977647D01*
X143763228Y-111001457D01*
X143882276Y-111001457D01*
X143929895Y-110977647D01*
X143953704Y-110953838D01*
X143977514Y-110906219D01*
X143977514Y-110810980D01*
X143953704Y-110763361D01*
X143929895Y-110739552D01*
X143882276Y-110715742D01*
X118720371Y-111445933D02*
X118744180Y-111469742D01*
X118767990Y-111541171D01*
X118767990Y-111588790D01*
X118744180Y-111660219D01*
X118696561Y-111707838D01*
X118648942Y-111731647D01*
X118553704Y-111755457D01*
X118482276Y-111755457D01*
X118387038Y-111731647D01*
X118339419Y-111707838D01*
X118291800Y-111660219D01*
X118267990Y-111588790D01*
X118267990Y-111541171D01*
X118291800Y-111469742D01*
X118315609Y-111445933D01*
X118482276Y-111160219D02*
X118458466Y-111207838D01*
X118434657Y-111231647D01*
X118387038Y-111255457D01*
X118363228Y-111255457D01*
X118315609Y-111231647D01*
X118291800Y-111207838D01*
X118267990Y-111160219D01*
X118267990Y-111064980D01*
X118291800Y-111017361D01*
X118315609Y-110993552D01*
X118363228Y-110969742D01*
X118387038Y-110969742D01*
X118434657Y-110993552D01*
X118458466Y-111017361D01*
X118482276Y-111064980D01*
X118482276Y-111160219D01*
X118506085Y-111207838D01*
X118529895Y-111231647D01*
X118577514Y-111255457D01*
X118672752Y-111255457D01*
X118720371Y-111231647D01*
X118744180Y-111207838D01*
X118767990Y-111160219D01*
X118767990Y-111064980D01*
X118744180Y-111017361D01*
X118720371Y-110993552D01*
X118672752Y-110969742D01*
X118577514Y-110969742D01*
X118529895Y-110993552D01*
X118506085Y-111017361D01*
X118482276Y-111064980D01*
X139210266Y-72746371D02*
X139186457Y-72770180D01*
X139115028Y-72793990D01*
X139067409Y-72793990D01*
X138995980Y-72770180D01*
X138948361Y-72722561D01*
X138924552Y-72674942D01*
X138900742Y-72579704D01*
X138900742Y-72508276D01*
X138924552Y-72413038D01*
X138948361Y-72365419D01*
X138995980Y-72317800D01*
X139067409Y-72293990D01*
X139115028Y-72293990D01*
X139186457Y-72317800D01*
X139210266Y-72341609D01*
X139376933Y-72293990D02*
X139710266Y-72293990D01*
X139495980Y-72793990D01*
X133800066Y-99848171D02*
X133776257Y-99871980D01*
X133704828Y-99895790D01*
X133657209Y-99895790D01*
X133585780Y-99871980D01*
X133538161Y-99824361D01*
X133514352Y-99776742D01*
X133490542Y-99681504D01*
X133490542Y-99610076D01*
X133514352Y-99514838D01*
X133538161Y-99467219D01*
X133585780Y-99419600D01*
X133657209Y-99395790D01*
X133704828Y-99395790D01*
X133776257Y-99419600D01*
X133800066Y-99443409D01*
X134228638Y-99395790D02*
X134133400Y-99395790D01*
X134085780Y-99419600D01*
X134061971Y-99443409D01*
X134014352Y-99514838D01*
X133990542Y-99610076D01*
X133990542Y-99800552D01*
X134014352Y-99848171D01*
X134038161Y-99871980D01*
X134085780Y-99895790D01*
X134181019Y-99895790D01*
X134228638Y-99871980D01*
X134252447Y-99848171D01*
X134276257Y-99800552D01*
X134276257Y-99681504D01*
X134252447Y-99633885D01*
X134228638Y-99610076D01*
X134181019Y-99586266D01*
X134085780Y-99586266D01*
X134038161Y-99610076D01*
X134014352Y-99633885D01*
X133990542Y-99681504D01*
X127094466Y-99848171D02*
X127070657Y-99871980D01*
X126999228Y-99895790D01*
X126951609Y-99895790D01*
X126880180Y-99871980D01*
X126832561Y-99824361D01*
X126808752Y-99776742D01*
X126784942Y-99681504D01*
X126784942Y-99610076D01*
X126808752Y-99514838D01*
X126832561Y-99467219D01*
X126880180Y-99419600D01*
X126951609Y-99395790D01*
X126999228Y-99395790D01*
X127070657Y-99419600D01*
X127094466Y-99443409D01*
X127546847Y-99395790D02*
X127308752Y-99395790D01*
X127284942Y-99633885D01*
X127308752Y-99610076D01*
X127356371Y-99586266D01*
X127475419Y-99586266D01*
X127523038Y-99610076D01*
X127546847Y-99633885D01*
X127570657Y-99681504D01*
X127570657Y-99800552D01*
X127546847Y-99848171D01*
X127523038Y-99871980D01*
X127475419Y-99895790D01*
X127356371Y-99895790D01*
X127308752Y-99871980D01*
X127284942Y-99848171D01*
X118864866Y-89281771D02*
X118841057Y-89305580D01*
X118769628Y-89329390D01*
X118722009Y-89329390D01*
X118650580Y-89305580D01*
X118602961Y-89257961D01*
X118579152Y-89210342D01*
X118555342Y-89115104D01*
X118555342Y-89043676D01*
X118579152Y-88948438D01*
X118602961Y-88900819D01*
X118650580Y-88853200D01*
X118722009Y-88829390D01*
X118769628Y-88829390D01*
X118841057Y-88853200D01*
X118864866Y-88877009D01*
X119293438Y-88996057D02*
X119293438Y-89329390D01*
X119174390Y-88805580D02*
X119055342Y-89162723D01*
X119364866Y-89162723D01*
X118737866Y-77877171D02*
X118714057Y-77900980D01*
X118642628Y-77924790D01*
X118595009Y-77924790D01*
X118523580Y-77900980D01*
X118475961Y-77853361D01*
X118452152Y-77805742D01*
X118428342Y-77710504D01*
X118428342Y-77639076D01*
X118452152Y-77543838D01*
X118475961Y-77496219D01*
X118523580Y-77448600D01*
X118595009Y-77424790D01*
X118642628Y-77424790D01*
X118714057Y-77448600D01*
X118737866Y-77472409D01*
X118904533Y-77424790D02*
X119214057Y-77424790D01*
X119047390Y-77615266D01*
X119118819Y-77615266D01*
X119166438Y-77639076D01*
X119190247Y-77662885D01*
X119214057Y-77710504D01*
X119214057Y-77829552D01*
X119190247Y-77877171D01*
X119166438Y-77900980D01*
X119118819Y-77924790D01*
X118975961Y-77924790D01*
X118928342Y-77900980D01*
X118904533Y-77877171D01*
X118204466Y-65278771D02*
X118180657Y-65302580D01*
X118109228Y-65326390D01*
X118061609Y-65326390D01*
X117990180Y-65302580D01*
X117942561Y-65254961D01*
X117918752Y-65207342D01*
X117894942Y-65112104D01*
X117894942Y-65040676D01*
X117918752Y-64945438D01*
X117942561Y-64897819D01*
X117990180Y-64850200D01*
X118061609Y-64826390D01*
X118109228Y-64826390D01*
X118180657Y-64850200D01*
X118204466Y-64874009D01*
X118394942Y-64874009D02*
X118418752Y-64850200D01*
X118466371Y-64826390D01*
X118585419Y-64826390D01*
X118633038Y-64850200D01*
X118656847Y-64874009D01*
X118680657Y-64921628D01*
X118680657Y-64969247D01*
X118656847Y-65040676D01*
X118371133Y-65326390D01*
X118680657Y-65326390D01*
X104539266Y-87757771D02*
X104515457Y-87781580D01*
X104444028Y-87805390D01*
X104396409Y-87805390D01*
X104324980Y-87781580D01*
X104277361Y-87733961D01*
X104253552Y-87686342D01*
X104229742Y-87591104D01*
X104229742Y-87519676D01*
X104253552Y-87424438D01*
X104277361Y-87376819D01*
X104324980Y-87329200D01*
X104396409Y-87305390D01*
X104444028Y-87305390D01*
X104515457Y-87329200D01*
X104539266Y-87353009D01*
X105015457Y-87805390D02*
X104729742Y-87805390D01*
X104872600Y-87805390D02*
X104872600Y-87305390D01*
X104824980Y-87376819D01*
X104777361Y-87424438D01*
X104729742Y-87448247D01*
M02*
